<?xml version="1.0" encoding="utf-8"?>
<!-- Generator: Adobe Illustrator 16.0.0, SVG Export Plug-In . SVG Version: 6.00 Build 0)  -->
<!DOCTYPE svg PUBLIC "-//W3C//DTD SVG 1.1//EN" "http://www.w3.org/Graphics/SVG/1.1/DTD/svg11.dtd">
<svg version="1.1" id="Layer_1" xmlns="http://www.w3.org/2000/svg" xmlns:xlink="http://www.w3.org/1999/xlink" x="0px" y="0px"
	 width="508.616px" height="89.469px" viewBox="2.202 211.307 508.616 89.469"
	 enable-background="new 2.202 211.307 508.616 89.469" xml:space="preserve">
<g id="Shape_1">
	<g>
		<path fill="#00CC00" d="M336.311,255.854c-1.463-0.804-3.145-1.17-4.826-1.536c-9.069-2.341-18.286-0.585-26.844-4.315
			c-0.805-0.439-1.608-0.951-2.414-1.609c-0.658-0.658-1.315-1.316-1.901-2.048c-0.585-0.731-1.097-1.463-1.535-2.268
			c-7.826-10.386-2.487-22.674,2.998-32.475c-0.146-0.366-0.438-0.366-0.951-0.146c-8.776,7.607-14.114,18.432-13.385,30.354
			c-0.072,0.878-0.22,1.902-0.438,2.78c-0.291,0.877-0.73,1.755-1.535,2.194c-0.586,0.438-1.244,0.804-1.976,1.097
			c-1.392,0.512-2.999,0.731-4.39,0.804c-9.801,0.22-18.506-4.974-28.306-6.948c-0.951,0-2.048-0.22-2.925,0.219
			c4.827,9.216,15.872,11.557,23.991,16.75c0.805,0.438,1.536,0.951,2.193,1.463c0.658,0.514,1.316,1.023,1.901,1.609
			c1.609,1.755,2.269,3.584,2.194,5.412c0,0.951-0.219,1.901-0.512,2.853c-0.439,0.878-1.023,1.756-1.537,2.634
			c-0.584,0.805-1.17,1.608-1.828,2.413c-7.387,8.267-18.87,13.824-22.747,24.649c1.463,0.22,2.78-0.366,3.877-1.17
			c7.972-6.51,15.872-12.143,25.015-16.166c0.879-0.364,1.682-0.729,2.562-1.096c0.877-0.367,1.682-0.66,2.56-1.024
			c0.879-0.293,1.756-0.513,2.633-0.658c3.512-0.585,6.877,0.293,9.729,4.17c0.658,0.729,1.244,1.535,1.829,2.413
			c2.999,4.242,5.485,9.289,8.851,12.581c1.098,0.95,2.926,2.853,3.511,1.535c0.146-0.22,0.221-0.438,0.292-0.729
			c-1.022-0.222-1.827-0.88-2.56-1.757c-3.511-3.948-6.144-10.387-9.509-15.506c-0.585-0.879-1.098-1.685-1.756-2.414
			c-2.705-4.315-7.533-5.778-11.994-4.828c-0.732,0.146-1.463,0.366-2.195,0.658c-0.73,0.366-1.535,0.805-2.268,1.171
			c-0.73,0.438-1.463,0.878-2.193,1.316c-8.924,5.925-17.773,11.63-25.162,19.529c5.34-9.437,14.775-14.264,22.529-20.992
			c0.804-0.806,1.607-1.608,2.34-2.414c0.73-0.879,1.463-1.756,2.048-2.633c0.438-0.658,0.951-1.316,1.317-2.049
			c0.438-0.73,0.877-1.39,1.242-2.193c1.098-2.487,0.586-5.926-2.268-7.021c-0.513-0.293-1.097-0.659-1.609-0.951
			c-1.097-0.585-2.193-1.097-3.363-1.607c-0.732-0.366-1.536-0.658-2.268-0.951c-6.729-2.561-13.386-5.486-20.042-8.558
			c7.24,0.951,13.896,3.657,20.772,5.705c0.804,0.22,1.607,0.439,2.486,0.585c0.806,0.146,1.608,0.292,2.486,0.438
			c2.049,0.22,4.242,0.366,6.217-0.073c0.806-0.146,1.609-0.512,2.342-0.878c0.73-0.439,1.39-1.024,2.048-1.755
			c0.364-0.585,0.657-1.316,0.878-2.121c0.146-1.682,0.072-3.438-0.073-5.193c-0.073-0.877-0.146-1.755-0.219-2.633
			c-0.222-3.218-1.171-6.291-1.171-9.582c0.585,3.438,1.683,6.949,2.486,10.313c0.219,0.951,0.438,1.901,0.658,2.853
			c0.438,1.901,0.951,3.73,1.389,5.559c0.293,1.024,0.732,1.829,1.244,2.487c0.731,0.585,1.537,1.024,2.34,1.39
			c1.977,0.659,4.023,1.39,6.072,1.097c1.17-0.073,2.34-0.219,3.511-0.292c8.339-0.805,16.604-1.902,24.941-0.366
			c-6.729,1.463-14.263,0.877-20.919,2.853c-0.951,0.293-1.829,0.657-2.779,1.098c-9.582,10.459,2.634,26.111,3.219,38.838
			c2.706-7.752-1.536-16.383-2.049-24.722c-0.364-3.292-0.364-6.729,1.901-9.145c0.805-0.512,1.609-0.949,2.414-1.315
			c6.729-2.927,14.629-2.634,21.577-5.119C337.993,258.121,337.262,256.439,336.311,255.854z M312.905,299.594c0,0,0-0.221,0-0.586
			c0-0.072,0-0.146,0-0.146c-0.073,0.221-0.146,0.513-0.293,0.732C312.686,299.52,312.832,299.594,312.905,299.594z"/>
	</g>
</g>
<g>
	<path fill="#002400" stroke="#FFFFFF" stroke-miterlimit="10" d="M51.712,222.574c0.512,4.828,0.731,9.508,0.731,14.19
		c0,17.993-3.438,35.767-10.313,53.466h-0.073c0.439-4.461,0.731-8.922,0.878-13.457c0.146-4.463,0-8.998-0.293-13.531
		l-24.064-5.633c-1.609,11.046-4.535,21.942-8.777,32.695H9.728c0.512-5.705,0.805-11.41,0.805-17.188
		c0-16.457-2.56-31.232-7.68-44.178c3.657-1.39,9.216-3.438,16.604-6.29c0.512,4.681,0.731,9.362,0.731,14.117
		c0,5.851-0.366,11.776-1.097,17.627l21.796-5.924c-1.39-6.875-3.292-13.385-5.705-19.529
		C38.839,227.474,44.325,225.426,51.712,222.574z"/>
	<path fill="#002400" stroke="#FFFFFF" stroke-miterlimit="10" d="M109.495,284.745l-17.334,3.804
		c0.146-2.049,0.292-4.316,0.292-6.949c0-1.463,0-3.145-0.073-4.826l-28.818,3.511l-1.536,5.12
		c-0.146,1.171-0.512,2.779-1.024,4.974l-0.292-0.071c-0.439-25.162,5.339-47.982,17.188-68.537l0.731-0.805
		C94.793,237.349,105.033,258.633,109.495,284.745z M92.087,273.408c-0.878-10.752-3.218-23.113-7.095-37.011
		c-6.802,7.68-12.727,18.505-17.701,32.402L92.087,273.408z"/>
	<path fill="#002400" stroke="#FFFFFF" stroke-miterlimit="10" d="M162.304,289.279c-18.798-4.168-35.401-12.652-49.811-25.526
		c0.585-0.438,1.463-1.17,2.56-2.121c13.897-19.822,28.087-33.572,42.642-41.252c0.585,4.169,1.39,10.533,2.414,18.944
		c-11.337,1.829-22.601,6.583-33.719,14.19c10.533,16.238,22.455,28.161,35.84,35.694v0.071H162.304L162.304,289.279z"/>
	<path fill="#002400" stroke="#FFFFFF" stroke-miterlimit="10" d="M225.719,296.96c-17.847-9.946-31.671-22.089-41.545-36.498
		c-1.683,10.095-4.828,20.407-9.509,30.793h-0.073c1.244-8.631,1.683-16.97,1.39-25.015c-4.023,2.705-7.753,4.974-11.264,6.947
		v-0.072c3.657-3.364,7.314-7.096,11.044-11.117c-0.877-11.264-3.438-22.163-7.607-32.769c2.707-0.951,5.486-1.975,8.265-2.999
		l8.338-3.072c0.658,5.559,1.024,11.045,1.024,16.458c0,3.657-0.146,7.241-0.439,10.752c6.803-9.289,12.215-19.237,16.238-29.916
		l8.119,2.121c2.633,0.731,5.339,1.39,8.045,2.048c-8.192,12.142-17.92,22.894-29.184,32.256c6.437-0.146,11.41-0.439,14.774-0.731
		c2.341,8.777,5.047,16.165,8.119,22.016c3.657,7.021,8.412,13.238,14.336,18.578v0.22H225.719L225.719,296.96z"/>
	<path fill="#002400" stroke="#FFFFFF" stroke-miterlimit="10" d="M259.145,252.563l-35.035,11.044l-0.439-18.212L259.145,252.563z"
		/>
	<path fill="#002400" stroke="#FFFFFF" stroke-miterlimit="10" d="M307.639,272.969c-0.585,4.096-1.536,10.167-2.779,18.213
		c-8.118-5.705-16.75-8.558-25.893-8.558c-2.121,0-4.096,0.146-5.998,0.438c-1.9,0.293-3.584,0.657-5.119,1.098v-0.146
		c1.316-1.17,2.998-2.486,5.047-3.877c0.146-8.41-0.586-16.384-2.34-23.698l-3-0.658v-0.073l2.633-0.731
		c-1.534-5.778-3.803-11.63-6.582-17.408c1.39-0.658,3.438-1.682,6.218-2.999c-2.927-1.097-5.778-2.487-8.412-4.169l0,0
		c1.829,0.146,3.658,0.292,5.413,0.292c12.945,0,24.576-4.388,35.035-13.239l2.56,8.923c0.879,2.926,1.756,5.852,2.634,8.777
		c-6.144,2.121-12.215,3.218-18.211,3.218c-3.951,0-7.828-0.512-11.703-1.463c0.877,5.486,1.242,10.825,1.242,15.872l25.234-6.729
		l-2.999,17.042l-22.382-4.9c-0.512,6.949-1.756,13.897-3.73,20.92c7.534-4.828,15.434-7.168,23.553-7.168
		C301.202,271.945,304.42,272.311,307.639,272.969z"/>
	<path fill="#002400" stroke="#FFFFFF" stroke-miterlimit="10" d="M350.939,252.563l-35.035,11.044l-0.439-18.212L350.939,252.563z"
		/>
	<path fill="#002400" stroke="#FFFFFF" stroke-miterlimit="10" d="M404.334,269.971c-1.171,0.877-2.926,2.047-5.267,3.73
		c1.097,4.168,2.048,7.387,2.778,9.654c-5.705,1.901-11.337,2.853-16.969,2.853c-5.193,0-10.313-0.878-15.434-2.634
		c0.293,0.805,0.73,1.684,1.242,2.634h-14.043c-0.072-0.878-0.072-1.755-0.072-2.634c0-9.729,4.242-18.285,12.652-25.526h0.146
		c-1.901,4.462-2.926,8.777-2.926,12.873c0,2.56,0.365,5.192,1.171,7.899c5.777-0.365,11.264-1.756,16.384-4.17
		c-3.364-11.409-8.924-21.21-16.604-29.402c-2.926-3.145-6.437-6.217-10.604-9.362v-0.073l5.852,1.463
		c-0.513-1.609-1.023-3.292-1.535-5.047l-1.464-5.12c5.705-1.975,11.337-2.999,16.97-2.999c5.34,0,10.604,0.877,15.872,2.706
		c-0.951-1.902-1.756-3.292-2.342-4.242c1.536-0.146,3.877-0.292,6.949-0.585c3.071-0.293,5.412-0.439,6.948-0.585
		c0.22,1.609,0.366,3.218,0.366,4.754c0,8.85-3.657,16.969-11.045,24.283h0.146c1.097-2.999,1.755-6.071,1.975-9.289
		c0.221-3.145-0.146-6.363-1.097-9.801c-8.631,0.512-16.75,3.291-24.356,8.411C384.438,245.76,395.85,255.781,404.334,269.971z"/>
	<path fill="#002400" stroke="#FFFFFF" stroke-miterlimit="10" d="M465.555,225.353c-7.827,4.169-15.727,7.388-23.553,9.509
		c0,2.121,0,4.169,0,6.217c0,16.677-3.438,33.134-10.386,49.298h-0.293c1.023-9.729,1.315-18.505,0.805-26.258
		c-0.585-8.777-2.56-17.555-5.852-26.332c-3.805,0.438-7.606,0.658-11.337,0.658c-2.049,0-4.097-0.073-6.071-0.146
		c0.73-2.779,1.463-5.559,2.268-8.338l2.341-8.338c8.777,3.511,17.481,5.413,26.187,5.632c8.631,0.219,17.262-0.439,25.893-1.975
		L465.555,225.353L465.555,225.353z"/>
	<path fill="#002400" stroke="#FFFFFF" stroke-miterlimit="10" d="M510.244,284.745l-17.334,3.804
		c0.146-2.049,0.292-4.316,0.292-6.949c0-1.463,0-3.145-0.073-4.826l-28.818,3.511l-1.535,5.12
		c-0.146,1.171-0.513,2.779-1.023,4.974l-0.293-0.071c-0.438-25.162,5.34-47.982,17.188-68.537l0.731-0.805
		C495.543,237.349,505.783,258.633,510.244,284.745z M492.91,273.408c-0.878-10.752-3.219-23.113-7.096-37.011
		c-6.875,7.68-12.801,18.432-17.773,32.33L492.91,273.408z"/>
</g>
</svg>
