<?xml version="1.0" encoding="utf-8"?>
<!-- Generator: Adobe Illustrator 16.0.0, SVG Export Plug-In . SVG Version: 6.00 Build 0)  -->
<!DOCTYPE svg PUBLIC "-//W3C//DTD SVG 1.1//EN" "http://www.w3.org/Graphics/SVG/1.1/DTD/svg11.dtd">
<svg version="1.1" id="Layer_1" xmlns="http://www.w3.org/2000/svg" xmlns:xlink="http://www.w3.org/1999/xlink" x="0px" y="0px"
	 width="905.962px" height="772.465px" viewBox="0 0 905.962 772.465" enable-background="new 0 0 905.962 772.465"
	 xml:space="preserve">
<g>
	<path fill-rule="evenodd" clip-rule="evenodd" fill="#FFFFFF" d="M0,0c302.572,0,604.037,0,905.962,0
		c-5.066,8.802-10.121,17.68-15.265,26.504c-54.73,93.891-109.483,187.768-164.214,281.657
		c-49.201,84.402-98.383,168.816-147.575,253.225c-39.724,68.162-79.451,136.323-119.176,204.484
		c-0.587,1.006-1.105,2.058-1.766,3.012c-3.388,4.895-7.435,4.785-10.47-0.392c-9.764-16.653-19.468-33.343-29.188-50.021
		c-49.52-84.976-99.035-169.952-148.555-254.928c-57.393-98.487-114.785-196.975-172.182-295.46
		C66.99,115.604,36.395,63.134,5.823,10.65C4.075,7.65,2.485,4.558,0,0z M165.997,167.937
		c95.799,164.378,191.031,327.781,286.613,491.784c95.613-164.059,190.846-327.465,286.384-491.395c-111.371,0-221.881,0-332.83,0
		c0.86,1.642,1.426,2.82,2.078,3.948c14.754,25.502,29.472,51.024,44.331,76.465c2.045,3.501,2.289,6.781,1.047,10.927
		c-0.711-1.088-1.101-1.628-1.433-2.201c-16.437-28.374-32.932-56.714-49.217-85.174c-1.931-3.374-4.045-4.498-7.86-4.438
		c-14.496,0.23-28.997,0.079-43.496,0.094c-1.61,0.001-3.221,0.153-5.554,0.273c1.438,2.53,2.54,4.504,3.674,6.459
		c34.137,58.896,68.314,117.768,102.309,176.746c1.787,3.102,2.018,7.101,2.974,10.682c-0.537,0.163-1.073,0.325-1.609,0.487
		c-0.847-1.366-1.729-2.712-2.534-4.102c-35.985-62.064-71.986-124.119-107.873-186.24c-1.794-3.105-3.65-4.467-7.365-4.411
		c-14.996,0.227-29.997,0.098-44.996,0.1c-1.756,0-3.512,0-5.993,0c1.263,2.425,2.023,4.035,2.913,5.569
		c12.768,22.035,25.563,44.054,38.331,66.087c42.148,72.728,84.318,145.442,126.326,218.251c1.717,2.975,1.889,6.84,2.779,10.29
		c-0.53,0.161-1.061,0.323-1.591,0.484c-0.759-1.209-1.555-2.396-2.271-3.629c-56.596-97.635-113.198-195.267-169.718-292.946
		c-1.688-2.917-3.425-4.25-6.97-4.201c-15.496,0.213-30.997,0.081-46.496,0.104c-1.415,0.002-2.83,0.21-4.622,0.352
		c0.8,1.539,1.289,2.578,1.863,3.569c50.323,86.842,100.655,173.678,150.98,260.519c25.454,43.923,50.873,87.866,76.393,131.752
		c2.027,3.487,2.266,6.791,1.103,11.005c-0.817-1.28-1.289-1.962-1.703-2.677c-77.374-133.501-154.752-267-232.059-400.541
		c-1.706-2.947-3.57-4.146-7.063-4.07c-11.161,0.242-22.33,0.082-33.496,0.078C175.244,167.935,171.144,167.937,165.997,167.937z
		 M14.182,5.818c1.135,2.055,1.828,3.372,2.576,4.656C45.502,59.79,74.3,109.075,102.902,158.474c2.12,3.66,4.285,5.007,8.523,5.005
		c227.662-0.107,455.324-0.105,682.986-0.008c3.973,0.002,6.188-1.146,8.212-4.639c28.788-49.686,57.735-99.278,86.631-148.902
		c0.709-1.217,1.258-2.527,2.037-4.111C598.766,5.818,306.856,5.818,14.182,5.818z M108.539,167.96
		c115.026,197.371,229.48,393.763,344.309,590.797C567.787,561.53,682.193,365.219,796.997,168.225
		c-2.505-0.134-3.951-0.277-5.397-0.278c-13.666-0.016-27.333,0.115-40.996-0.095c-3.312-0.051-4.963,1.081-6.585,3.883
		c-19.589,33.855-39.326,67.624-59.021,101.418c-75.927,130.283-151.852,260.566-227.777,390.85
		c-3.569,6.123-5.649,6.139-9.204,0.04C368.394,527.436,288.772,390.829,209.156,254.22c-16.008-27.467-31.974-54.957-48.051-82.383
		c-0.904-1.543-2.626-3.688-3.998-3.71C141.317,167.865,125.522,167.96,108.539,167.96z"/>
	<path fill-rule="evenodd" clip-rule="evenodd" fill="#FFFFFF" d="M512.089,42.612c5.98,0,11.961,0,16.905,0
		c-0.539,1.787-2.113,4.088-1.557,5.611c5.516,15.102,11.383,30.073,17.665,46.421c1.43-3.447,2.449-5.754,3.351-8.105
		c4.7-12.256,9.382-24.519,14.042-36.79c1.222-3.218,2.174-6.397-3.005-7.044c5.082,0,10.163,0,13.803,0
		c-1.879,2.566-4.894,5.477-6.457,9.027c-7.296,16.564-14.187,33.309-21.243,49.979c-0.51,1.202-1.195,2.33-2.343,4.54
		c-1.215-2.387-2.181-3.97-2.858-5.667c-6.594-16.503-13.172-33.014-19.676-49.552C519.112,46.954,517.05,43.571,512.089,42.612z"/>
	<path fill-rule="evenodd" clip-rule="evenodd" fill="#FFFFFF" d="M130.108,42.619c5.978,0,11.955,0,17.334,0
		c-0.722,1.524-2.597,3.599-2.151,4.832c5.568,15.381,11.473,30.639,18.504,45.986c4.372-11.191,8.768-22.373,13.102-33.578
		c1.377-3.561,2.683-7.155,3.852-10.789c0.945-2.936,1.568-5.917-3.17-6.241c5.045,0,10.09,0,15.135,0
		c-4.648,0.777-6.142,4.469-7.688,8.154c-6.876,16.381-13.77,32.755-20.682,49.12c-0.762,1.804-1.688,3.538-2.995,6.256
		c-1.26-2.502-2.239-4.145-2.944-5.896c-6.628-16.483-13.277-32.958-19.754-49.501C137.028,46.819,134.917,43.617,130.108,42.619z"
		/>
	<path fill-rule="evenodd" clip-rule="evenodd" fill="#FFFFFF" d="M737.917,85.521c0.004-11.222,8.542-19.536,20.147-19.617
		c12.395-0.087,20.895,7.432,20.965,18.542c0.073,11.756-9.031,20.639-21.091,20.577C745.995,104.963,737.912,97.09,737.917,85.521z
		 M773.553,86.23c0.04-10.189-5.92-17.994-14.243-18.654c-11.548-0.916-18.586,8.839-15.696,21.755
		c2.007,8.968,8.834,14.633,16.759,13.905C768.584,102.481,773.515,96.121,773.553,86.23z"/>
	<path fill-rule="evenodd" clip-rule="evenodd" fill="#FFFFFF" d="M242.423,65.909c12.148,0.076,20.207,7.515,20.197,18.645
		c-0.012,11.981-8.787,20.528-21.015,20.468c-11.713-0.058-20.136-8.271-20.098-19.601C221.544,74.29,230.606,65.836,242.423,65.909
		z M257.208,86.03c-0.034-10.122-5.641-17.603-13.819-18.438c-11.074-1.13-17.899,7.242-16.278,19.969
		c1.236,9.71,8.197,16.237,16.737,15.694C252.229,102.724,257.242,96.259,257.208,86.03z"/>
	<path fill-rule="evenodd" clip-rule="evenodd" fill="#FFFFFF" d="M320.453,104.41c-3.491,0-6.143,0-8.481,0
		c-3.223-5.603-6.319-10.984-9.938-17.273c-3.37,6.025-7.481,10.682-9.415,17.238c-1.133,0-3.615,0-5.269,0
		c3.861-5.563,8.02-11.484,12.07-17.479c0.482-0.714,0.845-2.113,0.476-2.706c-3.763-6.054-7.688-12.007-11.278-17.541
		c1.789,0,4.749,0,7.602,0c0.355,5.899,4.657,9.78,7.507,15.795c2.37-6.164,8.051-9.322,7.335-15.835c1.945,0,4.262,0,6.135,0
		c-3.62,5.021-7.405,10.199-11.072,15.458c-0.471,0.675-0.771,2.049-0.406,2.636c3.683,5.923,7.476,11.78,11.368,17.568
		C317.64,103.096,318.892,103.449,320.453,104.41z"/>
	<path fill-rule="evenodd" clip-rule="evenodd" fill="#FFFFFF" d="M667.089,66.106c0,2.383,0,3.852,0,5.856
		c-1.219-1.272-2.008-2.392-3.061-3.141c-2.986-2.129-8.086-1.599-9.991,1.063c-2.433,3.399-1.124,6.333,1.604,8.788
		c2.593,2.333,5.482,4.341,8.03,6.719c5.04,4.703,5.923,10.462,2.538,15.15c-2.881,3.991-12.233,6.33-16.337,3.372
		c-1.599-1.152-1.667-4.427-2.373-6.556c2.871,2.082,5.215,4.92,7.997,5.449c2.345,0.447,6.308-1.098,7.514-3.032
		c1.167-1.872,0.341-5.646-0.756-8.064c-0.942-2.079-3.545-3.381-5.337-5.105c-2.024-1.95-4.361-3.729-5.861-6.038
		c-4.222-6.502-1.037-13.359,6.634-14.395C660.733,65.763,663.879,66.106,667.089,66.106z"/>
	<path fill-rule="evenodd" clip-rule="evenodd" fill="#FFFFFF" d="M607.029,66.66c3.304,0,6.109,0,9.003,0
		c-3.66,5.328-2.487,34.979,1.557,37.73c-3.471,0-6.778,0-10.129,0C610.21,99.905,610.03,70.43,607.029,66.66z"/>
	<path fill-rule="evenodd" clip-rule="evenodd" fill="#FFFFFF" d="M699.223,66.661c2.896,0,5.698,0,8.533,0
		c-3.655,5.286-2.382,35.049,1.749,37.732c-3.476,0-6.779,0-10.142,0C702.163,99.507,702.082,70.718,699.223,66.661z"/>
	<path fill-rule="evenodd" clip-rule="evenodd" fill="#FFFFFF" d="M763.054,96.036c3.6-4.018,5.587-8.486,4.183-14.026
		c-1.352-5.334-5.051-8.01-10.635-7.534c-4.63,0.395-7.478,3.903-7.617,9.385c-0.184,7.272,3.014,10.891,11.178,12.647
		c-6.784,1.288-12.279-1.836-13.87-7.885c-1.68-6.387,1.713-12.854,7.733-14.737c6.66-2.084,13.755,0.734,16.002,6.355
		C772.601,86.68,769.888,92.822,763.054,96.036z"/>
	<path fill-rule="evenodd" clip-rule="evenodd" fill="#FFFFFF" d="M247.056,96.046c1.485-3.383,3.781-6.653,4.272-10.176
		c0.801-5.747-2.896-10.545-7.489-11.316c-4.957-0.832-8.987,1.311-10.407,5.534c-1.998,5.946,0.431,12.896,5.451,15.096
		c1.638,0.718,3.511,0.898,5.276,1.325c-6.678,1.421-12.262-1.656-13.944-7.683c-1.789-6.411,1.407-12.691,7.534-14.803
		c6.48-2.233,13.851,0.537,16.115,6.058C256.423,86.319,253.654,92.81,247.056,96.046z"/>
</g>
</svg>
