<?xml version="1.0" encoding="utf-8"?>
<!-- Generator: Adobe Illustrator 16.0.0, SVG Export Plug-In . SVG Version: 6.00 Build 0)  -->
<!DOCTYPE svg PUBLIC "-//W3C//DTD SVG 1.1//EN" "http://www.w3.org/Graphics/SVG/1.1/DTD/svg11.dtd">
<svg version="1.1" id="Layer_1" xmlns="http://www.w3.org/2000/svg" xmlns:xlink="http://www.w3.org/1999/xlink" x="0px" y="0px"
	 width="231.424px" height="123.451px" viewBox="0 0 231.424 123.451" enable-background="new 0 0 231.424 123.451"
	 xml:space="preserve">
<path fill-rule="evenodd" clip-rule="evenodd" fill="#8EC64A" d="M39.63,123.392c-1.256-2.684-2.114-5.565-3.966-8.063
	c1.137,0,2.263,0,3.555,0c-1.076,0.5-0.84,1.172-0.457,1.928c0.413,0.813,0.738,1.672,1.1,2.512c0.13,0.304,0.247,0.663,0.65,0.27
	c0.756-0.736,0.948-3.194,0.418-4.05c-0.18-0.29-0.573-0.258-0.67-0.639c0.59-0.19,1.179-0.09,1.759-0.097
	c0.558-0.007,1.116-0.002,1.936-0.002c-1.378,0.857-0.712,1.766-0.375,2.65c0.305,0.801,0.356,2.165,1.108,2.182
	c0.664,0.015,0.705-1.397,1.016-2.181c0.344-0.866,0.915-1.747-0.24-2.622c0.917,0,1.66,0,2.366,0
	c-1.842,2.423-2.491,5.322-3.398,8.111c-0.16,0-0.32,0-0.48,0c-0.641-1.646-1.282-3.293-2.045-5.254
	c-0.671,1.965-1.233,3.609-1.795,5.254C39.951,123.392,39.791,123.392,39.63,123.392z"/>
<path fill-rule="evenodd" clip-rule="evenodd" fill="#8EC64A" d="M165.871,123.392c1.542-0.835,1.274-2.314,1.275-3.675
	c0.003-1.46,0.25-2.938-0.328-4.492c1.898,0.183,3.728-0.344,5.518,0.382c1.56,0.633,2.286,1.848,2.373,3.423
	c0.089,1.619-0.472,2.962-2.038,3.751c-0.274,0.138-0.732,0.158-0.8,0.611C169.871,123.392,167.871,123.392,165.871,123.392z
	 M172.698,119.39c-0.046-0.435-0.047-0.88-0.146-1.303c-0.362-1.547-1.473-2.471-2.805-2.437c-0.54,0.014-0.785,0.169-0.782,0.754
	c0.01,1.712-0.063,3.424-0.033,5.135c0.021,1.255,0.706,1.604,1.917,1.229C172.136,122.371,172.717,120.851,172.698,119.39z"/>
<path fill-rule="evenodd" clip-rule="evenodd" fill="#8EC64A" d="M115.23,123.392c-0.726-0.475-1.023-1.128-0.936-2.004
	c0.046-0.471-0.021-0.959-0.285-1.39c-0.271-0.441-0.636-0.734-1.176-0.664c-0.694,0.09-0.438,0.669-0.455,1.046
	c-0.091,1.992-0.061,2.039,1.031,2.748c-1.233,0-2.352,0-3.489,0c1.216-1.054,1.213-6.762-0.278-7.944
	c1.766,0,3.25-0.043,4.729,0.016c0.974,0.038,1.825,0.434,2.056,1.499c0.218,1.005-0.313,1.675-1.17,2.134
	c-0.173,0.093-0.328,0.221-0.503,0.341c1.562,1.005,1.262,3.132,2.636,4.219C116.67,123.392,115.951,123.392,115.23,123.392z
	 M112.326,117.164c0.299,0.531-0.468,1.471,0.613,1.638c0.952,0.147,1.606-0.598,1.605-1.652c-0.001-1.03-0.587-1.694-1.518-1.599
	C111.875,115.667,112.596,116.622,112.326,117.164z"/>
<path fill-rule="evenodd" clip-rule="evenodd" fill="#8EC64A" d="M30.271,123.392c-0.371-0.575-1.114-0.469-1.601-0.943
	c-1.321-1.288-1.806-2.912-1.196-4.65c0.537-1.532,2.142-2.644,3.876-2.683c1.59-0.035,2.898,0.489,3.637,1.979
	c0.795,1.604,0.593,3.014-0.504,4.533c-0.704,0.976-1.68,1.2-2.532,1.764C31.391,123.392,30.831,123.392,30.271,123.392z
	 M29.26,118.917c0.018,1.067-0.017,1.938,0.445,2.756c0.356,0.628,0.776,1.142,1.511,1.215c0.768,0.077,1.354-0.399,1.641-1.014
	c0.838-1.787,0.93-3.648-0.051-5.405c-0.696-1.247-2.281-1.142-3.01,0.099C29.331,117.358,29.225,118.215,29.26,118.917z"/>
<path fill-rule="evenodd" clip-rule="evenodd" fill="#8EC64A" d="M81.63,123.392c0.005-0.191-0.128-0.27-0.275-0.34
	c-2.131-1.016-3.043-2.716-2.545-4.8c0.425-1.775,2.037-3.046,4.223-3.167c1.139-0.063,2.081,0.794,3.244,0.514
	c0.25-0.061,0.617,1.739,0.393,2.002c-0.25,0.294-0.423,0.041-0.563-0.122c-0.284-0.331-0.508-0.718-0.811-1.028
	c-1.196-1.224-2.913-1.093-3.921,0.278c-1.141,1.551-0.82,4.347,0.637,5.602c0.667,0.575,1.359,0.79,2.179,0.283
	c0.768-0.475,0.841-1.171,0.767-1.972c-0.068-0.737-0.641-0.82-1.445-1.033c1.487-0.423,2.708-0.306,4.34-0.178
	c-1.294,0.46-1.319,1.276-1.294,2.087c0.026,0.838-0.623,1.026-1.175,1.321c-0.365,0.195-0.908,0.031-1.111,0.553
	C83.391,123.392,82.511,123.392,81.63,123.392z"/>
<path fill-rule="evenodd" clip-rule="evenodd" fill="#8EC64A" d="M216.75,123.392c-0.239-0.52-0.824-0.388-1.216-0.641
	c-1.407-0.906-2.083-2.718-1.632-4.524c0.431-1.725,1.816-2.899,3.519-3.015c2.746-0.186,3.684,0.518,4.355,2.661
	c0.718,2.286-0.285,4.105-2.512,5.122c-0.18,0.082-0.38,0.136-0.354,0.396C218.191,123.392,217.47,123.392,216.75,123.392z
	 M219.96,119.12c-0.031-0.476,0.009-1.052-0.122-1.586c-0.223-0.909-0.616-1.757-1.69-1.93c-1.029-0.166-1.692,0.394-2.019,1.285
	c-0.623,1.704-0.625,3.469,0.218,5.065c0.68,1.287,1.966,1.22,2.939,0.091C220.022,121.194,219.872,120.183,219.96,119.12z"/>
<path fill-rule="evenodd" clip-rule="evenodd" fill="#8EC64A" d="M120.75,123.392c-0.174-0.464-0.658-0.365-0.99-0.544
	c-1.436-0.772-2.249-2.689-1.872-4.43c0.405-1.868,1.784-3.112,3.55-3.206c2.547-0.134,4.046,0.83,4.521,2.905
	c0.467,2.047-0.568,3.953-2.661,4.896c-0.177,0.08-0.388,0.12-0.387,0.379C122.191,123.392,121.47,123.392,120.75,123.392z
	 M124.091,119.204c-0.123-0.83-0.113-1.627-0.463-2.374c-0.328-0.699-0.771-1.205-1.583-1.262c-0.822-0.057-1.33,0.423-1.731,1.062
	c-0.786,1.254-0.704,4.155,0.148,5.371c0.898,1.281,2.266,1.193,3.043-0.19C123.97,120.983,124.022,120.071,124.091,119.204z"/>
<path fill-rule="evenodd" clip-rule="evenodd" fill="#8EC64A" d="M138.991,123.392c-1.212-0.928-2.527-1.731-2.712-3.506
	c-0.173-1.668,0.318-3.04,1.639-3.998c1.394-1.012,2.993-0.94,4.571-0.426c0.406,0.132,0.651,0.472,1.243,0.354
	c0.436-0.087,0.515,0.723,0.448,1.225c-0.029,0.228-0.15,0.443-0.263,0.757c-0.294-0.342-0.614-0.617-0.812-0.963
	c-0.665-1.164-1.702-1.387-2.877-1.132c-1.115,0.243-1.604,1.168-1.829,2.157c-0.378,1.673-0.225,3.284,1.155,4.517
	c0.889,0.792,2.048,0.698,2.629-0.135c0.62-0.888,0.336-2.021-0.801-2.699c1.231-0.271,2.343-0.189,3.731-0.171
	c-0.712,0.497-1.123,0.977-1.041,1.639c0.158,1.272-0.57,1.729-1.646,1.956c-0.282,0.06-0.653,0.061-0.797,0.426
	C140.75,123.392,139.871,123.392,138.991,123.392z"/>
<path fill-rule="evenodd" clip-rule="evenodd" fill="#8EC64A" d="M76.351,123.392c-1.443-1.673-2.89-3.343-4.323-5.024
	c-0.138-0.162-0.258-0.33-0.472-0.273c-0.23,0.061-0.246,0.295-0.246,0.492c-0.002,0.919-0.027,1.839,0.022,2.755
	c0.042,0.775,0.223,1.513,1.159,1.792c-0.954,0-1.908,0-2.869,0c1.687-1.139,1.508-6.314-0.301-7.795
	c1.313-0.328,2.355-0.173,3.218,1.018c0.857,1.184,1.912,2.224,2.873,3.334c0.133,0.153,0.25,0.346,0.466,0.315
	c0.249-0.035,0.254-0.267,0.255-0.468c0.002-0.878,0.019-1.757-0.002-2.635c-0.019-0.775-0.552-1.177-1.181-1.583
	c0.921,0,1.843,0,3.168,0c-1.585,0.529-1.374,1.594-1.378,2.597c-0.009,1.826,0.074,3.655-0.148,5.476
	C76.511,123.392,76.431,123.392,76.351,123.392z"/>
<path fill-rule="evenodd" clip-rule="evenodd" fill="#8EC64A" d="M48.511,123.392c2.023-2.506,0.573-5.351,0.993-8.144
	c1.494,0,3.202-0.031,4.908,0.016c0.666,0.018,0.813,0.494,0.672,1.928c-0.856-0.748-1.551-1.657-2.838-1.521
	c-0.632,0.067-0.977,0.186-0.938,0.877c0.021,0.357-0.05,0.721-0.022,1.076c0.031,0.398-0.27,1.013,0.33,1.117
	c0.525,0.093,1.132-0.045,1.315-0.747c0.042-0.158,0.145-0.277,0.431-0.283c0.174,0.941,0.029,1.88-0.024,2.859
	c-0.477-0.13-0.37-0.553-0.573-0.768c-0.324-0.342-0.767-0.499-1.187-0.412c-0.473,0.099-0.273,0.582-0.313,0.914
	c-0.009,0.079-0.014,0.163,0.003,0.239c0.159,0.713-0.453,1.726,0.617,2.079c1.135,0.376,2.205,0.111,3.051-0.804
	c0.184-0.2,0.367-0.4,0.647-0.705c0.234,0.979-0.125,1.643-0.592,2.277C52.831,123.392,50.67,123.392,48.511,123.392z"/>
<path fill-rule="evenodd" clip-rule="evenodd" fill="#8EC64A" d="M129.871,123.392c-2.099-0.755-2.123-2.498-2.059-4.295
	c0.025-0.718,0.016-1.438,0.003-2.157c-0.012-0.599-0.059-1.193-0.665-1.638c1.072,0,2.146,0,3.608,0
	c-1.221,0.493-1.145,1.329-1.153,2.114c-0.014,1.119-0.043,2.241,0.037,3.355c0.071,0.992,0.647,1.587,1.693,1.66
	c1.366,0.095,2.076-0.27,2.291-1.368c0.293-1.497,0.259-3.021,0.104-4.536c-0.057-0.558-0.38-0.938-0.899-1.237
	c0.765,0,1.529,0,2.439,0c-0.909,0.7-0.884,1.627-0.852,2.568c0.026,0.759-0.015,1.52-0.001,2.278
	c0.032,1.823-0.931,2.832-2.627,3.255C131.151,123.392,130.51,123.392,129.871,123.392z"/>
<path fill-rule="evenodd" clip-rule="evenodd" fill="#8EC64A" d="M0.031,122.913c0.838,0.062,1.164-0.439,1.176-1.167
	c0.029-1.716,0.001-3.433,0.023-5.148c0.008-0.612-0.286-0.952-0.831-1.334c1.953,0,3.915-0.114,5.854,0.053
	c0.867,0.074,0.306,1.15,0.733,1.689c-0.627,0.155-0.811-0.269-1.001-0.492c-0.614-0.724-1.377-0.838-2.252-0.823
	c-0.641,0.011-0.854,0.282-0.829,0.869c0.014,0.318-0.043,0.646,0.008,0.956c0.07,0.419-0.306,1.039,0.396,1.201
	c0.552,0.127,1.007-0.111,1.292-0.635c0.092-0.169,0.24-0.308,0.443-0.56c0.283,1.073-0.056,2.041,0.1,3.257
	c-0.584-0.531-0.729-1.179-1.339-1.342c-0.545-0.146-0.961-0.21-0.911,0.562c0.013,0.198-0.04,0.407,0.002,0.597
	c0.153,0.685-0.458,1.658,0.512,2.016c1.055,0.387,2.111,0.186,3.019-0.58c0.261-0.22,0.398-0.606,0.803-0.663
	c0.038,1.711-0.102,1.873-1.699,1.86c-1.834-0.015-3.667-0.05-5.501-0.075C0.031,123.073,0.031,122.993,0.031,122.913z"/>
<path fill-rule="evenodd" clip-rule="evenodd" fill="#8EC64A" d="M229.71,123.392c-1.449-1.989-3.168-3.744-4.892-5.556
	c0.226,1.803-0.947,3.859,1.139,5.315c-0.942,0-1.859,0-2.847,0c1.781-1.079,1.571-6.174-0.356-7.809
	c1.229-0.2,2.192-0.301,3.093,0.817c1.074,1.333,1.896,2.946,3.75,3.917c0-1.062,0.023-1.989-0.006-2.916
	c-0.055-1.763,0.085-1.926,1.799-1.929c0,0.159,0,0.319,0,0.479c-1.221-0.254-1.197,0.707-1.214,1.394
	c-0.053,2.095,0.002,4.191,0.015,6.286C230.031,123.392,229.871,123.392,229.71,123.392z"/>
<path fill-rule="evenodd" clip-rule="evenodd" fill="#8EC64A" d="M178.59,123.392c-1.89-0.697-2.047-2.201-1.971-3.934
	c0.053-1.209,0.277-2.457-0.263-3.653c-0.229-0.506,0.217-0.579,0.591-0.584c0.757-0.01,1.514-0.003,2.612-0.003
	c-1.066,0.523-1.273,1.222-1.255,2.038c0.025,1.116-0.03,2.237,0.054,3.349c0.096,1.286,0.844,1.877,2.163,1.854
	c1.079-0.019,1.844-0.709,1.92-1.87c0.078-1.192,0.079-2.392,0.06-3.587c-0.011-0.664,0.043-1.418-0.863-1.732
	c0.76,0,1.52,0,2.412,0c-0.812,0.679-0.872,1.53-0.898,2.394c-0.033,1.075-0.045,2.151-0.109,3.225
	c-0.07,1.165-0.663,1.927-1.835,2.187c-0.192,0.043-0.396,0.082-0.457,0.317C180.031,123.392,179.31,123.392,178.59,123.392z"/>
<path fill-rule="evenodd" clip-rule="evenodd" fill="#8EC64A" d="M187.71,123.392c-0.631-0.622-1.54-0.855-2.052-1.688
	c-0.969-1.575-0.975-3.507,0.135-5.062c0.971-1.361,2.534-1.843,4.376-1.344c0.153,0.042,0.292,0.137,0.445,0.177
	c1.504,0.393,1.545,0.467,1.238,2.518c-0.425-0.563-0.779-1.058-1.16-1.531c-0.993-1.234-2.385-1.104-3.17,0.243
	c-0.821,1.408-0.727,2.87-0.173,4.273c0.755,1.909,2.56,2.17,3.999,0.675c0.188-0.194,0.361-0.402,0.575-0.641
	c0.041,0.812-0.283,1.313-1.12,1.838c-0.249,0.156-0.668,0.099-0.693,0.541C189.311,123.392,188.51,123.392,187.71,123.392z"/>
<path fill-rule="evenodd" clip-rule="evenodd" fill="#8EC64A" d="M192.51,123.392c1.934-2.134,2.225-5.02,3.429-7.486
	c0.145-0.295,0.101-0.803,0.583-0.803c0.453,0.001,0.514,0.467,0.638,0.777c0.731,1.844,1.43,3.7,2.153,5.546
	c0.245,0.626,0.499,1.26,1.449,1.683c-1.361,0-2.431,0-3.569,0c1.131-0.857,0.508-1.852-0.004-2.519
	c-0.534-0.698-1.574-0.391-2.355-0.203c-0.589,0.142-0.732,1.866-0.251,2.318c0.222,0.209,0.598,0.274,0.568,0.687
	C194.27,123.392,193.39,123.392,192.51,123.392z M195.916,117.518c-0.454,0.374-0.45,0.976-0.708,1.435
	c-0.441,0.782-0.001,0.804,0.61,0.846c0.992,0.069,1.248-0.26,0.717-1.12C196.313,118.319,196.35,117.827,195.916,117.518z"/>
<path fill-rule="evenodd" clip-rule="evenodd" fill="#3D3D3D" d="M97.571,53.481c0-17.239,0.009-34.479-0.023-51.717
	c-0.002-1.031,0.211-1.353,1.302-1.329c3.638,0.079,7.28,0.064,10.918,0.006c0.936-0.015,1.107,0.281,1.107,1.154
	c-0.023,30.478-0.021,60.957-0.021,91.435c0,0.279,0.039,0.566-0.007,0.839c-0.188,1.125,0.202,1.453,1.392,1.452
	c26.359-0.039,52.717-0.024,79.076-0.04c2.516-0.002,4.571,0.823,5.84,3.056c2.04,3.59-0.604,7.954-4.945,8.243
	c-0.398,0.026-0.799,0.014-1.199,0.014c-30.678,0-61.356-0.007-92.035,0.027c-1.14,0.001-1.444-0.244-1.441-1.423
	c0.044-17.239,0.03-34.478,0.03-51.717C97.565,53.481,97.568,53.481,97.571,53.481z"/>
<path fill-rule="evenodd" clip-rule="evenodd" fill="#3D3D3D" d="M94.112,90.155c0,5.358-0.017,10.717,0.018,16.075
	c0.005,0.803-0.151,1.095-1.03,1.082c-3.678-0.052-7.358-0.043-11.036-0.001c-0.738,0.009-0.937-0.217-0.986-0.927
	c-0.324-4.716-0.097-9.433-0.051-14.148c0.053-5.438,0.044-10.875-0.116-16.312c-0.277-9.409-8.154-17.827-17.52-18.797
	c-6.031-0.624-11.549,0.72-16.313,4.487c-8.984,7.104-9.03,20.933-0.178,28.424c3.362,2.846,7.097,4.602,11.664,4.498
	c5.674-0.129,11.355,0.029,17.033-0.007c0.986-0.006,1.179,0.302,1.167,1.206c-0.047,3.598-0.037,7.197-0.006,10.796
	c0.006,0.717-0.175,0.966-0.934,0.962c-5.278-0.029-10.555,0.228-15.833,0.049c-12.041-0.409-21.607-5.52-28.471-15.396
	c-4.274-6.15-5.376-13.176-4.476-20.49c1.476-11.973,8.906-19.357,19.306-24.203c15.293-7.125,33.455-1.025,41.933,10.52
	c3.756,5.116,5.709,10.853,5.8,17.188c0.072,4.997,0.014,9.996,0.014,14.995C94.103,90.155,94.107,90.155,94.112,90.155z"/>
<path fill-rule="evenodd" clip-rule="evenodd" fill="#3D3D3D" d="M134.434,54.016c0-10.316,0.177-20.636-0.045-30.948
	c-0.28-13.025,9.084-22.127,21.978-22.77c2.035-0.102,4.078-0.01,6.117-0.048c0.581-0.011,0.847,0.167,0.982,0.75
	c0.614,2.642,1.239,5.281,1.933,7.902c0.232,0.88-0.092,0.969-0.839,0.989c-3,0.08-5.974,0.355-8.83,1.392
	c-5.114,1.857-7.989,5.712-8.065,11.148c-0.077,5.597-0.021,11.195,0.007,16.793c0.009,1.807,0.053,1.805,1.87,1.807
	c15.795,0.021,31.589,0.041,47.384,0.063c1.602,0.002,3.193,0.12,4.767,0.438c1.467,0.296,2.929,1.479,2.999,2.426
	c0.072,0.968-1.482,2.508-2.922,2.844c-2.244,0.524-4.536,0.364-6.808,0.374c-14.555,0.058-29.109,0.077-43.664,0.114
	c-3.508,0.009-3.609,0.103-3.616,3.648c-0.022,12.076-0.057,24.152-0.012,36.228c0.005,1.271-0.372,1.477-1.517,1.452
	c-3.518-0.075-7.038-0.063-10.556-0.005c-0.912,0.015-1.117-0.239-1.115-1.129c0.033-11.156,0.021-22.313,0.021-33.468
	C134.48,54.016,134.457,54.016,134.434,54.016z"/>
<path fill-rule="evenodd" clip-rule="evenodd" fill="#8EC64A" d="M61.574,40.085c-0.63-0.804-1.149-1.501-1.705-2.169
	c-2.873-3.454-6.733-4.88-11.057-5.182c-2.387-0.166-4.797-0.199-7.185,0.13c-0.85,0.117-1.125-0.189-1.123-1.033
	c0.021-8.08,0.025-16.159-0.001-24.238c-0.003-0.902,0.297-1.167,1.184-1.13c5.686,0.229,11.131,1.396,16.316,3.815
	c2.524,1.179,3.674,3.097,3.684,5.761c0.03,7.879,0.017,15.758,0.018,23.637C61.707,39.748,61.662,39.819,61.574,40.085z"/>
<path fill-rule="evenodd" clip-rule="evenodd" fill="#8EC64A" d="M118.057,57.436c-0.001-8.999-0.01-17.997,0.006-26.995
	c0.004-2.074,1.364-3.507,3.446-3.748c2.033-0.235,3.893,0.897,4.393,2.707c0.105,0.379,0.144,0.788,0.145,1.183
	c0.006,17.917,0.002,35.833,0.011,53.75c0.001,1.642-0.67,2.861-2.133,3.581c-1.475,0.726-2.925,0.652-4.304-0.313
	c-1.15-0.806-1.579-1.904-1.573-3.289c0.026-6.319,0.011-12.638,0.01-18.957C118.057,62.715,118.057,60.075,118.057,57.436z"/>
<path fill-rule="evenodd" clip-rule="evenodd" fill="#3D3D3D" d="M63.769,39.226c-0.033-8.621-0.625-17.203,0.112-25.772
	c0.211-2.445,1.458-4.463,3.125-6.196c3.478-3.615,7.784-5.608,12.71-6.364c0.663-0.102,0.836,0.061,0.835,0.704
	c-0.013,8.354-0.012,16.709,0.002,25.063c0.001,0.581-0.214,0.82-0.764,1.005c-1.851,0.621-3.707,1.243-5.506,1.996
	C69.674,31.591,65.994,34.577,63.769,39.226z"/>
<path fill-rule="evenodd" clip-rule="evenodd" fill="#3D3D3D" d="M69.288,34.794c2.86-2.807,6.287-4.387,10.081-5.229
	c0.467-0.104,0.939-0.19,1.414-0.251c1.704-0.216,1.705-0.211,1.705-1.982c0-6.116,0-12.231,0-18.347c0-0.389,0-0.778,0-1.461
	c1.251,1.256,2.303,2.313,3.356,3.367c0.324,0.324,0.26,0.733,0.26,1.129c0,6.795-0.006,13.59,0.012,20.385
	c0.001,0.638-0.036,0.992-0.847,1.055C79.938,33.869,74.614,34.342,69.288,34.794z"/>
<path fill-rule="evenodd" clip-rule="evenodd" fill="#8EC64A" d="M122.085,14.431c-2.268-0.01-4.062-1.69-4.075-3.818
	c-0.014-2.064,1.856-3.822,4.07-3.826c2.271-0.004,4.196,1.796,4.155,3.887C126.195,12.78,124.361,14.441,122.085,14.431z"/>
<path fill-rule="evenodd" clip-rule="evenodd" fill="#8EC64A" d="M15.502,117.208c-0.671,1.665-1.344,3.329-2.012,4.996
	c-0.113,0.281-0.08,0.71-0.512,0.693c-0.409-0.017-0.373-0.447-0.508-0.719c-0.815-1.636-1.641-3.266-2.5-4.972
	c-0.766,1.83-0.361,5.175,0.685,5.923c-0.839,0-1.642,0-2.517,0c1.527-1.191,1.502-6.706,0.039-7.664
	c1.609-0.634,2.55-0.31,3.25,1.11c0.474,0.962,0.951,1.923,1.441,2.876c0.136,0.266,0.155,0.686,0.572,0.675
	c0.402-0.011,0.441-0.393,0.558-0.684c0.476-1.181,0.954-2.359,1.44-3.536c0.25-0.604,1.859-0.968,2.349-0.553
	c0.203,0.172,0.107,0.291,0.033,0.491c-0.719,1.933-0.39,3.934-0.35,5.914c0.012,0.592,0.404,0.982,1.185,1.377
	c-1.398,0-2.451,0-3.438,0c1.128-1.897,0.408-3.913,0.621-5.847C15.726,117.263,15.614,117.236,15.502,117.208z"/>
<path fill-rule="evenodd" clip-rule="evenodd" fill="#8EC64A" d="M150.464,115.238c1.113,0,1.91-0.016,2.707,0.006
	c0.477,0.013,0.627,0.129,0.467,0.729c-0.543,2.035-0.218,4.13-0.24,6.201c-0.005,0.475,0.408,0.697,0.877,0.992
	c-1.219,0-2.284,0-3.392,0c0.67-0.573,1.131-2.71,0.787-3.416c-0.133-0.273-0.363-0.282-0.599-0.291
	c-0.319-0.012-0.646-0.044-0.957,0.01c-0.581,0.101-1.343-0.349-1.701,0.46c-0.379,0.854,0.038,2.628,0.773,3.204
	c-1.127,0-2.167,0-3.208,0c1.237-1.426,1.211-6.729-0.117-7.838c1.204,0,2.33,0,3.539,0c-0.83,0.641-1.313,2.136-0.905,3.093
	c0.399,0.938,1.318,0.435,2.008,0.475c0.456,0.026,1.064,0.165,1.214-0.619C151.978,116.873,151.696,115.949,150.464,115.238z"/>
<path fill-rule="evenodd" clip-rule="evenodd" fill="#8EC64A" d="M103.839,123.176c-1.185,0-2.217,0-3.024,0
	c1.055-2.591,0.565-5.238,0.369-7.892c0.819,0,1.805,0,2.859,0c-0.745,0.602-1.279,2.457-0.821,3.188
	c0.481,0.767,1.36,0.357,2.069,0.394c0.459,0.022,1.078,0.079,1.073-0.623c-0.007-1.032,0.511-2.274-1.274-2.932
	c1.525,0,2.711,0,3.966,0c-1.393,1.051-1.495,6.896-0.145,7.866c-1.15,0-2.242,0-3.396,0c0.704-0.643,1.153-2.717,0.807-3.453
	c-0.12-0.254-0.334-0.328-0.58-0.341c-0.278-0.013-0.569-0.051-0.835,0.009c-0.606,0.135-1.417-0.439-1.808,0.42
	C102.69,120.708,103.085,122.527,103.839,123.176z"/>
<path fill-rule="evenodd" clip-rule="evenodd" fill="#8EC64A" d="M64.275,123.196c-0.592,0-0.824,0.004-1.056-0.001
	c-1.974-0.04-1.974-0.041-2.237-2.036c-0.058-0.438-0.138-0.873-0.41-1.234c-0.309-0.409-0.758-0.688-1.239-0.56
	c-0.525,0.141-0.224,0.677-0.272,1.037c-0.037,0.273,0.004,0.558,0.008,0.837c0.017,1.202,0.016,1.202,0.844,1.875
	c-1.126,0-2.184,0-3.232,0c1.171-1.34,0.994-6.876-0.476-7.903c1.788,0,3.362-0.02,4.935,0.007c0.928,0.016,1.627,0.482,1.899,1.37
	c0.282,0.92-0.123,1.652-0.934,2.112c-0.664,0.377-0.801,0.757-0.096,1.176c0.435,0.259,0.553,0.657,0.661,1.078
	C62.886,121.796,63.112,122.627,64.275,123.196z M58.983,117.232c0.514,0.346-0.614,1.501,0.71,1.528
	c0.979,0.021,1.488-0.643,1.515-1.624c0.025-0.914-0.589-1.606-1.415-1.564C58.646,115.629,59.206,116.551,58.983,117.232z"/>
<path fill-rule="evenodd" clip-rule="evenodd" fill="#8EC64A" d="M163.232,117.762c0,0.438,0.081,0.895-0.022,1.306
	c-0.115,0.457-0.039,1.395-1.026,0.565c-0.71-0.597-1.189-0.333-1.156,0.603c0.028,0.826-0.44,1.847,0.48,2.43
	c0.794,0.502,2.54-0.097,3.336-0.99c0.145-0.162,0.313-0.303,0.528-0.508c0.02,2.022-0.035,2.076-1.846,2.07
	c-1.712-0.006-3.424-0.001-5.258-0.001c1.415-1.184,1.548-6.854,0.114-7.99c2.037,0,3.894-0.085,5.736,0.033
	c1.09,0.069,0.604,1.145,1.015,2.046c-1.06-0.764-1.616-1.693-2.828-1.654c-0.936,0.03-1.353,0.318-1.295,1.22
	c0.038,0.604-0.322,1.429,0.338,1.75C162.12,119.017,162.629,118.352,163.232,117.762z"/>
<path fill-rule="evenodd" clip-rule="evenodd" fill="#8EC64A" d="M23.142,123.167c-1.424,0-2.568,0-3.785,0
	c1.27-0.894,1.309-7.017,0.031-7.932c1.68,0,3.27-0.054,4.854,0.018c1.23,0.056,1.894,0.757,1.964,1.842
	c0.072,1.114-0.57,1.911-1.77,2.188c-0.311,0.071-0.639,0.086-0.938,0.188c-0.489,0.167-1.296-0.335-1.45,0.425
	c-0.177,0.877-0.182,1.817,0.125,2.704C22.289,122.932,22.722,122.834,23.142,123.167z M21.941,117.174
	c0,0.497-0.014,0.895,0.004,1.29c0.016,0.354,0.161,0.577,0.576,0.601c0.868,0.049,1.732-0.822,1.787-1.845
	c0.056-1.05-0.524-1.691-1.558-1.653C21.432,115.617,22.106,116.655,21.941,117.174z"/>
<path fill-rule="evenodd" clip-rule="evenodd" fill="#8EC64A" d="M99.837,117.563c-0.827-1.125-1.43-1.958-2.652-1.882
	c-0.521,0.032-0.708,0.194-0.702,0.691c0.023,1.796,0.034,3.592,0.048,5.387c0.006,0.768,0.454,1.133,1.153,1.342
	c-1.345,0-2.689,0-4.033,0c0.938-0.167,1-0.888,1.08-1.624c0.184-1.716,0.053-3.424-0.072-5.135c-0.037-0.51-0.261-0.679-0.76-0.662
	c-0.629,0.021-1.175,0.203-1.63,0.633c-0.261,0.247-0.248,0.939-0.75,0.725c-0.43-0.185-0.075-0.712-0.073-1.089
	c0.002-0.556,0.273-0.753,0.82-0.749c2.274,0.016,4.548,0.011,6.822-0.009c0.581-0.005,0.781,0.254,0.753,0.798
	C99.821,116.382,99.837,116.779,99.837,117.563z"/>
<path fill-rule="evenodd" clip-rule="evenodd" fill="#8EC64A" d="M208.205,117.373c-0.468-0.527-0.652-1.06-1.167-1.359
	c-0.603-0.35-1.268-0.467-1.828-0.23c-0.462,0.195-0.237,0.863-0.242,1.321c-0.015,1.358,0.028,2.717,0.019,4.075
	c-0.007,0.906,0.154,1.671,1.208,1.94c-1.329,0-2.658,0-4.375,0c1.334-0.323,1.439-1.142,1.45-1.946
	c0.018-1.394,0.006-2.791-0.079-4.182c-0.081-1.333-0.982-1.704-2.109-0.93c-0.099,0.067-0.19,0.145-0.289,0.213
	c-0.323,0.223-0.271,1.055-0.84,0.739c-0.35-0.192,0.009-0.813,0.014-1.243c0.008-0.678,0.53-0.56,0.961-0.559
	c1.917,0.001,3.835,0.019,5.752-0.002C208.51,115.192,208.548,115.223,208.205,117.373z"/>
<path fill-rule="evenodd" clip-rule="evenodd" fill="#8EC64A" d="M65.062,115.261c1.137,0,2.246,0,3.392,0
	c-1.282,1.133-1.227,6.989,0.123,7.932c-1.225,0-2.364,0-3.519,0C66.175,121.966,66.186,116.548,65.062,115.261z"/>
<path fill-rule="evenodd" clip-rule="evenodd" fill="#8EC64A" d="M212.762,123.189c-1.315,0-2.466,0-3.682,0
	c1.323-0.863,1.439-6.617,0.146-7.883c1.19,0,2.305,0,3.458,0C211.305,116.552,211.325,122.004,212.762,123.189z"/>
</svg>
