<?xml version="1.0" encoding="utf-8"?>
<!-- Generator: Adobe Illustrator 16.0.0, SVG Export Plug-In . SVG Version: 6.00 Build 0)  -->
<!DOCTYPE svg PUBLIC "-//W3C//DTD SVG 1.1//EN" "http://www.w3.org/Graphics/SVG/1.1/DTD/svg11.dtd">
<svg version="1.1" id="Layer_1" xmlns="http://www.w3.org/2000/svg" xmlns:xlink="http://www.w3.org/1999/xlink" x="0px" y="0px"
	 width="263.064px" height="81.672px" viewBox="0 0 263.064 81.672" enable-background="new 0 0 263.064 81.672"
	 xml:space="preserve">
<path fill-rule="evenodd" clip-rule="evenodd" fill="#C32E33" d="M218.781,13.819c8.383,10.014,9.463,22.151,2.828,31.785
	c-7.182,10.433-21.238,15.214-32.891,11.207c-6.189-2.128-10.061-6.7-13.119-12.207c-0.489-0.887-0.445-2.547-2.292-2.189
	c-1.689,0.325-2.511,1.281-2.828,2.967c-0.612,3.266-0.084,6.079,2.04,8.806c2.343,3.003,1.649,4.427-2.105,5.098
	c-1.46,0.263-2.974,0.245-4.463,0.3c-4.189,0.149-4.189,0.139-4.74-4.157c-1.135-0.394-2.007,0.387-2.964,0.708
	c-13.731,4.624-25.501-2.236-27.807-16.593c-1.341-8.36,0.131-16.389,4.927-23.563c7.766-11.619,21.822-14.827,35.401-8.734
	c2.186,0.978,2.642,2.744,2.178,4.819c-0.624,2.803-1.456,5.576-4.478,6.788c-1.223,0.493-1.912-0.409-2.444-1.376
	c-1.489-2.695-3.971-3.426-6.81-3.441c-12.032-0.062-20.794,11.926-17.039,23.312c2.149,6.521,7.879,9.488,14.072,7.44
	c2.35-0.777,3.266-1.514,1.583-4.021c-2.459-3.667-1.988-4.397,2.588-4.426c3.879-0.022,8.558,1.635,11.415-0.007
	c2.832-1.624,1.226-6.93,2.397-10.536C179.698,8.96,196.079-0.442,212.752,8.9c1.018,1.929-0.479,3.313-1.063,4.894
	c-0.543,1.476-1.857,2.583-2.112,4.339C213.088,17.45,214.701,12.973,218.781,13.819z"/>
<path fill-rule="evenodd" clip-rule="evenodd" fill="#C32E33" d="M245.212,4.066c7.995-0.033,14.681,4.14,17.097,10.671
	c1.649,4.465,0.715,5.968-4,6.504c-1.186,0.135-2.371,0.303-3.528,0.566c-2.879,0.653-4.055-0.179-4.003-3.383
	c0.072-4.221-2.493-6.051-6.77-5.434c-4.183,0.602-6.847,4.12-5.864,7.923c1.062,4.116,4.054,6.528,7.754,8.116
	c3.055,1.307,5.897,2.875,8.284,5.208c5.098,4.985,6.776,11.904,4.27,17.583c-2.448,5.547-8.415,8.575-15.549,8.459
	c-5.569-0.092-10.481-3.605-16.167-2.773c-0.237,0.036-0.547-0.208-0.773-0.388c-1.372-1.072-1.226-7.779,0.354-9.798
	c2.028-2.602,4.554-3.379,7.367-1.215c2.387,1.836,4.792,3.602,7.806,4.205c3.08,0.616,5.857-0.099,7.095-3.172
	c1.347-3.335-0.796-5.357-3.555-6.704c-1.872-0.912-3.897-1.5-5.791-2.372c-8.551-3.945-13.276-13.261-11.072-21.716
	C230.229,8.437,236.243,4.105,245.212,4.066z"/>
<path fill-rule="evenodd" clip-rule="evenodd" fill="#C32F34" d="M121.027,2.255c1.408,0.051,1.582,1.79,3.096,2.067
	c3.424,0.627,4.936,3.454,5.029,6.574c0.467,15.437-1.487,30.38-9.955,43.794c-1.015,1.606-2.01,3.321-4.08,4.599
	c0.976-5.018,2.074-9.692,2.768-14.429c1.479-10.094,1.794-20.279-0.279-30.278C116.567,9.579,119.443,6.282,121.027,2.255z"/>
<path fill-rule="evenodd" clip-rule="evenodd" fill="#FECB2A" d="M218.781,13.819c-3.934,1.558-6.616,5.361-11.48,6.568
	c1.212-4.54,4.514-7.482,5.452-11.488c2.223-2.554,2.62-5.912,3.901-8.878c1.233-0.177,1.864,0.788,2.646,1.399
	c6.974,5.445,6.97,5.682,0.339,11.386C219.306,13.091,219.066,13.478,218.781,13.819z"/>
<path fill-rule="evenodd" clip-rule="evenodd" fill="#C32E33" d="M88.601,31.423c3.724-5.014,6.774-9.74,8.995-14.98
	c0.785-1.85,0.805-3.634,0.378-5.624c-0.74-3.452,0.971-5.338,4.416-5.838c11.619-1.681,13.535,0.739,9.176,11.707
	c-2.225,5.594-1.855,11.492-1.66,17.261c0.235,6.919-0.579,13.995,2.797,20.622c1.31,2.576-0.393,4.729-3.363,4.956
	c-3.718,0.284-7.464,0.321-11.195,0.288c-2.059-0.019-4.307-1.481-2.284-3.179c6.948-5.835,3.503-13.104,3.541-19.914
	c0.009-1.584,0-3.171-0.847-5.12c-2.538,3.379-5.169,6.696-7.581,10.163c-1.408,2.025-2.319,2.277-3.797,0.044
	c-2.441-3.686-5.127-7.208-8.352-11.696c0,4.755,0.395,8.419-0.093,11.962c-0.706,5.113-0.529,9.675,3.27,13.725
	c2.397,2.559,1.061,4.051-2.071,4.048c-8.96-0.004-17.923-0.084-26.884-0.183c-1.881-0.022-3.656-0.635-4.355-2.548
	c-0.744-2.036,0.407-3.532,2.147-4.375c1.544-0.752,1.548-1.576,0.67-2.77c-0.175-0.241-0.359-0.496-0.449-0.773
	c-3.484-10.832-12.695-10.726-21.547-11.258c-1.941-0.117-3.375,0.766-4.362,2.54c-1.23,2.215-2.6,4.357-3.989,6.481
	c-1.543,2.354-3.255,4.211,0.595,6.554c2.743,1.664,1.204,5.595-2.419,5.981C14,60.059,8.597,60.073,3.258,59.154
	c-1.724-0.296-3.173-0.993-3.253-3.069c-0.089-2.299,1.235-4.116,3.226-4.182c3.029-0.099,4.023-2.029,5.233-4.077
	c5.916-10.024,11.854-20.031,17.77-30.052c1.604-2.715,1.991-5.565,0.929-8.594c-0.941-2.688,0.299-4.085,2.921-4.173
	c3.877-0.128,7.766-0.126,11.643,0c2.506,0.082,4.101,1.293,3.069,4.058c-1.521,4.082-0.151,7.41,1.933,10.939
	c5.606,9.506,10.891,19.202,16.368,28.785c0.688,1.204,1.132,3.16,3.051,2.77c2.099-0.427,1.911-2.532,1.979-4.047
	c0.535-11.758,1.608-23.526-3.247-34.865c-2.374-5.543-0.569-7.746,5.47-7.83c1.939-0.027,3.893,0.009,5.819,0.217
	c2.503,0.27,4.78,1.79,4.264,4.246c-1.572,7.472,2.938,12.764,5.908,18.635C86.874,28.971,87.622,29.916,88.601,31.423z
	 M29.775,30.354c3.591,0.817,6.848,1.62,10.134,2.285c1.817,0.368,3.022-0.015,1.929-2.281c-1.914-3.967-3.787-7.956-6.138-12.896
	C33.461,22.336,31.629,26.325,29.775,30.354z"/>
<path fill-rule="evenodd" clip-rule="evenodd" fill="#FECB29" d="M199.736,28.73c5.039-2.069,7.926-5.171,11.327-7.496
	c1.795-1.226,3.047-1.533,4.36,0.631c3.912,6.467,0.895,19.25-5.842,24.333c-6.891,5.196-17.024,4.343-22.83-1.927
	c-5.072-5.481-6.236-14.875-2.755-22.25c3.404-7.216,9.896-11.355,17.001-10.842c6.109,0.442,6.799,1.615,4.08,7.105
	C203.52,21.439,201.877,24.552,199.736,28.73z"/>
<path fill-rule="evenodd" clip-rule="evenodd" fill="#D45930" d="M191.346,41.7c-0.636-1.358-1.008-1.847-0.905-1.993
	c0.284-0.394,0.77-0.642,1.179-0.945c0.095,0.383,0.277,0.774,0.255,1.157C191.857,40.328,191.649,40.729,191.346,41.7z"/>
<path fill-rule="evenodd" clip-rule="evenodd" fill="#D45930" d="M191.346,26.752c-0.636-1.358-1.008-1.847-0.905-1.993
	c0.284-0.394,0.77-0.642,1.179-0.945c0.095,0.383,0.277,0.774,0.255,1.157C191.857,25.38,191.649,25.782,191.346,26.752z"/>
<path fill-rule="evenodd" clip-rule="evenodd" fill="#D45930" d="M189.346,35.753c-0.636-1.358-1.008-1.848-0.905-1.993
	c0.284-0.394,0.77-0.642,1.179-0.945c0.095,0.384,0.277,0.774,0.255,1.157C189.857,34.38,189.649,34.782,189.346,35.753z"/>
<path fill-rule="evenodd" clip-rule="evenodd" fill="#D45930" d="M200.346,41.753c-0.636-1.358-1.008-1.848-0.905-1.993
	c0.284-0.394,0.77-0.642,1.179-0.945c0.095,0.384,0.277,0.774,0.255,1.157C200.857,40.38,200.649,40.782,200.346,41.753z"/>
<path fill-rule="evenodd" clip-rule="evenodd" fill="#D45930" d="M196.346,37.753c-0.636-1.358-1.008-1.848-0.905-1.993
	c0.284-0.394,0.77-0.642,1.179-0.945c0.095,0.384,0.277,0.774,0.255,1.157C196.857,36.38,196.649,36.782,196.346,37.753z"/>
<path fill-rule="evenodd" clip-rule="evenodd" fill="#D45930" d="M206.346,39.753c-0.636-1.358-1.008-1.848-0.905-1.993
	c0.284-0.394,0.77-0.642,1.179-0.945c0.095,0.384,0.277,0.774,0.255,1.157C206.857,38.38,206.649,38.782,206.346,39.753z"/>
<path fill-rule="evenodd" clip-rule="evenodd" fill="#D45930" d="M202.346,35.753c-0.636-1.358-1.008-1.848-0.905-1.993
	c0.284-0.394,0.77-0.642,1.179-0.945c0.095,0.384,0.277,0.774,0.255,1.157C202.857,34.38,202.649,34.782,202.346,35.753z"/>
<path fill-rule="evenodd" clip-rule="evenodd" fill="#D45930" d="M198.346,21.753c-0.636-1.358-1.008-1.848-0.905-1.993
	c0.284-0.394,0.77-0.642,1.179-0.945c0.095,0.384,0.277,0.774,0.255,1.157C198.857,20.38,198.649,20.782,198.346,21.753z"/>
<path fill-rule="evenodd" clip-rule="evenodd" fill="#D45930" d="M209.346,32.753c-0.636-1.358-1.008-1.848-0.905-1.993
	c0.284-0.394,0.77-0.642,1.179-0.945c0.095,0.384,0.277,0.774,0.255,1.157C209.857,31.38,209.649,31.782,209.346,32.753z"/>
<path fill-rule="evenodd" clip-rule="evenodd" fill="#D45930" d="M196.346,32.753c-0.636-1.358-1.008-1.848-0.905-1.993
	c0.284-0.394,0.77-0.642,1.179-0.945c0.095,0.384,0.277,0.774,0.255,1.157C196.857,31.38,196.649,31.782,196.346,32.753z"/>
<path fill-rule="evenodd" clip-rule="evenodd" fill="#D45930" d="M198.346,47.753c-0.636-1.358-1.008-1.848-0.905-1.993
	c0.284-0.394,0.77-0.642,1.179-0.945c0.095,0.384,0.277,0.774,0.255,1.157C198.857,46.38,198.649,46.782,198.346,47.753z"/>
<path fill-rule="evenodd" clip-rule="evenodd" fill="#D45930" d="M205.346,46.753c-0.636-1.358-1.008-1.848-0.905-1.993
	c0.284-0.394,0.77-0.642,1.179-0.945c0.095,0.384,0.277,0.774,0.255,1.157C205.857,45.38,205.649,45.782,205.346,46.753z"/>
<path fill-rule="evenodd" clip-rule="evenodd" fill="#D45930" d="M187.346,30.753c-0.636-1.358-1.008-1.848-0.905-1.993
	c0.284-0.394,0.77-0.642,1.179-0.945c0.095,0.384,0.277,0.774,0.255,1.157C187.857,29.38,187.649,29.782,187.346,30.753z"/>
<g>
	<path fill="#C32E33" d="M15.93,77.387l-1.082-3.01h-4.144l-1.06,3.01H7.776l4.055-10.883h1.927l4.055,10.883H15.93z M14.381,72.85
		l-1.016-2.95c-0.074-0.197-0.177-0.509-0.308-0.934c-0.131-0.426-0.221-0.736-0.271-0.935c-0.133,0.608-0.329,1.272-0.585,1.994
		l-0.979,2.824H14.381z"/>
	<path fill="#C32E33" d="M31.816,77.387l-3.143-9.052h-0.059c0.084,1.345,0.126,2.604,0.126,3.781v5.271h-1.609V66.549h2.498
		l3.01,8.621h0.044l3.099-8.621h2.506v10.838h-1.705v-5.359c0-0.539,0.014-1.24,0.041-2.105c0.026-0.865,0.05-1.389,0.07-1.571
		h-0.061l-3.253,9.036H31.816z"/>
	<path fill="#C32E33" d="M53.581,66.549v7.013c0,0.801-0.172,1.501-0.515,2.102c-0.344,0.601-0.841,1.063-1.49,1.387
		c-0.65,0.323-1.427,0.485-2.331,0.485c-1.345,0-2.39-0.356-3.136-1.067c-0.747-0.712-1.12-1.69-1.12-2.936v-6.983h1.779v6.857
		c0,0.895,0.208,1.554,0.623,1.979c0.415,0.426,1.053,0.638,1.912,0.638c1.671,0,2.506-0.877,2.506-2.632v-6.842H53.581z"/>
	<path fill="#C32E33" d="M60.297,77.387V66.549h1.771v9.318h4.589v1.52H60.297z"/>
	<path fill="#C32E33" d="M76.214,77.387h-1.772v-9.318h-3.188v-1.52h8.147v1.52h-3.188V77.387z"/>
	<path fill="#C32E33" d="M85.005,77.387V66.549h1.771v10.838H85.005z"/>
	<path fill="#C32E33" d="M102.137,67.913c-1.019,0-1.819,0.36-2.402,1.082s-0.875,1.718-0.875,2.987c0,1.33,0.281,2.335,0.842,3.018
		c0.561,0.682,1.373,1.022,2.436,1.022c0.459,0,0.904-0.045,1.334-0.137s0.877-0.209,1.342-0.353v1.52
		c-0.85,0.321-1.813,0.482-2.891,0.482c-1.587,0-2.805-0.48-3.655-1.442c-0.85-0.961-1.274-2.336-1.274-4.125
		c0-1.127,0.206-2.112,0.618-2.958c0.413-0.845,1.01-1.492,1.791-1.942c0.78-0.449,1.697-0.674,2.75-0.674
		c1.106,0,2.13,0.231,3.069,0.696l-0.638,1.476c-0.366-0.173-0.753-0.325-1.16-0.456C103.015,67.979,102.586,67.913,102.137,67.913z
		"/>
	<path fill="#C32E33" d="M119.587,66.549v7.013c0,0.801-0.172,1.501-0.515,2.102c-0.344,0.601-0.841,1.063-1.49,1.387
		c-0.65,0.323-1.427,0.485-2.331,0.485c-1.345,0-2.39-0.356-3.136-1.067c-0.747-0.712-1.12-1.69-1.12-2.936v-6.983h1.779v6.857
		c0,0.895,0.208,1.554,0.623,1.979c0.415,0.426,1.053,0.638,1.912,0.638c1.671,0,2.506-0.877,2.506-2.632v-6.842H119.587z"/>
	<path fill="#C32E33" d="M126.303,77.387V66.549h1.771v10.838H126.303z"/>
	<path fill="#C32E33" d="M141.129,74.443c0,0.964-0.348,1.72-1.045,2.269s-1.658,0.823-2.884,0.823s-2.229-0.19-3.01-0.571v-1.675
		c0.494,0.232,1.02,0.415,1.575,0.548c0.557,0.134,1.074,0.2,1.554,0.2c0.701,0,1.219-0.133,1.553-0.399
		c0.333-0.268,0.5-0.626,0.5-1.075c0-0.405-0.153-0.749-0.459-1.03c-0.307-0.282-0.939-0.615-1.898-1.001
		c-0.988-0.4-1.685-0.857-2.09-1.371c-0.405-0.515-0.608-1.132-0.608-1.854c0-0.904,0.321-1.616,0.964-2.135
		c0.643-0.52,1.505-0.778,2.587-0.778c1.038,0,2.071,0.227,3.099,0.682l-0.563,1.445c-0.963-0.405-1.823-0.607-2.579-0.607
		c-0.573,0-1.009,0.125-1.305,0.374c-0.297,0.25-0.445,0.579-0.445,0.989c0,0.282,0.06,0.523,0.178,0.724
		c0.119,0.2,0.314,0.389,0.586,0.566s0.761,0.413,1.468,0.704c0.796,0.332,1.379,0.641,1.75,0.927
		c0.37,0.287,0.642,0.61,0.815,0.972C141.043,73.529,141.129,73.954,141.129,74.443z"/>
	<path fill="#C32E33" d="M147.171,77.387V66.549h1.771v10.838H147.171z"/>
	<path fill="#C32E33" d="M164.778,77.387h-2.172l-5.33-8.637h-0.06l0.037,0.482c0.069,0.919,0.104,1.76,0.104,2.521v5.634h-1.608
		V66.549h2.149l5.315,8.592h0.045c-0.01-0.113-0.03-0.527-0.06-1.242c-0.029-0.714-0.045-1.271-0.045-1.671v-5.679h1.624V77.387z"/>
	<path fill="#C32E33" d="M177.713,77.387h-6.131V66.549h6.131v1.497h-4.359v2.951h4.085v1.482h-4.085v3.402h4.359V77.387z"/>
	<path fill="#C32E33" d="M189.701,77.387h-1.757V66.549h6.116v1.497h-4.359v3.388h4.085v1.505h-4.085V77.387z"/>
	<path fill="#C32E33" d="M199.967,77.387V66.549h1.771v10.838H199.967z"/>
	<path fill="#C32E33" d="M214.675,77.387h-6.131V66.549h6.131v1.497h-4.359v2.951h4.085v1.482h-4.085v3.402h4.359V77.387z"/>
	<path fill="#C32E33" d="M227.21,74.443c0,0.964-0.348,1.72-1.045,2.269s-1.658,0.823-2.884,0.823s-2.229-0.19-3.01-0.571v-1.675
		c0.494,0.232,1.02,0.415,1.575,0.548c0.557,0.134,1.074,0.2,1.554,0.2c0.701,0,1.219-0.133,1.553-0.399
		c0.333-0.268,0.5-0.626,0.5-1.075c0-0.405-0.153-0.749-0.459-1.03c-0.307-0.282-0.939-0.615-1.898-1.001
		c-0.988-0.4-1.685-0.857-2.09-1.371c-0.405-0.515-0.608-1.132-0.608-1.854c0-0.904,0.321-1.616,0.964-2.135
		c0.643-0.52,1.505-0.778,2.587-0.778c1.038,0,2.071,0.227,3.099,0.682l-0.563,1.445c-0.963-0.405-1.823-0.607-2.579-0.607
		c-0.573,0-1.009,0.125-1.305,0.374c-0.297,0.25-0.445,0.579-0.445,0.989c0,0.282,0.06,0.523,0.178,0.724
		c0.119,0.2,0.314,0.389,0.586,0.566s0.761,0.413,1.468,0.704c0.796,0.332,1.379,0.641,1.75,0.927
		c0.37,0.287,0.642,0.61,0.815,0.972C227.125,73.529,227.21,73.954,227.21,74.443z"/>
	<path fill="#C32E33" d="M236.997,77.387h-1.772v-9.318h-3.188v-1.52h8.147v1.52h-3.188V77.387z"/>
	<path fill="#C32E33" d="M252.511,77.387l-1.082-3.01h-4.145l-1.06,3.01h-1.868l4.055-10.883h1.928l4.055,10.883H252.511z
		 M250.962,72.85l-1.016-2.95c-0.074-0.197-0.177-0.509-0.308-0.934c-0.132-0.426-0.222-0.736-0.271-0.935
		c-0.134,0.608-0.329,1.272-0.586,1.994l-0.979,2.824H250.962z"/>
</g>
</svg>
