<?xml version="1.0" encoding="utf-8"?>
<!-- Generator: Adobe Illustrator 16.0.0, SVG Export Plug-In . SVG Version: 6.00 Build 0)  -->
<!DOCTYPE svg PUBLIC "-//W3C//DTD SVG 1.1//EN" "http://www.w3.org/Graphics/SVG/1.1/DTD/svg11.dtd">
<svg version="1.1" id="Layer_1" xmlns="http://www.w3.org/2000/svg" xmlns:xlink="http://www.w3.org/1999/xlink" x="0px" y="0px"
	 width="749.761px" height="231.286px" viewBox="0 0 749.761 231.286" enable-background="new 0 0 749.761 231.286"
	 xml:space="preserve">
<path fill-rule="evenodd" clip-rule="evenodd" fill="#EC7B23" d="M664.703,73.505c0.434-2.066,0.35-0.517,0.419,0.438
	c0.523-0.704,0.543-0.306,0.55-2.193l0.44,1.229c0.038,0.093,0.101,0.233,0.139,0.321c0.039,0.089,0.121,0.247,0.154,0.321
	c0.033,0.074,0.09,0.224,0.16,0.322l0.087-2.632c0.385,0.874,0.085,0.555,0.322,1.284l0.239,0.679
	c0.037,0.098,0.115,0.255,0.147,0.334c0.032,0.08,0.083,0.234,0.155,0.334v-1.316h13.341c2.968,0.417,0.381,0.892,3.224,1.344
	c0.02-0.113-1.516-1.142,1.16-1.803l0.013-12.604c-1.063,0.498-0.902,0.35-1.008,0.298l-0.179-3.947h-1.556
	c-0.437-2.777,1.229-2.11-12.328-2.101c-2.647,0.002-2.127-0.409-2.546,0.939c-0.755-0.785-0.546-0.254-0.888-2.193l-0.329,2.358
	c-0.032,0.098-0.156,0.422-0.184,0.359c-0.027-0.064-0.117,0.246-0.204,0.354l-0.206-5.703c-0.047,1.307,0.137,3.113-0.498,4.387
	c-0.079,0.006-0.2-0.063-0.225-0.074l-0.344-0.168c-0.012-0.009-0.081-0.084-0.09-0.093c-0.364-0.38-0.009-0.118-0.012-0.177
	c-0.002-0.034,0.013-0.085,0.044-0.08V73.505z M664.564,121.277l-0.321,20.184h20.302v-21.791c-2.609,0.956-1.132,0.853-3.176,1.46
	c-3.198,0.95-10.991-0.553-15.278,0.586v-3.068c0.935,0.271,0.457,3.729,0.457,4.823c-1.395-1.067-1.36-0.504-1.382-3.51
	C665.149,122.698,665.296,120.124,664.564,121.277z M664.703,73.505V88.15c1.212-3.609,0.408,1.355,1.173-2.168l-0.055,2.213
	c0.468-0.431,1.377,0.889,0.942-2.213l0.114,3.419c4.016-1.428,35.748,0.157,38.768-0.531c0.384-0.087,0.152-0.128,0.702-0.168
	l1.791,0.574l6.371-15.447l-29.207-0.053l-0.062-1.607c-2.676,0.661-1.141,1.689-1.16,1.803c-2.843-0.453-0.256-0.927-3.224-1.344
	h-13.341v1.316c-0.072-0.1-0.123-0.254-0.155-0.334c-0.032-0.079-0.11-0.237-0.147-0.334l-0.239-0.679
	c-0.237-0.729,0.063-0.41-0.322-1.284l-0.087,2.632c-0.07-0.098-0.127-0.248-0.16-0.322c-0.033-0.074-0.115-0.232-0.154-0.321
	c-0.038-0.088-0.101-0.229-0.139-0.321l-0.44-1.229c-0.007,1.887-0.026,1.49-0.55,2.193
	C665.053,72.988,665.137,71.439,664.703,73.505z M664.703,88.15l-0.139,33.127c0.731-1.153,0.585,1.421,0.602-1.316
	c0.021,3.006-0.013,2.442,1.382,3.51c0-1.095,0.478-4.553-0.457-4.823v3.068c4.287-1.139,12.08,0.364,15.278-0.586
	c2.044-0.607,0.566-0.504,3.176-1.46l-0.064-23.422c0.086-3.183,0.603-2.608,0.936-2.792c3.325,0.662,16.771,0.382,20.81,0.189
	l1.913-4.368l-1.791-0.574c-0.55,0.041-0.318,0.082-0.702,0.168c-3.02,0.688-34.752-0.897-38.768,0.531l-0.114-3.419
	c0.435,3.102-0.475,1.782-0.942,2.213l0.055-2.213C665.111,89.505,665.915,84.541,664.703,88.15z M685.416,93.455
	c-0.333,0.185-0.85-0.39-0.936,2.792l0.064,23.422v21.791h-20.302l0.321-20.184l0.139-33.127V73.505V53.723
	c-0.031-0.006-0.046,0.046-0.044,0.08c0.003,0.059-0.353-0.203,0.012,0.177c0.009,0.009,0.078,0.084,0.09,0.093l0.344,0.168
	c0.024,0.012,0.146,0.08,0.225,0.074c0.635-1.274,0.451-3.08,0.498-4.387l0.206,5.703c0.087-0.107,0.177-0.417,0.204-0.354
	c0.027,0.063,0.151-0.261,0.184-0.359l0.329-2.358c0.342,1.939,0.133,1.408,0.888,2.193c0.419-1.349-0.102-0.938,2.546-0.939
	c13.558-0.009,11.892-0.676,12.328,2.101h1.556l0.179,3.947c0.105,0.052-0.056,0.2,1.008-0.298l0.011-4.745
	c3.993-0.988,28.675-0.259,34.738-0.247l0.06-19.699l-56.176-0.001l-0.071,107.214l21.337,0.059L685.416,93.455z"/>
<g>
	<path fill="#EC7B23" d="M445.885,142.146V97.377h-4.408c-4.996,0-8.644,0.402-10.946,1.207c-2.302,0.805-4.481,2.293-6.539,4.462
		c-2.057,2.17-5.877,7.425-11.461,15.765l-15.722,23.335h-26.007l13.15-20.922c5.192-8.339,9.318-14.142,12.379-17.41
		c3.062-3.267,6.942-6.266,11.645-8.998c-9.452-1.365-16.554-4.669-21.305-9.912c-4.751-5.242-7.127-11.887-7.127-19.934
		c0-6.339,1.568-11.972,4.702-16.898c3.135-4.925,7.31-8.351,12.526-10.278c5.216-1.926,13.579-2.89,25.089-2.89h45.77v107.241
		H445.885z M445.885,53.047h-16.971c-8.816,0-14.106,0.123-15.869,0.366c-3.526,0.585-6.256,1.988-8.191,4.207
		c-1.935,2.22-2.902,5.133-2.902,8.742c0,3.219,0.735,5.901,2.204,8.046c1.47,2.146,3.503,3.658,6.098,4.536
		c2.597,0.878,9.11,1.317,19.542,1.317h16.09V53.047z"/>
</g>
<polygon fill-rule="evenodd" clip-rule="evenodd" fill="#EC7B23" points="552.746,34.875 473.215,34.873 473.196,142.146 
	511.763,142.135 519.617,122.246 493.053,122.105 493.092,93.812 529.885,93.657 537.88,73.826 493.129,73.793 493.211,54.61 
	545.32,54.525 "/>
<path fill-rule="evenodd" clip-rule="evenodd" fill="#EC7B23" d="M582.375,100.071l-13.627-36.443L554.271,100L582.375,100.071z
	 M537.995,142.139l-20.771-0.029l40.62-107.237l20.887,0.013l40.543,107.26l-20.669-0.053l-9.117-22.068l-42.697,0.021
	L537.995,142.139z"/>
<g>
	<path fill="#EC7B23" d="M637.657,142.146V65.688h20.344v76.458H637.657z"/>
</g>
<polygon fill-rule="evenodd" clip-rule="evenodd" fill="#EC7B23" points="591.068,54.516 583.263,34.873 658.039,34.984 
	658.039,54.585 631.917,54.682 631.994,142.145 624.748,142.042 611.149,105.861 610.697,81.427 610.699,54.647 "/>
<path fill-rule="evenodd" clip-rule="evenodd" fill="#EC7B23" d="M373.854,45.145c-2.604-1.599-5.217-3.184-7.985-4.542
	c-2.947-1.445-6.067-2.63-9.365-3.556c-3.297-0.927-6.769-1.591-10.363-1.927c-3.592-0.335-7.306-0.341-11.072,0.054
	c-3.766,0.395-7.583,1.194-11.072,2.241c-3.491,1.047-6.652,2.344-10.018,4.102c-3.364,1.757-6.933,3.975-9.99,6.476
	c-3.056,2.498-5.6,5.277-8.07,8.393c-2.471,3.113-4.869,6.564-6.721,9.853c-1.851,3.291-3.154,6.419-4.217,9.882
	c-1.062,3.462-1.882,7.254-2.361,10.637c-0.478,3.383-0.614,6.359-0.465,9.486c0.15,3.127,0.583,6.406,1.336,9.864
	c0.751,3.458,1.822,7.093,3.355,10.832c1.533,3.738,3.528,7.579,5.919,11.131c2.395,3.557,5.185,6.824,7.363,9.086
	c2.177,2.264,3.739,3.525,4.72,4.196c0.98,0.673,1.379,0.755,11.305,0.782c9.927,0.024,29.38-0.002,39.108-0.017
	c9.726-0.014,9.726-0.014,9.726-0.014s0,0,2.553-4.714c2.555-4.712,7.661-14.14,10.213-18.854c2.552-4.71,2.552-4.71,2.552-4.71
	s0,0-0.789-0.909c-0.794-0.907-2.376-2.719-3.168-3.625c-0.791-0.906-0.791-0.906-1.865,0.75c-1.074,1.655-3.22,4.964-5.441,7.642
	c-2.221,2.68-4.517,4.726-7.869,6.708c-3.353,1.981-7.762,3.9-11.634,4.983c-3.872,1.086-7.208,1.338-11.574,0.625
	c-4.364-0.713-9.761-2.39-14.633-5.383c-4.871-2.994-9.215-7.303-12.322-12.308c-3.108-5.004-4.979-10.705-5.396-16.292
	c-0.417-5.588,0.619-11.064,2.589-16.011c1.971-4.946,4.878-9.361,8.649-12.933c3.77-3.57,8.404-6.295,13.488-7.959
	c5.085-1.661,10.624-2.26,15.652-1.759c5.03,0.502,9.549,2.101,13.568,4.451c4.018,2.349,7.534,5.449,9.293,7.001
	c1.757,1.55,1.757,1.55,1.757,1.55s0,0,0.004-1.843c0.003-1.844,0.01-5.53,0.249-8.334c0.237-2.806,0.706-4.732,1.297-6.52
	c0.59-1.788,1.302-3.434,1.69-4.778l0.037-0.131c0.066-0.139,0.136-0.319,0.218-0.516c0.278-0.676,0.691-1.542,0.892-1.98
	c0.199-0.44,0.188-0.451,0.162-0.456c-0.028-0.006-0.071-0.006-0.576-0.288C374.387,45.403,374.12,45.251,373.854,45.145"/>
<g>
	<path fill="#59584B" d="M55.14,93.782c-1.767,2.791-8.114,7.7-19.042,14.727c-4.968,3.1-7.563,4.754-7.783,4.96l-0.166,21.082
		l-0.828,1.55l-1.159,0.466c-0.554,0-0.994-0.155-1.325-0.466c-1.547-3.72-2.872-8.239-3.974-13.563
		c-1.105-5.321-1.878-8.809-2.318-10.463c0.44-0.206,3.697-2.117,9.77-5.735c15.785-9.402,24.284-14.106,25.5-14.106l1.159,0.465
		L55.14,93.782z"/>
	<path fill="#59584B" d="M92.892,115.174c-18.876,20.669-30.359,31.002-34.441,31.002c-0.885,0-1.325-0.388-1.325-1.162
		c0-0.775,0.882-1.86,2.649-3.256c1.764-1.395,4.388-3.875,7.865-7.44c3.477-3.565,7.726-8.139,12.75-13.719
		c5.022-5.581,9.878-11.03,14.571-16.354c4.691-5.321,10.569-12.168,17.635-20.539c7.063-8.371,13.107-15.475,18.132-21.314
		c5.022-5.837,11.674-13.718,19.953-23.639c8.279-9.921,14.737-17.567,19.374-22.942c1.325-1.652,3.229-2.48,5.713-2.48
		s3.726,0.724,3.726,2.17c0,0.724-0.388,1.448-1.159,2.17c-5.741,6.201-17.717,19.946-35.932,41.233
		C124.188,80.194,107.684,98.951,92.892,115.174z"/>
</g>
<g>
	<path fill="#59584B" d="M229.465,73.744h33.958v2.8c-4.689,0.354-8.153,1.325-10.39,2.914c-2.237,1.589-5.728,6.396-10.47,14.419
		c-4.744,8.023-10.106,15.517-16.089,22.48c4.851,5.249,9.163,8.92,12.936,11.013c3.772,2.095,7.546,3.142,11.319,3.142
		c3.719,0,6.885-0.946,9.5-2.839c2.614-1.892,4.46-4.68,5.539-8.363l2.992,2.043c-1.995,7.115-5.203,12.364-9.622,15.744
		c-4.42,3.38-9.568,5.071-15.443,5.071c-4.475,0-8.988-1.124-13.542-3.368c-4.556-2.245-9.5-6.043-14.836-11.392
		c-6.684,5.5-12.708,9.336-18.07,11.505c-5.364,2.169-11.091,3.255-17.181,3.255c-8.948,0-16.022-2.222-21.224-6.661
		c-5.202-4.439-7.802-9.764-7.802-15.971c0-6.055,2.345-12.122,7.034-18.203c4.689-6.08,13.502-12.375,26.438-18.885
		c-2.534-5.248-4.258-9.549-5.174-12.905c-0.917-3.355-1.375-6.547-1.375-9.575c0-8.678,3.422-15.314,10.268-19.906
		c5.282-3.482,11.265-5.223,17.949-5.223c6.414,0,11.643,1.779,15.685,5.336c4.043,3.558,6.064,7.936,6.064,13.132
		c0,5.349-2.21,10.32-6.63,14.911c-3.45,3.481-10.106,7.62-19.97,12.413c6.845,11.404,13.987,21.85,21.426,31.335
		c9.486-10.597,14.23-19.477,14.23-26.643c0-2.422-0.836-4.566-2.506-6.434c-1.132-1.312-2.803-2.094-5.013-2.347V73.744z
		 M211.112,123.018c-7.115-9.083-12.061-15.718-14.836-19.907c-2.777-4.188-5.781-9.386-9.015-15.592
		c-12.991,6.963-19.485,15.34-19.485,25.129c0,5.35,1.846,10.08,5.539,14.192c3.691,4.113,8.745,6.168,15.16,6.168
		c3.341,0,6.589-0.63,9.743-1.892C201.37,129.856,205.667,127.156,211.112,123.018z M198.58,75.711
		c13.313-5.904,19.97-13.447,19.97-22.631c0-3.733-1.2-6.786-3.598-9.158c-2.399-2.372-5.404-3.558-9.015-3.558
		c-3.935,0-7.276,1.351-10.025,4.049c-2.749,2.7-4.124,5.968-4.124,9.802c0,2.322,0.457,5.034,1.375,8.137
		C194.079,65.456,195.884,69.909,198.58,75.711z"/>
</g>
<g>
	<path fill="#EC7B23" d="M736.35,122.149l-33.945,19.842l-1.159,0.155c-0.442,0-0.885-0.103-1.324-0.311l-0.166-0.62
		c0-1.031,1.268-2.48,3.809-4.34c2.538-1.86,4.719-3.462,6.541-4.806c1.821-1.342,3.696-2.687,5.63-4.03
		c1.93-1.342,3.668-2.505,5.216-3.488c1.544-0.98,2.869-1.833,3.974-2.558l1.656-1.085l0.165-21.082
		c0.108-0.102,0.249-0.334,0.414-0.698c0.166-0.361,0.303-0.593,0.414-0.697l1.324-0.62l1.49,0.62
		c1.656,4.134,2.981,8.734,3.975,13.796C735.355,117.292,736.018,120.599,736.35,122.149z"/>
</g>
<g>
	<path fill="#C9A82D" d="M28.588,216.751V170.6h13.815c2.817,0,5.06,0.24,6.728,0.72c1.668,0.479,3.042,1.259,4.121,2.337
		c1.618,1.579,2.762,3.571,3.431,5.979c0.669,2.407,1.004,6.148,1.004,11.223c0,6.553-0.23,11.184-0.689,13.891
		c-0.46,2.707-1.239,5.01-2.338,6.907c-1.059,1.898-2.532,3.222-4.42,3.971c-1.888,0.749-5.16,1.124-9.815,1.124H28.588z
		 M37.01,209.949h3.806c1.938,0,3.296-0.14,4.076-0.42c0.779-0.279,1.398-0.759,1.858-1.438c0.799-1.198,1.369-2.842,1.708-4.93
		c0.339-2.087,0.509-5.429,0.509-10.024c0-4.475-0.2-7.731-0.599-9.77c-0.4-2.038-1.079-3.576-2.038-4.615
		c-0.5-0.52-1.144-0.884-1.933-1.094s-2.022-0.314-3.701-0.314H37.01V209.949z"/>
</g>
<g>
	<path fill="#C9A82D" d="M68.926,216.751V170.6h23.705v7.672H77.467v10.669h14.115v7.313H77.467v12.706H92.99v7.792H68.926z"/>
</g>
<g>
	<path fill="#C9A82D" d="M102.707,200.539h8.601v2.967c0,2.837,0.354,4.771,1.064,5.799c0.709,1.029,1.933,1.544,3.671,1.544
		c1.818,0,3.202-0.46,4.151-1.379c0.948-0.919,1.423-2.277,1.423-4.076c0-1.378-0.33-2.562-0.989-3.551
		c-0.659-0.989-2.088-2.263-4.285-3.821l-4.405-3.116c-3.796-2.638-6.208-4.814-7.237-6.533c-1.029-1.718-1.543-3.876-1.543-6.474
		c0-3.875,1.148-6.912,3.446-9.11c2.297-2.197,5.464-3.296,9.5-3.296c4.275,0,7.552,1.169,9.83,3.506
		c2.277,2.338,3.417,5.694,3.417,10.069c0,0.439-0.005,0.779-0.015,1.02c-0.01,0.239-0.025,0.449-0.045,0.629h-8.151v-1.229
		c0-2.497-0.41-4.285-1.229-5.364c-0.82-1.079-2.168-1.618-4.046-1.618c-1.378,0-2.462,0.404-3.251,1.214
		c-0.79,0.809-1.184,1.933-1.184,3.371c0,1.938,1.769,4.086,5.305,6.443c0.04,0.02,0.07,0.04,0.09,0.06l4.735,3.207
		c3.376,2.237,5.664,4.351,6.863,6.338c1.199,1.988,1.798,4.521,1.798,7.597c0,4.196-1.198,7.433-3.596,9.71
		s-5.824,3.416-10.279,3.416c-4.635,0-8.087-1.198-10.354-3.596c-2.268-2.397-3.401-6.054-3.401-10.969
		c0-0.519,0.04-1.378,0.12-2.577V200.539z"/>
</g>
<g>
	<path fill="#C9A82D" d="M141.459,216.751V170.6h8.601v46.151H141.459z"/>
</g>
<g>
	<path fill="#C9A82D" d="M184.943,216.751l-0.629-5.095c-0.879,2.218-2.083,3.806-3.611,4.765c-1.529,0.959-3.631,1.438-6.309,1.438
		c-4.835,0-8.236-1.828-10.204-5.483c-1.968-3.656-2.952-10.359-2.952-20.109c0-4.555,0.234-8.206,0.704-10.953
		c0.469-2.747,1.203-4.87,2.203-6.368c1.199-1.838,2.787-3.196,4.765-4.076c1.978-0.879,4.435-1.318,7.372-1.318
		c4.955,0,8.605,1.169,10.953,3.507c2.348,2.337,3.521,5.974,3.521,10.908v1.169h-8.032v-0.479c0-2.758-0.515-4.84-1.543-6.249
		c-1.029-1.408-2.563-2.112-4.6-2.112c-2.498,0-4.206,0.959-5.125,2.877s-1.378,7.003-1.378,15.254
		c0,6.514,0.439,10.868,1.319,13.066c0.879,2.197,2.467,3.296,4.765,3.296c2.278,0,3.901-0.779,4.87-2.337
		c0.969-1.559,1.453-4.196,1.453-7.912v-1.588h-5.963v-7.372h14.235v25.173H184.943z"/>
</g>
<g>
	<path fill="#C9A82D" d="M202.566,216.751V170.6h8.841l12.017,32.276l-0.24-32.276h8.122v46.151h-8.781l-12.107-32.336l0.24,32.336
		H202.566z"/>
</g>
<g>
	<path fill="#59584B" d="M277.1,200.299h8.361c0,0.199,0.01,0.494,0.03,0.884c0.02,0.39,0.03,0.694,0.03,0.914
		c0,5.334-1.124,9.295-3.372,11.882c-2.248,2.588-5.689,3.881-10.324,3.881c-2.198,0-4.086-0.284-5.664-0.854
		c-1.579-0.569-2.937-1.453-4.076-2.652c-1.559-1.599-2.657-3.796-3.297-6.593c-0.639-2.797-0.959-7.672-0.959-14.625
		c0-4.755,0.19-8.535,0.57-11.343c0.379-2.807,0.969-4.899,1.768-6.278c1.238-2.117,2.777-3.651,4.615-4.601
		c1.838-0.948,4.185-1.423,7.042-1.423c4.675,0,8.076,1.219,10.204,3.656c2.127,2.438,3.201,6.353,3.222,11.747h-8.332v-1.108
		c0-2.497-0.404-4.36-1.213-5.589c-0.809-1.229-2.043-1.844-3.701-1.844c-2.058,0-3.461,0.85-4.21,2.548
		c-0.75,1.698-1.124,6.394-1.124,14.085c0,8.312,0.364,13.365,1.094,15.164c0.729,1.798,2.123,2.697,4.181,2.697
		c1.918,0,3.256-0.705,4.016-2.113s1.139-4.011,1.139-7.807V200.299z"/>
</g>
<g>
	<path fill="#59584B" d="M295.713,193.676c0-4.896,0.229-8.806,0.688-11.733c0.459-2.926,1.178-5.129,2.156-6.607
		c1.337-2.098,2.934-3.597,4.791-4.495c1.856-0.899,4.301-1.349,7.334-1.349s5.479,0.449,7.335,1.349
		c1.856,0.898,3.463,2.397,4.82,4.495c0.978,1.519,1.691,3.736,2.14,6.653s0.674,6.813,0.674,11.688
		c0,4.854-0.23,8.746-0.689,11.672c-0.458,2.928-1.167,5.15-2.125,6.668c-1.357,2.098-2.964,3.597-4.82,4.496
		c-1.856,0.898-4.301,1.348-7.335,1.348s-5.479-0.449-7.334-1.348c-1.856-0.899-3.453-2.398-4.791-4.496
		c-0.978-1.478-1.697-3.681-2.156-6.607S295.713,198.571,295.713,193.676z M304.494,193.676c0,7.592,0.444,12.372,1.331,14.34
		s2.526,2.951,4.918,2.951c2.352,0,3.96-0.963,4.828-2.892c0.867-1.928,1.301-6.728,1.301-14.399s-0.438-12.487-1.315-14.445
		s-2.501-2.937-4.873-2.937s-3.997,0.979-4.873,2.937C304.932,181.189,304.494,186.004,304.494,193.676z"/>
</g>
<g>
	<path fill="#59584B" d="M336.918,216.751V170.6h8.841l12.017,32.276l-0.24-32.276h8.122v46.151h-8.781l-12.107-32.336l0.24,32.336
		H336.918z"/>
</g>
<g>
	<path fill="#59584B" d="M396.108,200.299h8.361c0,0.199,0.01,0.494,0.029,0.884s0.03,0.694,0.03,0.914
		c0,5.334-1.124,9.295-3.371,11.882c-2.248,2.588-5.689,3.881-10.324,3.881c-2.198,0-4.086-0.284-5.664-0.854
		s-2.937-1.453-4.076-2.652c-1.558-1.599-2.657-3.796-3.296-6.593c-0.64-2.797-0.959-7.672-0.959-14.625
		c0-4.755,0.189-8.535,0.569-11.343c0.379-2.807,0.969-4.899,1.768-6.278c1.239-2.117,2.777-3.651,4.615-4.601
		c1.838-0.948,4.186-1.423,7.043-1.423c4.675,0,8.076,1.219,10.204,3.656s3.201,6.353,3.222,11.747h-8.331v-1.108
		c0-2.497-0.405-4.36-1.214-5.589c-0.81-1.229-2.043-1.844-3.701-1.844c-2.058,0-3.461,0.85-4.211,2.548
		c-0.749,1.698-1.123,6.394-1.123,14.085c0,8.312,0.364,13.365,1.094,15.164c0.729,1.798,2.122,2.697,4.181,2.697
		c1.918,0,3.256-0.705,4.016-2.113c0.759-1.408,1.139-4.011,1.139-7.807V200.299z"/>
</g>
<g>
	<path fill="#59584B" d="M415.65,216.751V170.6h23.705v7.672h-15.164v10.669h14.115v7.313h-14.115v12.706h15.523v7.792H415.65z"/>
</g>
<g>
	<path fill="#59584B" d="M450.301,216.751V170.6h14.924c4.556,0,7.832,1.02,9.83,3.057c1.997,2.038,2.997,5.375,2.997,10.01
		c0,4.555-1.064,7.946-3.192,10.174c-2.127,2.229-5.379,3.342-9.754,3.342h-6.264v19.569H450.301z M458.603,190.799h3.596
		c2.677,0,4.555-0.524,5.634-1.573c1.079-1.05,1.618-2.843,1.618-5.38c0-2.557-0.494-4.33-1.483-5.319
		c-0.988-0.989-2.872-1.483-5.648-1.483h-3.716V190.799z"/>
</g>
<g>
	<path fill="#59584B" d="M494.573,216.751v-38.539h-9.89V170.6h28.38v7.612h-9.89v38.539H494.573z"/>
</g>
<g>
	<path fill="#59584B" d="M559.972,216.751l-0.63-5.095c-0.879,2.218-2.083,3.806-3.611,4.765s-3.631,1.438-6.308,1.438
		c-4.836,0-8.237-1.828-10.205-5.483c-1.968-3.656-2.951-10.359-2.951-20.109c0-4.555,0.234-8.206,0.704-10.953
		c0.469-2.747,1.203-4.87,2.202-6.368c1.199-1.838,2.787-3.196,4.766-4.076c1.978-0.879,4.436-1.318,7.372-1.318
		c4.954,0,8.605,1.169,10.953,3.507c2.348,2.337,3.521,5.974,3.521,10.908v1.169h-8.031v-0.479c0-2.758-0.515-4.84-1.544-6.249
		c-1.029-1.408-2.563-2.112-4.6-2.112c-2.498,0-4.206,0.959-5.125,2.877s-1.378,7.003-1.378,15.254
		c0,6.514,0.438,10.868,1.318,13.066c0.879,2.197,2.467,3.296,4.765,3.296c2.277,0,3.9-0.779,4.87-2.337
		c0.969-1.559,1.453-4.196,1.453-7.912v-1.588h-5.964v-7.372h14.235v25.173H559.972z"/>
</g>
<g>
	<path fill="#59584B" d="M577.594,216.751V170.6h15.403c4.655,0,8.007,0.944,10.055,2.832c2.048,1.889,3.072,4.971,3.072,9.245
		c0,2.997-0.55,5.36-1.648,7.088c-1.1,1.729-2.718,2.742-4.855,3.042c4.076,1.078,6.204,4.525,6.384,10.339c0,0.26,0,0.46,0,0.6
		l0.239,6.113c0.08,1.738,0.3,3.132,0.659,4.181c0.36,1.049,0.919,1.953,1.679,2.712h-10.189c-0.239-0.779-0.419-1.693-0.539-2.742
		s-0.2-2.532-0.24-4.45l-0.119-4.825v-1.229c0-2.677-0.57-4.515-1.709-5.514s-3.456-1.499-6.952-1.499h-2.937v20.259H577.594z
		 M585.896,190.11h4.944c2.497,0,4.23-0.499,5.199-1.499c0.969-0.998,1.454-2.786,1.454-5.364c0-2.297-0.53-3.905-1.589-4.824
		s-2.987-1.379-5.784-1.379h-4.225V190.11z"/>
</g>
<g>
	<path fill="#59584B" d="M616.348,193.676c0-4.896,0.229-8.806,0.688-11.733c0.459-2.926,1.178-5.129,2.155-6.607
		c1.338-2.098,2.935-3.597,4.79-4.495c1.856-0.899,4.302-1.349,7.335-1.349s5.479,0.449,7.335,1.349
		c1.856,0.898,3.463,2.397,4.82,4.495c0.978,1.519,1.691,3.736,2.141,6.653c0.448,2.917,0.674,6.813,0.674,11.688
		c0,4.854-0.23,8.746-0.689,11.672c-0.459,2.928-1.167,5.15-2.125,6.668c-1.357,2.098-2.964,3.597-4.82,4.496
		c-1.856,0.898-4.302,1.348-7.335,1.348s-5.479-0.449-7.335-1.348c-1.855-0.899-3.452-2.398-4.79-4.496
		c-0.978-1.478-1.696-3.681-2.155-6.607S616.348,198.571,616.348,193.676z M625.128,193.676c0,7.592,0.443,12.372,1.33,14.34
		c0.888,1.968,2.526,2.951,4.919,2.951c2.352,0,3.96-0.963,4.827-2.892c0.867-1.928,1.301-6.728,1.301-14.399
		s-0.438-12.487-1.315-14.445s-2.501-2.937-4.873-2.937s-3.996,0.979-4.873,2.937S625.128,186.004,625.128,193.676z"/>
</g>
<g>
	<path fill="#59584B" d="M657.553,170.6h8.601v31.107c0,3.557,0.435,5.969,1.304,7.237s2.413,1.903,4.63,1.903
		c2.198,0,3.722-0.64,4.57-1.918c0.85-1.278,1.274-3.727,1.274-7.343V170.6h8.48v31.856c0,3.097-0.175,5.359-0.524,6.788
		s-0.934,2.682-1.753,3.761c-1.239,1.618-2.877,2.832-4.915,3.642c-2.038,0.809-4.455,1.213-7.252,1.213
		c-5.274,0-8.996-1.143-11.163-3.431c-2.168-2.288-3.252-6.278-3.252-11.973V170.6z"/>
</g>
<g>
	<path fill="#59584B" d="M698.464,216.751V170.6h14.924c4.556,0,7.832,1.02,9.83,3.057c1.997,2.038,2.997,5.375,2.997,10.01
		c0,4.555-1.064,7.946-3.192,10.174c-2.127,2.229-5.379,3.342-9.754,3.342h-6.264v19.569H698.464z M706.765,190.799h3.597
		c2.677,0,4.556-0.524,5.634-1.573c1.079-1.05,1.618-2.843,1.618-5.38c0-2.557-0.494-4.33-1.483-5.319
		c-0.988-0.989-2.872-1.483-5.648-1.483h-3.717V190.799z"/>
</g>
</svg>
