<?xml version="1.0" encoding="utf-8"?>
<!-- Generator: Adobe Illustrator 16.0.0, SVG Export Plug-In . SVG Version: 6.00 Build 0)  -->
<!DOCTYPE svg PUBLIC "-//W3C//DTD SVG 1.1//EN" "http://www.w3.org/Graphics/SVG/1.1/DTD/svg11.dtd">
<svg version="1.1" id="Layer_1" xmlns="http://www.w3.org/2000/svg" xmlns:xlink="http://www.w3.org/1999/xlink" x="0px" y="0px"
	 width="360.488px" height="144.292px" viewBox="0 0 360.488 144.292" enable-background="new 0 0 360.488 144.292"
	 xml:space="preserve">
<g>
	<path fill-rule="evenodd" clip-rule="evenodd" fill="#FFFFFF" d="M135.47,89.859c0.322,0.354,0.665,0.691,0.964,1.064
		c6.567,8.173,14.729,14.184,24.623,17.652c16.032,5.62,31.586,4.368,46.528-3.771c6.839-3.726,12.457-8.894,17.287-14.955
		c0.479,0.012,0.959,0.034,1.438,0.034c43.897,0.001,87.795,0.001,131.692,0c0.399,0,0.801-0.021,1.199,0
		c0.916,0.05,1.318-0.363,1.267-1.282c-0.035-0.638-0.003-1.279-0.003-1.919c0.001-24.067,0.009-48.135-0.008-72.203
		c-0.003-3.56,0.569-3.234-3.135-3.235c-46.456-0.006-92.911-0.005-139.367,0c-1.278,0-2.557,0.058-3.833,0.089
		c-1.066-0.7-2.125-1.411-3.199-2.097c-14.795-9.461-30.629-11.594-47.441-6.674c-6.274,1.836-11.88,5.017-17.187,8.768
		c-0.958-0.03-1.917-0.086-2.875-0.086C96.554,11.24,49.687,11.24,2.819,11.241c-3.232,0-2.789-0.15-2.79,2.867
		C0.02,38.341,0.015,62.575,0.034,86.809c0.003,3.447-0.608,3.126,3.236,3.127c43.188,0.008,86.376,0.006,129.564,0.002
		C133.713,89.938,134.592,89.887,135.47,89.859z M247.869,128.273c0-1.684-0.031-3.03,0.013-4.374
		c0.025-0.791-0.201-1.215-1.066-1.15c-0.557,0.041-1.119,0.021-1.679,0.015c-0.618-0.007-0.818,0.318-0.813,0.898
		c0.04,4.237-0.163,8.493,0.157,12.708c0.351,4.627,4.811,7.604,9.54,6.764c4.407-0.782,7.174-5.119,6.221-9.752
		c-0.873-4.238-5.412-7.021-9.746-5.952C249.729,127.618,248.991,127.909,247.869,128.273z M223.394,136.784
		c0.88-0.496,1.689-0.312,2.467-0.319c2.554-0.024,5.108,0.003,7.662-0.013c1.911-0.012,2.036-0.144,1.841-2.043
		c-0.334-3.25-2.101-5.501-5.084-6.663c-2.996-1.167-5.849-0.626-8.262,1.501c-2.52,2.221-3.193,5.106-2.339,8.278
		c1.428,5.291,7.939,7.541,12.346,4.32c0.405-0.296,1.188-0.59,0.753-1.246c-0.474-0.717-1.137-1.35-1.829-1.87
		c-0.689-0.52-1.125,0.337-1.666,0.563C226.797,140.337,224.766,139.541,223.394,136.784z M162.622,132.314
		c0-1.036,0.007-2.072-0.001-3.107c-0.018-2.127-0.021-2.131-2.103-2.038c-0.531,0.023-1.167-0.164-1.427,0.544
		c-0.191,0.519-0.509,0.479-0.925,0.303c-0.511-0.216-1.028-0.439-1.563-0.575c-4.617-1.174-9.068,1.736-9.959,6.494
		c-0.843,4.5,2.415,8.766,7.097,9.292c4.669,0.524,8.659-2.864,8.873-7.565C162.664,134.548,162.62,133.43,162.622,132.314z
		 M315.013,132.249c0-1.357-0.014-2.716,0.005-4.073c0.01-0.685-0.247-1.036-0.972-1c-0.718,0.036-1.817-0.254-2.085,0.101
		c-0.903,1.197-1.781,0.51-2.682,0.263c-4.553-1.252-9.278,1.49-10.147,5.901c-0.972,4.935,2.166,9.297,7.032,9.776
		c4.86,0.479,8.729-2.949,8.848-7.853C315.037,134.326,315.016,133.287,315.013,132.249z M278.736,132.058
		c-0.021-0.001-0.041-0.002-0.062-0.003c0-1.275,0.009-2.551-0.006-3.826c-0.005-0.386,0.021-0.907-0.479-0.958
		c-0.999-0.103-2.19-0.502-2.934,0.259c-0.484,0.495-0.713,0.634-1.289,0.388c-0.511-0.217-1.042-0.408-1.582-0.533
		c-4.402-1.02-8.929,1.931-9.701,6.308c-0.792,4.482,2.045,8.706,6.355,9.459c4.724,0.826,8.929-2.159,9.488-6.801
		C278.699,134.932,278.673,133.489,278.736,132.058z M180.864,135.203c-0.032-4.464-3.674-8.061-8.121-8.021
		c-4.437,0.041-8.063,3.711-8.036,8.134c0.026,4.429,3.707,8.052,8.144,8.017C177.328,143.298,180.896,139.677,180.864,135.203z
		 M317.204,135.091c-0.06,4.6,3.281,8.101,7.836,8.211c4.476,0.109,8.123-3.406,8.181-7.885c0.059-4.536-3.378-8.134-7.861-8.228
		C320.874,127.095,317.262,130.596,317.204,135.091z M87.525,135.571c0.111-4.588-3.202-8.207-7.67-8.381
		c-4.472-0.174-8.203,3.296-8.329,7.746c-0.131,4.637,3.371,8.342,7.932,8.39C83.835,143.373,87.42,139.927,87.525,135.571z
		 M296.703,143.181c0.269-2.183,0.068-4.415,0.113-6.639c0.018-0.876,0.018-1.764-0.103-2.629c-0.552-3.984-4.217-6.922-8.32-6.713
		c-4.137,0.21-7.457,3.47-7.566,7.515c-0.065,2.394,0.07,4.795-0.044,7.186c-0.069,1.426,0.636,1.537,1.735,1.521
		c1.046-0.017,1.84-0.007,1.777-1.478c-0.1-2.311-0.126-4.641,0.068-6.941c0.22-2.61,2.277-4.341,4.648-4.213
		c2.348,0.127,4.17,2.07,4.257,4.637c0.06,1.755,0.013,3.514,0.013,5.271c0.002,2.859,0.002,2.861,2.892,2.681
		C296.323,143.367,296.469,143.271,296.703,143.181z M28.831,127.178c0,0.015,0,0.028,0,0.042c-1.119,0-2.244-0.073-3.355,0.015
		c-2.305,0.185-3.472,1.2-3.867,3.226c-0.52,2.669,0.199,4.376,2.32,5.433c1.365,0.681,2.832,1.069,4.3,1.455
		c0.677,0.178,1.607,0.329,1.542,1.217c-0.073,0.99-1.048,1.039-1.837,1.129c-0.396,0.045-0.798,0.034-1.198,0.035
		c-1.359,0.005-2.72,0.044-4.077-0.011c-0.953-0.038-1.301,0.379-1.256,1.272c0.024,0.479,0.005,0.959,0.013,1.438
		c0.011,0.689,0.359,0.988,1.055,0.977c2.395-0.043,4.799,0.155,7.177-0.281c2.426-0.444,3.813-1.977,4.012-4.391
		c0.204-2.466-0.679-3.883-3.044-4.807c-0.667-0.26-1.375-0.413-2.058-0.635c-0.759-0.246-1.519-0.493-2.262-0.781
		c-0.51-0.197-1.199-0.397-1.135-1.048c0.07-0.715,0.84-0.651,1.347-0.673c1.437-0.062,2.877-0.022,4.317-0.031
		c2.317-0.015,2.415-0.158,2.252-2.43c-0.056-0.789-0.299-1.181-1.126-1.158C30.91,127.199,29.87,127.178,28.831,127.178z
		 M47.579,127.408c0,2.525,0.036,5.073-0.01,7.62c-0.049,2.694-1.948,4.676-4.397,4.683c-2.517,0.008-4.334-1.887-4.386-4.638
		c-0.038-2.073,0.012-4.147-0.015-6.221c-0.022-1.676-0.047-1.676-1.761-1.691c-1.858-0.018-1.868-0.018-1.893,1.754
		c-0.017,1.195-0.003,2.393-0.003,3.589c0,1.116-0.048,2.235,0.01,3.35c0.211,4.052,3.466,7.207,7.647,7.455
		c3.967,0.235,7.52-2.56,8.246-6.479c0.41-2.218,0.17-4.455,0.199-6.684C51.258,126.84,51.227,126.839,47.579,127.408z
		 M103.888,127.175c0,0.007,0,0.014,0,0.021c-1.038,0-2.08-0.055-3.114,0.011c-2.367,0.149-3.732,1.246-4.151,3.25
		c-0.539,2.581,0.324,4.545,2.6,5.533c1.309,0.568,2.717,0.91,4.08,1.354c0.676,0.221,1.566,0.357,1.507,1.256
		c-0.07,1.064-1.069,0.997-1.841,1.095c-0.394,0.05-0.797,0.033-1.196,0.035c-1.357,0.004-2.716,0.025-4.073-0.004
		c-0.792-0.017-1.203,0.269-1.16,1.104c0.024,0.478,0.021,0.959-0.001,1.437c-0.037,0.808,0.333,1.15,1.137,1.14
		c2.392-0.033,4.794,0.147,7.165-0.306c2.276-0.435,3.58-1.84,3.777-4.011c0.259-2.862-0.442-4.165-2.84-5.13
		c-0.736-0.297-1.528-0.452-2.284-0.704c-0.83-0.276-1.666-0.549-2.464-0.902c-0.395-0.175-0.945-0.385-0.764-1.012
		c0.138-0.474,0.635-0.485,0.995-0.498c1.754-0.06,3.515-0.146,5.265-0.057c1.354,0.069,1.595-0.529,1.555-1.704
		c-0.063-1.839-0.001-1.854-1.557-1.902C105.646,127.152,104.767,127.175,103.888,127.175z M126.248,127.476
		c-0.698-0.441-1.353-0.311-1.98-0.308c-1.652,0.008-1.67,0.021-1.687,1.729c-0.022,2.234,0.046,4.472-0.032,6.704
		c-0.066,1.888-1.276,3.362-3.004,3.908c-1.786,0.565-3.731-0.089-4.898-1.625c-0.661-0.87-0.868-1.849-0.859-2.92
		c0.021-2.535,0.007-5.07,0.007-7.794c-1.063,0-1.931-0.007-2.799,0.002c-0.565,0.006-0.881,0.269-0.864,0.872
		c0.084,2.946-0.31,5.916,0.219,8.838c0.719,3.978,4.266,6.653,8.295,6.396c4.049-0.258,7.366-3.338,7.573-7.268
		C126.369,133.149,126.248,130.273,126.248,127.476z M144.455,138.54c0-1.038,0.014-2.077-0.002-3.115
		c-0.074-4.669-3.401-8.152-7.875-8.252c-4.423-0.1-8.04,3.307-8.26,7.903c-0.11,2.311,0.051,4.634-0.046,6.945
		c-0.065,1.558,0.911,1.386,1.88,1.393c0.985,0.006,1.936,0.137,1.863-1.408c-0.101-2.151-0.027-4.312-0.022-6.468
		c0.002-0.799,0.052-1.572,0.465-2.311c1.001-1.791,2.881-2.713,4.815-2.294c2.159,0.469,3.426,1.954,3.479,4.227
		c0.052,2.235,0.004,4.472,0.02,6.708c0.003,0.531-0.176,1.248,0.535,1.419c0.921,0.222,1.948,0.362,2.8-0.093
		c0.629-0.335,0.317-1.165,0.339-1.78C144.481,140.457,144.455,139.498,144.455,138.54z M53.33,138.19
		c0,1.119-0.014,2.238,0.003,3.357c0.029,1.863,0.037,1.863,1.85,1.854c1.71-0.01,1.724-0.009,1.742-1.968
		c0.018-1.998,0.048-3.998-0.003-5.995c-0.067-2.591,1.808-4.576,4.453-4.646c2.453-0.065,4.349,1.976,4.411,4.691
		c0.044,1.917,0.001,3.837,0.012,5.755c0.013,2.255,0.062,2.257,2.26,2.181c0.873-0.029,1.336-0.238,1.32-1.208
		c-0.041-2.558,0.095-5.123-0.065-7.672c-0.271-4.301-3.95-7.498-8.243-7.347c-4.32,0.153-7.647,3.536-7.736,7.88
		C53.313,136.111,53.331,137.15,53.33,138.19z M209.094,136.288c-0.003,0-0.006,0-0.008,0c0,1.676-0.011,3.353,0.003,5.029
		c0.017,2.146,0.138,2.205,2.346,2.101c0.902-0.042,1.292-0.33,1.275-1.261c-0.037-1.994-0.011-3.99-0.01-5.986
		c0-3.059,0-3.06,2.929-3.139c0.239-0.007,0.479-0.009,0.718-0.002c0.571,0.016,0.822-0.234,0.916-0.824
		c0.353-2.225,0.021-2.666-2.157-2.704c-0.398-0.007-0.799,0.012-1.196-0.015c-0.846-0.058-0.902-0.563-0.528-1.137
		c0.68-1.04,1.649-1.717,2.863-2.023c0.371-0.093,0.88-0.043,0.926-0.562c0.083-0.933,0.458-2.02-0.17-2.757
		c-0.544-0.639-1.501-0.146-2.27-0.012c-0.229,0.04-0.444,0.172-0.664,0.268c-3.172,1.391-4.787,3.872-4.956,7.276
		C209.016,132.452,209.094,134.372,209.094,136.288z M201.343,133.072c0-2.71,0.004-5.42-0.001-8.13
		c-0.005-2.326-0.066-2.324-2.406-2.211c-0.991,0.049-1.163,0.475-1.16,1.328c0.023,5.978,0.057,11.956-0.018,17.934
		c-0.019,1.527,0.847,1.391,1.839,1.419c1.077,0.03,1.824-0.047,1.775-1.493C201.271,138.973,201.342,136.021,201.343,133.072z
		 M206.956,135.271c0-2.231-0.094-4.467,0.032-6.69c0.089-1.563-0.842-1.396-1.82-1.411c-1.006-0.016-1.848-0.081-1.821,1.414
		c0.079,4.46,0.077,8.924,0.001,13.384c-0.024,1.487,0.808,1.439,1.831,1.444c1.033,0.005,1.877,0.038,1.806-1.45
		C206.878,139.736,206.956,137.502,206.956,135.271z M338.945,130.805c0-2.228,0.009-4.455-0.008-6.683
		c-0.003-0.38,0.017-0.977-0.194-1.102c-0.86-0.512-1.862-0.315-2.787-0.198c-0.949,0.121-0.596,0.985-0.599,1.548
		c-0.027,4.136-0.025,8.272-0.011,12.409c0.007,2.069,0.031,1.994,2.169,2.013c1.202,0.011,1.482-0.452,1.449-1.545
		C338.899,135.102,338.945,132.952,338.945,130.805z M186.266,139.9c-3.447-0.401-3.447-0.401-3.372,2.685
		c0.041,1.688,0.041,1.688,1.722,1.704c1.826,0.018,1.853,0.018,1.854-1.813C186.469,141.616,186.652,140.729,186.266,139.9z
		 M206.962,124.53c0.059-1.089-0.603-1.761-1.729-1.779c-1.043-0.018-1.639,0.487-1.758,1.516c-0.119,1.033,0.586,1.863,1.611,1.941
		C206.135,126.289,206.904,125.6,206.962,124.53z M335.358,141.555c0.029,1.021,0.868,1.784,1.897,1.725
		c0.932-0.053,1.645-0.776,1.677-1.701c0.035-0.994-0.779-1.835-1.781-1.841C336.126,139.731,335.328,140.539,335.358,141.555z"/>
	<path fill-rule="evenodd" clip-rule="evenodd" fill="#207DC1" d="M214.121,11.334c1.278-0.031,2.557-0.089,3.835-0.089
		c46.456-0.004,92.911-0.006,139.367,0c3.704,0,3.132-0.325,3.135,3.235c0.017,24.067,0.009,48.135,0.008,72.203
		c0,0.64-0.032,1.281,0.003,1.919c0.052,0.919-0.351,1.332-1.267,1.282c-0.398-0.021-0.8,0-1.199,0
		c-43.897,0.001-87.795,0.001-131.692,0c-0.479,0-0.959-0.022-1.438-0.034c0.233-0.792,0.819-1.365,1.269-2.02
		c6.387-9.282,9.839-19.574,9.913-30.816c0.118-17.755-6.688-32.463-20.206-44.03C215.245,12.467,214.696,11.886,214.121,11.334z
		 M340.461,62.421c-0.002,0-0.004,0-0.005,0c0-2.399-0.01-4.798,0.003-7.196c0.01-1.854-0.253-3.656-0.848-5.419
		c-4.032-11.948-19.03-15.81-28.407-7.273c-1.58,1.438-1.447,1.58-2.979,0.022c-0.167-0.171-0.346-0.333-0.532-0.483
		c-5.374-4.359-11.407-5.398-17.768-2.862c-6.259,2.495-10.274,7.276-10.825,14.063c-0.497,6.118-0.147,12.304-0.193,18.459
		c-0.007,0.938,0.407,1.265,1.301,1.243c1.438-0.033,2.878,0.011,4.316-0.009c2.81-0.039,2.795,0.523,2.795-2.884
		c-0.001-4.958-0.102-9.918,0.038-14.872c0.146-5.197,4.048-8.834,9.146-8.79c5.062,0.044,8.818,3.823,8.943,9.006
		c0.022,0.959,0.007,1.919,0.007,2.878c0,4.158-0.009,8.315,0.003,12.473c0.006,2.171,0.021,2.177,2.273,2.188
		c1.679,0.008,3.358-0.014,5.037-0.001c0.79,0.007,1.188-0.32,1.157-1.139c-0.021-0.559,0.004-1.119,0.004-1.679
		c0.004-5.037-0.083-10.077,0.04-15.111c0.095-3.916,2.182-6.698,5.795-8.037c3.469-1.285,6.769-0.73,9.544,1.939
		c2.03,1.952,2.842,4.363,2.83,7.133c-0.021,5.117,0.017,10.235-0.019,15.352c-0.008,1.092,0.283,1.616,1.483,1.562
		c1.756-0.078,3.521-0.091,5.275,0.005c1.323,0.072,1.621-0.518,1.601-1.695C340.426,68.338,340.461,65.379,340.461,62.421z
		 M265.028,42.768c-0.247-0.646-0.041-1.005,0.158-1.339c1.512-2.534,3.621-4.196,6.627-4.61c1.861-0.256,1.874-0.298,1.896-1.955
		c0.022-1.677,0.034-3.355-0.006-5.031c-0.037-1.511-0.095-1.577-1.704-1.504c-3.188,0.145-6.116,1.13-8.712,2.985
		c-5.11,3.65-7.653,8.64-7.651,14.925c0.003,5.43-0.002,10.861-0.003,16.291c0,2.955,0.026,5.91-0.012,8.864
		c-0.014,1.058,0.229,1.646,1.458,1.595c1.834-0.076,3.674-0.044,5.51-0.011c0.934,0.018,1.566-0.183,1.484-1.3
		c-0.04-0.556-0.002-1.118-0.002-1.677c0.001-5.67-0.012-11.34,0.009-17.01c0.006-1.684,0.048-1.711,1.746-1.735
		c2.155-0.029,4.313-0.039,6.468,0.003c1.005,0.02,1.456-0.331,1.431-1.378c-0.045-1.835-0.069-3.675,0.009-5.509
		c0.054-1.272-0.457-1.66-1.677-1.624C269.688,42.817,267.315,42.768,265.028,42.768z"/>
	<path fill-rule="evenodd" clip-rule="evenodd" fill="#217DC1" d="M135.47,89.859c-0.878,0.027-1.757,0.078-2.636,0.078
		C89.646,89.941,46.458,89.943,3.27,89.936c-3.844-0.001-3.233,0.32-3.236-3.127C0.015,62.575,0.02,38.341,0.029,14.108
		c0.001-3.018-0.442-2.867,2.79-2.867c46.867,0,93.734-0.001,140.601,0.003c0.958,0,1.917,0.056,2.875,0.085
		c-0.705,0.646-1.387,1.317-2.116,1.934c-22.1,18.675-26.336,51.011-9.794,74.758C134.792,88.604,135.347,89.107,135.47,89.859z
		 M29.651,56.705c0.439,1.729,0.126,3.256-0.639,4.688c-1.54,2.882-4.032,4.22-7.247,4.262c-2.397,0.032-4.795,0.028-7.192,0.002
		c-0.879-0.01-1.344,0.28-1.328,1.226c0.027,1.598,0.04,3.198-0.007,4.794c-0.032,1.105,0.538,1.322,1.493,1.307
		c2.876-0.046,5.759,0.076,8.629-0.067c7.079-0.354,13.199-6.245,13.711-13.359c0.419-5.818,0.404-11.668,0.024-17.486
		c-0.521-7.966-7.023-13.816-15.044-13.758c-6.195,0.044-10.754,2.987-13.442,8.437c-2.601,5.274-2.222,10.625,1.292,15.415
		c3.667,5,8.715,7.019,14.916,6.071C26.491,57.979,27.986,57.219,29.651,56.705z M59.844,65.661c0-0.388-0.063-0.588,0.01-0.676
		c0.407-0.49,0.844-0.957,1.276-1.426c3.04-3.298,5.882-6.747,8.1-10.67c1.269-2.245,2.268-4.601,2.605-7.166
		c0.602-4.574,0.268-8.98-2.996-12.629c-4.937-5.52-13.625-6.485-19.632-2.142c-3.894,2.816-6.199,6.592-6.464,11.497
		c-0.061,1.125,0.315,1.615,1.483,1.554c1.275-0.066,2.563-0.089,3.835,0.007c1.336,0.101,2.021-0.213,2.13-1.743
		c0.155-2.19,1.374-3.916,3.138-5.167c2.496-1.771,5.191-1.926,7.94-0.62c2.738,1.301,3.64,3.644,3.542,6.51
		c-0.072,2.114-0.571,4.091-1.704,5.912c-1.312,2.11-2.804,4.084-4.371,6.004c-4.605,5.644-9.713,10.825-14.783,16.042
		c-0.526,0.541-1.183,1-1.511,1.809c0.94,0.346,1.734,0.205,2.507,0.207c8.074,0.011,16.147,0.007,24.221,0.007
		c3.763,0,3.79,0,3.755-3.819c-0.036-4.038,0.581-3.447-3.605-3.486C66.158,65.637,62.994,65.661,59.844,65.661z M121.347,28.593
		c-0.083-0.088-0.131-0.185-0.18-0.185c-9.587-0.039-19.173-0.068-28.76-0.108c-0.791-0.003-1.172,0.302-1.16,1.128
		c0.025,1.678,0.025,3.357,0,5.035c-0.012,0.814,0.345,1.167,1.144,1.143c0.559-0.018,1.119,0.004,1.678,0.004
		c4.476,0,8.951-0.015,13.427,0.008c1.904,0.01,1.938,0.1,1.102,1.891c-0.236,0.507-0.493,1.004-0.742,1.504
		c-5.248,10.504-10.5,21.006-15.737,31.516c-0.347,0.696-0.901,1.327-0.861,2.442c1.973,0,3.948-0.121,5.901,0.036
		c1.781,0.144,2.66-0.553,3.437-2.135c6.626-13.474,13.347-26.901,20.032-40.345C120.937,29.904,121.436,29.335,121.347,28.593z
		 M85.751,69.239c-0.042-2.037-1.629-3.569-3.69-3.563c-2.056,0.005-3.668,1.566-3.686,3.567c-0.018,2.105,1.701,3.784,3.808,3.718
		C84.2,72.897,85.793,71.235,85.751,69.239z"/>
	<path fill-rule="evenodd" clip-rule="evenodd" fill="#F7E303" d="M135.47,89.859c-0.124-0.752-0.678-1.256-1.084-1.838
		c-16.542-23.747-12.306-56.083,9.794-74.758c0.729-0.616,1.411-1.288,2.116-1.934c5.307-3.751,10.913-6.932,17.187-8.768
		c16.812-4.919,32.646-2.787,47.441,6.674c1.074,0.687,2.133,1.397,3.198,2.097c0.574,0.552,1.123,1.134,1.727,1.651
		c13.518,11.566,20.324,26.275,20.206,44.03c-0.074,11.242-3.526,21.534-9.913,30.816c-0.449,0.654-1.035,1.228-1.269,2.02
		c-4.831,6.062-10.449,11.229-17.288,14.955c-14.941,8.14-30.496,9.392-46.528,3.771c-9.894-3.469-18.056-9.479-24.623-17.652
		C136.135,90.551,135.792,90.214,135.47,89.859z M216.401,70.445c0.398,7.343-2.101,10.901-8.797,12.467
		c-0.938,0.219-1.138,0.624-1.122,1.444c0.03,1.519-0.018,3.039,0.016,4.558c0.033,1.529,0.066,1.539,1.702,1.441
		c2.606-0.155,5.038-0.911,7.233-2.308c5.539-3.524,8.505-8.536,8.535-15.164c0.026-5.678,0.025-11.356-0.007-17.034
		c-0.009-1.515-0.127-3.031-0.493-4.519c-2.253-9.149-11.553-14.846-20.884-12.782c-9.143,2.022-15.129,11.396-13.177,20.631
		c2.381,11.264,14.813,17.195,25.103,11.99C215.063,70.891,215.522,70.365,216.401,70.445z M143.935,41.013c0-1.111,0-1.823,0-2.535
		c0-2.875-0.053-5.751,0.023-8.625c0.033-1.275-0.432-1.705-1.666-1.635c-1.353,0.077-2.714-0.001-4.072,0.021
		c-1.791,0.029-1.822,0.042-1.824,1.888c-0.01,8.625-0.084,17.251,0.021,25.875c0.132,10.821,10.171,18.846,20.778,16.738
		c9.209-1.832,15.309-10.433,13.916-19.624c-1.435-9.465-9.637-15.803-19.123-14.863C149.238,38.527,146.756,39.492,143.935,41.013z
		 M176.398,55.572c0,2.234,0,4.469,0,6.704c0,3.112,0.022,6.225-0.01,9.337c-0.01,1.004,0.345,1.446,1.391,1.413
		c1.674-0.055,3.352-0.036,5.027-0.015c0.826,0.012,1.152-0.369,1.116-1.162c-0.022-0.478,0.001-0.958,0.001-1.437
		c0-9.896,0-19.792,0-29.689c0-0.479-0.02-0.958,0.001-1.436c0.034-0.798-0.331-1.172-1.128-1.169
		c-1.517,0.006-3.033-0.024-4.549-0.001c-1.806,0.027-1.837,0.043-1.843,1.891C176.387,45.196,176.398,50.384,176.398,55.572z
		 M180.247,28.242c-2.119-0.035-3.811,1.597-3.83,3.693c-0.018,1.964,1.59,3.638,3.575,3.72c2.144,0.088,3.855-1.479,3.918-3.583
		C183.973,29.942,182.38,28.277,180.247,28.242z"/>
	<path fill-rule="evenodd" clip-rule="evenodd" fill="#32312F" d="M247.869,128.273c1.122-0.364,1.86-0.655,2.626-0.844
		c4.334-1.069,8.873,1.714,9.746,5.952c0.953,4.633-1.813,8.97-6.221,9.752c-4.729,0.84-9.189-2.137-9.54-6.764
		c-0.32-4.215-0.117-8.471-0.157-12.708c-0.005-0.58,0.195-0.905,0.813-0.898c0.56,0.007,1.122,0.026,1.679-0.015
		c0.865-0.064,1.092,0.359,1.066,1.15C247.838,125.243,247.869,126.59,247.869,128.273z M252.528,130.765
		c-2.309-0.073-4.519,1.979-4.647,4.314c-0.128,2.306,1.898,4.5,4.281,4.635c2.483,0.142,4.688-1.912,4.717-4.394
		C256.906,132.938,254.903,130.839,252.528,130.765z"/>
	<path fill-rule="evenodd" clip-rule="evenodd" fill="#32312F" d="M223.394,136.784c1.372,2.757,3.403,3.553,5.889,2.509
		c0.541-0.227,0.977-1.083,1.666-0.563c0.692,0.521,1.355,1.153,1.829,1.87c0.435,0.656-0.348,0.95-0.753,1.246
		c-4.406,3.221-10.918,0.971-12.346-4.32c-0.854-3.172-0.181-6.058,2.339-8.278c2.413-2.127,5.266-2.668,8.262-1.501
		c2.983,1.162,4.75,3.413,5.084,6.663c0.195,1.899,0.07,2.031-1.841,2.043c-2.554,0.016-5.108-0.012-7.662,0.013
		C225.083,136.473,224.273,136.288,223.394,136.784z M230.911,132.876c-2.381-2.859-5.604-2.735-6.743,0
		C226.321,132.876,228.465,132.876,230.911,132.876z"/>
	<path fill-rule="evenodd" clip-rule="evenodd" fill="#353332" d="M162.621,132.314c-0.001,1.115,0.042,2.233-0.008,3.347
		c-0.214,4.701-4.204,8.09-8.873,7.565c-4.682-0.526-7.939-4.792-7.097-9.292c0.891-4.758,5.342-7.668,9.959-6.494
		c0.535,0.136,1.052,0.359,1.563,0.575c0.417,0.177,0.734,0.216,0.925-0.303c0.26-0.708,0.896-0.521,1.427-0.544
		c2.082-0.093,2.085-0.089,2.103,2.038C162.629,130.242,162.622,131.278,162.621,132.314z M159.038,135.33
		c0.037-2.429-1.883-4.461-4.306-4.559c-2.36-0.096-4.479,1.898-4.565,4.295c-0.092,2.539,1.914,4.649,4.426,4.657
		C157.015,139.731,159,137.769,159.038,135.33z"/>
	<path fill-rule="evenodd" clip-rule="evenodd" fill="#32312F" d="M315.014,132.249c0.002,1.038,0.023,2.077-0.002,3.115
		c-0.118,4.903-3.987,8.331-8.848,7.853c-4.866-0.479-8.004-4.842-7.032-9.776c0.869-4.411,5.595-7.153,10.147-5.901
		c0.9,0.247,1.778,0.935,2.682-0.263c0.268-0.354,1.367-0.064,2.085-0.101c0.725-0.036,0.981,0.315,0.972,1
		C314.999,129.533,315.013,130.892,315.014,132.249z M311.498,135.287c0.014-2.322-2.031-4.454-4.352-4.536
		c-2.451-0.086-4.588,1.988-4.61,4.475c-0.021,2.502,2.044,4.552,4.543,4.507C309.422,139.691,311.484,137.616,311.498,135.287z"/>
	<path fill-rule="evenodd" clip-rule="evenodd" fill="#333230" d="M278.736,132.058c-0.063,1.432-0.037,2.874-0.208,4.292
		c-0.56,4.642-4.765,7.627-9.488,6.801c-4.311-0.753-7.147-4.977-6.355-9.459c0.772-4.377,5.299-7.327,9.701-6.308
		c0.54,0.125,1.071,0.316,1.582,0.533c0.576,0.246,0.805,0.107,1.289-0.388c0.743-0.761,1.935-0.361,2.934-0.259
		c0.5,0.051,0.474,0.572,0.479,0.958c0.015,1.275,0.006,2.551,0.006,3.826C278.695,132.056,278.716,132.057,278.736,132.058z
		 M275.093,135.196c-0.026-2.317-2.132-4.43-4.43-4.443c-2.412-0.016-4.642,2.21-4.582,4.571c0.059,2.353,2.111,4.38,4.465,4.41
		C273.003,139.767,275.121,137.652,275.093,135.196z"/>
	<path fill-rule="evenodd" clip-rule="evenodd" fill="#353332" d="M180.864,135.203c0.032,4.474-3.537,8.095-8.013,8.13
		c-4.438,0.035-8.118-3.588-8.144-8.017c-0.027-4.423,3.599-8.093,8.036-8.134C177.19,127.143,180.832,130.739,180.864,135.203z
		 M177.25,135.31c0.023-2.388-1.96-4.467-4.345-4.555c-2.312-0.084-4.493,1.979-4.578,4.33c-0.089,2.477,2.014,4.655,4.481,4.644
		C175.214,139.718,177.228,137.715,177.25,135.31z"/>
	<path fill-rule="evenodd" clip-rule="evenodd" fill="#333230" d="M317.204,135.091c0.058-4.495,3.67-7.996,8.155-7.901
		c4.483,0.094,7.92,3.691,7.861,8.228c-0.058,4.479-3.705,7.994-8.181,7.885C320.485,143.191,317.145,139.69,317.204,135.091z
		 M329.671,135.137c-0.064-2.372-2.182-4.417-4.536-4.381c-2.478,0.039-4.517,2.238-4.394,4.739c0.118,2.405,2.224,4.328,4.631,4.23
		C327.77,139.628,329.736,137.528,329.671,135.137z"/>
	<path fill-rule="evenodd" clip-rule="evenodd" fill="#333230" d="M87.525,135.571c-0.105,4.355-3.69,7.802-8.067,7.755
		c-4.561-0.048-8.063-3.753-7.932-8.39c0.126-4.45,3.857-7.92,8.329-7.746C84.323,127.364,87.636,130.983,87.525,135.571z
		 M79.585,130.754c-2.345-0.031-4.462,2.024-4.528,4.396c-0.066,2.378,1.918,4.48,4.317,4.574c2.495,0.098,4.642-1.981,4.63-4.482
		C83.992,132.846,81.964,130.786,79.585,130.754z"/>
	<path fill-rule="evenodd" clip-rule="evenodd" fill="#333230" d="M296.703,143.181c-0.234,0.09-0.38,0.187-0.529,0.196
		c-2.89,0.181-2.89,0.179-2.892-2.681c0-1.757,0.047-3.516-0.013-5.271c-0.087-2.566-1.909-4.51-4.257-4.637
		c-2.371-0.128-4.429,1.603-4.648,4.213c-0.194,2.301-0.168,4.631-0.068,6.941c0.063,1.471-0.731,1.461-1.777,1.478
		c-1.1,0.017-1.805-0.095-1.735-1.521c0.114-2.391-0.021-4.792,0.044-7.186c0.109-4.045,3.43-7.305,7.566-7.515
		c4.104-0.209,7.769,2.729,8.32,6.713c0.12,0.865,0.12,1.753,0.103,2.629C296.771,138.766,296.972,140.998,296.703,143.181z"/>
	<path fill-rule="evenodd" clip-rule="evenodd" fill="#353332" d="M28.831,127.178c1.039,0,2.08,0.021,3.118-0.007
		c0.828-0.022,1.07,0.369,1.126,1.158c0.163,2.271,0.065,2.415-2.252,2.43c-1.439,0.009-2.88-0.03-4.317,0.031
		c-0.506,0.021-1.277-0.042-1.347,0.673c-0.064,0.65,0.625,0.851,1.135,1.048c0.744,0.288,1.503,0.535,2.262,0.781
		c0.683,0.222,1.391,0.375,2.058,0.635c2.365,0.924,3.248,2.341,3.044,4.807c-0.199,2.414-1.586,3.946-4.012,4.391
		c-2.377,0.437-4.782,0.238-7.177,0.281c-0.696,0.012-1.043-0.287-1.055-0.977c-0.008-0.479,0.011-0.96-0.013-1.438
		c-0.045-0.894,0.303-1.311,1.256-1.272c1.357,0.055,2.718,0.016,4.077,0.011c0.4-0.001,0.802,0.01,1.198-0.035
		c0.79-0.09,1.764-0.139,1.837-1.129c0.066-0.888-0.864-1.039-1.542-1.217c-1.469-0.386-2.935-0.774-4.3-1.455
		c-2.122-1.057-2.84-2.764-2.32-5.433c0.395-2.025,1.562-3.041,3.867-3.226c1.112-0.088,2.236-0.015,3.355-0.015
		C28.831,127.206,28.831,127.192,28.831,127.178z"/>
	<path fill-rule="evenodd" clip-rule="evenodd" fill="#393736" d="M47.579,127.408c3.648-0.569,3.68-0.568,3.638,2.738
		c-0.029,2.229,0.211,4.466-0.199,6.684c-0.726,3.919-4.279,6.714-8.246,6.479c-4.181-0.248-7.436-3.403-7.647-7.455
		c-0.058-1.114-0.01-2.233-0.01-3.35c0-1.196-0.014-2.394,0.003-3.589c0.025-1.771,0.035-1.771,1.893-1.754
		c1.714,0.016,1.739,0.016,1.761,1.691c0.027,2.073-0.023,4.147,0.015,6.221c0.051,2.751,1.869,4.646,4.386,4.638
		c2.449-0.007,4.348-1.988,4.397-4.683C47.615,132.481,47.579,129.934,47.579,127.408z"/>
	<path fill-rule="evenodd" clip-rule="evenodd" fill="#353332" d="M103.888,127.175c0.878,0,1.757-0.022,2.635,0.005
		c1.556,0.048,1.494,0.063,1.557,1.902c0.041,1.175-0.201,1.773-1.555,1.704c-1.75-0.089-3.51-0.003-5.265,0.057
		c-0.36,0.013-0.857,0.024-0.995,0.498c-0.182,0.627,0.369,0.837,0.764,1.012c0.798,0.354,1.634,0.626,2.464,0.902
		c0.756,0.252,1.547,0.407,2.284,0.704c2.398,0.965,3.1,2.268,2.84,5.13c-0.197,2.171-1.5,3.576-3.777,4.011
		c-2.371,0.453-4.773,0.272-7.165,0.306c-0.804,0.011-1.174-0.332-1.137-1.14c0.022-0.478,0.025-0.959,0.001-1.437
		c-0.043-0.835,0.368-1.12,1.16-1.104c1.357,0.029,2.715,0.008,4.073,0.004c0.399-0.002,0.802,0.015,1.196-0.035
		c0.772-0.098,1.771-0.03,1.841-1.095c0.06-0.898-0.831-1.035-1.507-1.256c-1.363-0.444-2.771-0.786-4.08-1.354
		c-2.276-0.988-3.139-2.952-2.6-5.533c0.418-2.004,1.784-3.101,4.151-3.25c1.034-0.065,2.076-0.011,3.114-0.011
		C103.888,127.188,103.888,127.182,103.888,127.175z"/>
	<path fill-rule="evenodd" clip-rule="evenodd" fill="#393736" d="M126.248,127.476c0,2.798,0.121,5.674-0.029,8.535
		c-0.207,3.93-3.523,7.01-7.573,7.268c-4.03,0.257-7.576-2.419-8.295-6.396c-0.529-2.922-0.135-5.892-0.219-8.838
		c-0.017-0.604,0.298-0.866,0.864-0.872c0.868-0.009,1.735-0.002,2.799-0.002c0,2.724,0.014,5.259-0.007,7.794
		c-0.009,1.071,0.199,2.05,0.859,2.92c1.167,1.536,3.112,2.19,4.898,1.625c1.729-0.546,2.938-2.021,3.004-3.908
		c0.078-2.232,0.01-4.47,0.032-6.704c0.017-1.707,0.035-1.721,1.687-1.729C124.895,127.165,125.55,127.034,126.248,127.476z"/>
	<path fill-rule="evenodd" clip-rule="evenodd" fill="#393736" d="M144.455,138.54c0,0.958,0.026,1.917-0.009,2.874
		c-0.022,0.615,0.29,1.445-0.339,1.78c-0.852,0.455-1.878,0.314-2.8,0.093c-0.711-0.171-0.531-0.888-0.535-1.419
		c-0.015-2.236,0.032-4.473-0.02-6.708c-0.053-2.272-1.32-3.758-3.479-4.227c-1.934-0.419-3.813,0.503-4.815,2.294
		c-0.414,0.738-0.463,1.512-0.465,2.311c-0.005,2.156-0.079,4.316,0.022,6.468c0.073,1.545-0.877,1.414-1.863,1.408
		c-0.969-0.007-1.945,0.165-1.88-1.393c0.097-2.312-0.064-4.635,0.046-6.945c0.22-4.597,3.837-8.003,8.26-7.903
		c4.473,0.1,7.801,3.583,7.875,8.252C144.469,136.463,144.455,137.502,144.455,138.54z"/>
	<path fill-rule="evenodd" clip-rule="evenodd" fill="#333230" d="M53.33,138.19c0-1.04-0.018-2.079,0.003-3.118
		c0.089-4.344,3.417-7.727,7.736-7.88c4.293-0.151,7.972,3.046,8.243,7.347c0.161,2.549,0.024,5.114,0.065,7.672
		c0.016,0.97-0.447,1.179-1.32,1.208c-2.199,0.076-2.248,0.074-2.26-2.181c-0.011-1.918,0.032-3.838-0.012-5.755
		c-0.063-2.716-1.958-4.757-4.411-4.691c-2.646,0.07-4.52,2.056-4.453,4.646c0.052,1.997,0.021,3.997,0.003,5.995
		c-0.018,1.959-0.032,1.958-1.742,1.968c-1.813,0.01-1.821,0.01-1.85-1.854C53.316,140.429,53.33,139.31,53.33,138.19z"/>
	<path fill-rule="evenodd" clip-rule="evenodd" fill="#32312F" d="M209.094,136.288c0-1.916-0.078-3.836,0.017-5.747
		c0.169-3.404,1.784-5.886,4.956-7.276c0.22-0.096,0.435-0.228,0.664-0.268c0.769-0.135,1.726-0.627,2.27,0.012
		c0.628,0.737,0.253,1.824,0.17,2.757c-0.046,0.519-0.555,0.469-0.926,0.562c-1.214,0.307-2.184,0.983-2.863,2.023
		c-0.374,0.574-0.317,1.079,0.528,1.137c0.397,0.026,0.798,0.008,1.196,0.015c2.179,0.038,2.51,0.479,2.157,2.704
		c-0.094,0.59-0.345,0.84-0.916,0.824c-0.238-0.007-0.479-0.005-0.718,0.002c-2.929,0.079-2.929,0.08-2.929,3.139
		c-0.001,1.996-0.027,3.992,0.01,5.986c0.017,0.931-0.373,1.219-1.275,1.261c-2.208,0.104-2.329,0.046-2.346-2.101
		c-0.014-1.677-0.003-3.354-0.003-5.029C209.088,136.288,209.091,136.288,209.094,136.288z"/>
	<path fill-rule="evenodd" clip-rule="evenodd" fill="#32312F" d="M201.343,133.072c-0.001,2.949-0.071,5.9,0.029,8.847
		c0.049,1.446-0.698,1.523-1.775,1.493c-0.992-0.028-1.857,0.108-1.839-1.419c0.074-5.978,0.041-11.956,0.018-17.934
		c-0.003-0.854,0.169-1.279,1.16-1.328c2.34-0.113,2.401-0.115,2.406,2.211C201.347,127.652,201.343,130.362,201.343,133.072z"/>
	<path fill-rule="evenodd" clip-rule="evenodd" fill="#32312F" d="M206.956,135.271c0,2.23-0.078,4.465,0.028,6.69
		c0.071,1.488-0.772,1.455-1.806,1.45c-1.023-0.005-1.855,0.043-1.831-1.444c0.076-4.46,0.078-8.924-0.001-13.384
		c-0.026-1.495,0.815-1.43,1.821-1.414c0.979,0.016,1.909-0.152,1.82,1.411C206.862,130.805,206.956,133.04,206.956,135.271z"/>
	<path fill-rule="evenodd" clip-rule="evenodd" fill="#32312F" d="M338.945,130.805c0,2.147-0.046,4.297,0.02,6.442
		c0.033,1.093-0.247,1.556-1.449,1.545c-2.138-0.019-2.162,0.057-2.169-2.013c-0.015-4.137-0.017-8.273,0.011-12.409
		c0.003-0.563-0.351-1.427,0.599-1.548c0.925-0.117,1.927-0.313,2.787,0.198c0.211,0.125,0.191,0.722,0.194,1.102
		C338.954,126.35,338.945,128.577,338.945,130.805z"/>
	<path fill-rule="evenodd" clip-rule="evenodd" fill="#393736" d="M186.266,139.9c0.387,0.828,0.203,1.716,0.203,2.576
		c-0.001,1.83-0.027,1.83-1.854,1.813c-1.681-0.016-1.681-0.016-1.722-1.704C182.818,139.499,182.818,139.499,186.266,139.9z"/>
	<path fill-rule="evenodd" clip-rule="evenodd" fill="#393736" d="M206.962,124.53c-0.058,1.069-0.827,1.759-1.875,1.678
		c-1.025-0.078-1.73-0.908-1.611-1.941c0.119-1.028,0.715-1.533,1.758-1.516C206.359,122.77,207.021,123.441,206.962,124.53z"/>
	<path fill-rule="evenodd" clip-rule="evenodd" fill="#393736" d="M335.358,141.555c-0.03-1.016,0.768-1.823,1.793-1.817
		c1.002,0.006,1.816,0.847,1.781,1.841c-0.032,0.925-0.745,1.648-1.677,1.701C336.227,143.339,335.388,142.576,335.358,141.555z"/>
	<path fill-rule="evenodd" clip-rule="evenodd" fill="#FAFCFD" d="M340.461,62.421c0,2.958-0.035,5.917,0.018,8.875
		c0.021,1.178-0.277,1.768-1.601,1.695c-1.754-0.096-3.52-0.083-5.275-0.005c-1.2,0.054-1.491-0.47-1.483-1.562
		c0.035-5.117-0.003-10.234,0.019-15.352c0.012-2.77-0.8-5.181-2.83-7.133c-2.775-2.669-6.075-3.224-9.544-1.939
		c-3.613,1.339-5.7,4.121-5.795,8.037c-0.123,5.035-0.036,10.074-0.04,15.111c0,0.56-0.024,1.12-0.004,1.679
		c0.031,0.818-0.367,1.146-1.157,1.139c-1.679-0.013-3.358,0.009-5.037,0.001c-2.252-0.011-2.268-0.017-2.273-2.188
		c-0.012-4.158-0.003-8.315-0.003-12.473c0-0.959,0.016-1.919-0.007-2.878c-0.125-5.184-3.882-8.962-8.943-9.006
		c-5.099-0.045-9.001,3.592-9.146,8.79c-0.14,4.954-0.039,9.914-0.038,14.872c0,3.407,0.015,2.845-2.795,2.884
		c-1.438,0.02-2.879-0.024-4.316,0.009c-0.894,0.021-1.308-0.306-1.301-1.243c0.046-6.156-0.304-12.341,0.193-18.459
		c0.551-6.786,4.566-11.568,10.825-14.063c6.36-2.536,12.394-1.497,17.768,2.862c0.187,0.15,0.365,0.313,0.532,0.483
		c1.531,1.558,1.398,1.416,2.979-0.022c9.377-8.537,24.375-4.675,28.407,7.273c0.595,1.763,0.857,3.565,0.848,5.419
		c-0.013,2.398-0.003,4.797-0.003,7.196C340.457,62.421,340.459,62.421,340.461,62.421z"/>
	<path fill-rule="evenodd" clip-rule="evenodd" fill="#FAFCFD" d="M265.028,42.768c2.287,0,4.659,0.05,7.029-0.021
		c1.22-0.036,1.73,0.352,1.677,1.624c-0.078,1.833-0.054,3.673-0.009,5.509c0.025,1.047-0.426,1.398-1.431,1.378
		c-2.155-0.042-4.313-0.033-6.468-0.003c-1.698,0.023-1.74,0.051-1.746,1.735c-0.021,5.67-0.008,11.34-0.009,17.01
		c0,0.559-0.038,1.121,0.002,1.677c0.082,1.118-0.551,1.318-1.484,1.3c-1.836-0.033-3.676-0.065-5.51,0.011
		c-1.229,0.052-1.472-0.537-1.458-1.595c0.038-2.954,0.012-5.909,0.012-8.864c0.001-5.43,0.006-10.861,0.003-16.291
		c-0.002-6.285,2.541-11.275,7.651-14.925c2.596-1.854,5.524-2.84,8.712-2.985c1.609-0.073,1.667-0.006,1.704,1.504
		c0.04,1.676,0.028,3.354,0.006,5.031c-0.022,1.657-0.035,1.699-1.896,1.955c-3.006,0.414-5.115,2.077-6.627,4.61
		C264.987,41.762,264.781,42.122,265.028,42.768z"/>
	<path fill-rule="evenodd" clip-rule="evenodd" fill="#FAFCFD" d="M29.651,56.705c-1.665,0.515-3.16,1.274-4.834,1.53
		c-6.201,0.948-11.25-1.071-14.916-6.071c-3.514-4.79-3.893-10.141-1.292-15.415c2.688-5.449,7.247-8.392,13.442-8.437
		c8.021-0.058,14.524,5.792,15.044,13.758c0.38,5.818,0.395,11.668-0.024,17.486c-0.512,7.114-6.632,13.006-13.711,13.359
		c-2.87,0.144-5.753,0.021-8.629,0.067c-0.955,0.016-1.525-0.201-1.493-1.307c0.047-1.597,0.034-3.196,0.007-4.794
		c-0.016-0.945,0.449-1.235,1.328-1.226c2.397,0.026,4.795,0.03,7.192-0.002c3.215-0.042,5.707-1.38,7.247-4.262
		C29.777,59.961,30.091,58.434,29.651,56.705z M29.844,43.416c0.018-4.311-3.433-7.8-7.713-7.8c-4.27,0.001-7.71,3.5-7.688,7.819
		c0.022,4.262,3.312,7.558,7.589,7.603C26.436,51.085,29.826,47.778,29.844,43.416z"/>
	<path fill-rule="evenodd" clip-rule="evenodd" fill="#F9FBFC" d="M59.844,65.661c3.15,0,6.314-0.024,9.478,0.006
		c4.186,0.04,3.569-0.552,3.605,3.486c0.034,3.819,0.007,3.819-3.755,3.819c-8.074,0-16.147,0.004-24.221-0.007
		c-0.773-0.002-1.567,0.139-2.507-0.207c0.329-0.809,0.985-1.268,1.511-1.809c5.07-5.216,10.178-10.397,14.783-16.042
		c1.567-1.92,3.059-3.894,4.371-6.004c1.133-1.821,1.632-3.798,1.704-5.912c0.098-2.866-0.804-5.209-3.542-6.51
		c-2.749-1.306-5.445-1.151-7.94,0.62c-1.764,1.251-2.983,2.977-3.138,5.167c-0.108,1.529-0.793,1.843-2.13,1.743
		c-1.272-0.096-2.56-0.073-3.835-0.007c-1.168,0.061-1.544-0.43-1.483-1.554c0.265-4.905,2.571-8.681,6.464-11.497
		c6.007-4.343,14.695-3.378,19.632,2.142c3.264,3.649,3.598,8.055,2.996,12.629c-0.337,2.564-1.337,4.92-2.605,7.166
		c-2.218,3.923-5.06,7.372-8.1,10.67c-0.432,0.469-0.869,0.936-1.276,1.426C59.781,65.073,59.844,65.273,59.844,65.661z"/>
	<path fill-rule="evenodd" clip-rule="evenodd" fill="#F9FBFC" d="M121.347,28.593c0.088,0.742-0.41,1.311-0.72,1.935
		c-6.685,13.444-13.406,26.872-20.032,40.345c-0.777,1.582-1.656,2.278-3.437,2.135c-1.953-0.157-3.929-0.036-5.901-0.036
		c-0.04-1.115,0.514-1.746,0.861-2.442c5.237-10.509,10.489-21.012,15.737-31.516c0.25-0.5,0.506-0.998,0.742-1.504
		c0.836-1.792,0.803-1.881-1.102-1.891c-4.476-0.023-8.951-0.007-13.427-0.008c-0.56,0-1.119-0.022-1.678-0.004
		c-0.799,0.024-1.156-0.329-1.144-1.143c0.025-1.678,0.025-3.356,0-5.035c-0.013-0.826,0.369-1.132,1.16-1.128
		c9.587,0.04,19.173,0.069,28.76,0.108C121.216,28.409,121.264,28.505,121.347,28.593z"/>
	<path fill-rule="evenodd" clip-rule="evenodd" fill="#F8F8F8" d="M85.751,69.239c0.042,1.996-1.552,3.658-3.567,3.722
		c-2.107,0.065-3.826-1.613-3.808-3.718c0.017-2,1.63-3.562,3.686-3.567C84.123,65.67,85.709,67.203,85.751,69.239z"/>
	<path fill-rule="evenodd" clip-rule="evenodd" fill="#292722" d="M216.401,70.445c-0.879-0.08-1.339,0.446-1.891,0.726
		c-10.289,5.206-22.722-0.726-25.103-11.99c-1.952-9.236,4.034-18.609,13.177-20.631c9.331-2.064,18.631,3.633,20.884,12.782
		c0.366,1.488,0.484,3.004,0.493,4.519c0.032,5.678,0.033,11.355,0.007,17.034c-0.03,6.628-2.996,11.64-8.535,15.164
		c-2.195,1.396-4.627,2.152-7.233,2.308c-1.636,0.098-1.669,0.088-1.702-1.441c-0.033-1.519,0.015-3.039-0.016-4.558
		c-0.016-0.82,0.185-1.226,1.122-1.444C214.301,81.346,216.8,77.788,216.401,70.445z M206.431,45.633
		c-5.421,0.034-9.908,4.53-9.905,9.925c0.003,5.532,4.593,10.093,10.077,10.014c5.469-0.079,9.876-4.51,9.891-9.944
		C216.508,50.088,211.987,45.598,206.431,45.633z"/>
	<path fill-rule="evenodd" clip-rule="evenodd" fill="#2A2822" d="M143.935,41.013c2.821-1.521,5.303-2.486,8.054-2.759
		c9.485-0.94,17.688,5.397,19.123,14.863c1.393,9.191-4.707,17.792-13.916,19.624c-10.607,2.108-20.646-5.917-20.778-16.738
		c-0.105-8.624-0.031-17.25-0.021-25.875c0.002-1.845,0.033-1.859,1.824-1.888c1.357-0.022,2.719,0.056,4.072-0.021
		c1.233-0.07,1.699,0.36,1.666,1.635c-0.076,2.874-0.023,5.75-0.023,8.625C143.935,39.19,143.935,39.901,143.935,41.013z
		 M163.774,55.501c-0.032-5.492-4.455-9.875-9.957-9.868c-5.475,0.008-9.863,4.421-9.878,9.934
		c-0.014,5.597,4.522,10.102,10.067,9.996C159.501,65.458,163.807,61.023,163.774,55.501z"/>
	<path fill-rule="evenodd" clip-rule="evenodd" fill="#2E2C21" d="M176.398,55.572c0-5.188-0.012-10.375,0.006-15.563
		c0.006-1.848,0.038-1.864,1.843-1.891c1.516-0.022,3.033,0.008,4.549,0.001c0.797-0.003,1.162,0.371,1.128,1.169
		c-0.021,0.478-0.001,0.957-0.001,1.436c0,9.896,0,19.793,0,29.689c0,0.479-0.023,0.958-0.001,1.437
		c0.036,0.792-0.29,1.173-1.116,1.162c-1.676-0.021-3.354-0.04-5.027,0.015c-1.046,0.033-1.4-0.409-1.391-1.413
		c0.032-3.112,0.01-6.225,0.01-9.337C176.398,60.041,176.398,57.806,176.398,55.572z"/>
	<path fill-rule="evenodd" clip-rule="evenodd" fill="#2E2C21" d="M180.247,28.242c2.133,0.035,3.726,1.701,3.663,3.83
		c-0.063,2.105-1.774,3.671-3.918,3.583c-1.984-0.082-3.593-1.756-3.575-3.72C176.437,29.838,178.128,28.207,180.247,28.242z"/>
	<path fill-rule="evenodd" clip-rule="evenodd" fill="#F8F8F8" d="M252.528,130.765c2.375,0.074,4.378,2.173,4.351,4.556
		c-0.028,2.481-2.233,4.535-4.717,4.394c-2.383-0.135-4.409-2.329-4.281-4.635C248.01,132.743,250.22,130.691,252.528,130.765z"/>
	<path fill-rule="evenodd" clip-rule="evenodd" fill="#F8F8F8" d="M230.911,132.876c-2.446,0-4.59,0-6.743,0
		C225.308,130.141,228.53,130.017,230.911,132.876z"/>
	<path fill-rule="evenodd" clip-rule="evenodd" fill="#F8F8F8" d="M159.038,135.33c-0.038,2.438-2.023,4.401-4.445,4.394
		c-2.513-0.008-4.518-2.118-4.426-4.657c0.086-2.396,2.205-4.391,4.565-4.295C157.154,130.869,159.075,132.901,159.038,135.33z"/>
	<path fill-rule="evenodd" clip-rule="evenodd" fill="#F8F8F8" d="M311.498,135.287c-0.014,2.329-2.076,4.404-4.419,4.445
		c-2.499,0.045-4.564-2.005-4.543-4.507c0.022-2.486,2.159-4.561,4.61-4.475C309.467,130.833,311.512,132.965,311.498,135.287z"/>
	<path fill-rule="evenodd" clip-rule="evenodd" fill="#F8F8F8" d="M275.093,135.196c0.028,2.456-2.09,4.57-4.547,4.538
		c-2.354-0.03-4.406-2.058-4.465-4.41c-0.06-2.361,2.17-4.587,4.582-4.571C272.961,130.767,275.066,132.879,275.093,135.196z"/>
	<path fill-rule="evenodd" clip-rule="evenodd" fill="#F8F8F8" d="M177.25,135.31c-0.023,2.405-2.036,4.408-4.441,4.419
		c-2.468,0.012-4.571-2.167-4.481-4.644c0.085-2.351,2.267-4.414,4.578-4.33C175.29,130.843,177.273,132.922,177.25,135.31z"/>
	<path fill-rule="evenodd" clip-rule="evenodd" fill="#F8F8F8" d="M329.671,135.137c0.065,2.392-1.901,4.491-4.299,4.589
		c-2.407,0.098-4.513-1.825-4.631-4.23c-0.123-2.501,1.916-4.7,4.394-4.739C327.489,130.72,329.606,132.765,329.671,135.137z"/>
	<path fill-rule="evenodd" clip-rule="evenodd" fill="#F8F8F8" d="M79.585,130.754c2.379,0.032,4.407,2.092,4.419,4.488
		c0.012,2.501-2.135,4.58-4.63,4.482c-2.399-0.094-4.383-2.196-4.317-4.574C75.123,132.778,77.24,130.723,79.585,130.754z"/>
	<path fill-rule="evenodd" clip-rule="evenodd" fill="#247FC2" d="M29.844,43.416c-0.018,4.362-3.408,7.669-7.813,7.623
		c-4.277-0.045-7.567-3.341-7.589-7.603c-0.022-4.32,3.418-7.818,7.688-7.819C26.411,35.616,29.862,39.105,29.844,43.416z"/>
	<path fill-rule="evenodd" clip-rule="evenodd" fill="#F5E003" d="M206.431,45.633c5.557-0.036,10.077,4.455,10.063,9.995
		c-0.015,5.435-4.422,9.865-9.891,9.944c-5.484,0.08-10.074-4.482-10.077-10.014C196.522,50.164,201.01,45.667,206.431,45.633z"/>
	<path fill-rule="evenodd" clip-rule="evenodd" fill="#F5E003" d="M163.774,55.501c0.033,5.522-4.272,9.957-9.768,10.062
		c-5.545,0.106-10.082-4.398-10.067-9.996c0.015-5.513,4.403-9.926,9.878-9.934C159.319,45.625,163.742,50.009,163.774,55.501z"/>
</g>
</svg>
