<?xml version="1.0" encoding="utf-8"?>
<!-- Generator: Adobe Illustrator 16.0.0, SVG Export Plug-In . SVG Version: 6.00 Build 0)  -->
<!DOCTYPE svg PUBLIC "-//W3C//DTD SVG 1.1//EN" "http://www.w3.org/Graphics/SVG/1.1/DTD/svg11.dtd">
<svg version="1.1" id="Layer_1" xmlns="http://www.w3.org/2000/svg" xmlns:xlink="http://www.w3.org/1999/xlink" x="0px" y="0px"
	 width="289.984px" height="289.897px" viewBox="276.721 153.652 289.984 289.897"
	 enable-background="new 276.721 153.652 289.984 289.897" xml:space="preserve">
<g>
	<path fill="#FFFFFF" d="M566.705,298.662c-0.18-4.139-0.307-8.28-0.557-12.414c-0.168-2.789-0.538-5.563-0.904-8.335
		c-1.755-13.319-5.436-26.085-10.854-38.358c-5.799-13.131-13.415-25.104-22.922-35.87c-7.259-8.22-15.132-15.794-23.979-22.28
		c-10.566-7.746-21.971-13.987-34.267-18.61c-13.146-4.942-26.717-7.922-40.701-8.778c-11.383-0.697-22.771-0.467-34.082,1.346
		c-7.803,1.25-15.479,3.024-22.968,5.532c-9.449,3.164-18.495,7.229-27.101,12.288c-8.53,5.017-16.532,10.767-23.762,17.492
		c-8.069,7.505-15.553,15.561-21.912,24.64c-8.722,12.451-15.282,25.908-19.759,40.419c-5.97,19.356-7.344,39.146-5.379,59.191
		c1.507,15.376,5.594,30.113,12.036,44.172c5.136,11.21,11.637,21.566,19.445,31.122c3.954,4.839,8.394,9.199,12.777,13.623
		c4.894,4.938,10.273,9.316,15.924,13.315c10.676,7.556,22.15,13.627,34.515,18.021c12.325,4.379,24.992,7.15,38.016,7.992
		c8.818,0.569,17.671,0.527,26.5-0.325c10.112-0.979,20.011-2.976,29.674-6.081c8.867-2.851,17.385-6.516,25.546-11.039
		c8.225-4.559,15.846-9.95,23.077-15.922c4.015-3.313,7.563-7.119,11.275-10.751c3.316-3.243,6.335-6.754,9.229-10.363
		c4.733-5.9,8.921-12.179,12.66-18.762c5.701-10.038,10.076-20.63,13.165-31.739C564.991,325.267,566.695,312.078,566.705,298.662z"
		/>
	<path fill="#080808" d="M566.705,298.662c-0.01,13.416-1.714,26.604-5.307,39.524c-3.089,11.109-7.464,21.701-13.165,31.739
		c-3.739,6.583-7.927,12.86-12.66,18.762c-2.896,3.609-5.913,7.12-9.229,10.363c-3.714,3.632-7.263,7.438-11.275,10.751
		c-7.231,5.972-14.854,11.363-23.077,15.922c-8.162,4.523-16.679,8.188-25.546,11.039c-9.663,3.105-19.562,5.104-29.674,6.081
		c-8.829,0.854-17.682,0.896-26.5,0.325c-13.024-0.842-25.69-3.613-38.017-7.992c-12.362-4.394-23.837-10.465-34.514-18.021
		c-5.651-3.999-11.03-8.379-15.924-13.315c-4.385-4.424-8.823-8.784-12.777-13.623c-7.809-9.556-14.31-19.912-19.445-31.122
		c-6.442-14.059-10.529-28.796-12.036-44.172c-1.965-20.046-0.591-39.835,5.379-59.191c4.477-14.511,11.037-27.968,19.759-40.419
		c6.359-9.079,13.843-17.135,21.912-24.64c7.229-6.726,15.23-12.477,23.762-17.492c8.605-5.061,17.651-9.124,27.101-12.288
		c7.488-2.508,15.165-4.282,22.968-5.532c11.311-1.813,22.699-2.042,34.082-1.346c13.984,0.856,27.555,3.836,40.701,8.778
		c12.296,4.623,23.699,10.865,34.267,18.61c8.849,6.485,16.722,14.061,23.979,22.28c9.507,10.767,17.123,22.739,22.922,35.87
		c5.419,12.273,9.1,25.04,10.854,38.358c0.366,2.773,0.736,5.546,0.904,8.335C566.398,290.382,566.525,294.524,566.705,298.662z
		 M530.438,383.798l-0.039,0.045c0.432-0.327,1.07-0.577,0.484-1.288c0.104-0.021,0.176-0.082,0.211-0.186
		c0.877,0.063,1.263-0.32,1.725-1.715l-0.035,0.051c1.041-1.054,2.233-2.007,2.436-3.625l-0.038,0.042
		c0.571-0.135,1-0.343,0.521-1.016l-0.029,0.027c0.541,0.385,0.676-0.156,0.844-0.425c1.594-2.554,3.163-5.121,4.736-7.682
		c0.925-1.368,1.746-2.791,2.347-4.336c1.593-2.484,2.678-5.229,4.009-7.851c0.209-0.411,0.427-0.87,0.101-1.345l-0.013,0.028
		c1.298-0.45,1.198-1.653,1.44-2.673l-0.028,0.053c0.688-0.896,1.031-1.935,1.264-3.021c0.482-0.692,0.765-1.472,0.961-2.284
		c0.128-0.249,0.258-0.498,0.387-0.747c0.652-0.903,0.92-1.927,1.169-3.416c-1.11,1.123-1.473,2.163-1.865,3.186
		c-0.021,0.22-0.043,0.438-0.064,0.657c-0.39,0.271-0.778,0.539-1.166,0.808c-1.831-1.951-1.8-1.932-0.314-4.118
		c1.272-1.877,2.064-3.954,2.217-6.238c0.043-0.652-0.041-1.313-0.67-1.688c-0.667-0.398-1.306,0.027-1.755,0.373
		c-1.073,0.821-1.984,1.822-2.727,2.987c-0.941,1.482-2.041,2.861-3.373,4.022c-2.069,1.804-4.63,1.103-5.45-1.477
		c-0.294-0.921-0.471-1.878-0.356-2.833c0.407-3.439,1.532-6.615,3.525-9.498c2.024,1.677,2.02,1.673,0.836,3.722
		c-0.318,0.552-0.578,1.137-0.878,1.7c-0.462,0.866-0.637,1.821-0.675,2.773c-0.028,0.691,0.037,1.5,0.823,1.836
		c0.758,0.322,1.395-0.006,1.907-0.597c0.676-0.779,1.439-1.457,2.03-2.342c0.969-1.45,1.829-2.996,3.101-4.236
		c1.16-1.131,2.496-1.874,4.088-1.246c1.479,0.582,1.982,1.992,2.188,3.471c0.109,0.791,0.134,1.595,0.229,2.818
		c0.932-1.947,1.141-3.612,1.547-5.217c3.243-12.784,4.751-25.762,4.036-38.946c-0.847-15.604-4.225-30.666-10.04-45.181
		c-6.258-15.618-15.138-29.611-26.312-42.134c-5.799-6.499-12.368-12.228-19.361-17.407c-6.189-4.586-12.78-8.563-19.646-12.094
		c-17.536-9.018-36.177-14.044-55.795-15.344c-12.183-0.807-24.261,0.412-36.182,3.038c-13.922,3.068-27.075,8.168-39.497,15.154
		c-9.254,5.205-17.807,11.408-25.617,18.581c-4.464,4.1-8.598,8.537-12.453,13.253c-5.812,7.112-10.926,14.664-15.27,22.739
		c-6.005,11.165-10.434,22.928-13.285,35.291c-4.037,17.505-4.715,35.095-1.609,52.818c0.994,5.669,2.464,11.221,3.867,16.79
		c0.404,2.443,1.312,4.732,2.172,7.034c0.416,1.11,0.615,2.339,1.673,3.104c0.006,0.388-0.172,0.901,0.55,0.797l-0.046-0.1
		c-0.582,0.612-0.016,1.146,0.175,1.649c1.306,3.468,2.929,6.796,4.548,10.124l0.059,0.039c0.455,1.554,1.529,2.742,2.391,4.057
		l0.125,0.194c-0.001,0.412,0.073,0.804,0.32,1.146l0.096,0.154c0.546,0.587,0.331,1.738,1.426,1.918l-0.031-0.06
		c-0.266,0.558-0.125,0.918,0.507,1.037l-0.022-0.037c-0.05,0.42,0.124,0.768,0.344,1.104c1.682,2.571,3.361,5.145,5.039,7.712
		c0.35,1.876,2.083,2.743,3.045,4.173c2.365,3.272,4.884,6.419,7.669,9.349c0.131,0.153,0.263,0.309,0.395,0.463
		c3.012,3.43,6.188,6.692,9.694,9.623c0.412,0.328,0.823,0.657,1.235,0.984c1.868,2.336,4.392,3.934,6.718,5.706
		c12.416,9.467,26.016,16.76,40.823,21.757c13.085,4.416,26.524,6.919,40.333,7.341c9.615,0.294,19.132-0.604,28.578-2.411
		c11.233-2.15,22.069-5.545,32.445-10.351c8.233-3.813,16.135-8.228,23.469-13.609c3.659-2.687,7.302-5.388,10.625-8.487
		c0.332-0.31,1.127-0.57,0.343-1.226l-0.031,0.051c0.938,0.47,1.512,0.085,1.479-0.992l-0.054,0.03
		c0.726,0.613,0.884-0.239,1.272-0.492c0.334-0.718,0.385-1.591,1.143-2.075c0.482,0.455,0.852,0.146,1.195-0.196
		c1.244-1.236,2.54-2.428,3.707-3.732c2.386-2.668,4.712-5.389,7.024-8.119c0.264-0.313,1.024-0.79,0.098-1.281l-0.033,0.061
		C530.12,384.871,530.286,384.35,530.438,383.798z"/>
	<path fill="#FDFDFD" d="M529.45,384.239c0.929,0.491,0.166,0.97-0.098,1.281c-2.313,2.731-4.64,5.451-7.024,8.119
		c-1.167,1.306-2.463,2.496-3.707,3.732c-0.345,0.343-0.713,0.651-1.188,0.188c1.36-1.502,2.36-3.197,3.006-5.112
		c1.877-5.568-4.211-10.941-8.623-9.855c-4.52,1.112-7.874,3.778-9.642,8.062c-1.36,3.298-0.638,6.381,2,8.95
		c2.374,2.313,5.046,2.806,8.078,1.563c0.445-0.185,0.884-0.364,1.362-0.118c0.784,0.654-0.011,0.916-0.343,1.226
		c-3.323,3.102-6.966,5.802-10.625,8.487c-7.334,5.383-15.234,9.798-23.469,13.609c-10.376,4.806-21.212,8.199-32.445,10.351
		c-9.445,1.809-18.963,2.705-28.578,2.411c-13.81-0.422-27.248-2.924-40.333-7.34c-14.809-4.998-28.408-12.291-40.823-21.758
		c-2.326-1.772-4.85-3.369-6.718-5.706c0.168-0.119,0.336-0.239,0.504-0.359c0.392-0.036,0.818,0.014,1.171-0.122
		c3.47-1.335,6.944-2.661,10.383-4.073c1.946-0.799,3.828-1.753,5.695-2.617c-0.236-1.131-1.321-1.078-1.763-1.723
		c-0.701-1.021-1.583-0.855-2.506-0.437c-0.792,0.358-1.552,0.793-2.352,1.132c-2.364,1.003-4.742,1.975-7.591,3.155
		c0.857-3.058,1.545-5.649,2.313-8.219c1.058-3.532,1.083-3.524-1.755-5.988c-0.039-0.033-0.127-0.01-0.184-0.013
		c-0.391,0.227-0.466,0.617-0.588,1.001c-1.277,4.021-2.496,8.061-3.324,12.202c-0.31,1.555-0.957,3.047-0.874,4.675
		c-0.122,0.133-0.244,0.268-0.366,0.4c-3.507-2.931-6.684-6.193-9.694-9.623c0.129-0.1,0.257-0.197,0.386-0.297
		c0.729,0.638,1.272,0.752,2.117-0.073c3.465-3.389,6.75-6.963,10.432-10.089c-0.34-0.968-1.184-1.404-1.66-2.131
		c-0.536-0.816-1.095-0.725-1.747-0.1c-1.209,1.16-2.449,2.288-3.688,3.417c-0.682,0.62-1.224,1.446-2.257,1.657
		c-0.473-0.794-0.3-1.602-0.309-2.373c-0.038-3.426,0.08-6.849,0.363-10.262c0.099-1.193-0.023-2.207-1.258-2.961
		c-4.096,2.996-8.245,6.033-12.396,9.07c-0.364,0.054-0.728,0.106-1.092,0.159c-1.68-2.571-3.359-5.145-5.041-7.716
		c-0.221-0.338-0.394-0.686-0.344-1.104c0.781-0.619,1.039,0.273,1.467,0.55c2.063,1.327,4.181,2.276,6.723,1.572
		c3.54-0.982,6.622-4.673,5.807-9.175c-0.615-3.393-2.203-6.343-4.497-8.828c-1.825-1.976-4.222-3.191-7.003-2.993
		c-4.339,0.308-7.335,3.98-7.04,8.363c0.046,0.692,0.743,1.53-0.324,2.063c-1.62-3.328-3.242-6.656-4.548-10.124
		c-0.19-0.505-0.757-1.037-0.175-1.649c1.096,0.324,1.319,1.813,2.558,1.956c1.346-2.329,1.317-2.304-0.356-4.166
		c-1.956-2.18-2.869-4.806-2.69-7.692c0.253-4.089,4.262-6.15,7.834-4.178c1.158,0.641,2.067,1.479,2.677,2.642
		c0.97,1.851,1.762,3.775,1.861,5.883c0.042,0.875,0.243,1.33,1.164,1.363c0.46,0.017,0.892,0.384,1.376,0.141
		c0.284-0.345,0.273-0.756,0.222-1.146c-0.449-3.369-1.572-6.516-3.336-9.404c-1.001-1.643-2.349-2.982-4.03-3.995
		c-4.353-2.622-9.542-0.4-10.558,4.58c-0.191,0.936-0.249,1.896-0.396,2.843c-0.059,0.38-0.307,0.509-0.674,0.339
		c-1.403-5.569-2.873-11.121-3.867-16.79c-3.104-17.724-2.428-35.313,1.609-52.818c2.853-12.363,7.28-24.126,13.285-35.291
		c4.343-8.075,9.458-15.627,15.27-22.739c3.854-4.716,7.989-9.153,12.453-13.253c7.811-7.173,16.362-13.376,25.617-18.581
		c12.421-6.984,25.574-12.085,39.497-15.154c11.921-2.626,23.999-3.845,36.182-3.037c19.618,1.299,38.259,6.325,55.795,15.343
		c6.866,3.532,13.457,7.508,19.646,12.094c6.993,5.181,13.563,10.908,19.361,17.407c11.174,12.522,20.054,26.517,26.312,42.134
		c5.815,14.516,9.193,29.576,10.04,45.181c0.716,13.185-0.793,26.162-4.036,38.946c-0.406,1.604-0.615,3.27-1.547,5.217
		c-0.097-1.225-0.12-2.027-0.229-2.818c-0.206-1.479-0.709-2.889-2.188-3.471c-1.592-0.628-2.928,0.115-4.088,1.246
		c-1.271,1.24-2.132,2.786-3.101,4.236c-0.591,0.885-1.354,1.563-2.03,2.342c-0.514,0.591-1.149,0.919-1.907,0.597
		c-0.786-0.336-0.853-1.145-0.823-1.836c0.038-0.952,0.213-1.907,0.675-2.773c0.3-0.563,0.56-1.148,0.878-1.7
		c1.184-2.049,1.188-2.045-0.836-3.722c-1.993,2.883-3.118,6.059-3.525,9.498c-0.113,0.955,0.063,1.912,0.356,2.833
		c0.82,2.578,3.381,3.279,5.45,1.477c1.332-1.161,2.432-2.54,3.373-4.022c0.741-1.165,1.652-2.166,2.727-2.987
		c0.449-0.346,1.088-0.771,1.755-0.373c0.629,0.376,0.713,1.035,0.67,1.688c-0.151,2.284-0.943,4.361-2.217,6.238
		c-1.484,2.188-1.517,2.167,0.314,4.118c0.388-0.269,0.776-0.537,1.166-0.808c0.124,0.106,0.25,0.214,0.375,0.32
		c-0.196,0.813-0.479,1.592-0.96,2.282c-0.24-0.168-0.472-0.271-0.619,0.104c-2.948,1.285-5.78,2.855-9.066,3.838
		c-0.128-1.399-0.038-2.647-0.425-3.874c-0.587-1.862-2.602-2.83-4.649-1.979c-1.101,0.458-1.979,1.262-2.723,2.261
		c-2.008,2.697-3.208,5.828-4.863,8.709c-0.672,1.17-0.34,1.57,0.692,2.179c4.01,2.36,7.954,4.833,11.92,7.261
		c0.204,0.213,0.409,0.428,0.616,0.643c-1.575,2.563-3.146,5.132-4.738,7.686c-0.168,0.269-0.303,0.81-0.846,0.425
		c-0.654-0.862,0.144-1.628,0.189-2.446c0.097-1.688-0.148-3.302-1.563-4.296c-3.036-2.134-6.187-4.106-9.356-6.19
		c-0.641,0.986-1.136,1.899-1.777,2.692c-0.504,0.623-0.325,0.966,0.214,1.349c2.262,1.606,4.506,3.239,6.784,4.822
		c2.538,1.763,2.865,3.13,1.257,5.764c-0.371,0.609-0.78,1.216-1.268,1.733c-1.711,1.825-3.253,1.945-5.197,0.4
		c-1.687-1.339-3.276-2.808-5.022-4.062c-0.896-0.643-1.496-2.111-2.575-1.914c-1.127,0.208-1.481,1.766-2.337,2.594
		c-0.079,0.075-0.043,0.271-0.07,0.484c0.957,1.009,2.228,1.715,3.222,2.758c0.982,1.029,2.265,1.778,3.219,2.828
		c2.191,2.412,4.578,3.405,7.602,1.548C529.095,384.135,529.295,384.223,529.45,384.239z M447.809,320.39
		c-2.702,1.544-4.462,3.772-5.186,6.847c-0.444,1.897-0.523,3.791-0.357,5.71c0.078,0.894-0.365,1.213-1.136,0.974
		c-3.45-1.081-6.814-1.009-10.011,0.845c-0.279-0.738,0.067-1.134,0.245-1.555c2.897-6.881,5.054-13.983,6.049-21.386
		c1.443-10.735,0.872-21.195-4.578-30.957c-3.14-5.619-6.604-10.884-11.845-14.859c-3.58-2.717-7.51-3.761-11.859-3.537
		c-2.965,0.152-4.217,1.389-4.922,4.313c-0.735,3.045-0.004,5.863,1.148,8.633c2.4,5.764,4.498,11.624,5.87,17.729
		c2.59,11.527,2.579,22.979-0.932,34.339c-3.078,9.958-8.575,18.343-16.677,24.886c-6.269,5.063-13.45,8.509-21.168,10.787
		c-6.056,1.787-12.223,3.059-18.528,3.605c-0.827,0.071-1.994,0.066-1.883,1.324c0.106,1.183,1.229,0.773,1.931,0.785
		c11.441,0.193,22.854-0.175,34.107-2.473c7.936-1.621,15.614-4.003,22.61-8.253c1.108-0.673,2.088-1.642,3.48-1.961
		c2.576,6.224,5.118,12.339,7.642,18.463c2.708,6.574,5.42,13.147,8.075,19.743c0.417,1.034,0.908,1.521,2.091,1.425
		c2.069-0.169,4.152-0.153,6.228-0.255c8.699-0.425,17.396-0.875,26.097-1.29c2.187-0.104,2.21-0.059,2.563-2.21
		c0.818-4.965,1.616-9.935,2.417-14.902c0.178-1.097,0.226-2.219,1.917-1.88c0.41,0.082,0.969-0.479,1.436-0.781
		c2.341-1.514,4.677-3.035,7.01-4.563c5.068-3.313,10.111-6.668,15.22-9.918c1.07-0.682,1.122-1.321,0.709-2.354
		c-1.128-2.816-2.187-5.662-3.278-8.493c-3.078-7.973-6.167-15.939-9.235-23.916c-0.733-1.905-0.722-1.924-2.401-0.8
		c-0.198,0.134-0.386,0.283-0.577,0.426c-0.282-0.021-0.446,0.128-0.545,0.375c-0.16,0.035-0.322,0.072-0.483,0.108
		c-0.785-1.015-2.037-1.207-3.104-1.686c-5.449-2.447-10.95-4.757-16.972-5.443C455.023,317.785,451.203,317.974,447.809,320.39z
		 M409.539,201.398c-15.387-0.335-28.434,12.577-28.397,28.215c0.036,15.756,12.589,28.394,28.285,28.406
		c15.291,0.015,28.172-12.179,28.402-28.061C438.061,214.043,424.707,201.049,409.539,201.398z M512.59,229.311
		c0.997-0.994,2.073-1.473,2.952-2.303c1.082-1.024,2.354-1.85,3.553-2.749c0.366-0.275,0.837-0.736,1.21-0.167
		c0.876,1.332,2.218,2.369,1.731,4.411c-0.753,3.176-1.133,6.439-1.935,9.617c-0.172,0.679-0.447,1.341,0.004,2.068
		c0.99,1.6,1.911,3.24,3.021,5.136c1.812-4.469,2.111-9.022,3.472-13.435c1.43,0.979,2.681,1.821,4.061,2.43
		c3.47,1.532,6.757-0.625,6.706-4.422c-0.026-2.022-0.578-3.93-1.444-5.758c-1.334-2.814-3.038-5.401-4.984-7.811
		c-1.725-2.137-3.425-4.313-5.461-6.226c-5.571,4.87-11.023,9.636-16.491,14.416c0.687,0.903,1.271,1.645,1.822,2.41
		C511.354,227.697,512.144,228.248,512.59,229.311z M507.376,209.1c0.846-0.285,1.379,0.162,1.961,0.38
		c1.139,0.429,2.313,0.601,3.522,0.562c3.03-0.099,5.003-2.461,4.567-5.449c-0.212-1.461-0.853-2.761-1.659-3.943
		c-3.403-4.982-8.327-8.267-13.185-11.612c-0.654-0.451-1.146-0.194-1.575,0.445c-1.019,1.512-2.087,2.988-3.14,4.478
		c-2.706,3.827-5.399,7.663-8.133,11.471c-0.561,0.781-0.733,1.27,0.276,1.878c1.207,0.729,2.274,1.688,3.418,2.56
		c2.303-2.145,3.749-4.935,5.991-7.074c0.365,0.334,0.585,0.569,0.839,0.76c1.413,1.056,2.171,2.274,2.14,4.222
		c-0.047,2.864,0.259,5.74,0.176,8.618c-0.021,0.705-0.129,1.405,0.499,1.996c1.25,1.175,2.441,2.414,3.976,3.943
		C507.56,217.582,507.267,213.3,507.376,209.1z M401.626,173.794c4.112,2.319,7.631,4.877,11.092,7.513
		c1.771,1.351,3.489,2.772,5.18,4.223c0.713,0.612,1.485,0.529,2.256,0.415c0.641-0.095,0.518-0.708,0.514-1.162
		c-0.046-5.663-0.064-11.328-0.164-16.99c-0.079-4.473-0.119-4.419-4.678-3.94c-1.233,0.129-1.624,0.517-1.535,1.745
		c0.236,3.264,0.368,6.536,0.526,9.806c0.021,0.425,0.326,0.97-0.468,1.232c-3.46-2.526-7.021-5.023-10.777-7.22
		c-1.847-1.08-3.663-2.208-5.579-3.177c-1.267-0.64-2.445-0.282-3.405,0.309c-0.741,0.456-0.083,1.481,0.067,2.232
		c1.055,5.245,2.114,10.489,3.222,15.725c0.802,3.795,0.836,3.788,4.572,2.787c0.077-0.021,0.148-0.067,0.227-0.078
		c0.792-0.106,1.054-0.503,0.888-1.315c-0.287-1.404-0.491-2.828-0.715-4.246C402.454,179.153,402.07,176.652,401.626,173.794z
		 M375.128,194.848c0.252,0.051,0.345,0.104,0.407,0.078c0.885-0.339,1.765-0.692,2.648-1.036c1.956-0.761,2.007-0.779,1.291-2.661
		c-1.872-4.923-3.74-9.848-5.73-14.724c-0.518-1.27-0.403-3.318-1.835-3.593c-1.203-0.231-2.65,0.813-3.988,1.297
		c-0.149,0.054-0.283,0.152-0.436,0.2c-1.023,0.313-1.101,0.924-0.687,1.821c0.868,1.88,1.624,3.813,2.526,5.674
		c0.342,0.704,0.171,0.999-0.442,1.281c-3.464,1.6-6.917,3.225-10.251,5.083c-0.92,0.514-1.45,0.296-1.856-0.651
		c-0.344-0.805-0.739-1.605-1.243-2.315c-0.863-1.216-1.19-3.438-2.493-3.526c-1.329-0.09-2.79,1.293-4.139,2.12
		c-1.331,0.816-1.312,0.884-0.474,2.207c2.21,3.489,4.411,6.984,6.646,10.458c1.445,2.247,2.943,4.46,4.437,6.718
		c0.919-0.55,1.695-0.95,2.398-1.453c0.743-0.532,1.822-0.636,2.188-1.563c-1.354-2.356-2.695-4.617-3.964-6.918
		c-0.811-1.472-0.757-1.488,0.642-2.268c2.774-1.547,5.641-2.908,8.53-4.223c1.835-0.834,1.833-0.833,2.625,0.921
		C373.008,190.166,374.09,192.555,375.128,194.848z M322.42,242.503c0.115-1.218,0.635-1.783,1.074-2.302
		c1.925-2.273,2.366-4.524,0.318-6.953c-0.629-0.746-0.288-1.358,0.213-2.115c1.277-1.93,2.799-3.677,4.065-5.602
		c1.248-1.896,2.604-3.188,5.046-2.115c0.355,0.155,0.783,0.142,1.156,0.269c0.595,0.202,1.075,0.111,1.515-0.356
		c1.188-1.268,2.396-2.517,3.775-3.959c-8.481-2.307-16.799-3.583-25.245-4.034c-1.545-0.083-2.844,1.936-2.358,3.487
		c1.478,4.729,3.357,9.31,5.388,13.819C318.802,235.832,320.232,239.038,322.42,242.503z M302.836,234.307
		c-3.896,3.752-6.033,8.053-7.552,12.708c-1.424,4.367-1.661,8.757-0.059,13.141c0.731,2.004,1.916,3.619,3.875,4.645
		c3.469,1.813,7.619,1.39,10.748-1.102c3.956-3.15,6.201-7.423,7.933-12.017c0.899-2.386,1.771-4.809,1.819-7.412
		c0.029-1.593-0.148-1.731-1.597-1.387c-0.465,0.111-0.913,0.294-1.379,0.396c-0.827,0.183-1.135,0.59-1.094,1.508
		c0.188,4.192-1.481,7.83-3.95,11.016c-1.76,2.271-4.238,3.668-7.327,2.963c-3.621-0.827-5.632-3.375-5.762-7.198
		c-0.16-4.721,1.655-8.706,4.788-12.104c0.757-0.822,1.098-1.415,0.529-2.458C303.404,236.263,303.219,235.4,302.836,234.307z
		 M462.41,192.44c0.704,0.933,1.626,0.78,2.307,1.192c2.21,1.34,4.138,1.11,5.679-1.105c0.702-1.009,1.538-0.825,2.497-0.316
		c2.174,1.15,4.342,2.331,6.601,3.293c1.475,0.629,2.027,1.414,1.904,3.065c-0.234,3.142-0.124,3.154,2.593,4.705
		c0.714,0.407,1.447,0.78,2.316,1.246c0.71-8.356,0.524-16.472-0.191-24.588c-0.1-1.127-0.61-1.625-1.576-2.092
		c-1.063-0.516-1.787-0.118-2.639,0.382c-4.048,2.379-7.914,5.024-11.667,7.841C467.568,188.063,464.873,190.025,462.41,192.44z
		 M328.14,202.88c0.045,2.787,1.332,4.327,3.684,4.645c0.935,0.126,1.881,0.081,2.84-0.168c1.78-0.461,3.415-1.264,5.099-1.949
		c1.628-0.663,3.294-1.191,5.014-1.521c1.156-0.222,2.186,0.149,2.908,1.118c0.813,1.091-0.042,1.932-0.511,2.807
		c-0.146,0.272-0.429,0.469-0.643,0.705c-1.683,1.857-3.699,3.25-6.058,4.064c-1.261,0.435-1.64,1.091-1.145,2.309
		c0.119,0.291,0.129,0.624,0.206,0.935c0.361,1.457,0.372,1.477,1.698,0.86c2.908-1.352,5.447-3.229,7.683-5.518
		c1.564-1.602,2.946-3.325,3.642-5.505c1.112-3.492-0.717-6.256-4.339-6.613c-2.061-0.204-3.921,0.5-5.795,1.153
		c-2.246,0.78-4.428,1.787-6.831,2.016c-1.396,0.132-2.308-0.87-1.985-2.196c0.187-0.768,0.565-1.455,1.139-2.056
		c1.616-1.693,3.46-3.002,5.691-3.771c2.02-0.694,2.01-0.724,1.775-2.759c-0.205-1.783-0.334-1.92-2.051-1.19
		c-3.782,1.604-7.053,3.912-9.595,7.201C329.221,199.188,328.289,201.062,328.14,202.88z M540.56,231.644
		c-1.494,5.344-2.959,10.401-4.738,15.366c-0.564,1.58-1.396,2.563-2.898,3.167c-1.696,0.684-3.344,1.49-5.021,2.223
		c-0.919,0.401-1.103,0.976-0.669,1.891c0.51,1.078,0.978,2.188,1.33,3.326c0.364,1.178,0.982,1.201,1.977,0.776
		c1.893-0.809,3.848-1.474,5.733-2.298c0.956-0.417,1.769-0.432,2.68,0.085c2.829,1.606,5.819,2.897,8.643,4.543
		c2.063,1.203,4.04,2.576,6.347,3.82c-0.399-2.548-1.307-4.691-1.906-6.915c-0.218-0.807-0.863-1.089-1.498-1.422
		c-3.092-1.627-6.174-3.279-9.439-4.535c-1.118-0.43-1.511-0.948-0.979-2.147c0.774-1.749,1.49-3.535,2.059-5.358
		c0.65-2.098,2.218-4.104,1.632-6.35C543.254,235.696,541.985,233.78,540.56,231.644z M461.408,190.028
		c0.117-0.937-0.608-1.598-0.818-2.429c-0.249-0.99-0.886-1.23-1.796-0.938c-2.837,0.912-5.533,0.187-8.135-0.854
		c-3.639-1.453-5.423-4.674-4.843-8.378c0.565-3.604,3.394-6.075,7.236-6.406c3.321-0.286,6.344,0.67,9.029,2.458
		c1.344,0.896,2.255,0.603,3.315-0.165c0.433-0.313,0.83-0.674,1.229-1.001c-0.125-0.233-0.163-0.424-0.278-0.505
		c-5.152-3.649-10.877-5.215-17.137-4.34c-3.229,0.452-6.107,1.828-7.992,4.68c-3.271,4.947-1.384,12.077,3.947,15.116
		c2.728,1.554,5.651,2.554,8.733,3.045C456.402,190.71,458.938,191.227,461.408,190.028z M411.384,424.162
		c2.171,2.215,3.972,4.12,5.852,5.945c1.372,1.332,2.861,2.541,4.269,3.838c0.528,0.488,1.122,0.651,1.759,0.444
		c0.873-0.284,0.476-1.08,0.491-1.646c0.047-1.595,0.016-3.19-0.016-4.787c-0.059-3.159-0.139-6.32-0.21-9.484
		c-1.267-0.347-2.354-0.129-3.675-0.15c0.24,1.619-0.033,3.096-0.062,4.6c-0.026,1.402,0.402,2.962-0.541,4.508
		c-2.701-2.613-5.359-5.008-7.622-7.808c-0.596-0.734-1.12-1.58-2.06-1.949c-0.962-0.378-1.546-0.1-1.663,0.902
		c-0.537,4.594-1.025,9.192-1.536,13.789c-0.034,0.321-0.097,0.694,0.219,0.864c1.029,0.555,2.179,0.542,3.264,0.351
		c1.001-0.177,0.581-1.17,0.673-1.807C410.87,429.414,410.708,427.001,411.384,424.162z M372.282,418.723
		c-0.691-1.376-1.192-2.275-1.604-3.214c-1.279-2.907-2.545-5.822-3.773-8.751c-0.335-0.8-0.778-1.458-1.677-1.484
		c-0.804-0.024-0.903,0.843-1.171,1.339c-1.663,3.077-3.236,6.202-4.85,9.307c-1.776,3.42-1.782,3.418,2.106,5.042
		c1.362-2.786,2.731-5.588,4.256-8.704c0.808,1.796,1.42,3.246,2.105,4.662c1.313,2.714,2.691,5.396,3.99,8.117
		c0.37,0.775,0.943,1.052,1.71,1.023c0.786-0.026,0.681-0.804,0.854-1.247c1.045-2.669,2.063-5.352,2.989-8.064
		c0.639-1.868,1.597-3.64,1.904-5.672c-0.625-0.265-1.182-0.537-1.763-0.737c-1.535-0.529-1.601-0.491-2.219,1.082
		C374.242,413.708,373.348,415.999,372.282,418.723z M404.469,417.24c-3.981-0.765-7.893-1.447-11.768-2.298
		c-1.253-0.274-1.506,0.24-1.741,1.226c-0.76,3.18-1.581,6.344-2.364,9.517c-0.343,1.385-1.433,2.949-0.802,4.113
		c0.71,1.309,2.698,0.986,4.124,1.302c2.943,0.65,5.936,1.089,8.911,1.584c0.807,0.134,1.532,0.197,1.709-1.016
		c0.171-1.164-0.428-1.354-1.288-1.479c-1.891-0.273-3.783-0.53-5.666-0.849c-3.435-0.581-3.349-0.581-2.661-3.974
		c0.24-1.184,0.665-1.419,1.719-1.19c1.478,0.319,2.977,0.546,4.459,0.85c1.03,0.21,1.452-0.241,1.584-1.216
		c0.126-0.937-0.443-1.006-1.126-1.13c-1.871-0.343-3.73-0.745-5.635-1.132c-0.018-1.288,0.277-2.415,0.72-3.438
		c2.846,0.428,5.62,0.756,8.352,1.3c1.058,0.211,1.293-0.163,1.396-0.99C404.439,418.033,404.444,417.645,404.469,417.24z
		 M352.07,400.64c2.372,1.409,4.764,2.799,7.12,4.248c0.92,0.565,1.462,0.567,2.076-0.49c0.654-1.13-0.069-1.42-0.77-1.773
		c-3.193-1.612-6.173-3.584-9.12-5.59c-1.012-0.688-1.348-0.599-2.002,0.371c-2.355,3.487-4.825,6.898-7.251,10.339
		c-1.148,1.63-1.18,1.753,0.436,2.758c3.426,2.131,6.917,4.157,10.337,6.299c0.784,0.489,1.229,0.591,1.664-0.329
		c0.372-0.784,0.673-1.375-0.419-1.933c-1.767-0.897-3.455-1.951-5.146-2.987c-3.179-1.948-3.182-2.058-0.997-4.959
		c0.525-0.696,0.966-0.851,1.771-0.286c1.615,1.13,3.243,2.271,5.074,3.034c1.305-1.828,1.309-1.834-0.325-2.879
		c-0.535-0.342-1.121-0.604-1.64-0.969c-2.857-2.004-3.41-1.072-1.155-4.46C351.809,400.904,351.929,400.798,352.07,400.64z
		 M436.877,419.938c2.024-0.26,3.841-0.482,5.652-0.73c0.879-0.12,1.507-0.412,1.26-1.551c-0.215-0.994-0.711-1.311-1.667-1.108
		c-2.333,0.491-4.716,0.643-7.065,0.986c-2.541,0.372-5.09,0.325-7.631,0.52c-1.143,0.087-1.522,0.387-1.357,1.579
		c0.115,0.837,0.402,1.048,1.179,1.075c1.878,0.067,3.73-0.602,5.728-0.293c0.292,3.278,0.596,6.442,0.851,9.611
		c0.379,4.717,0.227,3.689,3.901,3.252c0.209-0.023,0.402-0.175,0.69-0.307c-0.253-2.161-0.501-4.292-0.752-6.423
		C437.412,424.415,437.156,422.283,436.877,419.938z M468.748,416.504c-1.856-1.154-3.681-2.03-5.187-3.288
		c-1.912-1.597-3.554-0.985-5.531,0.033c2.657,2.188,5.373,3.952,8.205,5.499c1.169,0.641,1.765,1.473,2.165,2.632
		c0.512,1.483,0.939,3.012,1.763,4.432c0.629-0.217,1.15-0.395,1.671-0.578c2.294-0.81,2.369-0.846,1.354-3.005
		c-1.159-2.466-1.511-4.808-0.483-7.503c0.92-2.417,1.509-5.009,1.862-7.671c-2.635,0.444-3.984,1.822-4.317,4.389
		C470.036,413.087,469.554,414.721,468.748,416.504z M482.138,403.305c2.516,1.007,4.8,2.139,7.21,2.831
		c2.743,0.787,4.762,2.136,6.129,4.733c1.212,2.304,1.405,2.201,3.521,0.758c1.405-0.96,1.396-0.953,0.43-2.387
		c-0.443-0.655-0.748-1.433-1.284-1.994c-1.218-1.276-1.363-2.707-1.191-4.395c0.306-2.974,0.46-5.97,0.313-9.008
		c-2.503,0.771-3.097,1.509-3.242,3.747c-0.139,2.109-0.037,4.25-0.627,6.507c-1.679-0.604-3.325-0.99-4.769-1.761
		C486.338,401.112,484.348,401.24,482.138,403.305z M449.73,431.461c4.399-0.743,8.687-1.966,12.981-3.136
		c0.865-0.235,0.965-0.9,0.63-1.723c-0.286-0.7-0.563-0.993-1.408-0.741c-2.513,0.751-5.054,1.414-7.596,2.067
		c-1.449,0.372-1.607,0.249-1.989-1.158c-0.084-0.308-0.146-0.62-0.218-0.931c-0.711-3.111-1.432-6.221-2.125-9.335
		c-0.203-0.915-0.539-1.475-1.617-1.046c-0.438,0.173-0.937,0.195-1.409,0.266c-0.81,0.119-1.081,0.606-0.929,1.358
		c0.92,4.531,1.854,9.06,2.768,13.593C448.927,431.217,449.093,431.591,449.73,431.461z M382.502,428.742
		c0.751-1.14,0.865-2.516,1.261-3.782c1.041-3.343,1.941-6.727,2.998-10.063c0.354-1.122,0.132-1.647-1.027-1.776
		c-0.235-0.024-0.465-0.097-0.694-0.158c-1.551-0.431-1.579-0.44-2.105,1.137c-1.108,3.313-2.203,6.633-3.269,9.96
		C378.471,427.786,378.488,427.792,382.502,428.742z"/>
	<path fill="#0D0D0D" d="M297.993,360.472c1.066-0.531,0.37-1.369,0.324-2.063c-0.295-4.383,2.701-8.057,7.04-8.363
		c2.782-0.198,5.178,1.019,7.003,2.993c2.294,2.485,3.882,5.437,4.497,8.828c0.814,4.502-2.268,8.191-5.806,9.174
		c-2.542,0.705-4.661-0.244-6.724-1.571c-0.429-0.275-0.686-1.169-1.467-0.55l0.023,0.037c0.54-0.692,0.043-0.879-0.508-1.037
		l0.031,0.06c-0.158-0.875-0.534-1.588-1.426-1.918c0,0-0.095-0.154-0.095-0.153c-0.106-0.381-0.214-0.764-0.321-1.146l-0.125-0.194
		c-0.734-0.939-1.094-2.035-1.416-3.168c-0.109-0.382-0.083-1.229-0.974-0.889L297.993,360.472z M307.75,367.078
		c4.329-0.045,7.009-3.868,5.605-7.757c-0.409-1.133-1.032-2.151-1.751-3.089c-1.584-2.062-4.408-2.534-6.87-1.238
		c-2.622,1.382-3.689,3.663-2.983,6.309c0.559,2.092,1.889,3.646,3.484,4.989C305.979,366.918,306.917,367.153,307.75,367.078z"/>
	<path fill="#0D0D0D" d="M540.64,367.385c-3.969-2.431-7.913-4.901-11.923-7.264c-1.032-0.606-1.364-1.008-0.692-2.178
		c1.655-2.881,2.855-6.012,4.863-8.709c0.743-0.999,1.622-1.803,2.723-2.261c2.049-0.853,4.063,0.116,4.649,1.979
		c0.387,1.227,0.297,2.475,0.425,3.874c3.286-0.981,6.118-2.553,9.065-3.836c0.101,1.042-0.576,1.911-0.645,2.915l0.028-0.053
		c-0.692,0.777-1.083,1.716-1.44,2.673l0.014-0.028c-2.2,0.072-3.964,1.491-6.037,1.971c-0.684,0.158-1.315,0.524-1.979,0.778
		c-1.102,0.425-1.521,1.417-1.672,2.402c-0.132,0.862,0.918,0.996,1.468,1.364c1.185,0.792,2.566,1.262,3.694,2.163
		C542.61,364.746,542.027,366.309,540.64,367.385z M535.379,358.627c1.304-1.716,2.338-3.97,2.42-5.215
		c0.096-1.433-1.155-2.631-2.335-2.235c-0.935,0.311-3.842,4.118-3.625,5.11c0.26,1.19,1.732,1.136,2.537,1.829
		C534.608,358.317,534.936,358.407,535.379,358.627z"/>
	<path fill="#0D0D0D" d="M513.616,401.048c-0.479-0.246-0.917-0.065-1.362,0.117c-3.032,1.244-5.704,0.752-8.078-1.562
		c-2.638-2.569-3.36-5.652-2-8.95c1.768-4.282,5.122-6.948,9.642-8.062c4.412-1.086,10.5,4.287,8.623,9.855
		c-0.646,1.915-1.646,3.61-3.006,5.112c-0.766,0.492-0.816,1.365-1.15,2.083c-0.854-0.95-1.021-0.12-1.272,0.492l0.054-0.03
		c-0.855-0.211-1.28,0.223-1.479,0.992L513.616,401.048z M510.954,398.287c2.122,0.107,3.34-1.326,4.59-2.663
		c1.985-2.122,2.12-4.713,0.403-6.916c-2.104-2.701-4.683-3.427-7.276-1.944c-0.743,0.424-1.375,1.073-1.988,1.688
		c-1.729,1.733-2.215,3.65-1.231,5.608C506.585,396.32,508.109,398.211,510.954,398.287z"/>
	<path fill="#0D0D0D" d="M529.45,384.239c-0.155-0.017-0.354-0.104-0.462-0.039c-3.022,1.857-5.409,0.864-7.602-1.548
		c-0.954-1.05-2.235-1.799-3.218-2.828c-0.995-1.043-2.266-1.749-3.223-2.758c0.027-0.214-0.009-0.409,0.07-0.485
		c0.854-0.827,1.21-2.385,2.337-2.593c1.079-0.197,1.681,1.271,2.575,1.914c1.746,1.254,3.337,2.723,5.022,4.062
		c1.944,1.545,3.486,1.425,5.197-0.4c0.486-0.519,0.896-1.124,1.269-1.733c1.607-2.634,1.28-4.001-1.258-5.764
		c-2.278-1.583-4.522-3.216-6.784-4.822c-0.539-0.383-0.718-0.726-0.214-1.349c0.643-0.793,1.138-1.706,1.777-2.692
		c3.171,2.084,6.32,4.058,9.356,6.19c1.414,0.994,1.658,2.607,1.563,4.296c-0.047,0.818-0.845,1.584-0.188,2.446
		c0.001,0,0.03-0.027,0.03-0.027c-0.842-0.005-0.681,0.506-0.521,1.017l0.038-0.042c-1.281,0.894-1.802,2.297-2.436,3.625
		l0.035-0.052c-0.695,0.451-1.271,1.021-1.725,1.715c-0.035,0.104-0.105,0.164-0.211,0.186c-0.248,0.396-1.122,0.558-0.484,1.288
		c0,0,0.039-0.045,0.039-0.046c-0.721-0.607-0.883-0.077-1.021,0.502L529.45,384.239z"/>
	<path fill="#0D0D0D" d="M288.922,337.862c0.367,0.17,0.616,0.041,0.675-0.339c0.146-0.945,0.203-1.907,0.395-2.843
		c1.016-4.98,6.205-7.202,10.558-4.58c1.682,1.013,3.029,2.354,4.03,3.995c1.765,2.89,2.887,6.035,3.336,9.404
		c0.052,0.39,0.063,0.801-0.222,1.146c-0.484,0.243-0.916-0.124-1.376-0.141c-0.921-0.033-1.122-0.488-1.164-1.363
		c-0.099-2.106-0.891-4.032-1.861-5.883c-0.609-1.163-1.519-2.001-2.677-2.642c-3.572-1.974-7.582,0.088-7.834,4.178
		c-0.179,2.888,0.734,5.514,2.691,7.692c1.673,1.862,1.701,1.837,0.355,4.166c-1.237-0.143-1.461-1.632-2.558-1.956l0.046,0.1
		c-0.047-0.36,0.007-0.789-0.55-0.797c-1.058-0.766-1.257-1.993-1.672-3.104C290.233,342.595,289.326,340.306,288.922,337.862z"/>
	<path fill="#FDFDFD" d="M318.958,391.258c-2.785-2.93-5.304-6.075-7.667-9.348c0.208-0.262,0.416-0.523,0.624-0.786
		c2.558-1.621,4.635-3.91,7.519-5.564c-0.325,5.301-0.083,10.312-0.099,15.323C319.209,391.008,319.083,391.133,318.958,391.258z"/>
	<path fill="#FDFDFD" d="M543.182,363.178c-1.128-0.901-2.511-1.371-3.694-2.163c-0.55-0.368-1.6-0.502-1.468-1.364
		c0.149-0.985,0.57-1.979,1.672-2.402c0.663-0.254,1.296-0.62,1.979-0.778c2.073-0.479,3.837-1.897,6.036-1.971
		c0.326,0.475,0.108,0.934-0.101,1.345c-1.331,2.62-2.416,5.364-4.008,7.85C543.53,363.464,543.467,363.231,543.182,363.178z"/>
	<path fill="#F3D07E" d="M311.913,381.123c-0.207,0.264-0.414,0.525-0.623,0.787c-0.964-1.431-2.696-2.298-3.046-4.172
		c0.365-0.051,0.729-0.104,1.094-0.158C309.732,379.1,310.688,380.21,311.913,381.123z"/>
	<path fill="#F3D07E" d="M543.182,363.178c0.284,0.054,0.349,0.286,0.417,0.515c-0.602,1.546-1.423,2.969-2.347,4.335
		c-0.205-0.217-0.411-0.432-0.615-0.645C542.027,366.309,542.61,364.746,543.182,363.178z"/>
	<path fill="#F3D07E" d="M298.052,360.511c0.891-0.341,0.864,0.507,0.974,0.889c0.322,1.133,0.682,2.229,1.416,3.168
		C299.581,363.253,298.506,362.064,298.052,360.511z"/>
	<path fill="#F3D07E" d="M532.783,380.705c0.634-1.327,1.153-2.73,2.436-3.625C535.017,378.698,533.824,379.652,532.783,380.705z"/>
	<path fill="#0D0D0D" d="M551.021,345.623c0.394-1.021,0.755-2.062,1.865-3.185c-0.249,1.489-0.517,2.513-1.169,3.416
		C551.562,345.548,551.329,345.471,551.021,345.623z"/>
	<path fill="#F3D07E" d="M549.106,351.906c0.067-1.004,0.744-1.873,0.645-2.915c0.148-0.379,0.38-0.274,0.62-0.106
		C550.138,349.973,549.794,351.011,549.106,351.906z"/>
	<path fill="#F3D07E" d="M547.694,354.527c0.357-0.957,0.748-1.896,1.44-2.673C548.893,352.873,548.992,354.076,547.694,354.527z"/>
	<path fill="#F3D07E" d="M300.982,366.062c0.892,0.33,1.268,1.043,1.426,1.918C301.313,367.8,301.528,366.648,300.982,366.062z"/>
	<path fill="#F3D07E" d="M531.094,382.369c0.453-0.692,1.028-1.264,1.725-1.715C532.356,382.049,531.971,382.433,531.094,382.369z"
		/>
	<path fill="#FDFDFD" d="M513.585,401.099c0.198-0.771,0.622-1.203,1.479-0.992C515.096,401.184,514.523,401.568,513.585,401.099z"
		/>
	<path fill="#FDFDFD" d="M330.282,402.328c-0.412-0.327-0.823-0.656-1.235-0.984c0.122-0.134,0.244-0.269,0.366-0.4
		c0.687,0.036,1.111,0.422,1.373,1.025C330.618,402.089,330.45,402.209,330.282,402.328z"/>
	<path fill="#F3D07E" d="M300.566,364.762c0.106,0.383,0.214,0.766,0.321,1.146C300.639,365.565,300.565,365.174,300.566,364.762z"
		/>
	<path fill="#FDFDFD" d="M302.377,367.92c0.551,0.158,1.047,0.345,0.507,1.038C302.252,368.838,302.111,368.478,302.377,367.92z"/>
	<path fill="#FDFDFD" d="M530.398,383.843c-0.638-0.73,0.236-0.893,0.484-1.288C531.469,383.266,530.83,383.516,530.398,383.843z"/>
	<path fill="#FDFDFD" d="M535.18,377.122c-0.159-0.51-0.32-1.021,0.521-1.016C536.18,376.78,535.751,376.988,535.18,377.122z"/>
	<path fill="#FDFDFD" d="M515.01,400.137c0.251-0.612,0.418-1.442,1.272-0.492C515.894,399.897,515.735,400.751,515.01,400.137z"/>
	<path fill="#FDFDFD" d="M529.417,384.299c0.139-0.579,0.301-1.109,1.021-0.502C530.286,384.35,530.12,384.871,529.417,384.299z"/>
	<path fill="#FDFDFD" d="M292.766,347.999c0.558,0.009,0.503,0.438,0.55,0.798C292.595,348.902,292.772,348.388,292.766,347.999z"/>
	<path fill="#FDFDFD" d="M319.352,391.721c-0.131-0.154-0.264-0.31-0.395-0.463c0.125-0.125,0.251-0.25,0.377-0.375
		c0.276,0.075,0.391,0.271,0.403,0.541C319.609,391.523,319.48,391.621,319.352,391.721z"/>
	<path fill="#FDFDFD" d="M551.021,345.623c0.309-0.152,0.541-0.075,0.696,0.231c-0.129,0.249-0.258,0.498-0.387,0.747
		c-0.125-0.106-0.251-0.214-0.375-0.32C550.978,346.063,550.999,345.844,551.021,345.623z"/>
	<path fill="#FEA403" d="M479.05,325.365c0.161-0.036,0.322-0.072,0.483-0.108c0.277,0.014,0.447-0.127,0.544-0.375
		c0.192-0.143,0.379-0.292,0.578-0.426c1.681-1.124,1.668-1.105,2.401,0.8c3.067,7.977,6.157,15.943,9.235,23.916
		c1.093,2.831,2.15,5.677,3.278,8.493c0.413,1.032,0.361,1.673-0.709,2.354c-5.107,3.25-10.15,6.604-15.22,9.918
		c-2.333,1.526-4.669,3.049-7.01,4.563c-0.468,0.303-1.024,0.863-1.436,0.781c-1.691-0.339-1.74,0.783-1.917,1.88
		c-0.801,4.969-1.599,9.938-2.417,14.902c-0.354,2.151-0.378,2.105-2.563,2.21c-8.699,0.415-17.396,0.865-26.097,1.29
		c-2.074,0.102-4.157,0.086-6.228,0.255c-1.184,0.096-1.674-0.391-2.091-1.425c-2.655-6.596-5.367-13.169-8.075-19.743
		c-2.523-6.124-5.065-12.239-7.643-18.463c-1.392,0.319-2.371,1.288-3.479,1.961c-6.996,4.25-14.675,6.632-22.61,8.253
		c-11.254,2.298-22.666,2.666-34.108,2.473c-0.699-0.012-1.823,0.396-1.93-0.785c-0.112-1.258,1.055-1.252,1.883-1.324
		c6.307-0.548,12.473-1.818,18.528-3.605c7.719-2.278,14.9-5.725,21.168-10.787c8.102-6.543,13.599-14.928,16.677-24.886
		c3.511-11.358,3.521-22.812,0.932-34.339c-1.372-6.104-3.47-11.965-5.87-17.729c-1.153-2.771-1.885-5.588-1.149-8.633
		c0.706-2.924,1.957-4.161,4.923-4.313c4.351-0.224,8.28,0.82,11.859,3.537c5.239,3.976,8.705,9.24,11.844,14.859
		c5.451,9.761,6.022,20.221,4.579,30.957c-0.996,7.401-3.15,14.505-6.049,21.386c-0.178,0.421-0.524,0.815-0.245,1.555
		c3.195-1.854,6.561-1.926,10.011-0.845c0.771,0.239,1.214-0.08,1.136-0.974c-0.166-1.919-0.087-3.813,0.357-5.71
		c0.724-3.072,2.482-5.303,5.186-6.847c0.182,0.187,0.362,0.374,0.544,0.562c-1.721,1.508-2.962,3.303-3.571,5.547
		c-0.681,2.506-0.69,5.049-0.692,7.607c0,0.725,0.287,1.191,0.85,1.591c3.015,2.142,5.666,4.673,7.963,7.563
		c0.621,0.781,0.996,0.616,1.72,0.081c4.286-3.171,8.663-6.22,12.941-9.398c3.688-2.741,7.59-5.196,11.077-8.208
		C478.883,325.73,479.01,325.597,479.05,325.365z M463.84,350.029c-0.175-0.135-0.366-0.277-0.521-0.015
		c-0.035,0.058,0.122,0.229,0.191,0.349c0.226,0.705-0.154,1.561,0.474,2.266C464.675,351.225,464.675,351.225,463.84,350.029z
		 M423.846,346.865c-1.659,0.678-2.265,2.393-3.443,3.546c-1.166,1.143-2.104,2.515-3.037,3.655
		c-0.245-0.098-0.106,0.005,0.028,0.003c0.398-0.008,0.796-0.05,1.193-0.092c3.408-0.362,3.4-0.365,4.273-3.681
		c0.306-1.155,0.656-2.3,0.983-3.447l0.046-0.058L423.846,346.865z M486.733,351.174c-1.073-2.229-3.098-1.264-4.763-1.356
		c-1.371-0.077-0.758,1.324-1.21,1.966c-0.567-1.934-0.567-1.934-2.69-2.052c-0.95-1.424-1.61-1.65-2.78-0.955
		c-1.016,0.604-1.406,2.044-0.844,3.105c0.544,1.022,1.241,1.177,2.688,0.581c-0.217-0.443-0.687-0.202-0.995-0.372
		c-0.831-0.456-1.159-1.371-0.736-2.183c0.412-0.791,1.042-0.851,1.795-0.464c0.272,0.141,0.597,0.181,0.896,0.266
		c0.036,0.551,0.083,1.101,0.105,1.65c0.063,1.438,0.246,1.618,1.672,1.55c0.389-0.018,0.782-0.157,1.157-0.112
		c0.604,0.071,0.878-0.124,0.923-0.732c0.029-0.4-0.192-0.944,0.494-1.134c0.135,0.214,0.3,0.39,0.365,0.596
		c0.137,0.436,0.076,1.091,0.685,1.084c0.789-0.009,0.379-0.671,0.396-1.071c0.016-0.338,0.081-0.647,0.431-0.745
		c0.432-0.119,0.759,0.066,0.968,0.469c0.295,0.561,0.666,1.114,0.163,1.742c-0.223,0.277-0.771,0.541-0.304,0.912
		c0.518,0.408,0.819-0.081,1.074-0.502c0.426-0.702,0.632-1.445,0.481-2.268c0.492-0.136,0.774-0.448,0.748-0.969
		c-0.004-0.071-0.245-0.217-0.313-0.188C486.591,350.231,486.796,350.752,486.733,351.174z M465.105,378.024
		c1.262-0.87,1.653-2.143,1.839-3.583c-0.977-0.108-0.748,0.849-1.437,1.104c-0.384-1.187-1.292-1.566-2.502-1.378
		c-0.391,0.062-0.796,0.024-1.192,0.041c-0.704,0.031-1.444-0.188-2.098,0.234c-0.617,0.402,0.109,1.336-0.763,1.762
		c-0.079-0.859,0.113-1.904-1.152-2.009c-1.085-0.088-1.139,0.595-1.403,1.443c-0.292,0.93-1.427,1.323-2.366,1.164
		c-1.138-0.194-1.047-1.255-0.942-2.137c0.144-1.221,0.499-1.38,1.999-0.991c0.272,0.069,0.613,0.422,0.788-0.018
		c0.165-0.416-0.072-0.719-0.527-0.888c-1.184-0.438-2.297-0.2-3.018,0.693c-0.723,0.896-0.85,2.279-0.29,3.132
		c0.701,1.063,1.729,1.427,3.104,0.851c0.667-0.28,1.133-0.129,1.767-0.013c1.072,0.197,2.247,0.237,3.305,0.003
		c0.952-0.212,0.115-1.509,0.799-2.051c0.052-0.041,0.146-0.027,0.278-0.05c0.987,0.367-0.036,1.707,0.95,2.134
		c0.73-0.266,0.447-0.91,0.521-1.403c0.061-0.412,0.128-0.795,0.642-0.839c0.458-0.039,0.746,0.22,0.934,0.602
		c0.348,0.712,0.81,1.385,0.799,2.227c-0.226,0.006-0.457-0.021-0.674,0.025c-0.391,0.083-0.762,0.245-0.425,0.73
		c0.205,0.295,0.511,0.241,0.772,0.028C465.072,378.63,465.085,378.323,465.105,378.024z M422.903,353.313
		c0.424,0.106,0.58,0.19,0.727,0.176c5.643-0.563,11.277-1.21,16.93-1.667c1.736-0.141,3.239-0.509,4.609-1.598
		c0.895-0.711,1.089-1.428,0.677-2.487c-1.368-3.51-2.315-7.144-2.987-10.847c-0.14-0.77-0.451-1.408-1.126-1.739
		c-1.802-0.885-3.618-1.67-5.727-0.969c-1.623,0.54-3.072,1.319-4.307,2.502C426.962,341.227,424.682,347.057,422.903,353.313z
		 M446.983,348.696c2.062-1.205,3.859-2.559,5.645-4.061c-2.146-3.162-4.979-5.326-8.293-7.715
		C444.659,341.316,445.815,344.939,446.983,348.696z M431.487,373.286c-0.602-1.11-1.516-1.062-2.53-0.627
		c-1.296,0.555-1.927,1.796-1.593,3.094c0.313,1.215,1.115,2.104,2.157,1.771c1.913-0.611,3.723,0.138,5.585,0.021
		c2.267-0.145,2.265-0.021,2.127-2.237c-0.033-0.542,0.159-1.16-0.59-1.369c-0.484-0.135-0.955-0.069-1.332,0.291
		c-0.493,0.472-0.422,0.962-0.048,1.488c0.185,0.259,0.674,0.666-0.09,0.812c-0.516,0.1-0.662-0.276-0.695-0.723
		c-0.03-0.395-0.02-0.813-0.152-1.172c-0.177-0.48-0.605-0.734-1.125-0.74c-0.527-0.006-0.927,0.273-1.105,0.756
		c-0.106,0.285-0.007,0.648-0.117,0.931c-0.346,0.878-1.17,0.982-1.958,1.081c-0.488,0.062-1.024-0.012-1.219-0.523
		c-0.288-0.762-0.328-1.602,0.086-2.315c0.454-0.781,1.171-0.658,1.881-0.298C430.978,373.63,431.223,373.633,431.487,373.286z
		 M440.414,377.464c0.319-1.142,0.663-2.465-0.306-2.932c-0.982-0.473-1.293-1.324-1.822-2.051c-0.269,0.22-0.479,0.312-0.481,0.409
		c-0.039,0.948-0.104,1.903-0.035,2.848c0.044,0.61-0.416,1.727,0.702,1.628c0.753-0.064,0.062-1.087,0.341-1.621
		c0.107-0.204,0.144-0.459,0.501-0.375C440.025,375.821,439.152,376.972,440.414,377.464z M470.522,352.867
		c0.649-2.604,0.568-2.774-1.615-3.118c-0.484-0.076-0.967-0.077-1.255-0.543c-0.229-0.367-0.475-0.704-0.851-0.197
		c-0.261,0.349-0.26,0.966,0.132,1.034c1.427,0.251,1.421,1.606,1.877,2.534c0.842-0.367,0.406-1.146,0.845-1.509
		c0.299,0.224,0.249,0.559,0.271,0.868C469.95,352.262,470.006,352.568,470.522,352.867z M446.516,375.313
		c0.686,0.626-0.016,1.65,0.947,2.264c0.67-0.953,0.451-1.888,0.311-2.771c-0.09-0.558-0.607-0.699-1.113-0.646
		c-0.529,0.059-1.351-0.159-1.486,0.438c-0.209,0.913-0.482,1.968,0.283,2.833C446.524,376.979,445.609,375.828,446.516,375.313z
		 M459.344,351.542c0.016-0.719-0.206-1.219-0.529-1.259c-0.396-0.049-1.804,1.263-1.777,1.725c0.037,0.642,0.538,0.634,1.03,0.667
		C458.945,352.732,459.449,352.443,459.344,351.542z M450.07,373.626c0.015-0.428-0.165-0.802-0.59-0.821
		c-0.462-0.021-0.603,0.372-0.575,0.794c0.023,0.366-0.022,0.857,0.497,0.838C449.802,374.42,450.007,374.032,450.07,373.626z
		 M443.58,374.615c0.666-0.099,0.806-0.345,0.671-0.685c-0.135-0.344-0.28-0.804-0.678-0.831c-0.554-0.037-0.498,0.485-0.464,0.832
		C443.149,374.334,443.384,374.634,443.58,374.615z M453.867,351.853c-0.329-0.747,0.146-1.546-0.206-2.543
		C453.066,350.835,453.066,350.835,453.867,351.853z M462.476,352.783c0.403-1.504,0.604-2.619-0.142-4.156
		C462.112,350.182,462.017,351.295,462.476,352.783z M471.84,348.902c-0.03,0.354,0.099,0.557,0.321,0.644
		c0.275,0.105,0.493-0.06,0.463-0.326c-0.021-0.194-0.184-0.434-0.354-0.537C471.978,348.501,471.877,348.755,471.84,348.902z"/>
	<path fill="#FEA403" d="M409.539,201.398c15.168-0.35,28.521,12.646,28.29,28.562c-0.23,15.881-13.111,28.074-28.402,28.061
		c-15.696-0.014-28.249-12.65-28.285-28.406C381.105,213.975,394.152,201.063,409.539,201.398z"/>
	<path fill="#080808" d="M512.59,229.311c-0.445-1.063-1.234-1.613-1.785-2.379c-0.551-0.767-1.138-1.507-1.822-2.41
		c5.468-4.779,10.92-9.546,16.491-14.416c2.036,1.913,3.736,4.089,5.461,6.226c1.946,2.41,3.65,4.996,4.984,7.811
		c0.866,1.828,1.418,3.735,1.444,5.758c0.052,3.797-3.236,5.954-6.706,4.422c-1.38-0.608-2.631-1.45-4.061-2.43
		c-1.359,4.412-1.66,8.966-3.472,13.435c-1.108-1.896-2.029-3.536-3.021-5.136c-0.451-0.728-0.176-1.391-0.004-2.068
		c0.802-3.177,1.182-6.44,1.935-9.617c0.485-2.042-0.855-3.079-1.731-4.411c-0.373-0.569-0.844-0.109-1.21,0.167
		c-1.199,0.899-2.47,1.725-3.552,2.749C514.663,227.838,513.587,228.316,512.59,229.311z M527.373,217.66
		c-1.636,1.299-3.167,2.515-4.777,3.794c1.477,2.16,2.902,4.231,4.72,6.01c0.457,0.447,0.929,0.844,1.534,1.076
		c1.874,0.72,3.655-0.587,3.413-2.564c-0.075-0.614-0.336-1.217-0.578-1.797C530.697,221.816,529.167,219.811,527.373,217.66z"/>
	<path fill="#080808" d="M507.376,209.1c-0.108,4.201,0.185,8.482-0.325,13.231c-1.533-1.529-2.726-2.769-3.976-3.943
		c-0.628-0.591-0.52-1.292-0.499-1.996c0.083-2.878-0.223-5.754-0.176-8.618c0.031-1.947-0.727-3.167-2.14-4.222
		c-0.254-0.19-0.474-0.426-0.839-0.76c-2.242,2.141-3.688,4.931-5.991,7.074c-1.144-0.871-2.211-1.831-3.418-2.56
		c-1.011-0.608-0.837-1.097-0.276-1.878c2.732-3.809,5.427-7.644,8.133-11.471c1.053-1.488,2.121-2.965,3.14-4.478
		c0.431-0.64,0.921-0.896,1.576-0.445c4.855,3.346,9.779,6.63,13.184,11.612c0.808,1.184,1.447,2.482,1.659,3.943
		c0.436,2.988-1.537,5.352-4.567,5.449c-1.209,0.039-2.385-0.132-3.522-0.562C508.755,209.261,508.221,208.814,507.376,209.1z
		 M501.433,200.161c1.237,1.005,2.366,1.999,3.576,2.881c0.952,0.692,1.856,1.479,3.021,1.854c1.405,0.454,2.241,0.258,3.189-0.754
		c0.953-1.019,0.646-2.018,0.021-3.029c-1.514-2.452-3.669-4.209-6.018-5.744C503.817,196.95,502.572,198.466,501.433,200.161z"/>
	<path fill="#080808" d="M401.626,173.794c0.443,2.857,0.828,5.358,1.224,7.857c0.224,1.418,0.428,2.842,0.715,4.246
		c0.166,0.813-0.097,1.209-0.888,1.315c-0.078,0.011-0.149,0.058-0.227,0.078c-3.736,1.001-3.771,1.008-4.572-2.787
		c-1.107-5.234-2.167-10.479-3.222-15.725c-0.151-0.751-0.81-1.776-0.067-2.232c0.96-0.591,2.14-0.947,3.405-0.309
		c1.916,0.969,3.732,2.097,5.579,3.177c3.756,2.196,7.316,4.693,10.777,7.22c0.793-0.263,0.488-0.808,0.468-1.232
		c-0.158-3.27-0.29-6.542-0.526-9.806c-0.089-1.229,0.302-1.616,1.535-1.745c4.56-0.479,4.6-0.532,4.678,3.94
		c0.1,5.662,0.118,11.327,0.164,16.99c0.004,0.454,0.127,1.067-0.514,1.162c-0.771,0.114-1.543,0.197-2.256-0.415
		c-1.689-1.45-3.409-2.873-5.18-4.223C409.258,178.671,405.738,176.114,401.626,173.794z"/>
	<path fill="#080808" d="M375.128,194.848c-1.038-2.293-2.12-4.683-3.197-7.074c-0.792-1.754-0.789-1.755-2.625-0.921
		c-2.89,1.314-5.756,2.676-8.53,4.223c-1.398,0.778-1.452,0.796-0.642,2.268c1.269,2.301,2.608,4.562,3.964,6.918
		c-0.365,0.928-1.444,1.031-2.188,1.563c-0.703,0.503-1.479,0.903-2.397,1.453c-1.494-2.258-2.992-4.471-4.438-6.718
		c-2.235-3.473-4.437-6.968-6.646-10.458c-0.838-1.322-0.857-1.39,0.473-2.207c1.349-0.827,2.81-2.21,4.139-2.12
		c1.302,0.089,1.63,2.312,2.493,3.526c0.503,0.71,0.899,1.512,1.243,2.315c0.406,0.948,0.937,1.164,1.856,0.651
		c3.335-1.857,6.787-3.483,10.252-5.083c0.612-0.282,0.783-0.577,0.441-1.281c-0.902-1.861-1.658-3.794-2.526-5.674
		c-0.413-0.896-0.338-1.509,0.687-1.821c0.151-0.047,0.286-0.146,0.436-0.2c1.339-0.484,2.786-1.528,3.988-1.297
		c1.433,0.274,1.317,2.323,1.835,3.593c1.99,4.875,3.858,9.801,5.73,14.724c0.716,1.882,0.665,1.9-1.291,2.661
		c-0.883,0.344-1.765,0.696-2.648,1.036C375.472,194.951,375.38,194.899,375.128,194.848z"/>
	<path fill="#080808" d="M322.42,242.503c-2.188-3.465-3.618-6.671-5.053-9.859c-2.03-4.511-3.91-9.09-5.388-13.818
		c-0.485-1.554,0.813-3.571,2.358-3.488c8.446,0.451,16.764,1.728,25.245,4.034c-1.379,1.442-2.587,2.691-3.775,3.959
		c-0.439,0.468-0.92,0.559-1.515,0.356c-0.374-0.127-0.801-0.113-1.156-0.269c-2.441-1.073-3.798,0.22-5.046,2.116
		c-1.267,1.924-2.79,3.671-4.065,5.601c-0.5,0.756-0.842,1.369-0.213,2.115c2.048,2.429,1.606,4.68-0.318,6.953
		C323.054,240.72,322.535,241.285,322.42,242.503z M326.772,222.213c-3.14-0.583-5.844-1.084-8.905-1.652
		c1.277,2.994,2.433,5.65,3.955,8.333C323.449,226.699,324.982,224.629,326.772,222.213z"/>
	<path fill="#080808" d="M302.836,234.307c0.382,1.093,0.567,1.956,0.973,2.698c0.568,1.044,0.229,1.636-0.529,2.458
		c-3.133,3.398-4.948,7.383-4.788,12.104c0.13,3.823,2.141,6.371,5.762,7.198c3.089,0.705,5.567-0.69,7.327-2.963
		c2.469-3.186,4.138-6.822,3.95-11.016c-0.041-0.917,0.267-1.325,1.094-1.508c0.466-0.103,0.914-0.284,1.379-0.396
		c1.448-0.346,1.626-0.206,1.597,1.387c-0.049,2.604-0.919,5.025-1.819,7.412c-1.731,4.593-3.977,8.865-7.933,12.016
		c-3.128,2.491-7.279,2.916-10.748,1.103c-1.958-1.025-3.143-2.64-3.875-4.645c-1.603-4.383-1.365-8.773,0.059-13.141
		C296.802,242.36,298.94,238.059,302.836,234.307z"/>
	<path fill="#0D0D0D" d="M462.41,192.44c2.463-2.415,5.158-4.376,7.822-6.376c3.753-2.816,7.619-5.462,11.667-7.841
		c0.852-0.5,1.574-0.897,2.639-0.382c0.966,0.467,1.478,0.965,1.576,2.092c0.717,8.116,0.901,16.23,0.191,24.588
		c-0.869-0.466-1.604-0.838-2.316-1.246c-2.717-1.551-2.827-1.563-2.593-4.705c0.123-1.652-0.431-2.438-1.904-3.065
		c-2.259-0.962-4.427-2.144-6.601-3.293c-0.959-0.508-1.795-0.691-2.497,0.316c-1.541,2.216-3.469,2.445-5.679,1.105
		C464.036,193.22,463.114,193.372,462.41,192.44z M481.415,184.273c-2.574,1.708-4.766,3.391-6.97,5.341
		c2.39,1.155,4.561,2.204,6.962,3.365C481.479,189.954,481.706,187.293,481.415,184.273z"/>
	<path fill="#0D0D0D" d="M328.14,202.88c0.148-1.819,1.082-3.693,2.425-5.433c2.542-3.291,5.813-5.597,9.595-7.201
		c1.716-0.729,1.846-0.593,2.051,1.19c0.234,2.035,0.244,2.064-1.775,2.759c-2.23,0.769-4.075,2.076-5.691,3.771
		c-0.573,0.601-0.952,1.288-1.139,2.056c-0.322,1.326,0.588,2.329,1.985,2.196c2.403-0.229,4.585-1.235,6.831-2.016
		c1.875-0.652,3.734-1.356,5.795-1.153c3.623,0.357,5.452,3.121,4.339,6.613c-0.695,2.18-2.077,3.903-3.642,5.505
		c-2.235,2.289-4.774,4.166-7.683,5.518c-1.326,0.616-1.337,0.598-1.698-0.86c-0.076-0.311-0.087-0.645-0.206-0.935
		c-0.495-1.217-0.116-1.874,1.145-2.309c2.358-0.814,4.375-2.207,6.058-4.064c0.214-0.236,0.498-0.433,0.643-0.705
		c0.468-0.875,1.323-1.716,0.511-2.807c-0.723-0.969-1.752-1.34-2.908-1.118c-1.72,0.33-3.386,0.858-5.014,1.521
		c-1.684,0.686-3.318,1.487-5.099,1.949c-0.959,0.249-1.906,0.294-2.84,0.168C329.471,207.208,328.185,205.667,328.14,202.88z"/>
	<path fill="#080808" d="M540.56,231.644c1.426,2.136,2.693,4.052,3.246,6.171c0.586,2.246-0.98,4.252-1.632,6.35
		c-0.567,1.823-1.283,3.61-2.059,5.358c-0.531,1.199-0.139,1.719,0.979,2.147c3.267,1.256,6.349,2.908,9.439,4.535
		c0.634,0.333,1.28,0.615,1.498,1.422c0.601,2.224,1.506,4.367,1.906,6.915c-2.307-1.244-4.284-2.618-6.347-3.82
		c-2.822-1.646-5.813-2.937-8.643-4.543c-0.912-0.518-1.724-0.503-2.68-0.085c-1.887,0.824-3.842,1.489-5.734,2.298
		c-0.992,0.424-1.61,0.4-1.976-0.777c-0.354-1.138-0.82-2.247-1.33-3.325c-0.435-0.915-0.25-1.488,0.669-1.891
		c1.678-0.731,3.324-1.539,5.021-2.223c1.503-0.605,2.334-1.588,2.898-3.167C537.601,242.044,539.065,236.988,540.56,231.644z"/>
	<path fill="#0D0D0D" d="M461.408,190.028c-2.471,1.199-5.006,0.684-7.506,0.285c-3.082-0.491-6.007-1.491-8.732-3.045
		c-5.332-3.039-7.221-10.169-3.948-15.116c1.885-2.852,4.764-4.228,7.992-4.68c6.26-0.875,11.983,0.689,17.137,4.34
		c0.115,0.081,0.153,0.271,0.278,0.505c-0.399,0.328-0.798,0.689-1.229,1.001c-1.062,0.767-1.973,1.06-3.314,0.165
		c-2.688-1.789-5.709-2.745-9.03-2.458c-3.844,0.331-6.671,2.804-7.236,6.406c-0.58,3.704,1.204,6.925,4.843,8.378
		c2.602,1.04,5.299,1.766,8.135,0.854c0.91-0.293,1.547-0.054,1.796,0.938C460.8,188.43,461.525,189.091,461.408,190.028z"/>
	<path fill="#0D0D0D" d="M319.738,391.424c-0.014-0.271-0.127-0.466-0.403-0.541c0.016-5.013-0.227-10.022,0.099-15.323
		c-2.884,1.654-4.961,3.943-7.519,5.564c-1.227-0.914-2.182-2.024-2.576-3.544c4.15-3.036,8.301-6.073,12.396-9.069
		c1.234,0.754,1.356,1.768,1.258,2.961c-0.283,3.413-0.401,6.836-0.363,10.262c0.009,0.771-0.165,1.579,0.309,2.373
		c1.034-0.211,1.576-1.037,2.257-1.657c1.238-1.129,2.479-2.257,3.688-3.417c0.652-0.625,1.211-0.718,1.747,0.1
		c0.478,0.727,1.32,1.163,1.66,2.131c-3.682,3.126-6.967,6.7-10.432,10.089C321.011,392.176,320.467,392.062,319.738,391.424z"/>
	<path fill="#0D0D0D" d="M411.384,424.162c-0.674,2.839-0.514,5.252-0.856,7.608c-0.093,0.637,0.328,1.63-0.673,1.807
		c-1.085,0.191-2.234,0.204-3.264-0.351c-0.315-0.17-0.253-0.543-0.219-0.864c0.511-4.597,0.999-9.196,1.536-13.789
		c0.117-1.002,0.7-1.281,1.663-0.902c0.939,0.368,1.464,1.215,2.06,1.949c2.262,2.8,4.921,5.193,7.622,7.808
		c0.943-1.546,0.516-3.104,0.542-4.508c0.027-1.505,0.301-2.979,0.061-4.6c1.319,0.021,2.408-0.196,3.675,0.15
		c0.071,3.164,0.151,6.325,0.21,9.484c0.03,1.597,0.063,3.192,0.016,4.787c-0.017,0.566,0.382,1.362-0.491,1.646
		c-0.636,0.207-1.229,0.044-1.759-0.444c-1.407-1.297-2.896-2.506-4.269-3.838C415.355,428.282,413.554,426.377,411.384,424.162z"/>
	<path fill="#0D0D0D" d="M372.282,418.723c1.066-2.724,1.959-5.016,2.859-7.303c0.619-1.573,0.684-1.611,2.219-1.082
		c0.582,0.2,1.138,0.474,1.763,0.737c-0.309,2.032-1.266,3.804-1.903,5.672c-0.928,2.714-1.945,5.396-2.99,8.064
		c-0.173,0.443-0.067,1.221-0.854,1.247c-0.767,0.027-1.34-0.248-1.71-1.023c-1.299-2.722-2.677-5.403-3.989-8.118
		c-0.687-1.415-1.299-2.865-2.106-4.661c-1.524,3.116-2.894,5.918-4.256,8.704c-3.888-1.624-3.884-1.622-2.106-5.042
		c1.613-3.104,3.188-6.229,4.85-9.307c0.268-0.496,0.369-1.363,1.171-1.339c0.897,0.026,1.341,0.687,1.677,1.484
		c1.229,2.929,2.494,5.844,3.773,8.751C371.09,416.447,371.591,417.347,372.282,418.723z"/>
	<path fill="#0D0D0D" d="M404.469,417.24c-0.025,0.404-0.03,0.794-0.077,1.179c-0.104,0.827-0.339,1.201-1.396,0.99
		c-2.73-0.544-5.506-0.872-8.352-1.3c-0.442,1.023-0.737,2.15-0.72,3.438c1.904,0.387,3.764,0.789,5.635,1.132
		c0.683,0.124,1.252,0.193,1.126,1.13c-0.132,0.975-0.554,1.426-1.584,1.216c-1.482-0.304-2.981-0.529-4.459-0.85
		c-1.055-0.229-1.479,0.008-1.719,1.19c-0.688,3.393-0.773,3.393,2.661,3.974c1.883,0.317,3.775,0.574,5.666,0.849
		c0.86,0.125,1.459,0.314,1.288,1.479c-0.177,1.213-0.903,1.148-1.709,1.016c-2.977-0.495-5.968-0.934-8.911-1.584
		c-1.426-0.314-3.414,0.007-4.124-1.302c-0.631-1.164,0.459-2.729,0.802-4.113c0.784-3.173,1.604-6.337,2.364-9.518
		c0.235-0.983,0.488-1.5,1.741-1.225C396.577,415.792,400.488,416.476,404.469,417.24z"/>
	<path fill="#0D0D0D" d="M352.07,400.64c-0.141,0.158-0.261,0.265-0.347,0.394c-2.254,3.388-1.702,2.456,1.155,4.46
		c0.519,0.363,1.104,0.627,1.64,0.969c1.634,1.045,1.63,1.051,0.326,2.879c-1.833-0.763-3.459-1.904-5.075-3.034
		c-0.807-0.563-1.247-0.41-1.771,0.286c-2.185,2.901-2.182,3.011,0.997,4.959c1.692,1.036,3.381,2.09,5.146,2.988
		c1.092,0.557,0.791,1.146,0.419,1.932c-0.436,0.92-0.88,0.819-1.664,0.329c-3.42-2.142-6.911-4.168-10.337-6.299
		c-1.614-1.005-1.584-1.127-0.436-2.758c2.426-3.439,4.896-6.852,7.251-10.339c0.655-0.97,0.99-1.06,2.002-0.371
		c2.946,2.007,5.927,3.978,9.12,5.591c0.7,0.354,1.424,0.644,0.77,1.772c-0.614,1.06-1.155,1.057-2.076,0.49
		C356.834,403.438,354.441,402.049,352.07,400.64z"/>
	<path fill="#0D0D0D" d="M330.786,401.969c-0.262-0.604-0.687-0.989-1.373-1.025c-0.083-1.628,0.564-3.12,0.874-4.675
		c0.828-4.143,2.047-8.181,3.324-12.202c0.122-0.384,0.197-0.774,0.588-1.001c0.056,0.003,0.146-0.021,0.184,0.013
		c2.838,2.464,2.813,2.456,1.756,5.988c-0.769,2.568-1.456,5.161-2.313,8.219c2.851-1.182,5.228-2.152,7.591-3.155
		c0.8-0.34,1.56-0.772,2.352-1.133c0.923-0.419,1.805-0.585,2.506,0.438c0.441,0.645,1.527,0.592,1.763,1.723
		c-1.867,0.864-3.749,1.818-5.694,2.617c-3.439,1.412-6.913,2.738-10.384,4.073C331.604,401.982,331.178,401.933,330.786,401.969z"
		/>
	<path fill="#0D0D0D" d="M436.877,419.938c0.279,2.347,0.535,4.479,0.787,6.611c0.251,2.131,0.499,4.262,0.753,6.423
		c-0.289,0.132-0.482,0.282-0.691,0.307c-3.676,0.438-3.522,1.465-3.901-3.252c-0.255-3.169-0.559-6.333-0.851-9.611
		c-1.996-0.309-3.85,0.36-5.728,0.293c-0.775-0.027-1.063-0.238-1.179-1.075c-0.165-1.192,0.216-1.492,1.357-1.579
		c2.541-0.193,5.09-0.146,7.631-0.52c2.351-0.345,4.732-0.495,7.065-0.986c0.956-0.201,1.452,0.114,1.667,1.108
		c0.247,1.139-0.381,1.431-1.26,1.551C440.718,419.454,438.901,419.678,436.877,419.938z"/>
	<path fill="#0D0D0D" d="M468.748,416.504c0.807-1.783,1.288-3.417,1.503-5.062c0.332-2.565,1.683-3.944,4.316-4.389
		c-0.354,2.662-0.941,5.254-1.862,7.671c-1.026,2.695-0.676,5.037,0.483,7.503c1.015,2.159,0.938,2.195-1.354,3.005
		c-0.521,0.184-1.043,0.361-1.672,0.578c-0.822-1.42-1.251-2.947-1.763-4.432c-0.399-1.159-0.996-1.991-2.165-2.632
		c-2.832-1.547-5.548-3.311-8.205-5.499c1.979-1.02,3.619-1.63,5.531-0.033C465.067,414.474,466.891,415.35,468.748,416.504z"/>
	<path fill="#0D0D0D" d="M482.138,403.305c2.21-2.063,4.199-2.192,6.489-0.967c1.441,0.771,3.089,1.156,4.768,1.761
		c0.59-2.257,0.488-4.396,0.627-6.507c0.146-2.238,0.739-2.978,3.242-3.747c0.146,3.038-0.009,6.034-0.313,9.008
		c-0.172,1.688-0.025,3.117,1.191,4.395c0.536,0.563,0.841,1.339,1.284,1.994c0.968,1.434,0.977,1.426-0.43,2.387
		c-2.114,1.443-2.309,1.546-3.521-0.758c-1.367-2.599-3.386-3.946-6.129-4.733C486.938,405.443,484.653,404.312,482.138,403.305z"/>
	<path fill="#0D0D0D" d="M449.73,431.461c-0.639,0.13-0.804-0.244-0.912-0.784c-0.912-4.533-1.848-9.062-2.768-13.593
		c-0.152-0.751,0.119-1.239,0.929-1.358c0.474-0.069,0.973-0.093,1.409-0.266c1.078-0.429,1.414,0.131,1.617,1.046
		c0.693,3.114,1.414,6.224,2.125,9.335c0.07,0.311,0.134,0.623,0.218,0.931c0.382,1.407,0.54,1.53,1.989,1.158
		c2.542-0.653,5.083-1.316,7.596-2.067c0.845-0.252,1.122,0.041,1.408,0.741c0.335,0.821,0.235,1.486-0.63,1.723
		C458.416,429.495,454.131,430.718,449.73,431.461z"/>
	<path fill="#0D0D0D" d="M382.502,428.742c-4.014-0.95-4.03-0.956-2.837-4.685c1.065-3.327,2.159-6.646,3.269-9.96
		c0.526-1.577,0.555-1.566,2.105-1.137c0.229,0.063,0.459,0.134,0.694,0.158c1.16,0.128,1.383,0.654,1.027,1.776
		c-1.057,3.337-1.958,6.721-2.998,10.063C383.367,426.228,383.253,427.604,382.502,428.742z"/>
	<path fill="#F3D07E" d="M479.05,325.365c-0.04,0.231-0.167,0.365-0.41,0.369c-1.27-0.458-2.557-0.868-3.801-1.384
		c-4.56-1.886-9.217-3.418-14.107-4.19c-4.189-0.662-8.358-1.147-12.378,0.791c-0.182-0.188-0.362-0.375-0.544-0.562
		c3.395-2.416,7.215-2.604,11.166-2.153c6.021,0.688,11.521,2.996,16.972,5.443C477.012,324.157,478.264,324.351,479.05,325.365z"/>
	<path fill="#F3D07E" d="M480.077,324.881c-0.097,0.248-0.267,0.389-0.544,0.375C479.632,325.009,479.796,324.86,480.077,324.881z"
		/>
	<path fill="#FDFDFD" d="M307.75,367.078c-0.833,0.074-1.771-0.16-2.515-0.786c-1.597-1.345-2.927-2.897-3.484-4.989
		c-0.706-2.646,0.361-4.927,2.983-6.309c2.462-1.296,5.286-0.822,6.87,1.238c0.719,0.938,1.343,1.956,1.751,3.089
		C314.76,363.21,312.079,367.033,307.75,367.078z"/>
	<path fill="#FDFDFD" d="M535.379,358.627c-0.442-0.22-0.771-0.311-1.003-0.511c-0.805-0.693-2.277-0.639-2.537-1.829
		c-0.217-0.992,2.69-4.801,3.625-5.11c1.18-0.396,2.431,0.804,2.335,2.235C537.717,354.657,536.682,356.911,535.379,358.627z"/>
	<path fill="#FDFDFD" d="M510.954,398.287c-2.845-0.076-4.368-1.968-5.504-4.228c-0.982-1.958-0.497-3.875,1.231-5.608
		c0.613-0.614,1.245-1.265,1.988-1.688c2.595-1.481,5.172-0.757,7.276,1.944c1.717,2.203,1.582,4.794-0.404,6.916
		C514.294,396.961,513.076,398.396,510.954,398.287z"/>
	<path fill="#FDFDFD" d="M448.353,320.95c4.02-1.938,8.188-1.453,12.378-0.791c4.892,0.772,9.549,2.306,14.107,4.19
		c1.244,0.516,2.531,0.926,3.801,1.384c-3.487,3.012-7.39,5.467-11.077,8.208c-4.278,3.18-8.655,6.229-12.941,9.398
		c-0.724,0.535-1.099,0.7-1.72-0.081c-2.297-2.892-4.948-5.423-7.963-7.563c-0.563-0.398-0.85-0.867-0.85-1.591
		c0.002-2.56,0.013-5.103,0.692-7.608C445.391,324.253,446.633,322.458,448.353,320.95z"/>
	<path fill="#FDFDFD" d="M422.903,353.313c1.778-6.257,4.059-12.087,8.796-16.629c1.233-1.183,2.684-1.962,4.307-2.502
		c2.107-0.701,3.925,0.084,5.727,0.969c0.675,0.331,0.986,0.971,1.126,1.739c0.672,3.703,1.619,7.337,2.987,10.847
		c0.412,1.061,0.218,1.776-0.677,2.487c-1.37,1.089-2.873,1.457-4.609,1.598c-5.651,0.457-11.287,1.104-16.93,1.667
		C423.483,353.504,423.327,353.42,422.903,353.313z"/>
	<path fill="#FDFDFD" d="M446.983,348.696c-1.168-3.757-2.324-7.38-2.648-11.774c3.313,2.389,6.146,4.553,8.293,7.715
		C450.844,346.138,449.045,347.49,446.983,348.696z"/>
	<path fill="#F3D07E" d="M465.137,378.056c0.011-0.842-0.451-1.514-0.799-2.227c-0.188-0.382-0.476-0.641-0.934-0.602
		c-0.514,0.044-0.581,0.427-0.642,0.839c-0.073,0.493,0.21,1.139-0.521,1.403c-0.986-0.426,0.037-1.767-0.95-2.133
		c-0.132,0.021-0.228,0.008-0.278,0.049c-0.684,0.542,0.153,1.839-0.799,2.051c-1.058,0.234-2.231,0.194-3.305-0.003
		c-0.634-0.116-1.1-0.269-1.767,0.013c-1.376,0.576-2.402,0.213-3.104-0.851c-0.56-0.853-0.433-2.236,0.29-3.132
		c0.721-0.895,1.834-1.13,3.018-0.693c0.455,0.169,0.692,0.472,0.527,0.888c-0.175,0.438-0.516,0.087-0.788,0.018
		c-1.5-0.389-1.855-0.229-1.999,0.992c-0.104,0.881-0.194,1.94,0.942,2.136c0.939,0.159,2.074-0.234,2.366-1.164
		c0.266-0.85,0.318-1.531,1.403-1.443c1.267,0.104,1.073,1.148,1.152,2.009c0.872-0.426,0.146-1.358,0.763-1.762
		c0.652-0.424,1.394-0.203,2.098-0.233c0.396-0.018,0.803,0.02,1.192-0.041c1.21-0.189,2.118,0.19,2.502,1.377
		c0.688-0.255,0.46-1.212,1.437-1.104c-0.186,1.44-0.577,2.713-1.839,3.583L465.137,378.056z"/>
	<path fill="#F3D07E" d="M431.487,373.286c-0.265,0.347-0.51,0.344-0.72,0.236c-0.71-0.36-1.427-0.484-1.881,0.298
		c-0.414,0.715-0.374,1.554-0.086,2.315c0.193,0.513,0.729,0.585,1.219,0.523c0.788-0.099,1.612-0.204,1.958-1.081
		c0.11-0.281,0.011-0.646,0.117-0.931c0.18-0.482,0.578-0.762,1.105-0.756c0.52,0.006,0.948,0.26,1.125,0.74
		c0.133,0.359,0.122,0.777,0.152,1.172c0.033,0.444,0.181,0.82,0.695,0.723c0.764-0.146,0.273-0.553,0.09-0.812
		c-0.374-0.526-0.445-1.018,0.048-1.488c0.377-0.36,0.848-0.426,1.332-0.291c0.749,0.209,0.557,0.827,0.59,1.369
		c0.138,2.217,0.14,2.094-2.127,2.236c-1.862,0.117-3.672-0.632-5.585-0.021c-1.042,0.333-1.846-0.556-2.157-1.771
		c-0.334-1.297,0.297-2.539,1.593-3.093C429.972,372.226,430.886,372.176,431.487,373.286z"/>
	<path fill="#F3D07E" d="M478.07,349.731c2.123,0.118,2.123,0.118,2.69,2.052c0.452-0.642-0.161-2.043,1.21-1.966
		c1.665,0.094,3.688-0.872,4.763,1.356l-0.028-0.025c0.149,0.821-0.057,1.564-0.481,2.267c-0.255,0.422-0.559,0.911-1.074,0.503
		c-0.468-0.371,0.081-0.635,0.304-0.912c0.503-0.628,0.132-1.183-0.163-1.742c-0.209-0.401-0.536-0.588-0.968-0.469
		c-0.35,0.098-0.415,0.407-0.431,0.744c-0.019,0.401,0.393,1.063-0.396,1.072c-0.607,0.007-0.548-0.648-0.685-1.084
		c-0.065-0.206-0.23-0.382-0.365-0.596c-0.688,0.188-0.465,0.731-0.494,1.134c-0.045,0.608-0.317,0.805-0.923,0.732
		c-0.375-0.046-0.77,0.096-1.157,0.112c-1.426,0.068-1.609-0.112-1.672-1.55c-0.022-0.551-0.069-1.101-0.105-1.651L478.07,349.731z"
		/>
	<path fill="#FDFDFD" d="M423.847,346.849c-0.33,1.148-0.683,2.293-0.986,3.448c-0.873,3.314-0.865,3.317-4.273,3.681
		c-0.396,0.042-0.796,0.084-1.193,0.092c-0.135,0.002-0.272-0.101-0.028-0.003c0.933-1.142,1.871-2.514,3.037-3.655
		c1.18-1.153,1.784-2.868,3.443-3.546L423.847,346.849z"/>
	<path fill="#F3D07E" d="M440.414,377.464c-1.262-0.492-0.389-1.644-1.102-2.094c-0.357-0.084-0.394,0.172-0.501,0.375
		c-0.279,0.534,0.412,1.557-0.341,1.621c-1.118,0.099-0.658-1.018-0.702-1.628c-0.068-0.943-0.004-1.898,0.035-2.848
		c0.004-0.099,0.214-0.189,0.481-0.409c0.529,0.728,0.839,1.578,1.822,2.051C441.077,374.999,440.733,376.323,440.414,377.464z"/>
	<path fill="#F3D07E" d="M470.522,352.867c-0.518-0.3-0.572-0.605-0.596-0.931c-0.022-0.311,0.026-0.646-0.271-0.868
		c-0.438,0.362-0.003,1.142-0.845,1.509c-0.456-0.928-0.45-2.283-1.877-2.534c-0.392-0.068-0.393-0.687-0.132-1.034
		c0.376-0.507,0.622-0.17,0.851,0.197c0.288,0.466,0.771,0.467,1.255,0.542C471.092,350.093,471.173,350.263,470.522,352.867z"/>
	<path fill="#F3D07E" d="M478.093,349.71c-0.3-0.086-0.623-0.125-0.896-0.266c-0.753-0.387-1.383-0.327-1.795,0.464
		c-0.423,0.812-0.095,1.727,0.736,2.183c0.31,0.17,0.777-0.071,0.995,0.372c-1.445,0.596-2.144,0.441-2.688-0.581
		c-0.563-1.063-0.172-2.501,0.844-3.105c1.169-0.695,1.83-0.469,2.78,0.955L478.093,349.71z"/>
	<path fill="#F3D07E" d="M446.516,375.313c-0.906,0.516,0.009,1.666-1.06,2.119c-0.767-0.865-0.492-1.92-0.283-2.833
		c0.137-0.6,0.957-0.381,1.486-0.438c0.507-0.055,1.023,0.088,1.113,0.646c0.142,0.884,0.359,1.817-0.311,2.771
		C446.501,376.964,447.201,375.939,446.516,375.313z"/>
	<path fill="#F3D07E" d="M459.344,351.542c0.104,0.9-0.398,1.189-1.276,1.133c-0.492-0.033-0.993-0.025-1.03-0.667
		c-0.025-0.462,1.381-1.772,1.777-1.725C459.138,350.323,459.359,350.823,459.344,351.542z"/>
	<path fill="#F3D07E" d="M450.069,373.628c-0.063,0.404-0.269,0.792-0.667,0.809c-0.521,0.021-0.474-0.472-0.497-0.838
		c-0.026-0.422,0.113-0.815,0.575-0.794C449.905,372.824,450.085,373.198,450.069,373.628z"/>
	<path fill="#F3D07E" d="M463.841,350.027c0.834,1.197,0.834,1.197,0.143,2.602c-0.628-0.705-0.248-1.561-0.474-2.266
		C463.622,350.254,463.732,350.143,463.841,350.027z"/>
	<path fill="#F3D07E" d="M443.58,374.615c-0.196,0.019-0.431-0.282-0.471-0.684c-0.034-0.347-0.09-0.869,0.464-0.832
		c0.396,0.027,0.543,0.487,0.678,0.831C444.385,374.271,444.246,374.518,443.58,374.615z"/>
	<path fill="#FDFDFD" d="M453.867,351.853c-0.801-1.018-0.801-1.018-0.206-2.543C454.014,350.307,453.538,351.105,453.867,351.853z"
		/>
	<path fill="#F3D07E" d="M462.476,352.783c-0.459-1.488-0.363-2.603-0.142-4.156C463.08,350.164,462.88,351.28,462.476,352.783z"/>
	<path fill="#F3D07E" d="M465.105,378.024c-0.021,0.3-0.033,0.605-0.294,0.816c-0.263,0.213-0.567,0.267-0.772-0.028
		c-0.337-0.485,0.034-0.647,0.425-0.73c0.217-0.047,0.448-0.021,0.674-0.025L465.105,378.024z"/>
	<path fill="#F3D07E" d="M486.733,351.174c0.063-0.422-0.144-0.942,0.405-1.182c0.069-0.029,0.311,0.115,0.313,0.188
		c0.026,0.521-0.256,0.833-0.748,0.969L486.733,351.174z"/>
	<path fill="#F3D07E" d="M471.84,348.902c0.036-0.146,0.139-0.4,0.432-0.221c0.17,0.104,0.332,0.343,0.354,0.537
		c0.029,0.268-0.188,0.433-0.464,0.326C471.938,349.458,471.809,349.256,471.84,348.902z"/>
	<path fill="#F3D07E" d="M463.51,350.363c-0.069-0.119-0.228-0.291-0.191-0.349c0.155-0.265,0.348-0.12,0.522,0.014
		C463.732,350.143,463.622,350.254,463.51,350.363z"/>
	<polygon fill="#FDFDFD" points="423.846,346.865 423.89,346.793 423.846,346.85 	"/>
	<path fill="#FDFDFD" d="M527.373,217.66c1.794,2.15,3.324,4.156,4.312,6.52c0.242,0.58,0.503,1.183,0.578,1.797
		c0.242,1.978-1.539,3.284-3.413,2.564c-0.605-0.232-1.077-0.629-1.534-1.076c-1.816-1.778-3.243-3.849-4.72-6.01
		C524.206,220.174,525.737,218.959,527.373,217.66z"/>
	<path fill="#FDFDFD" d="M501.433,200.161c1.14-1.695,2.385-3.211,3.791-4.794c2.349,1.535,4.504,3.292,6.018,5.744
		c0.623,1.012,0.932,2.011-0.021,3.029c-0.948,1.012-1.784,1.208-3.189,0.754c-1.163-0.375-2.067-1.16-3.021-1.854
		C503.8,202.16,502.671,201.167,501.433,200.161z"/>
	<path fill="#FDFDFD" d="M326.772,222.213c-1.79,2.416-3.324,4.486-4.951,6.682c-1.522-2.683-2.677-5.34-3.955-8.333
		C320.928,221.129,323.634,221.631,326.772,222.213z"/>
	<path fill="#FDFDFD" d="M481.415,184.273c0.291,3.021,0.063,5.681-0.008,8.706c-2.401-1.161-4.572-2.21-6.962-3.365
		C476.649,187.663,478.841,185.981,481.415,184.273z"/>
</g>
</svg>
