<?xml version="1.0" encoding="utf-8"?>
<!-- Generator: Adobe Illustrator 16.0.0, SVG Export Plug-In . SVG Version: 6.00 Build 0)  -->
<!DOCTYPE svg PUBLIC "-//W3C//DTD SVG 1.1//EN" "http://www.w3.org/Graphics/SVG/1.1/DTD/svg11.dtd">
<svg version="1.1" id="Layer_1" xmlns="http://www.w3.org/2000/svg" xmlns:xlink="http://www.w3.org/1999/xlink" x="0px" y="0px"
	 width="2653.021px" height="700.8px" viewBox="0 0 2653.021 700.8" enable-background="new 0 0 2653.021 700.8"
	 xml:space="preserve">
<path fill-rule="evenodd" clip-rule="evenodd" fill="#1C1C1C" d="M1376.308,437.022c2.07-0.089,4.141-0.257,6.212-0.257
	c282.707-0.012,565.414-0.011,848.121-0.011c139.033,0,278.067,0,417.101,0.002c1.76,0,3.52,0.028,5.279,0.043
	c0,0.641,0,1.28,0,1.92c-1.018,1.566-2.059,3.117-3.05,4.699c-52.843,84.278-105.682,168.559-158.513,252.844
	c-0.924,1.476-1.734,3.023-2.598,4.537c-425.6,0-851.2,0-1276.8,0c0.005-1.712,1.055-2.96,1.902-4.302
	c5.703-9.031,11.427-18.05,17.093-27.104c10.909-17.433,21.763-34.899,32.677-52.33c7.275-11.619,14.628-23.191,21.913-34.806
	c1.851-2.951,3.57-5.985,5.35-8.981c1.298,2.635,1.604,5.486,1.667,8.351c0.089,3.993,0.02,7.988,0.043,11.982
	c0.008,1.324,0.377,1.744,1.661,1.75c5.753,0.028,11.507,0.037,17.26,0.003c1.81-0.011,2.094-0.361,2.015-2.378
	c-0.255-6.547-0.604-13.09-0.816-19.638c-0.235-7.295-1.997-14.188-5.13-20.757c-0.544-1.142-1.029-2.313-1.542-3.471
	c1.844-2.775,3.755-5.51,5.522-8.335c10.896-17.415,21.737-34.864,32.639-52.275c8.875-14.171,17.879-28.264,26.668-42.487
	C1372.811,443.064,1375.057,440.329,1376.308,437.022z M1949.674,624.738c-1.276,3.66-2.28,7.034-3.62,10.271
	c-2.484,6-6.821,9.94-13.336,11.232c-1.251,0.248-2.488,0.567-3.737,0.827c-5.68,1.181-11.447,1.149-17.202,1.16
	c-18.555,0.033-37.11-0.003-55.665,0.025c-5.767,0.01-11.491-0.295-17.197-1.232c-14.167-2.33-23.589-13.931-25.103-24.476
	c-0.616-4.296-0.903-8.581-1.007-12.895c-0.061-2.508,0.199-2.719,2.663-2.775c1.278-0.029,2.559-0.008,3.838-0.008
	c48.787,0,97.574,0,146.361,0c1.12,0,2.24,0.018,3.359-0.004c2.972-0.059,3.092-0.089,3.004-2.901
	c-0.222-7.033-0.375-14.076-0.877-21.092c-0.387-5.407-1.006-10.814-2.622-16.053c-4.847-15.71-14.693-26.193-30.957-30.315
	c-11.522-2.92-23.154-4.768-35.053-4.777c-14.077-0.011-28.153,0.028-42.229-0.011c-9.454-0.026-18.859,0.593-28.192,2.086
	c-5.36,0.857-10.714,1.812-15.807,3.807c-6.711,2.63-12.433,6.562-16.403,12.705c-5.994,9.275-9.679,19.367-10.841,30.398
	c-1.366,12.961-1.125,25.86,0.927,38.73c1.523,9.558,4.51,18.589,9.432,26.967c2.822,4.804,6.613,8.575,11.377,11.425
	c4.432,2.652,9.228,4.35,14.215,5.571c10.453,2.561,21.073,3.785,31.824,3.81c18.395,0.043,36.79-0.002,55.186,0.031
	c8.496,0.015,16.938-0.638,25.315-1.996c6.006-0.974,11.865-2.531,17.442-5.035c6.588-2.958,11.188-7.799,13.926-14.476
	c2.526-6.162,3.408-12.617,3.581-19.207c0.033-1.265-0.431-1.774-1.675-1.779C1963.731,624.723,1956.862,624.738,1949.674,624.738z
	 M1663.823,609.224c12.441,0,23.157-0.046,33.874,0.02c4.956,0.03,9.916,0.182,14.864,0.452c3.835,0.209,7.594,0.903,11.168,2.462
	c3.967,1.729,6.417,4.779,7.478,8.823c1.198,4.566,1.034,9.178-0.471,13.708c-1.962,5.904-5.872,9.771-11.882,11.445
	c-1.379,0.385-2.796,0.648-4.205,0.913c-4.736,0.892-9.536,1.067-14.334,1.076c-23.99,0.042-47.982,0.047-71.973,0.038
	c-2.718-0.001-5.444-0.058-8.15-0.287c-4.305-0.364-8.602-0.92-12.556-2.822c-5.524-2.658-9.203-6.689-9.925-13.092
	c-0.359-3.187-0.572-6.363-0.643-9.563c-0.038-1.726-0.333-2.055-1.91-2.064c-5.598-0.034-11.196-0.042-16.794-0.002
	c-2.175,0.016-2.324,0.211-2.345,2.634c-0.038,4.641,0.211,9.267,0.589,13.896c0.227,2.771,0.936,5.328,2.093,7.811
	c1.697,3.64,3.819,7.021,6.325,10.147c2.745,3.425,6.173,5.983,10.202,7.765c2.944,1.302,6.014,2.152,9.163,2.7
	c7.895,1.376,15.859,1.951,23.871,1.948c23.032-0.007,46.064-0.029,69.096,0.021c6.254,0.015,12.468-0.489,18.662-1.181
	c4.916-0.55,9.809-1.363,14.602-2.673c9.127-2.494,15.933-7.77,20.239-16.31c5.443-10.796,5.572-21.897,1.689-33.03
	c-3.852-11.041-11.711-18.091-23.146-20.869c-7.479-1.817-15.119-2.588-22.803-2.83c-20.147-0.635-40.304-0.15-60.454-0.348
	c-6.714-0.065-13.434-0.292-20.133-0.72c-5.094-0.325-10.173-0.956-14.98-2.945c-5.354-2.216-8.364-6.171-9.278-11.843
	c-0.537-3.338-0.67-6.704-0.43-10.048c0.484-6.758,5.027-11.492,11.678-12.604c5.874-0.981,11.798-0.888,17.709-0.899
	c22.872-0.049,45.744-0.029,68.616-0.019c2.398,0.001,4.806,0.004,7.192,0.204c4.146,0.348,8.211,1.08,12.129,2.618
	c4.021,1.578,6.597,4.413,7.869,8.448c0.525,1.664,0.82,3.409,1.105,5.136c0.209,1.259,0.208,2.55,0.343,3.822
	c0.118,1.119,0.769,1.675,1.91,1.674c5.758-0.008,11.516-0.009,17.273-0.007c1.172,0.001,1.796-0.619,1.772-1.741
	c-0.086-4.313-0.161-8.607-0.902-12.898c-0.816-4.733-2.863-8.748-5.842-12.412c-3.779-4.646-8.786-7.38-14.359-9.117
	c-9.502-2.962-19.222-4.863-29.204-4.888c-22.552-0.054-45.104-0.011-67.655,0.054c-7.531,0.021-14.998,0.96-22.418,2.157
	c-3.454,0.558-6.881,1.333-10.214,2.532c-7.793,2.805-13.42,7.853-16.717,15.479c-5.224,12.08-5.429,24.141,0.031,36.217
	c4.236,9.369,11.376,15.216,21.301,17.726c6.377,1.613,12.879,2.353,19.43,2.747C1636.758,609.55,1651.156,609.103,1663.823,609.224
	z M2279.123,609.222c3.68,0,7.359-0.021,11.038,0.003c11.196,0.074,22.395-0.203,33.589,0.317c3.053,0.142,6.08,0.482,9.019,1.203
	c7.595,1.863,11.913,6.174,12.2,14.957c0.021,0.64,0.021,1.28,0.013,1.92c-0.162,11.1-6.204,17.816-17.215,19.459
	c-7.156,1.067-14.346,1.12-21.539,1.14c-19.836,0.054-39.672,0.034-59.509,0.005c-4.157-0.006-8.317-0.122-12.473-0.289
	c-4.009-0.162-7.98-0.747-11.746-2.15c-7.265-2.705-11.551-7.779-11.94-15.739c-0.125-2.556-0.152-5.117-0.27-7.673
	c-0.073-1.608-0.435-2.022-1.987-2.033c-5.759-0.038-11.518-0.009-17.276-0.021c-1.185-0.003-1.771,0.578-1.768,1.724
	c0.008,3.04,0.17,6.084,0.052,9.117c-0.307,7.866,2.403,14.673,6.812,21.032c4.395,6.342,10.224,10.413,17.698,12.254
	c7.813,1.924,15.774,2.662,23.773,2.695c25.434,0.105,50.869,0.103,76.304,0.018c8.973-0.029,17.859-1.185,26.657-2.945
	c15.023-3.007,23.798-12.407,26.9-27.098c1.466-6.942,1.095-14.041-1.025-20.886c-3.864-12.478-12.068-20.444-24.949-23.26
	c-3.427-0.749-6.922-1.203-10.4-1.68c-9.061-1.24-18.188-1.201-27.303-1.235c-15.676-0.059-31.354,0.023-47.031-0.036
	c-8.157-0.031-16.304-0.375-24.405-1.487c-3.201-0.44-6.216-1.383-9.154-2.674c-4.266-1.875-6.742-5.163-7.953-9.598
	c-0.988-3.616-0.921-7.288-0.837-10.959c0.165-7.207,4.731-12.298,11.811-13.465c5.559-0.916,11.16-0.867,16.754-0.879
	c23.354-0.046,46.711-0.029,70.065-0.022c2.079,0.001,4.16,0.066,6.236,0.17c3.853,0.192,7.604,0.978,11.272,2.141
	c5.176,1.641,8.284,5.183,9.56,10.431c0.569,2.342,0.917,4.695,0.98,7.108c0.045,1.66,0.418,2.031,1.963,2.04
	c5.758,0.035,11.518,0.035,17.275-0.001c1.493-0.01,1.786-0.414,1.832-2.154c0.107-4.012-0.367-7.979-0.916-11.944
	c-0.514-3.708-1.85-7.07-3.88-10.21c-3.928-6.075-9.597-9.742-16.353-11.842c-9.662-3.002-19.539-4.896-29.688-4.914
	c-22.075-0.042-44.15-0.03-66.227,0.057c-9.133,0.036-18.18,1.125-27.143,2.891c-3.146,0.62-6.19,1.562-9.113,2.885
	c-5.729,2.594-10.174,6.552-13.01,12.228c-6.31,12.624-6.841,25.388-1.06,38.359c4.197,9.419,11.364,15.224,21.271,17.752
	c6.374,1.627,12.88,2.361,19.433,2.753C2250.008,609.553,2264.569,609.101,2279.123,609.222z M1462.278,604.207
	c0,1.718,0.053,3.449-0.009,5.177c-0.264,7.352-0.573,14.699-2.458,21.871c-0.693,2.637-1.654,5.155-2.874,7.597
	c-1.747,3.493-4.468,5.796-8.179,6.888c-1.833,0.539-3.706,1.045-5.597,1.271c-13.388,1.602-26.813,1.261-40.236,0.576
	c-1.591-0.081-3.196-0.308-4.746-0.675c-7.652-1.818-14.384-4.28-16.526-16.132c-1.057-5.839-1.475-11.732-1.479-17.657
	c-0.015-19.032-0.027-38.064-0.014-57.098c0.005-5.597-0.668-5.1,5.141-5.102c28.469-0.007,56.938-0.003,85.407-0.003
	c1.119,0,2.238,0.014,3.358-0.004c3.029-0.05,3.056-0.055,3.08-3.299c0.03-3.839,0.021-7.677,0.004-11.516
	c-0.021-4.838,0.478-4.387-4.318-4.388c-28.948-0.008-57.897-0.004-86.846-0.005c-1.279,0-2.561,0.032-3.838-0.02
	c-1.56-0.063-1.931-0.429-1.972-2.033c-0.053-2.078-0.022-4.158-0.023-6.237c-0.002-7.197,0.016-14.395-0.012-21.592
	c-0.01-2.546-0.059-2.582-2.782-2.597c-5.118-0.028-10.236-0.027-15.354-0.005c-5.455,0.024-4.955-0.588-4.965,4.771
	c-0.017,8.478,0.01,16.954-0.022,25.431c-0.008,2.002-0.26,2.255-2.201,2.264c-7.197,0.033-14.395,0.017-21.592,0.02
	c-1.439,0-2.88-0.029-4.317,0.015c-1.683,0.051-2.016,0.323-2.027,1.914c-0.035,5.117-0.038,10.235,0.004,15.354
	c0.013,1.544,0.418,1.901,2.065,1.908c7.517,0.028,15.034-0.017,22.551,0.029c6.424,0.04,5.51-0.844,5.523,5.63
	c0.039,19.353,0.033,38.705,0.014,58.058c-0.007,6.898,0.736,13.714,1.95,20.496c2.029,11.338,8.16,19.54,18.439,24.761
	c3.875,1.968,7.864,3.508,12.092,4.454c7.986,1.788,16.11,2.515,24.261,2.774c9.108,0.291,18.215,0.262,27.315-0.685
	c6.253-0.651,12.26-2.119,18.146-4.205c4.152-1.471,7.625-3.962,10.632-7.162c5.919-6.3,8.97-13.854,10.002-22.346
	c1.085-8.924,0.822-17.883,0.813-26.835c-0.002-1.791-0.347-2.092-2.355-2.106c-4.798-0.033-9.596-0.011-14.394,0.02
	C1463.49,603.786,1463.042,604.005,1462.278,604.207z M2005.938,599.103c0,19.197-0.025,38.396,0.024,57.593
	c0.009,3.328-0.405,6.679,0.287,9.991c3.401,1.196,6.913,0.37,10.37,0.532c3.192,0.15,6.397,0.057,9.597,0.022
	c2.781-0.03,2.785-0.06,2.833-3.037c0.016-0.96,0.002-1.92,0.002-2.88c0-20.798-0.003-41.595,0.004-62.393
	c0.001-2.719-0.053-5.445,0.107-8.156c0.415-7.038,1.353-13.989,3.651-20.706c2.426-7.092,6.959-12.114,14.102-14.635
	c1.504-0.53,3.01-1.064,4.541-1.506c6.028-1.735,12.241-2.352,18.457-2.787c9.746-0.684,19.506-0.669,29.256-0.016
	c6.883,0.461,13.625,1.664,20.172,3.923c6.192,2.137,10.216,6.306,12.266,12.496c1.819,5.497,3.026,11.096,3.044,16.909
	c0.009,3.039-0.066,6.078-0.067,9.117c0,1.355,0.371,1.784,1.617,1.79c5.76,0.026,11.519,0.036,17.277,0.002
	c1.788-0.011,2.078-0.394,2.001-2.387c-0.255-6.553-0.563-13.104-0.795-19.658c-0.223-6.302-1.637-12.327-3.954-18.171
	c-3.721-9.383-10.447-15.499-20.028-18.55c-6.729-2.143-13.585-3.623-20.659-3.907c-9.435-0.379-18.873-0.279-28.31-0.069
	c-9.155,0.203-18.125,1.645-26.984,3.913c-9.36,2.397-17.555,6.752-24.086,13.998c-0.417,0.463-0.903,0.883-1.423,1.224
	c-0.162,0.106-0.746-0.062-0.781-0.197c-0.155-0.592-0.238-1.217-0.24-1.83c-0.021-5.439-0.005-10.879-0.035-16.318
	c-0.008-1.385-0.305-1.678-1.712-1.683c-6.239-0.022-12.479-0.004-18.718-0.01c-1.114-0.001-1.819,0.385-1.803,1.633
	c0.017,1.279-0.012,2.56-0.012,3.839C2005.938,557.827,2005.938,578.465,2005.938,599.103z M1536.814,599.641
	c0-20.771,0.001-41.541-0.001-62.311c0-1.278-0.028-2.557-0.006-3.835c0.02-1.146-0.442-1.773-1.655-1.771
	c-6.55,0.007-13.101-0.003-19.651,0.007c-1.088,0.001-1.815,0.442-1.81,1.672c0.006,1.277-0.019,2.556-0.019,3.833
	c-0.001,41.541-0.001,83.081,0,124.622c0,1.118-0.027,2.238,0.016,3.354c0.063,1.639,0.363,2.004,1.955,2.014
	c6.391,0.035,12.781,0.018,19.173,0.019c0.159,0,0.318-0.018,0.479-0.021c0.938-0.022,1.462-0.483,1.479-1.438
	c0.024-1.437,0.039-2.875,0.04-4.313C1536.815,640.861,1536.814,620.251,1536.814,599.641z M1536.805,486.022
	c-0.001,0-0.003,0-0.005,0c0-3.823,0.029-7.646-0.014-11.469c-0.018-1.593-0.439-2.031-1.943-2.037
	c-6.372-0.027-12.744-0.029-19.115,0.007c-1.579,0.009-2.006,0.431-2.025,1.969c-0.049,3.982-0.028,7.965-0.029,11.947
	c-0.001,3.664-0.02,7.328,0.019,10.991c0.016,1.529,0.432,1.953,2.007,1.961c6.371,0.034,12.743,0.035,19.115,0.009
	c1.655-0.006,1.964-0.313,1.979-1.908C1536.829,493.669,1536.805,489.846,1536.805,486.022z"/>
<path fill-rule="evenodd" clip-rule="evenodd" fill="#606060" d="M1290.994,573.276c-1.78,2.996-3.499,6.03-5.35,8.981
	c-7.284,11.614-14.637,23.187-21.913,34.806c-10.914,17.431-21.768,34.897-32.677,52.33c-5.666,9.055-11.39,18.073-17.093,27.104
	c-0.847,1.342-1.897,2.59-1.902,4.302c-404.8,0-1212.968-3.164-1212.059-4.617c16.191-25.894,32.425-51.762,48.647-77.635
	C85.595,559.62,122.534,500.687,159.5,441.771c3.788-6.038,2.051-4.93,9.021-4.93c400.841-0.021,801.683-0.02,1202.523-0.011
	c1.755,0,3.508,0.125,5.263,0.191c-1.251,3.307-3.497,6.042-5.324,8.999c-8.789,14.224-17.793,28.316-26.668,42.487
	c-10.902,17.411-21.744,34.86-32.639,52.275c-1.767,2.825-3.678,5.56-5.522,8.335c-4.692-6.677-11.085-10.927-18.873-13.144
	c-6.005-1.711-12.092-2.935-18.351-3.345c-8.15-0.534-16.303-0.438-24.452-0.303c-10.733,0.179-21.344,1.379-31.765,4.151
	c-9.346,2.485-17.51,6.854-24.063,14.064c-0.472,0.519-0.891,1.429-1.887,0.877c-0.57-0.904-0.32-1.872-0.326-2.792
	c-0.031-4.637,0.012-9.273-0.029-13.91c-0.026-2.976-0.083-3.038-2.891-3.063c-4.636-0.043-9.274-0.04-13.91-0.01
	c-6.383,0.043-5.584-0.686-5.587,5.642c-0.021,41.411-0.011,82.822-0.01,124.233c0,1.279-0.028,2.56,0.026,3.837
	c0.068,1.561,0.384,1.897,2.074,1.912c5.276,0.044,10.553,0.05,15.829,0.027c5.93-0.024,5.288,0.616,5.294-5.456
	c0.023-21.586,0.044-43.171-0.012-64.756c-0.013-4.974,0.388-9.909,1.006-14.82c0.559-4.437,1.535-8.814,3.131-13.021
	c2.456-6.473,6.76-11.067,13.322-13.579c4.818-1.843,9.785-2.916,14.862-3.596c8.418-1.127,16.886-1.335,25.364-1.281
	c6.559,0.042,13.106,0.273,19.61,1.198c5.242,0.745,10.341,2.026,15.219,4.116c3.34,1.431,6.029,3.67,7.78,6.846
	C1289.289,566.161,1290.828,569.501,1290.994,573.276z M542.549,667.301c-1.716-2.78-2.867-4.662-4.036-6.533
	c-30.578-48.973-61.158-97.945-91.74-146.916c-8.047-12.887-16.142-25.745-24.114-38.679c-1.232-1.999-2.601-2.834-4.979-2.8
	c-8.798,0.128-17.599-0.004-26.398,0.067c-6.416,0.052-4.875-0.984-8.228,4.535c-30.552,50.301-61.083,100.614-91.62,150.924
	c-7.22,11.894-14.454,23.778-21.637,35.694c-0.613,1.017-1.787,1.95-1.078,3.555c1.059,0.047,2.164,0.138,3.269,0.137
	c7.04-0.005,14.08-0.03,21.119-0.051c0.8-0.003,1.6-0.037,2.399-0.029c0.871,0.008,1.534-0.354,1.998-1.075
	c0.691-1.076,1.38-2.154,2.049-3.243c7.035-11.445,14.04-22.908,21.108-34.332c3.217-5.199,1.797-4.366,7.859-4.37
	c50.878-0.024,101.756-0.014,152.634-0.014c0.96,0,1.925,0.066,2.878-0.012c1.611-0.131,2.758,0.439,3.535,1.89
	c0.604,1.125,1.348,2.174,2.02,3.262c7.06,11.43,14.124,22.856,21.174,34.292c2.575,4.177,1.919,3.649,6.35,3.672
	c7.04,0.035,14.079,0.021,21.119,0.026C539.333,667.302,540.434,667.301,542.549,667.301z M702.125,548.498
	c-0.91-0.386-1.104-0.408-1.197-0.518c-0.83-0.968-1.631-1.96-2.461-2.929c-5.834-6.802-13.01-11.187-21.994-12.545
	c-3.019-0.456-6.026-0.816-9.062-0.817c-20.633-0.006-41.267-0.009-61.899,0.077c-8.665,0.036-17.212,1.297-25.666,3.121
	c-5.635,1.216-11.146,2.867-16.225,5.702c-4.397,2.454-8.214,5.573-10.898,9.888c-3.835,6.164-6.663,12.773-7.854,19.955
	c-0.811,4.881-1.49,9.815-1.75,14.751c-0.707,13.438-0.508,26.856,1.753,40.179c0.995,5.863,2.675,11.486,5.188,16.896
	c5.034,10.845,13.454,17.654,24.732,21.117c8.464,2.6,17.16,3.832,26,3.859c19.034,0.059,38.068-0.003,57.102,0.032
	c4.657,0.009,9.246-0.642,13.855-1.131c10.906-1.157,19.696-6.174,26.623-14.592c0.61-0.741,1.224-1.479,1.845-2.21
	c0.204-0.24,0.403-0.527,0.671-0.659c0.234-0.115,0.564-0.073,0.845-0.039c0.114,0.015,0.292,0.189,0.298,0.299
	c0.049,0.957,0.086,1.916,0.089,2.874c0.016,4.479-0.008,8.958,0.041,13.436c0.018,1.633,0.38,2.009,1.956,2.023
	c4.958,0.046,9.917,0.062,14.875,0.026c6.587-0.046,5.875,0.828,5.876-5.871c0.016-60.941,0.009-121.883,0.009-182.823
	c0-1.12,0.03-2.241-0.013-3.359c-0.096-2.494-0.338-2.782-2.75-2.802c-4.958-0.041-9.917-0.03-14.875-0.013
	c-5.484,0.02-5.113-0.523-5.114,5.213c-0.002,21.913-0.001,43.826-0.001,65.739C702.125,544.935,702.125,546.491,702.125,548.498z
	 M1050.43,606.94c24.474,0,48.949,0,73.423,0c1.12,0,2.24,0.021,3.359-0.008c2.934-0.072,3.062-0.178,3.093-2.911
	c0.09-7.847-0.511-15.666-1.114-23.478c-0.282-3.651-0.806-7.333-1.7-10.881c-4.277-16.97-14.068-28.72-31.601-33.205
	c-11.52-2.947-23.155-4.793-35.058-4.799c-14.717-0.007-29.433,0.021-44.15,0.009c-8.974-0.007-17.896,0.65-26.75,2.106
	c-6.154,1.012-12.286,2.145-18.007,4.804c-5.786,2.688-10.644,6.49-14.101,11.907c-5.854,9.171-9.525,19.115-10.672,29.988
	c-1.384,13.118-1.182,26.178,0.933,39.207c1.5,9.238,4.401,17.97,9.017,26.144c3.336,5.907,8.059,10.278,14.044,13.348
	c3.715,1.905,7.644,3.234,11.691,4.243c10.292,2.564,20.749,3.816,31.342,3.842c19.516,0.048,39.031,0.013,58.546,0.01
	c7.855,0,15.656-0.704,23.389-2.04c6.155-1.063,12.152-2.686,17.825-5.428c5.891-2.848,10.045-7.286,12.651-13.215
	c2.746-6.246,3.796-12.846,3.865-19.624c0.019-1.92-0.303-2.282-2.203-2.295c-6.238-0.044-12.477-0.046-18.715-0.006
	c-1.805,0.012-1.97,0.22-2.601,2.178c-0.637,1.977-1.182,3.984-1.86,5.945c-2.616,7.566-7.629,12.426-15.708,13.782
	c-0.944,0.158-1.886,0.337-2.826,0.521c-5.372,1.053-10.814,1.058-16.252,1.062c-19.355,0.015-38.711-0.018-58.067,0.022
	c-5.135,0.011-10.246-0.257-15.271-1.277c-12.138-2.464-20.445-9.444-24.157-21.379c-1.673-5.378-1.851-11.017-1.747-16.632
	c0.027-1.459,0.495-1.851,2.12-1.917c1.278-0.052,2.559-0.024,3.838-0.024C1001.481,606.939,1025.955,606.94,1050.43,606.94z
	 M835.115,647.983c-0.885-1.411-1.583-2.475-2.233-3.567c-20.204-33.929-40.402-67.861-60.603-101.792
	c-1.881-3.159-3.793-6.3-5.652-9.473c-0.634-1.082-1.496-1.545-2.742-1.538c-7.037,0.042-14.074,0.036-21.111,0.08
	c-1.163,0.008-1.576,0.855-0.984,1.957c0.681,1.267,1.424,2.5,2.154,3.739c20.632,34.975,41.266,69.949,61.9,104.923
	c4.143,7.022,8.281,14.048,12.436,21.063c2.677,4.521,1.788,3.878,6.636,3.92c4.158,0.036,8.317,0.008,12.476,0.007
	c3.359-0.001,6.718-0.045,10.076,0.014c1.445,0.026,2.447-0.449,3.072-1.781c0.337-0.719,0.826-1.366,1.23-2.056
	c24.661-42.064,49.319-84.131,73.976-126.198c0.728-1.241,1.464-2.478,2.129-3.752c0.562-1.077,0.096-1.828-1.193-1.838
	c-5.598-0.044-11.196-0.099-16.793-0.037c-7.078,0.078-5.349-1.039-8.898,5.006c-20.887,35.566-41.725,71.162-62.604,106.732
	C837.51,644.886,836.885,646.583,835.115,647.983z"/>
<path fill-rule="evenodd" clip-rule="evenodd" fill="#FFFFFF" d="M2491.458,696.263"/>
<path fill-rule="evenodd" clip-rule="evenodd" fill="#606060" d="M1497.181,0c0.029,0.274,0.079,0.545,0.15,0.812
	c-3.594,0.027-7.188,0.055-10.781,0.082c0.023-0.298,0.047-0.596,0.07-0.894C1490.14,0,1493.66,0,1497.181,0z"/>
<path fill-rule="evenodd" clip-rule="evenodd" fill="#EC1E25" d="M1107.543,203.392c2.037,0.825,3.632,0.232,5.094-1.351
	c2.4-2.6,2.943-5.646,2.198-8.924c-0.421-1.852-1.257-3.613-1.948-5.398c-0.633-1.635-1.435-3.212-1.964-4.878
	c-1.375-4.322-0.017-7.869,3.391-10.678c1.224-1.009,2.607-1.824,4.025-2.802c-0.323-0.607-0.549-1.209-0.92-1.703
	c-5.942-7.909-8.685-17.025-9.922-26.662c-1.021-7.954-1.087-15.927-0.411-23.941c1.211-14.351,1.961-28.729,1.339-43.145
	c-0.173-4.008-0.697-7.958-1.542-11.874c-0.492-2.28-0.485-2.281,1.369-3.4c4.598-2.775,5.815-5.098,4.84-10.314
	c-0.525-2.81-1.549-5.53-2.396-8.275c-0.895-2.9-1.986-5.746-2.75-8.679c-2.254-8.662,0.181-13.726,8.223-17.51
	c2.933-1.38,6.035-2.05,9.236-2.39c5.258-0.558,10.525-0.75,15.812-0.672c5.756,0.083,11.507,0.102,17.216-0.966
	c3.644-0.681,7.219-1.549,10.45-3.353c1.705-0.952,2.904-0.664,4.31,0.427c2.273,1.765,4.599,3.471,6.992,5.068
	c1.451,0.968,3.019,1.806,4.624,2.493c3.294,1.409,6.249,0.888,8.669-1.9c0.513-0.592,1.063-1.151,1.619-1.75
	c0.458,0.428,0.782,0.766,1.141,1.062c2.24,1.852,2.284,1.878,4.582,0.522c1.927-1.137,3.828-2.322,5.709-3.533
	c1.122-0.722,2.023-0.571,2.976,0.34c3.585,3.426,7.2,6.821,10.827,10.204c0.793,0.739,1.408,1.796,2.862,1.776
	c2.53-6.953,8.129-9.744,15.038-10.774c6.218-0.927,12.438-0.691,18.674-0.317c9.577,0.575,19.156,1.484,28.749,0.282
	c1.677-0.21,3.125,0.317,4.625,0.924c10.053,4.073,18.218,10.532,24.523,19.34c1.208,1.688,2.334,3.443,3.389,5.232
	c6.417,10.88,12.787,21.788,19.208,32.665c1.235,2.091,2.053,4.266,2.538,6.666c2.042,10.096,2.694,20.255,2.112,30.539
	c-0.564,9.942-1.952,19.71-4.909,29.244c-5.334,17.206-14.999,31.319-29.66,41.917c-0.761,0.55-1.7,0.939-2.152,2.027
	c0.226,0.296,0.429,0.719,0.761,0.975c13.554,10.436,21.972,24.29,26.984,40.428c3.436,11.066,5.3,22.421,5.651,33.965
	c0.336,11.029,0.194,22.074,0.192,33.112c-0.002,7.199-0.245,14.399-0.174,21.596c0.127,12.849,1.443,25.537,5.756,37.76
	c0.152,0.431,0.093,0.936,0.129,1.361c-0.843,0.841-1.842,0.463-2.757,0.512c-1.438,0.077-2.891-0.011-4.313,0.163
	c-13.719,1.68-27.475,1.015-41.222,0.656c-5.46-0.143-10.79-1.266-15.997-2.906c-3.997-1.259-7.723-3.071-10.983-5.746
	c-6.224-5.107-7.983-11.29-5.354-18.855c0.576-1.659,1.333-3.257,1.873-4.927c1.765-5.451,1.627-10.703-1.811-15.564
	c-0.274-0.387-0.459-0.838-0.717-1.317c0.89-0.825,2.354-0.676,2.998-1.936c0.658-1.285,1.443-2.495,1.493-3.995
	c0.043-1.289-0.089-2.536-0.608-3.75c-0.956-2.23-2.324-4.189-3.812-6.077c-1.485-1.884-3.017-3.732-4.476-5.636
	c-0.867-1.131-1.877-2.21-2-3.92c2.603-0.158,4.842,1.503,7.355,1.499c0.16-0.325,0.455-0.633,0.404-0.864
	c-2.034-9.104-2.537-18.357-2.656-27.64c-0.065-5.124-0.222-10.23-0.959-15.313c-0.392-2.699-0.957-5.342-1.759-7.945
	c-1.798-5.838-5.149-10.593-9.92-14.378c-4.454-3.533-9.552-5.769-14.918-7.484c-1.48-0.473-2.738-0.273-4.041,0.654
	c-2.776,1.974-5.429,1.411-7.839-0.763c-1.067-0.962-2.065-2.002-3.065-3.037c-1.222-1.265-2.366-2.609-3.626-3.834
	c-2.537-2.463-2.659-2.457-5.483-0.065c-10.49,8.881-17.074,20.166-20.419,33.406c-2.691,10.649-3.176,21.478-2.492,32.396
	c0.7,11.175,1.565,22.346,1.959,33.532c0.43,12.223-0.854,24.274-5.197,35.849c-2.208,5.885-5.208,11.315-9.049,16.288
	c-0.912,1.181-1.918,2.048-3.534,2.153c-11.043,0.718-22.057,0.995-32.926-1.691c-3.427-0.847-6.728-2.013-9.892-3.583
	c-8.888-4.413-14.39-11.495-16.538-21.144c-1.636-7.348-2.608-14.801-2.989-22.32c-0.78-15.36-0.205-30.711,0.438-46.058
	c0.509-12.154,0.872-24.293-0.353-36.437c-0.483-4.787-1.732-9.42-2.369-14.167C1107.229,203.719,1107.387,203.556,1107.543,203.392
	z M1258.121,97.197c0.368-1.955,0.227-2.144-1.305-2.434c-0.941-0.178-1.902-0.267-2.829-0.498c-3.011-0.75-4.035-1.931-4.211-4.955
	c-0.093-1.593-0.081-3.197-0.023-4.792c0.142-3.915-1.666-6.704-4.883-8.733c-3.156-1.991-6.63-3.082-10.26-3.816
	c-4.42-0.894-8.886-0.936-13.363-0.949c-7.52-0.023-15.023-0.237-22.293-2.48c-1.144-0.353-1.797,0.166-2.359,1.041
	c-1.832,2.855-3,5.971-3.78,9.262c-1.385,5.849-1.127,11.756-0.547,17.646c0.594,6.038,1.547,12.041,2.127,18.081
	c0.735,7.646,1.407,15.328-2.126,22.591c-0.463,0.952-0.157,1.834,0.198,2.758c3.003,7.829,8.745,12.042,17.039,12.543
	c3.651,0.22,7.347-0.056,11.008-0.303c4.94-0.334,9.859-0.98,14.8-1.268c5.421-0.316,10.851-0.457,16.232,0.705
	c2.338,0.505,2.694,0.215,3.372-2.145c0.794-2.764,1.422-5.555,1.389-8.476c-0.08-7.031-0.033-14.063-0.124-21.093
	C1256.08,112.037,1256.072,104.212,1258.121,97.197z"/>
<path fill-rule="evenodd" clip-rule="evenodd" fill="#EC1E25" d="M882.514,52.308c2.549-5.495,6.374-9.49,11.043-12.761
	c1.833-1.285,3.504-2.778,4.916-4.547c1.528-1.915,1.896-3.925,1-6.267c-1.104-2.882-2.842-5.347-4.636-7.803
	c-0.892-1.219-0.677-1.926,0.667-2.639c0.563-0.299,1.128-0.629,1.732-0.815c2.363-0.727,4.786-0.643,7.108,0.012
	c2.606,0.735,5.125,1.78,7.688,2.674c2.539,0.886,4.941,2.25,7.932,2.306c-0.144-3.379,0.68-6.375,2.949-8.888
	c3.048-3.375,6.518-6.159,10.867-7.631c1.83-0.619,3.697-0.711,5.585,0.231c6.474,3.229,13.472,3.903,20.554,3.761
	c5.913-0.119,11.824-0.476,17.729-0.842c6.555-0.407,13.088-0.693,19.617,0.391c5.618,0.933,10.73,2.816,15.24,6.469
	c8.449,6.844,17.071,13.476,25.605,20.216c4.02,3.175,7.858,6.559,11.416,10.251c5.291,5.492,9.285,11.711,11.57,19.082
	c3.654,11.785,6.385,23.748,8.037,35.975c2.275,16.845,3.062,33.764,2.498,50.734c-0.415,12.465-1.156,24.916-2.291,37.345
	c-0.901,9.872-1.552,19.767-2.279,29.655c-0.75,10.206-1.443,20.417-2.199,30.623c-0.212,2.868-0.649,5.68-1.595,8.446
	c-4.962,14.511-9.84,29.05-15.438,43.336c-4.032,10.288-9.997,19.28-17.948,26.923c-8.407,8.079-18.358,13.211-29.884,15.219
	c-1.572,0.274-3.152,0.579-4.676,1.042c-3.147,0.956-6.315,0.961-9.49,0.344c-2.979-0.579-5.933-1.283-8.895-1.944
	c-2.65-0.592-5.3-1.187-7.943-1.805c-6.591-1.541-12.069-0.203-15.642,6.042c-0.572,1-1.336,1.293-2.39,0.864
	c-13.24-5.397-27.188-8.231-41.058-11.361c-7.796-1.759-15.492-3.89-22.976-6.731c-5.397-2.048-10.559-4.561-15.412-7.696
	c-2.691-1.74-5.253-3.647-7.625-5.806c-7.666-6.979-12.228-15.447-12.7-25.972c-0.315-7.028-0.817-14.048-1.246-21.071
	c-0.409-6.704-0.879-13.392-2.548-19.947c-1.589-6.24-3.764-12.255-7.238-17.665c-1.44-2.243-1.691-4.373-1.38-6.804
	c0.487-3.805,0.881-7.624,1.432-11.419c0.398-2.742,0.26-5.325-0.771-7.97c-1.566-4.019-2.782-8.174-5.652-11.551
	c-0.258-0.304-0.538-0.825-0.033-1.183c0.223-0.159,0.625-0.232,0.881-0.148c1.364,0.446,2.703,0.965,4.059,1.439
	c1.619,0.565,2.076,0.472,2.703-0.868c2.369-5.065,4.689-10.152,7.005-15.242c0.115-0.252,0.015-0.603,0.015-0.998
	c-0.409-0.876-1.304-0.595-2.031-0.606c-3.357-0.054-6.716-0.038-10.074-0.082c-0.94-0.012-1.408-0.587-1.417-1.521
	c-0.005-0.479-0.005-0.959,0.016-1.438c0.559-13.123-0.056-26.221-0.731-39.323c-0.478-9.267-0.642-18.538,0.57-27.785
	c1.579-12.049,5.108-23.381,11.866-33.598c1.523-2.303,3.34-4.194,5.671-5.732c6.807-4.489,13.524-9.114,20.25-13.724
	c1.167-0.8,2.529-1.384,3.369-2.654c0.143-1.368-1.019-1.865-1.78-2.592c-1.038-0.99-2.207-1.847-3.209-2.869
	c-0.922-0.94-0.768-2.017,0.242-2.905c0.904-0.795,1.773-0.856,2.493-0.018c1.77,2.062,3.451,4.199,5.222,6.26
	C879.899,49.92,880.626,51.42,882.514,52.308z M995.299,133.805c-0.098-0.004-0.196-0.008-0.293-0.012
	c0-3.039,0.095-6.082-0.032-9.115c-0.093-2.23-0.444-4.453-0.734-6.671c-1.343-10.299-4.646-19.89-10.453-28.552
	c-1.073-1.601-2.016-3.238-2.73-5.037c-1.557-3.922-3.968-7.293-6.99-10.22c-9.699-9.392-21.174-12.604-34.399-10.024
	c-6.78,1.323-11.633,5-14.674,11.144c-1.502,3.035-2.373,6.262-2.917,9.595c-0.565,3.47-1.092,6.952-1.825,10.387
	c-1.438,6.742-3.07,13.434-7.735,18.859c-0.832,0.968-0.665,2.075-0.604,3.188c0.167,3.034,0.423,6.066,0.481,9.102
	c0.408,21.272,0.859,42.544,1.13,63.818c0.233,18.243,0.89,36.458,2.92,54.598c0.799,7.148,1.875,14.26,3.418,21.296
	c0.355,1.619,0.965,2.952,2.223,4.095c4.382,3.978,8.656,8.073,13.037,12.052c3.149,2.86,6.901,4.818,11.061,5.419
	c6.159,0.89,12.353,1.78,18.626,1.381c6.654-0.424,12.354-2.977,17.201-7.532c3.688-3.465,6.228-7.676,8.153-12.3
	c3.138-7.535,5.548-15.316,7.895-23.123c2.53-8.42,4.989-16.885,10.271-24.14c0.563-0.772,0.376-1.489-0.14-2.177
	c-0.287-0.383-0.613-0.738-0.919-1.106c-9.147-11.01-13.317-23.898-14.115-37.983c-0.444-7.833-0.07-15.664,0.572-23.488
	C994.367,149.45,994.784,141.623,995.299,133.805z"/>
<path fill-rule="evenodd" clip-rule="evenodd" fill="#EC1E25" d="M343.591,192.801c2.671,0.087,4.299,1.201,6.076,1.792
	c1.067,0.355,1.824,0.163,2.317-0.931c0.986-2.184,2.024-4.345,3.038-6.518c1.284-2.751,2.563-5.504,3.846-8.255
	c0.269-0.576,0.583-1.143,0.125-2.154c-2.973-0.105-6.126-0.013-9.275-0.055c-1.116-0.015-2.239-0.031-3.343-0.172
	c-0.417-0.053-0.862-0.395-0.851-0.984c0.013-0.638-0.024-1.279,0.025-1.914c0.587-7.511,0.399-15.018,0.006-22.532
	c-0.426-8.145-0.77-16.295-1.029-24.447c-0.393-12.38,0.638-24.601,4.475-36.468c1.978-6.117,4.739-11.853,8.274-17.231
	c1.519-2.312,3.354-4.19,5.674-5.729c6.928-4.595,13.772-9.315,20.648-13.988c0.793-0.539,1.622-1.035,2.362-1.639
	c0.708-0.578,0.876-1.343,0.156-2.039c-0.802-0.775-1.684-1.465-2.516-2.21c-0.712-0.638-1.456-1.253-2.091-1.963
	c-0.994-1.111-0.728-2.172,0.68-3.159c0.57-0.399,1.179-0.601,1.698-0.045c1.089,1.164,2.137,2.367,3.159,3.59
	c1.835,2.198,3.638,4.422,5.463,6.645c0.48-0.425,0.81-0.589,0.942-0.853c2.58-5.136,6.502-9.031,11.141-12.32
	c1.422-1.009,2.687-2.267,3.918-3.515c2.288-2.319,2.691-5.017,1.188-7.903c-0.957-1.836-2.048-3.605-3.128-5.374
	c-0.577-0.944-1.459-1.708-1.681-2.978c1.493-1.884,3.636-2.341,5.914-2.425c2.267-0.083,4.455,0.365,6.571,1.157
	c2.543,0.952,5.068,1.952,7.622,2.874c1.643,0.593,3.243,1.38,5.048,1.385c0.183-0.238,0.522-0.477,0.51-0.696
	c-0.223-4.021,1.71-7.026,4.446-9.688c2.546-2.478,5.331-4.604,8.69-5.848c1.973-0.73,3.994-1.182,6.041-0.151
	c6.623,3.335,13.765,4.025,21.008,3.877c5.913-0.121,11.822-0.499,17.728-0.853c6.394-0.382,12.766-0.663,19.141,0.362
	c5.789,0.931,11.036,2.85,15.674,6.624c8.185,6.661,16.576,13.069,24.862,19.605c4.399,3.47,8.597,7.167,12.467,11.229
	c5.038,5.288,8.793,11.288,11.021,18.314c4.364,13.762,7.223,27.808,8.881,42.142c1.826,15.772,2.145,31.588,1.652,47.425
	c-0.388,12.465-1.279,24.907-2.411,37.333c-0.856,9.394-1.5,18.808-2.185,28.217c-0.766,10.525-1.447,21.057-2.229,31.581
	c-0.118,1.577-0.421,3.185-0.924,4.683c-5.135,15.296-10.241,30.603-16.199,45.608c-3.956,9.963-9.8,18.657-17.469,26.108
	c-8.489,8.248-18.561,13.467-30.265,15.466c-1.258,0.215-2.527,0.448-3.741,0.829c-3.768,1.183-7.542,1.197-11.364,0.323
	c-5.138-1.174-10.284-2.31-15.427-3.462c-0.624-0.14-1.243-0.311-1.874-0.408c-5.707-0.877-10.537,0.504-13.634,5.707
	c-1.116,1.874-1.945,1.917-3.45,1.309c-11.605-4.693-23.759-7.455-35.936-10.12c-9.217-2.017-18.345-4.332-27.196-7.644
	c-7.688-2.876-14.879-6.647-21.275-11.835c-4.262-3.457-7.875-7.483-10.531-12.322c-2.02-3.68-3.355-7.54-3.77-11.773
	c-0.873-8.916-1.522-17.841-1.833-26.794c-0.228-6.57-1.106-13.055-2.814-19.415c-1.542-5.745-3.708-11.259-6.9-16.267
	c-1.416-2.221-1.66-4.306-1.297-6.786c0.646-4.426,1.036-8.89,1.562-13.334c0.211-1.788-0.012-3.458-0.713-5.146
	c-0.98-2.357-1.575-4.883-2.66-7.183C346.621,197.324,345.185,195.387,343.591,192.801z M519.435,221.266
	c-0.434-1.661-1.613-2.583-2.49-3.7c-4.904-6.244-8.385-13.202-10.513-20.839c-1.812-6.501-2.731-13.129-2.864-19.88
	c-0.187-9.457,0.744-18.854,1.438-28.262c0.625-8.465,1.067-16.936,0.457-25.405c-0.889-12.327-4.301-23.871-11.336-34.183
	c-0.906-1.327-1.652-2.708-2.255-4.208c-2.006-4.998-5.22-9.133-9.329-12.591c-9.456-7.96-20.25-10.379-32.301-8.014
	c-6.984,1.371-11.854,5.258-14.846,11.623c-1.508,3.209-2.365,6.612-2.848,10.112c-0.7,5.072-1.584,10.111-2.986,15.037
	c-1.272,4.471-2.758,8.89-5.838,12.5c-1.065,1.249-1.097,2.547-1.047,4.012c0.799,23.182,1.213,46.371,1.445,69.565
	c0.184,18.395,0.68,36.782,2.658,55.094c0.876,8.109,2.058,16.168,3.722,24.16c0.351,1.684,1.088,2.932,2.301,4.049
	c4.236,3.9,8.412,7.866,12.673,11.739c3.394,3.085,7.405,5.165,11.926,5.763c5.062,0.669,10.14,1.346,15.277,1.363
	c12.116,0.04,20.663-5.718,26.286-16.143c1.436-2.661,2.548-5.511,3.635-8.341c2.638-6.865,4.7-13.92,6.809-20.961
	C511.792,235.796,514.467,227.944,519.435,221.266z"/>
<path fill-rule="evenodd" clip-rule="evenodd" d="M1486.55,0.894c3.594-0.027,7.188-0.054,10.781-0.082
	c4.354,0.408,8.39,1.859,12.182,3.942c1.913,1.05,3.547,1.418,5.778,0.569c3.013-1.146,6.297-0.59,9.466-0.146
	c1.894,0.265,3.778,0.612,5.679,0.802c5.146,0.513,9.88-0.568,13.751-4.155c1.243-1.152,2.409-1.326,3.864-0.833
	c0.672,1.022,1.875,1.193,2.853,1.643c10.867,5.006,21.767,9.94,32.659,14.891c0.87,0.396,1.728,0.838,2.629,1.147
	c7.265,2.489,12.606,7.356,16.894,13.556c4.127,5.969,6.982,12.562,9.099,19.44c4.267,13.869,8.323,27.803,12.446,41.717
	c0.683,2.305,0.851,4.613,0.615,7.072c-0.638,6.682-0.936,13.396-1.406,20.096c-0.199,2.85-0.494,5.693-0.777,8.9
	c-1.504-0.344-2.696-0.537-3.84-0.892c-8.165-2.533-16.347-2.398-24.601-0.408c-6.221,1.5-12.508,2.372-18.959,2.462
	c-7.054,0.099-12.218-2.832-16.368-8.254c-3.949-5.159-6.52-10.968-8.297-17.137c-1.146-3.981-2.005-8.048-2.902-12.097
	c-1.145-5.161-2.662-10.196-5.013-14.935c-2.588-5.217-5.937-9.819-10.887-13.129c-2.336-1.562-4.711-2.435-7.595-2.379
	c-7.355,0.143-14.717-0.02-22.074,0.064c-10.388,0.118-18.803,4.364-25.379,12.374c-1.064,1.296-1.684,2.675-1.691,4.357
	c-0.007,1.279-0.122,2.556-0.161,3.835c-0.46,15.189-1.6,30.335-2.831,45.478c-0.83,10.198-1.406,20.417-2.328,30.606
	c-1.169,12.908-1.722,25.847-2.324,38.784c-0.409,8.791-0.444,17.59,0.166,26.378c0.444,6.379,0.768,12.77,1.395,19.131
	c1.066,10.817,2.941,21.504,5.658,32.041c0.338,1.31,0.938,2.329,1.854,3.261c7.566,7.702,16.405,13.262,27.076,15.396
	c6.143,1.228,12.367,1.498,18.481-0.581c5.041-1.713,8.953-4.6,11.533-9.43c3.495-6.542,5.738-13.481,7.419-20.649
	c1.674-7.145,3.271-14.31,5.074-21.423c1.489-5.877,3.529-11.584,5.706-17.249c0.982-2.556,2.607-4.329,4.914-5.625
	c2.947-1.657,6.134-2.646,9.384-3.5c5.86-1.541,11.709-3.129,17.553-4.731c1.383-0.379,2.814-0.725,4.072-1.377
	c2.849-1.479,5.587-1.599,8.708-0.645c5.18,1.582,10.497,2.724,15.77,3.994c7.096,1.709,12.287,5.877,15.92,12.123
	c0.821,1.412,1.307,2.858,1.162,4.532c-0.412,4.778-0.576,9.584-1.164,14.339c-1.968,15.896-5.548,31.416-11.354,46.379
	c-3.006,7.745-6.377,15.321-10.668,22.455c-3.64,6.05-7.818,11.686-12.886,16.637c-4.963,4.851-10.502,8.847-16.951,11.491
	c-1.646,0.675-3.06,1.569-4.312,2.883c-4.746,4.977-10.666,6.787-17.423,6.132c-3.818-0.371-7.64-0.72-11.454-1.139
	c-5.006-0.55-9.561,0.488-13.384,3.874c-1.317,1.166-2.463,1.642-4.267,0.993c-7.292-2.622-14.877-3.573-22.601-3.57
	c-8.958,0.004-17.916,0.032-26.873-0.037c-6.257-0.048-12.413-0.885-18.434-2.667c-8.309-2.459-15.509-6.746-21.378-13.121
	c-3.478-3.777-7.198-7.265-11.164-10.514c-1.232-1.011-2.402-2.115-3.493-3.278c-2.802-2.985-3.497-6.348-1.637-10.117
	c0.338-0.685,0.571-1.421,0.935-2.337c-0.774-0.044-1.396-0.152-2.006-0.103c-2.599,0.206-4.706-0.906-6.465-2.612
	c-1.367-1.325-2.546-2.861-3.691-4.392c-1.631-2.178-3.121-4.512-5.242-6.217c-2.008-1.615-2.97-3.498-3.192-6.05
	c-0.709-8.139-2.955-16.002-4.576-23.977c-1.021-5.023-1.873-10.077-2.079-15.177c-0.323-7.997,1.307-15.6,6.033-22.245
	c1.118-1.572,0.997-2.747,0.103-4.259c-2.357-3.984-4.62-8.025-6.9-12.054c-0.391-0.689-0.687-1.433-1.012-2.121
	c0.703-0.939,1.4-0.43,2.089-0.148c1.179,0.482,2.356,0.963,3.487,1.425c0.965-0.6,1.265-1.508,1.514-2.436
	c3.252-12.084,3.038-23.995-1.786-35.676c-0.422-1.021-0.79-2.065-1.184-3.098c0.248-0.251,0.497-0.503,0.746-0.754
	c0.73,0.344,1.198,0.145,1.301-0.678c0.711-5.715,1.014-11.435,0.574-17.199c-0.789-10.345-2.13-20.631-3.144-30.95
	c-0.858-8.729-1.518-17.495-0.299-26.28c1.174-8.463,3.648-16.463,7.949-23.869c0.239-0.413,0.503-0.819,0.809-1.183
	c0.194-0.23,0.486-0.378,0.987-0.75c3.221,1.662,6.571,3.392,10.15,5.239c0.594-1.752,0.249-3.138-0.002-4.451
	c-1.273-6.657-0.062-13.02,2.21-19.244c1.482-4.062,3.56-7.833,6.157-11.297c4.115-5.49,8.295-10.934,12.382-16.445
	c1.186-1.599,2.558-2.551,4.519-3.211c8.156-2.741,15.975-6.34,23.795-9.916c6.242-2.854,12.625-5.306,19.331-6.838
	C1484.634,1.052,1485.601,1.013,1486.55,0.894z"/>
<path fill-rule="evenodd" clip-rule="evenodd" fill="#EC1E25" d="M82.233,208.218c1.373,0.357,2.746,0.713,4.2,1.091
	c1.603-1.512,1.82-3.681,2.206-5.631c2.189-11.071,1.73-21.944-2.95-32.411c-0.302-0.677-1.07-1.821-0.363-2.043
	c2.773-0.873,1.628-3.158,1.855-4.783c1.161-8.318,0.059-16.605-0.745-24.874c-0.989-10.184-2.493-20.322-2.854-30.561
	c-0.43-12.178,1.394-23.915,7.299-34.771c2.301-4.231,2.032-3.62,5.674-1.758c2.133,1.09,4.26,2.191,6.397,3.273
	c0.126,0.064,0.313,0.008,0.52,0.008c0.914-0.55,0.392-1.34,0.265-2.03c-2.131-11.516,0.638-21.909,7.374-31.298
	c4.101-5.716,8.459-11.247,12.665-16.889c0.892-1.197,1.914-2.019,3.379-2.489c8.234-2.643,16.033-6.36,23.909-9.877
	c6.436-2.873,12.952-5.417,19.919-6.759c7.664-1.477,14.942-0.453,21.976,2.767c1.016,0.465,2.027,0.958,2.985,1.531
	c1.028,0.616,1.919,0.726,3.114,0.222c2.555-1.077,5.271-1.177,8.015-0.724c1.734,0.287,3.506,0.366,5.226,0.716
	c6.003,1.221,11.493,0.231,16.134-3.897c1.424-1.266,2.554-0.809,3.876-0.203c10.75,4.927,21.499,9.858,32.252,14.779
	c1.598,0.731,3.184,1.512,4.837,2.098c5.935,2.104,10.534,5.942,14.319,10.855c4.345,5.64,7.429,11.975,9.519,18.719
	c4.491,14.496,8.725,29.073,13.095,43.607c0.425,1.414,0.529,2.819,0.425,4.263c-0.679,9.411-1.359,18.821-2.058,28.23
	c-0.021,0.286-0.251,0.557-0.387,0.841c-1.343,0.382-2.515-0.353-3.702-0.698c-7.558-2.204-15.111-2.233-22.748-0.407
	c-5.911,1.413-11.863,2.666-18.005,2.447c-0.32-0.011-0.642-0.033-0.959-0.009c-7.117,0.544-12.226-2.799-16.26-8.313
	c-4.425-6.047-6.942-12.919-8.747-20.091c-1.052-4.182-1.879-8.421-2.954-12.597c-1.079-4.192-2.698-8.194-4.84-11.966
	c-1.911-3.364-4.286-6.351-7.241-8.876c-3.024-2.584-6.298-4.003-10.469-3.833c-7.027,0.287-14.074,0.052-21.113,0.086
	c-9.939,0.048-17.843,4.283-24.138,11.813c-1.064,1.273-1.676,2.631-1.719,4.336c-0.093,3.676-0.28,7.353-0.516,11.024
	c-0.811,12.607-1.61,25.216-2.506,37.817c-1.599,22.49-3.931,44.93-4.439,67.494c-0.217,9.601-0.252,19.202,0.28,28.786
	c0.825,14.869,2.704,29.596,6.317,44.083c0.62,2.488,1.761,4.355,3.555,6.04c7.888,7.405,16.916,12.561,27.768,14.084
	c6.281,0.881,12.427,0.567,18.288-2.244c3.117-1.495,5.603-3.557,7.418-6.548c3.013-4.968,5.19-10.28,6.638-15.866
	c1.724-6.648,3.178-13.366,4.795-20.042c1.881-7.771,4.096-15.43,7.059-22.881c1.086-2.732,2.772-4.6,5.261-5.909
	c2.56-1.347,5.289-2.232,8.079-2.969c5.715-1.508,11.426-3.03,17.121-4.613c1.843-0.513,3.71-1.064,5.418-1.9
	c2.164-1.059,4.151-0.98,6.437-0.33c5.375,1.529,10.834,2.769,16.265,4.102c6.207,1.523,10.945,5.033,14.412,10.385
	c1.265,1.953,1.85,3.921,1.759,6.294c-0.283,7.369-1.125,14.677-2.313,21.933c-2.648,16.167-7.295,31.75-14.185,46.638
	c-3.776,8.16-8.262,15.879-14.099,22.763c-5.773,6.808-12.535,12.315-20.843,15.761c-1.508,0.625-2.782,1.477-3.918,2.66
	c-4.244,4.419-9.461,6.393-15.577,5.961c-1.754-0.124-3.507-0.269-5.259-0.418c-2.707-0.229-5.412-0.488-8.121-0.702
	c-4.682-0.371-8.909,0.771-12.385,4.031c-1.086,1.019-2.127,1.215-3.471,0.747c-8.42-2.935-17.144-3.689-25.991-3.634
	c-7.838,0.049-15.677,0.011-23.515-0.008c-6.124-0.016-12.103-0.994-17.919-2.891c-7.44-2.426-13.941-6.413-19.243-12.18
	c-3.368-3.663-6.982-7.029-10.789-10.218c-1.464-1.227-2.854-2.574-4.102-4.019c-2.045-2.367-2.624-5.063-1.277-8.021
	c0.46-1.012,0.896-2.036,1.318-2.999c-0.521-1.107-1.367-0.623-2.082-0.553c-2.401,0.236-4.442-0.605-6.089-2.25
	c-1.349-1.348-2.555-2.853-3.716-4.372c-1.944-2.543-3.782-5.183-6.319-7.184c-1.111-0.876-1.557-1.943-1.669-3.281
	c-0.712-8.478-3.065-16.649-4.672-24.961c-1.215-6.287-2.244-12.582-1.805-19.038c0.421-6.212,2.268-11.896,5.813-17.022
	c0.361-0.522,0.673-1.078,1.088-1.748c-2.725-5.017-5.464-10.059-8.202-15.1C81.733,208.617,81.983,208.417,82.233,208.218z"/>
<path fill-rule="evenodd" clip-rule="evenodd" d="M1803.018,333.592c-12.051,6.823-24.647,10.817-37.663,13.521
	c-9.222,1.916-18.514,3.485-27.776,5.199c-3.454,0.64-6.926,1.191-10.368,1.89c-2.16,0.438-3.471-0.171-4.598-2.199
	c-3.952-7.119-8.1-14.129-12.209-21.16c-0.628-1.074-0.942-2.417-2.567-3.159c-3.329,2.677-6.804,5.426-10.226,8.239
	c-1.775,1.459-2.676,3.456-2.829,5.992c-11.405-5.679-18.735-14.239-21.829-26.274c-1.668-6.492-3.432-12.95-5.577-19.303
	c-1.381-4.086-2.841-8.13-4.844-11.964c-0.254-0.484-0.787-1.045-0.058-1.984c5.483,2.572,10.607,5.999,15.466,8.395
	c1.154,0.045,1.325-0.155,1.354-0.564c0.379-5.542,3.009-10.02,6.709-13.955c1.312-1.396,2.737-2.692,4.179-3.958
	c3.906-3.429,5.012-8.072,3.062-12.938c-0.966-2.41-2.397-4.522-4.147-6.399c-1.743-1.87-3.588-3.648-5.437-5.416
	c-3.815-3.65-7.669-7.259-10.491-11.792c-0.153-0.247-0.507-0.369-0.79-0.565c-1.653,1.072-2.636,2.715-3.723,4.297
	c-0.807,1.174-1.751,2.273-2.761,3.277c-0.387,0.384-1.06,0.738-1.75,0.411c-0.734-0.349-0.713-1.002-0.557-1.616
	c0.6-2.349,0.55-4.758,0.767-7.145c0.889-9.771,0.237-19.498-0.854-29.206c-1.249-11.117-2.678-22.214-3.848-33.339
	c-0.97-9.227-1.655-18.477-1.235-27.778c0.318-7.072,1.527-13.956,3.836-20.65c0.314-0.916,0.577-1.83,1.545-2.629
	c3.766,2.458,8.13,3.988,11.576,6.716c0.889-0.24,0.938-0.708,0.956-1.182c0.162-4.364,1.282-8.498,2.874-12.544
	c0.934-2.371,1.6-4.846,2.487-7.236c1.491-4.015,1.384-8.132,0.806-12.208c1.085-0.553,1.572,0.155,2.125,0.673
	c0.934,0.875,1.849,1.77,2.794,2.632c1.411,1.287,1.798,1.334,2.801,0.424c1.608-1.461,1.85-2.237,0.914-3.61
	c-1.439-2.113-2.976-4.159-4.434-6.259c-0.521-0.752-0.054-1.557,0.91-1.599c1.438-0.063,2.879-0.08,4.318-0.104
	c11.222-0.184,22.3-1.689,33.332-3.613c0.63-0.109,1.264-0.316,1.891-0.298c2.2,0.063,4.569-2.008,6.409-0.481
	c1.534,1.273,1.03,3.904,1.322,5.913c0.943,6.481,1.604,13.004,2.339,19.514c1.292,11.45,1.819,22.955,2.422,34.453
	c0.226,4.313,0.339,8.632,0.416,12.95c0.545,30.398-0.014,60.797,0.072,91.195c0.03,10.56,0.176,21.121,0.025,31.678
	c-0.045,3.159,1.039,5.563,3.027,7.771c4.062,4.51,9.23,6.721,15.185,7.234c9.515,0.82,18.385-1.334,26.784-5.78
	c1.821-0.964,2.915-2.24,3.522-4.209c2.313-7.493,4.01-15.12,5.11-22.875c2.161-15.233,2.808-30.563,2.796-45.933
	c-0.006-8,0.151-16,0.109-23.999c-0.052-10.089,0.739-20.143,1.135-30.212c0.138-3.51,0.643-7.005,0.999-10.506
	c0.08-0.792,0.228-1.581,0.998-2.064c1.471,0.25,1.812,2.201,3.529,2.352c2.235-3.867,2.571-8.131,2.366-12.468
	c-0.229-4.816-1.437-9.458-2.768-14.069c-1.814-6.282-4.261-12.377-5.598-18.799c-0.488-2.344-1.053-4.688-1.295-7.061
	c-0.316-3.1,0.369-6.042,2.285-8.591c0.754-1.004,2.115-1.075,2.826-0.114c0.758,1.023,1.396,2.134,2.081,3.21
	c0.686,1.076,1.283,2.218,2.064,3.218c1.167,1.495,2.629,1.72,4.229,0.764c1.748-1.044,2.947-2.396,2.639-4.655
	c-0.107-0.779-0.031-1.606,0.095-2.39c0.488-3.03,1.951-5.485,4.836-6.694c5.432-2.277,10.814-4.59,16.997-4.219
	c5.58,0.335,11.196,0.014,16.795,0.108c5.45,0.091,10.81,0.822,16.05,2.457c1.941,0.606,2.951,1.575,3.171,3.61
	c0.342,3.175,0.959,6.322,1.272,9.499c0.802,8.113,1.486,16.239,2.241,24.356c1.587,17.061,1.951,34.172,2.121,51.29
	c0.127,12.8-0.176,25.593-0.972,38.374c-0.428,6.864-0.702,13.738-1.035,20.607c-0.435,8.947-0.818,17.897-1.299,26.841
	c-0.447,8.305-0.999,16.603-1.496,24.905c-0.353,5.907-0.706,11.814-1.032,17.724c-0.441,7.985-0.817,15.974-1.293,23.958
	c-0.494,8.301-1.05,16.6-1.631,24.895c-0.136,1.943-0.243,1.868-2.351,2.164c-5.378,0.753-10.744,1.584-16.119,2.361
	c-5.22,0.755-10.428,1.513-15.735,1.494c-12.401-0.044-21.843-5.179-28.114-15.961
	C1804.206,335.608,1803.724,334.795,1803.018,333.592z M1682.821,321.041c1.205-0.677,1.785-1.885,2.063-3.077
	c1.319-5.632,1.816-6.452-4.408-7.747C1680.528,313.867,1681.411,317.942,1682.821,321.041z"/>
<path fill-rule="evenodd" clip-rule="evenodd" d="M2341.276,141.705c4.865-2.957,7.364-7.899,9.466-13.108
	c0.955-2.365,1.827-4.764,2.704-7.16c1.265-3.457,2.782-6.789,4.69-9.942c2.015-3.328,4.486-6.177,7.853-8.248
	c13.197-8.116,26.407-16.207,40.032-23.598c2.135-1.157,4.278-1.891,6.752-2.128c19.104-1.833,37.61,0.645,55.569,7.351
	c0.599,0.224,1.209,0.421,1.784,0.692c0.884,0.416,1.521,0.052,2.079-0.584c0.207-0.237,0.328-0.549,0.512-0.81
	c2.896-4.124,7.026-5.242,11.783-4.839c4.013,0.34,7.814,1.538,11.612,2.78c4.093,1.338,8.128,3.102,12.333,3.768
	c3.697,0.586,6.566,2.282,9.397,4.327c10.097,7.289,17.404,16.87,22.565,28.1c5.111,11.122,8.177,22.776,9.004,35.048
	c0.569,8.449,1.635,16.864,2.457,25.297c0.759,7.797,1.481,15.597,2.237,23.394c0.339,3.501,0.542,7.027,1.121,10.489
	c0.71,4.248-1.006,7.177-4.493,9.208c-4.985,2.904-10.432,4.777-15.84,6.708c-0.586,0.209-1.262,0.222-1.896,0.226
	c-7.838,0.042-15.676,0.085-23.514,0.079c-1.596-0.001-3.214-0.074-4.783-0.339c-4.396-0.742-8.162-2.649-10.987-6.229
	c-1.897-2.404-1.933-2.359-4.988-1.456c-5.354,1.583-10.747,2.992-16.226,4.119c-14.333,2.951-28.813,4.122-43.395,3.32
	c-4.247-0.233-7.059,1.258-9.391,4.361c-0.953,1.268-1.846,2.634-2.477,4.081c-1.402,3.215-2.621,6.508-3.915,9.77
	c-0.427,1.074-0.657,2.147,0.05,3.202c3.639,5.434,4.975,11.688,6.403,17.915c0.93,4.046,2.086,8.024,3.755,11.842
	c1.027,2.349,2.238,4.588,3.738,6.669c2.99,4.152,7.114,6.332,12.136,6.817c7.146,0.69,14.019-0.635,20.644-3.23
	c3.209-1.256,5.612-3.667,7.602-6.419c4.333-5.994,6.491-12.748,6.782-20.12c0.074-1.874-0.441-3.797,0.952-5.515
	c1.555-1.917,3.368-3.385,5.682-4.239c2.873-1.06,5.838-1.611,8.899-1.695c1.759-0.048,3.54-0.004,5.267-0.282
	c4.311-0.695,8.418-1.969,11.589-5.213c1.024-1.048,1.864-0.888,2.828,0.042c0.571,0.551,1.223,1.047,1.91,1.442
	c2.275,1.307,4.695,2.038,7.342,1.449c2.646-0.589,5.301-1.159,7.916-1.871c4.728-1.287,8.806-0.237,12.41,3.051
	c5.491,5.008,8.571,11.044,8.221,18.621c-0.112,2.429-0.872,4.691-1.634,6.967c-1.68,5.019-4.091,9.696-6.611,14.323
	c-2.443,4.487-4.814,9.002-6.553,13.826c-1.195,3.319-2.278,6.691-2.364,10.219c-0.048,1.958-0.868,3.318-2.019,4.674
	c-6.783,8.001-14.681,14.685-23.681,20.069c-10.791,6.457-22.452,10.673-34.689,13.357c-3.583,0.786-7.222,1.321-10.838,1.957
	c-1.779,0.313-3.377,0.074-5.034-0.885c-5.811-3.359-12.273-4.484-18.856-4.775c-4.466-0.197-8.953,0.02-13.429,0.134
	c-4.97,0.127-9.91,0.02-14.769-1.193c-4.407-1.1-8.492-2.836-11.712-6.15c-1.036-1.066-2.23-1.774-3.537-2.393
	c-6.57-3.114-11.463-8.044-15.206-14.186c-3.692-6.06-5.971-12.679-7.63-19.538c-2.459-10.161-3.116-20.529-3.456-30.92
	c-0.096-2.925-0.61-5.569-1.9-8.268c-3.761-7.869-5.55-16.321-6.117-24.978c-0.638-9.749-0.192-19.493,0.498-29.244
	c0.722-10.202,1.537-20.426,0.406-30.668c-1.565-14.17-6.097-27.057-16.086-37.619
	C2341.811,143.107,2341.212,142.745,2341.276,141.705z M2441.854,175.352c6.489-0.072,13.847,0.242,21.183-0.563
	c3.988-0.437,7.84-1.338,11.632-2.647c1.677-0.579,2.726-1.618,3.38-3.129c1.155-2.664,1.078-5.23-0.65-7.704
	c-1.297-1.855-2.93-3.369-4.525-4.938c-1.592-1.565-3.207-3.1-4.358-5.07c-0.886-1.515-1.072-3.05-0.355-4.566
	c0.677-1.43,1.598-2.75,2.469-4.081c0.448-0.686,0.796-1.336,0.704-2.204c-0.593-5.583-4.254-9.359-9.882-10.037
	c-1.74-0.209-3.509-0.28-5.262-0.264c-6.07,0.058-12.14,0.224-18.21,0.247c-1.275,0.004-2.082,0.547-2.866,1.385
	c-3.953,4.223-7.273,8.875-9.864,14.066c-4.199,8.416-5.338,17.316-4.39,26.561c0.267,2.589,0.674,2.917,3.346,2.932
	C2429.8,175.374,2435.396,175.352,2441.854,175.352z"/>
<path fill-rule="evenodd" clip-rule="evenodd" d="M2122.078,177.658c-0.318,1.133,0.029,2.228,0.271,3.303
	c0.665,2.957,1.412,5.895,2.116,8.842c0.242,1.014,1.205,2.314-0.021,2.97c-1.018,0.543-2.048-0.636-2.919-1.276
	c-4.116-3.025-5.858-7.458-6.97-12.203c-0.437-1.863-0.664-3.777-0.937-5.675c-0.997-6.946-3.522-12.927-10.167-16.371
	c-0.644-0.333-0.674-1.187-0.125-1.537c1.074-0.687,2.199-1.298,3.244-2.027c2.737-1.911,4.367-4.487,2.357-8.736
	c-0.613-1.296-1.321-2.548-2.004-3.811c-0.607-1.123-1.308-2.2-1.846-3.354c-2-4.29-1.563-6.985,1.658-10.486
	c0.855-0.93,1.767-1.808,2.71-2.769c-0.193-1.12-1.188-0.582-1.814-0.755c-1.229-0.339-2.512-0.503-3.712-0.915
	c-3.828-1.313-5.329-3.813-4.573-7.768c0.448-2.347,1.138-4.648,1.714-6.971c0.229-0.93,0.485-1.856,0.657-2.798
	c0.817-4.48-0.286-8.185-4.196-10.902c-2.115-1.47-2.027-1.577-0.524-3.694c5.448-7.669,13.111-10.362,22.157-9.654
	c5.896,0.462,11.676,1.77,17.473,2.928c3.756,0.751,7.52,1.509,11.373,1.633c3.361,0.108,6.693,0.183,9.953-0.949
	c1.632-0.566,1.945-0.322,2.914,1.498c5.631,10.587,10.145,21.653,14.125,32.949c5.945,16.878,10.446,34.157,14.288,51.615
	c3.397,15.44,5.985,31.031,8.5,46.634c0.305,1.889,0.085,4.089,1.012,5.586c0.923,1.488,2.977,2.281,4.548,3.359
	c1.316,0.902,2.593,1.886,3.993,2.635c2.124,1.136,3.978,0.799,5.698-0.806c1.616-1.507,1.988-3.459,0.823-5.665
	c-0.662-1.255-1.608-2.372-2.509-3.485c-1.083-1.34-2.253-2.61-3.363-3.884c0.963-1.318,2.217-1.665,3.27-2.302
	c6.844-4.141,10.237-10.334,10.682-18.202c0.181-3.192-0.049-6.379-0.436-9.57c-0.671-5.55-1.6-11.083-1.654-16.691
	c-0.024-2.555,0.104-5.113,0.23-7.666c0.098-1.938,0.569-3.829,1.744-5.386c4.071-5.399,5.75-11.706,6.875-18.18
	c1.394-8.021,2.474-16.098,3.87-24.119c0.682-3.921,1.57-7.832,2.717-11.641c3.862-12.826,12.98-20.06,25.53-23.498
	c1.733-0.475,3.505-0.255,5.247-0.023c9.184,1.228,18.385,2.352,27.536,3.786c5.866,0.919,11.435,2.918,16.479,6.154
	c2.159,1.385,4.087,3.046,5.817,4.964c1.424,1.579,1.768,3.137,1.118,5.233c-2.075,6.701-3.974,13.457-5.905,20.202
	c-6.324,22.087-11.801,44.394-17.113,66.739c-6.974,29.33-13.458,58.777-21.121,87.94c-2.147,8.174-4.5,16.295-6.676,24.462
	c-0.406,1.525-1.084,2.462-2.593,3.102c-2.803,1.188-4.966,3.284-7.268,5.619c1.839,1.688,3.418,3.243,5.116,4.656
	c1.129,0.94,1.5,1.865,0.938,3.297c-3.384,8.607-6.613,17.276-10.098,25.842c-1.512,3.716-3.854,6.988-6.866,9.716
	c-3.312,2.998-7.147,4.736-11.646,4.998c-1.789,0.104-3.457-0.081-5.134-0.816c-5.642-2.476-11.598-3.445-17.735-3.44
	c-8.157,0.006-16.315,0.018-24.473-0.021c-5.31-0.026-10.498-0.831-15.491-2.708c-3.173-1.193-6.074-2.869-8.556-5.179
	c-3.076-2.864-5.253-6.059-6.187-10.454c-4.215-19.848-10.684-39.055-17.335-58.194c-5.918-17.024-11.78-34.069-16.188-51.563
	c-1.52-6.031-2.758-12.134-4.086-18.213c-0.397-1.818-0.109-2.175,1.854-2.431c4.753-0.619,9.512-1.195,14.267-1.803
	c0.604-0.077,1.198-0.241,2.086-0.424c-1.778-7.121-4.888-13.29-9.89-18.458c-1.317-1.361-2.55-2.86-4.426-3.539
	c-0.23-0.156-0.45-0.333-0.696-0.454c-0.041-0.02-0.278,0.192-0.289,0.309C2121.46,177.563,2121.681,177.73,2122.078,177.658z"/>
<path fill-rule="evenodd" clip-rule="evenodd" fill="#EC1E25" d="M622.543,30.776c0.816-0.491,1.534-0.062,2.238,0.273
	c2.294,1.091,4.577,2.206,6.752,3.257c1.369-0.927,0.992-2.155,1.183-3.165c0.386-2.041,0.578-4.119,0.971-6.158
	c0.94-4.863,0.162-9.219-3.499-12.82c-0.322-0.317-0.478-0.803-0.774-1.321c4.614-2.114,9.485-3.05,14.331-3.937
	c9.336-1.707,18.768-1.944,28.208-1.094c4.952,0.445,9.791,1.504,14.339,3.636c8.001,3.75,12.282,9.965,12.421,18.868
	c0.032,2.073,0.035,4.189-0.327,6.219c-1.129,6.327-1.26,12.737-1.597,19.11c-1.325,25.092-1.521,50.201-0.667,75.319
	c0.533,15.667,0.81,31.343,1.391,47.009c1.234,33.261,1.329,66.533,1.25,99.809c-0.001,0.64-0.016,1.28,0.006,1.919
	c0.08,2.37,0.067,2.461,2.279,2.871c3.141,0.583,6.297,1.13,9.471,1.491c11.778,1.339,23.6,1.852,35.448,1.48
	c13.749-0.432,27.493-1.046,41.244-1.389c6.391-0.16,12.793,0.185,19.19,0.2c3.249,0.008,5.752,1.248,8.028,3.566
	c7.208,7.344,9.959,16.297,9.387,26.286c-0.503,8.782-2.251,17.433-3.585,26.124c-0.249,1.621-1.146,2.512-2.536,3.188
	c-6.501,3.159-13.274,5.505-20.359,6.952c-12.061,2.463-24.148,2.252-36.269,0.464c-8.558-1.263-17.015-3.033-25.208-5.768
	c-9.212-3.076-18.514-3.138-27.964-1.863c-9.52,1.285-18.829,3.617-28.203,5.623c-6.26,1.34-12.562,2.39-18.916,3.132
	c-5.131,0.599-10.246,0.301-15.264-0.849c-10.763-2.467-18.567-8.886-24.096-18.313c-0.975-1.662-0.858-3.359-0.834-5.103
	c0.19-13.597,0.376-27.193,0.588-40.79c0.361-23.195,0.361-46.391-0.017-69.586c-0.214-13.116-0.399-26.233-0.577-39.35
	c-0.021-1.575-0.252-3.179,0.839-4.606c1.104-1.443,2.079-1.769,3.643-0.827c1.506,0.907,2.951,1.914,4.433,2.861
	c3.072,1.963,3.383,1.893,4.328-1.807c0.869-3.404,1.523-6.863,2.248-10.303c0.329-1.563,0.62-3.136,0.886-4.711
	c0.176-1.042-0.195-1.836-1.144-2.4c-1.833-1.09-3.772-1.76-5.923-1.572c-0.95,0.083-1.888,0.319-2.831,0.482
	c-4.464,0.77-7.384-0.771-9.241-4.876c-0.291-0.643,0.089-1.266,0.828-1.284c0.958-0.024,1.918-0.001,2.877,0.009
	c2.115,0.023,4.136-0.482,6.079-1.233c5.474-2.118,9.723-5.709,6.752-13.908c-1.688-4.656-3.271-9.35-4.861-14.04
	c-0.644-1.899-0.69-2.083,0.942-3.128c2.602-1.667,3.343-4.189,3.559-6.962c0.161-2.068,0.062-4.156,0.083-6.236
	c0.043-4.285-0.582-8.692,2.798-12.23c-1.774-1.243-3.14-2.073-4.362-3.079c-3.414-2.81-4.728-6.272-3.33-10.664
	c1.028-3.228,2.573-6.188,4.177-9.137c1.297-2.386,2.633-4.753,3.864-7.173c0.649-1.276,1.205-2.617,1.641-3.981
	c1.322-4.136,0.33-7.767-3.259-10.154c-5.335-3.549-8.62-8.926-12.783-13.518c-0.173-0.191-0.117-0.59-0.168-0.893L622.543,30.776z"
	/>
<path fill-rule="evenodd" clip-rule="evenodd" d="M1933.222,193.72c-0.311-0.896-0.571-1.812-0.938-2.683
	c-4.117-9.784-6.44-20.034-7.844-30.509c-1.061-7.926-1.469-15.914-2.141-23.878c-1.046-12.415-2.099-24.843-4.625-37.078
	c-0.322-1.563-0.638-3.132-1.085-4.662c-0.43-1.47,0.082-2.415,1.277-3.232c5.037-3.447,10.44-6.157,16.221-8.104
	c10.744-3.618,21.833-4.651,33.092-4.284c11.994,0.392,23.904,1.769,35.835,2.984c8.584,0.875,17.215,1.518,25.838,1.722
	c11.576,0.274,22.959-1.191,33.795-5.637c0.294-0.121,0.568-0.301,0.869-0.399c0.862-0.281,1.595,0.159,1.668,1.1
	c0.382,4.941,0.753,9.884,1.081,14.83c0.762,11.487,1.486,22.977,2.252,34.463c0.149,2.233,0.432,4.457,0.623,6.687
	c0.066,0.784,0.218,1.594-0.253,2.346c-0.915,0.556-1.837,0.024-2.734-0.093c-2.795-0.365-4.603,0.876-5.716,3.319
	c-0.527,1.159-0.977,2.353-1.445,3.538c-0.468,1.185-0.832,2.42-1.39,3.561c-1.449,2.963-2.211,2.647-4.381,1.483
	c-4.383-2.349-9.024-2.816-13.939-1.668c-3.271,0.764-6.492,1.654-9.685,2.655c-4.118,1.291-8.242,2.593-12.552,2.982
	c-4.518,0.409-7.708,2.766-10.239,6.311c-2.062,2.887-3.466,6.093-4.659,9.406c-1.62,4.5-3.15,9.035-4.885,13.491
	c-1.563,4.014-3.25,8-5.905,11.455c-0.831,1.081-0.619,1.936-0.041,3.035c2.231,4.241,4.059,8.655,5.534,13.224
	c2.015,6.236,2.233,12.601,1.166,18.964c-0.598,3.569-1.008,7.267-2.721,10.556c-1.103-0.132-1.419-1.23-2.187-1.689
	c-0.262,0.397-0.547,0.629-0.562,0.878c-0.711,11.801,0.69,23.276,5.339,34.243c0.249,0.588,0.427,1.212,0.726,1.772
	c0.423,0.792,0.318,1.487-0.14,2.217c-4.539,7.23-6.036,15.358-7.048,23.65c-1.181,9.672-2.398,19.341-3.735,28.993
	c-0.414,2.992-1.094,5.976-1.963,8.87c-1.16,3.865-3.154,7.319-6.061,10.189c-3.18,3.14-6.996,5.015-11.418,5.538
	c-7.45,0.882-14.633-0.453-21.688-2.778c-0.975-0.321-1.668-0.844-2.237-1.665c-0.454-0.653-0.974-1.275-1.543-1.831
	c-1.953-1.905-4.234-2.189-6.51-0.735c-0.932,0.596-1.883,1.291-2.539,2.158c-1.232,1.63-2.678,1.423-4.241,0.822
	c-8.651-3.325-13.756-9.721-15.434-18.678c-1.585-8.461-0.905-16.853,2.044-25.263c1.807,0.818,3.486,1.616,5.196,2.344
	c1.589,0.676,3.126,0.504,4.55-0.494c4.625-3.241,8.402-7.355,11.938-11.704c0.411-0.506,0.236-1.233-0.461-1.599
	c-1.139-0.597-2.32-1.029-3.627-1.14c-2.707-0.229-5.404-0.592-8.115-0.769c-1.937-0.126-3.811-0.451-5.6-1.177
	c-2.943-1.194-5.127-3.125-6.046-6.423c2.055-0.933,3.473,0.508,4.946,1.203c1.551,0.73,2.484,0.586,3.346-1.398
	c0.63-1.453,1.016-3.038,0.869-4.675c-0.229-2.546,0.063-5.305-0.854-7.575c-0.865-2.141-3.654-2.921-5.516-4.406
	c-0.859-0.685-1.739-1.344-2.85-2.2c3.946-3.309,6.149-7.527,7.259-12.277c0.651-2.788,0.894-5.673,1.309-8.516
	c0.393-2.685,0.571-5.421,1.208-8.046c0.828-3.414,1.949-6.771,4.723-9.24c0.846-0.752,0.749-1.632,0.336-2.614
	c-0.768-1.826-2.067-3.205-3.496-4.505c-1.527-1.391-3.037-2.8-4.813-4.439c2.35-2.21,5.404-2.318,7.735-3.829
	c0.354-1.18-0.665-1.656-1.281-2.265c-3.523-3.488-7.094-6.929-10.645-10.39c-0.458-0.446-0.915-0.896-1.337-1.376
	c-0.629-0.713-0.396-1.547,0.537-1.815c3.525-1.016,7.071-1.959,10.582-3.018c2.293-0.691,4.418-0.188,6.544,0.606
	c0.36,0.226,0.773,0.688,1.142,0.213C1934.013,194.344,1933.725,193.924,1933.222,193.72z"/>
<path fill-rule="evenodd" clip-rule="evenodd" d="M1395.755,166.2c-0.25,1.093,0.904,1.376,1.232,2.136
	c-0.249,0.251-0.498,0.503-0.746,0.754c-1.358-0.767-0.95-1.831-0.487-2.904L1395.755,166.2z"/>
<polygon fill-rule="evenodd" clip-rule="evenodd" fill="#EC1E25" points="342.95,192.313 343.05,192.564 342.766,192.511 "/>
<path fill-rule="evenodd" clip-rule="evenodd" d="M1395.754,166.187c-0.289,0.227-0.176,0.879-0.792,0.745
	c-0.023-0.005-0.048-0.228-0.009-0.254c0.259-0.172,0.534-0.319,0.803-0.476C1395.755,166.2,1395.754,166.187,1395.754,166.187z"/>
<path fill-rule="evenodd" clip-rule="evenodd" fill="#EC1E25" d="M622.649,30.695c-0.214-0.109-0.428-0.218-0.642-0.327
	c0.169-0.071,0.364-0.232,0.503-0.193c0.292,0.082,0.289,0.332,0.034,0.602C622.543,30.776,622.649,30.695,622.649,30.695z"/>
<path fill-rule="evenodd" clip-rule="evenodd" fill="#EC1E25" d="M832.737,192.547c-0.105,0.069-0.218,0.202-0.314,0.19
	s-0.173-0.167-0.259-0.26c0.105-0.069,0.219-0.202,0.314-0.19C832.574,192.299,832.652,192.455,832.737,192.547z"/>
<path fill-rule="evenodd" clip-rule="evenodd" fill="#EC1E25" d="M81.483,208.816c-0.255-0.414-0.526-0.864,0.117-1.129
	c0.118-0.048,0.417,0.343,0.632,0.531C81.983,208.417,81.733,208.617,81.483,208.816z"/>
<path fill-rule="evenodd" clip-rule="evenodd" fill="#EC1E25" d="M1107.071,203.882c-0.415-0.33-0.6-0.75-0.061-1.042
	c0.279-0.151,0.537,0.181,0.533,0.552C1107.387,203.556,1107.229,203.719,1107.071,203.882z"/>
<path fill-rule="evenodd" clip-rule="evenodd" fill="#FAFAFA" d="M1949.674,624.738c7.188,0,14.058-0.016,20.927,0.014
	c1.244,0.005,1.708,0.515,1.675,1.779c-0.173,6.59-1.055,13.045-3.581,19.207c-2.737,6.677-7.338,11.518-13.926,14.476
	c-5.577,2.504-11.437,4.062-17.442,5.035c-8.378,1.358-16.819,2.011-25.315,1.996c-18.396-0.033-36.791,0.012-55.186-0.031
	c-10.751-0.024-21.371-1.249-31.824-3.81c-4.987-1.222-9.783-2.919-14.215-5.571c-4.764-2.85-8.555-6.621-11.377-11.425
	c-4.922-8.378-7.908-17.409-9.432-26.967c-2.052-12.87-2.293-25.77-0.927-38.73c1.162-11.031,4.847-21.123,10.841-30.398
	c3.971-6.144,9.692-10.075,16.403-12.705c5.093-1.995,10.446-2.949,15.807-3.807c9.333-1.493,18.738-2.112,28.192-2.086
	c14.076,0.039,28.152,0,42.229,0.011c11.898,0.01,23.53,1.857,35.053,4.777c16.264,4.122,26.11,14.605,30.957,30.315
	c1.616,5.238,2.235,10.646,2.622,16.053c0.502,7.016,0.655,14.059,0.877,21.092c0.088,2.813-0.032,2.843-3.004,2.901
	c-1.119,0.021-2.239,0.004-3.359,0.004c-48.787,0-97.574,0-146.361,0c-1.279,0-2.56-0.021-3.838,0.008
	c-2.464,0.057-2.724,0.268-2.663,2.775c0.104,4.313,0.391,8.599,1.007,12.895c1.514,10.545,10.936,22.146,25.103,24.476
	c5.706,0.938,11.431,1.242,17.197,1.232c18.555-0.028,37.11,0.008,55.665-0.025c5.755-0.011,11.522,0.021,17.202-1.16
	c1.249-0.26,2.486-0.579,3.737-0.827c6.515-1.292,10.852-5.232,13.336-11.232C1947.394,631.772,1948.397,628.398,1949.674,624.738z
	 M1879.923,588.318c20.629,0,41.259,0,61.889-0.001c1.279,0,2.559,0.009,3.837-0.03c0.881-0.026,1.588-0.428,1.605-1.384
	c0.082-4.312,0.546-8.634-0.047-12.934c-0.729-5.292-3.129-9.643-7.41-12.965c-3.714-2.883-7.723-5.022-12.338-6.105
	c-10.321-2.423-20.829-3.285-31.366-3.782c-16.787-0.791-33.57-0.745-50.312,0.994c-4.926,0.512-9.889,0.948-14.576,2.667
	c-9.029,3.311-15.058,9.413-17.087,19.026c-0.693,3.284-1.151,6.603-1.266,9.976c-0.167,4.922-0.107,4.539,4.222,4.538
	C1838.023,588.316,1858.974,588.317,1879.923,588.318z"/>
<path fill-rule="evenodd" clip-rule="evenodd" fill="#FAFAFA" d="M1663.823,609.224c-12.667-0.121-27.065,0.326-41.448-0.539
	c-6.551-0.395-13.053-1.134-19.43-2.747c-9.925-2.51-17.064-8.356-21.301-17.726c-5.46-12.076-5.255-24.137-0.031-36.217
	c3.297-7.626,8.924-12.674,16.717-15.479c3.333-1.199,6.76-1.975,10.214-2.532c7.42-1.197,14.887-2.136,22.418-2.157
	c22.552-0.064,45.104-0.107,67.655-0.054c9.982,0.024,19.702,1.926,29.204,4.888c5.573,1.737,10.58,4.471,14.359,9.117
	c2.979,3.664,5.025,7.679,5.842,12.412c0.741,4.291,0.816,8.586,0.902,12.898c0.023,1.122-0.601,1.742-1.772,1.741
	c-5.758-0.002-11.516-0.001-17.273,0.007c-1.142,0.001-1.792-0.555-1.91-1.674c-0.135-1.272-0.134-2.563-0.343-3.822
	c-0.285-1.727-0.58-3.472-1.105-5.136c-1.272-4.035-3.849-6.87-7.869-8.448c-3.918-1.538-7.983-2.271-12.129-2.618
	c-2.387-0.2-4.794-0.203-7.192-0.204c-22.872-0.011-45.744-0.03-68.616,0.019c-5.911,0.012-11.835-0.082-17.709,0.899
	c-6.65,1.111-11.193,5.846-11.678,12.604c-0.24,3.344-0.107,6.71,0.43,10.048c0.914,5.672,3.924,9.627,9.278,11.843
	c4.808,1.989,9.887,2.62,14.98,2.945c6.699,0.428,13.419,0.654,20.133,0.72c20.15,0.197,40.307-0.287,60.454,0.348
	c7.684,0.242,15.323,1.013,22.803,2.83c11.436,2.778,19.295,9.828,23.146,20.869c3.883,11.133,3.754,22.234-1.689,33.03
	c-4.307,8.54-11.112,13.815-20.239,16.31c-4.793,1.31-9.686,2.123-14.602,2.673c-6.194,0.691-12.408,1.195-18.662,1.181
	c-23.031-0.05-46.063-0.027-69.096-0.021c-8.012,0.003-15.977-0.572-23.871-1.948c-3.149-0.548-6.219-1.398-9.163-2.7
	c-4.029-1.781-7.457-4.34-10.202-7.765c-2.506-3.126-4.628-6.508-6.325-10.147c-1.157-2.482-1.866-5.04-2.093-7.811
	c-0.378-4.629-0.627-9.255-0.589-13.896c0.021-2.423,0.17-2.618,2.345-2.634c5.598-0.04,11.196-0.032,16.794,0.002
	c1.577,0.01,1.872,0.339,1.91,2.064c0.07,3.199,0.283,6.376,0.643,9.563c0.722,6.402,4.4,10.434,9.925,13.092
	c3.954,1.902,8.251,2.458,12.556,2.822c2.706,0.229,5.433,0.286,8.15,0.287c23.99,0.009,47.982,0.004,71.973-0.038
	c4.798-0.009,9.598-0.185,14.334-1.076c1.409-0.265,2.826-0.528,4.205-0.913c6.01-1.674,9.92-5.541,11.882-11.445
	c1.505-4.53,1.669-9.142,0.471-13.708c-1.061-4.044-3.511-7.094-7.478-8.823c-3.574-1.559-7.333-2.253-11.168-2.462
	c-4.948-0.271-9.908-0.422-14.864-0.452C1686.98,609.178,1676.265,609.224,1663.823,609.224z"/>
<path fill-rule="evenodd" clip-rule="evenodd" fill="#FAFAFA" d="M2279.123,609.222c-14.554-0.121-29.115,0.331-43.661-0.538
	c-6.553-0.392-13.059-1.126-19.433-2.753c-9.907-2.528-17.074-8.333-21.271-17.752c-5.781-12.972-5.25-25.735,1.06-38.359
	c2.836-5.676,7.281-9.634,13.01-12.228c2.923-1.323,5.967-2.265,9.113-2.885c8.963-1.766,18.01-2.854,27.143-2.891
	c22.076-0.087,44.151-0.099,66.227-0.057c10.148,0.019,20.025,1.912,29.688,4.914c6.756,2.1,12.425,5.767,16.353,11.842
	c2.03,3.14,3.366,6.502,3.88,10.21c0.549,3.965,1.023,7.933,0.916,11.944c-0.046,1.74-0.339,2.145-1.832,2.154
	c-5.758,0.036-11.518,0.036-17.275,0.001c-1.545-0.009-1.918-0.38-1.963-2.04c-0.063-2.413-0.411-4.767-0.98-7.108
	c-1.275-5.248-4.384-8.79-9.56-10.431c-3.669-1.163-7.42-1.948-11.272-2.141c-2.076-0.104-4.157-0.169-6.236-0.17
	c-23.354-0.007-46.711-0.023-70.065,0.022c-5.594,0.012-11.195-0.037-16.754,0.879c-7.079,1.167-11.646,6.258-11.811,13.465
	c-0.084,3.671-0.151,7.343,0.837,10.959c1.211,4.435,3.688,7.723,7.953,9.598c2.938,1.291,5.953,2.233,9.154,2.674
	c8.102,1.112,16.248,1.456,24.405,1.487c15.677,0.06,31.355-0.022,47.031,0.036c9.115,0.034,18.242-0.005,27.303,1.235
	c3.479,0.477,6.974,0.931,10.4,1.68c12.881,2.815,21.085,10.782,24.949,23.26c2.12,6.845,2.491,13.943,1.025,20.886
	c-3.103,14.69-11.877,24.091-26.9,27.098c-8.798,1.761-17.685,2.916-26.657,2.945c-25.435,0.085-50.87,0.088-76.304-0.018
	c-7.999-0.033-15.96-0.771-23.773-2.695c-7.475-1.841-13.304-5.912-17.698-12.254c-4.408-6.359-7.118-13.166-6.812-21.032
	c0.118-3.033-0.044-6.077-0.052-9.117c-0.004-1.146,0.583-1.727,1.768-1.724c5.759,0.013,11.518-0.017,17.276,0.021
	c1.553,0.011,1.914,0.425,1.987,2.033c0.117,2.556,0.145,5.117,0.27,7.673c0.39,7.96,4.676,13.034,11.94,15.739
	c3.766,1.403,7.737,1.988,11.746,2.15c4.155,0.167,8.315,0.283,12.473,0.289c19.837,0.029,39.673,0.049,59.509-0.005
	c7.193-0.02,14.383-0.072,21.539-1.14c11.011-1.643,17.053-8.359,17.215-19.459c0.009-0.64,0.009-1.28-0.013-1.92
	c-0.287-8.783-4.605-13.094-12.2-14.957c-2.938-0.721-5.966-1.062-9.019-1.203c-11.194-0.521-22.393-0.243-33.589-0.317
	C2286.482,609.201,2282.803,609.222,2279.123,609.222z"/>
<path fill-rule="evenodd" clip-rule="evenodd" fill="#FAFAFA" d="M1462.278,604.207c0.764-0.202,1.212-0.421,1.661-0.424
	c4.798-0.03,9.596-0.053,14.394-0.02c2.009,0.015,2.354,0.315,2.355,2.106c0.009,8.952,0.271,17.911-0.813,26.835
	c-1.032,8.492-4.083,16.046-10.002,22.346c-3.007,3.2-6.479,5.691-10.632,7.162c-5.887,2.086-11.894,3.554-18.146,4.205
	c-9.101,0.946-18.207,0.976-27.315,0.685c-8.15-0.26-16.274-0.986-24.261-2.774c-4.228-0.946-8.217-2.486-12.092-4.454
	c-10.279-5.221-16.41-13.423-18.439-24.761c-1.214-6.782-1.957-13.598-1.95-20.496c0.02-19.353,0.025-38.705-0.014-58.058
	c-0.014-6.474,0.9-5.59-5.523-5.63c-7.517-0.046-15.034-0.001-22.551-0.029c-1.647-0.007-2.053-0.364-2.065-1.908
	c-0.042-5.118-0.039-10.236-0.004-15.354c0.012-1.591,0.345-1.863,2.027-1.914c1.438-0.044,2.878-0.015,4.317-0.015
	c7.197-0.003,14.395,0.014,21.592-0.02c1.941-0.009,2.193-0.262,2.201-2.264c0.032-8.477,0.006-16.953,0.022-25.431
	c0.01-5.358-0.49-4.746,4.965-4.771c5.118-0.022,10.236-0.023,15.354,0.005c2.724,0.015,2.772,0.051,2.782,2.597
	c0.027,7.197,0.01,14.395,0.012,21.592c0.001,2.079-0.029,4.159,0.023,6.237c0.041,1.604,0.412,1.97,1.972,2.033
	c1.277,0.052,2.559,0.02,3.838,0.02c28.948,0.001,57.897-0.003,86.846,0.005c4.796,0.001,4.297-0.45,4.318,4.388
	c0.018,3.839,0.026,7.677-0.004,11.516c-0.024,3.244-0.051,3.249-3.08,3.299c-1.12,0.018-2.239,0.004-3.358,0.004
	c-28.47,0-56.938-0.004-85.407,0.003c-5.809,0.002-5.136-0.495-5.141,5.102c-0.014,19.033-0.001,38.065,0.014,57.098
	c0.005,5.925,0.423,11.818,1.479,17.657c2.143,11.852,8.874,14.313,16.526,16.132c1.55,0.367,3.155,0.594,4.746,0.675
	c13.424,0.685,26.849,1.025,40.236-0.576c1.891-0.226,3.764-0.731,5.597-1.271c3.711-1.092,6.432-3.395,8.179-6.888
	c1.22-2.441,2.181-4.96,2.874-7.597c1.885-7.172,2.194-14.52,2.458-21.871C1462.331,607.656,1462.278,605.925,1462.278,604.207z"/>
<path fill-rule="evenodd" clip-rule="evenodd" fill="#FAFAFA" d="M1290.994,573.276c-0.166-3.775-1.705-7.115-3.477-10.329
	c-1.75-3.176-4.439-5.415-7.78-6.846c-4.878-2.09-9.977-3.371-15.219-4.116c-6.504-0.925-13.052-1.156-19.61-1.198
	c-8.478-0.054-16.945,0.154-25.364,1.281c-5.078,0.68-10.044,1.753-14.862,3.596c-6.562,2.512-10.866,7.106-13.322,13.579
	c-1.596,4.207-2.572,8.585-3.131,13.021c-0.618,4.911-1.019,9.847-1.006,14.82c0.056,21.585,0.035,43.17,0.012,64.756
	c-0.006,6.072,0.636,5.432-5.294,5.456c-5.276,0.022-10.553,0.017-15.829-0.027c-1.69-0.015-2.006-0.352-2.074-1.912
	c-0.055-1.277-0.026-2.558-0.026-3.837c-0.001-41.411-0.011-82.822,0.01-124.233c0.003-6.327-0.795-5.599,5.587-5.642
	c4.636-0.03,9.274-0.033,13.91,0.01c2.808,0.025,2.865,0.088,2.891,3.063c0.041,4.637-0.002,9.273,0.029,13.91
	c0.006,0.92-0.244,1.888,0.326,2.792c0.996,0.552,1.415-0.358,1.887-0.877c6.553-7.21,14.717-11.579,24.063-14.064
	c10.421-2.772,21.032-3.973,31.765-4.151c8.149-0.135,16.302-0.231,24.452,0.303c6.259,0.41,12.346,1.634,18.351,3.345
	c7.787,2.217,14.18,6.467,18.873,13.144c0.512,1.158,0.997,2.329,1.542,3.471c3.133,6.569,4.895,13.462,5.13,20.757
	c0.211,6.548,0.561,13.091,0.816,19.638c0.079,2.017-0.206,2.367-2.015,2.378c-5.753,0.034-11.507,0.025-17.26-0.003
	c-1.284-0.006-1.653-0.426-1.661-1.75c-0.024-3.994,0.046-7.989-0.043-11.982C1292.597,578.763,1292.292,575.911,1290.994,573.276z"
	/>
<path fill-rule="evenodd" clip-rule="evenodd" fill="#FAFAFA" d="M2005.938,599.103c0-20.638,0-41.275,0.001-61.913
	c0-1.279,0.028-2.56,0.012-3.839c-0.017-1.248,0.688-1.634,1.803-1.633c6.239,0.006,12.479-0.013,18.718,0.01
	c1.407,0.005,1.704,0.298,1.712,1.683c0.03,5.439,0.014,10.879,0.035,16.318c0.002,0.613,0.085,1.238,0.24,1.83
	c0.035,0.136,0.619,0.304,0.781,0.197c0.52-0.341,1.006-0.761,1.423-1.224c6.531-7.246,14.726-11.601,24.086-13.998
	c8.859-2.269,17.829-3.71,26.984-3.913c9.437-0.21,18.875-0.31,28.31,0.069c7.074,0.284,13.931,1.765,20.659,3.907
	c9.581,3.051,16.308,9.167,20.028,18.55c2.317,5.844,3.731,11.869,3.954,18.171c0.231,6.554,0.54,13.105,0.795,19.658
	c0.077,1.993-0.213,2.376-2.001,2.387c-5.759,0.034-11.518,0.024-17.277-0.002c-1.246-0.006-1.617-0.435-1.617-1.79
	c0.001-3.039,0.076-6.078,0.067-9.117c-0.018-5.813-1.225-11.412-3.044-16.909c-2.05-6.19-6.073-10.359-12.266-12.496
	c-6.547-2.259-13.289-3.462-20.172-3.923c-9.75-0.653-19.51-0.668-29.256,0.016c-6.216,0.436-12.429,1.052-18.457,2.787
	c-1.531,0.441-3.037,0.976-4.541,1.506c-7.143,2.521-11.676,7.543-14.102,14.635c-2.299,6.717-3.236,13.668-3.651,20.706
	c-0.16,2.711-0.106,5.438-0.107,8.156c-0.007,20.798-0.004,41.595-0.004,62.393c0,0.96,0.014,1.92-0.002,2.88
	c-0.048,2.978-0.052,3.007-2.833,3.037c-3.199,0.034-6.404,0.128-9.597-0.022c-3.457-0.162-6.969,0.664-10.37-0.532
	c-0.692-3.313-0.278-6.663-0.287-9.991C2005.912,637.498,2005.938,618.3,2005.938,599.103z"/>
<path fill-rule="evenodd" clip-rule="evenodd" fill="#FAFAFA" d="M1536.814,599.641c0,20.61,0.001,41.221-0.001,61.831
	c-0.001,1.438-0.016,2.876-0.04,4.313c-0.017,0.955-0.541,1.416-1.479,1.438c-0.16,0.004-0.319,0.021-0.479,0.021
	c-6.392-0.001-12.782,0.017-19.173-0.019c-1.592-0.01-1.893-0.375-1.955-2.014c-0.043-1.116-0.016-2.236-0.016-3.354
	c-0.001-41.541-0.001-83.081,0-124.622c0-1.277,0.024-2.556,0.019-3.833c-0.006-1.229,0.722-1.671,1.81-1.672
	c6.551-0.01,13.102,0,19.651-0.007c1.213-0.002,1.675,0.625,1.655,1.771c-0.022,1.278,0.006,2.557,0.006,3.835
	C1536.815,558.1,1536.814,578.87,1536.814,599.641z"/>
<path fill-rule="evenodd" clip-rule="evenodd" fill="#FAFAFA" d="M1536.805,486.022c0,3.823,0.024,7.646-0.012,11.47
	c-0.016,1.596-0.324,1.902-1.979,1.908c-6.372,0.026-12.744,0.025-19.115-0.009c-1.575-0.008-1.991-0.432-2.007-1.961
	c-0.038-3.663-0.02-7.327-0.019-10.991c0.001-3.982-0.02-7.965,0.029-11.947c0.02-1.538,0.446-1.96,2.025-1.969
	c6.371-0.036,12.743-0.034,19.115-0.007c1.504,0.006,1.926,0.444,1.943,2.037c0.043,3.822,0.014,7.646,0.014,11.469
	C1536.802,486.022,1536.804,486.022,1536.805,486.022z"/>
<path fill-rule="evenodd" clip-rule="evenodd" fill="#FAFAFA" d="M542.549,667.301c-2.115,0-3.216,0.001-4.316,0
	c-7.04-0.006-14.079,0.009-21.119-0.026c-4.43-0.022-3.774,0.505-6.35-3.672c-7.05-11.436-14.114-22.862-21.174-34.292
	c-0.672-1.088-1.417-2.137-2.02-3.262c-0.777-1.45-1.924-2.021-3.535-1.89c-0.953,0.078-1.918,0.012-2.878,0.012
	c-50.878,0-101.756-0.011-152.634,0.014c-6.062,0.004-4.642-0.829-7.859,4.37c-7.069,11.424-14.074,22.887-21.108,34.332
	c-0.669,1.089-1.358,2.167-2.049,3.243c-0.464,0.721-1.127,1.083-1.998,1.075c-0.799-0.008-1.599,0.026-2.399,0.029
	c-7.04,0.021-14.08,0.046-21.119,0.051c-1.105,0.001-2.21-0.09-3.269-0.137c-0.709-1.604,0.465-2.538,1.078-3.555
	c7.183-11.916,14.417-23.801,21.637-35.694c30.537-50.31,61.067-100.623,91.62-150.924c3.353-5.52,1.813-4.483,8.228-4.535
	c8.799-0.071,17.6,0.061,26.398-0.067c2.378-0.034,3.747,0.801,4.979,2.8c7.972,12.934,16.066,25.792,24.114,38.679
	c30.582,48.971,61.162,97.943,91.74,146.916C539.682,662.639,540.833,664.521,542.549,667.301z M404,493.173
	c-1.26,1.837-2.017,2.843-2.674,3.91c-21.013,34.157-42.017,68.319-63.019,102.483c-0.584,0.95-1.181,1.899-1.668,2.9
	c-0.305,0.627-0.176,1.318,0.657,1.415c1.105,0.129,2.227,0.144,3.342,0.144c42.038,0.007,84.075,0.009,126.112-0.01
	c1.231-0.001,2.523,0.304,3.805-0.44c-0.082-0.424-0.051-0.933-0.268-1.292C448.403,566.075,426.365,529.962,404,493.173z"/>
<path fill-rule="evenodd" clip-rule="evenodd" fill="#FAFAFA" d="M702.125,548.498c0-2.007,0-3.563,0-5.119
	c0-21.913-0.001-43.826,0.001-65.739c0.001-5.736-0.371-5.193,5.114-5.213c4.958-0.018,9.917-0.028,14.875,0.013
	c2.412,0.02,2.653,0.308,2.75,2.802c0.043,1.118,0.013,2.239,0.013,3.359c0,60.94,0.007,121.882-0.009,182.823
	c-0.001,6.699,0.711,5.825-5.876,5.871c-4.958,0.035-9.917,0.02-14.875-0.026c-1.576-0.015-1.938-0.391-1.956-2.023
	c-0.049-4.478-0.025-8.957-0.041-13.436c-0.003-0.958-0.04-1.917-0.089-2.874c-0.006-0.109-0.184-0.284-0.298-0.299
	c-0.28-0.034-0.61-0.076-0.845,0.039c-0.268,0.132-0.467,0.419-0.671,0.659c-0.622,0.731-1.235,1.469-1.845,2.21
	c-6.927,8.418-15.717,13.435-26.623,14.592c-4.609,0.489-9.198,1.14-13.855,1.131c-19.034-0.035-38.068,0.026-57.102-0.032
	c-8.84-0.027-17.535-1.26-26-3.859c-11.278-3.463-19.698-10.272-24.732-21.117c-2.512-5.41-4.192-11.033-5.188-16.896
	c-2.261-13.322-2.459-26.741-1.753-40.179c0.259-4.936,0.939-9.87,1.75-14.751c1.191-7.182,4.02-13.791,7.854-19.955
	c2.685-4.314,6.501-7.434,10.898-9.888c5.08-2.835,10.59-4.486,16.225-5.702c8.454-1.824,17.001-3.085,25.666-3.121
	c20.633-0.086,41.266-0.083,61.899-0.077c3.036,0.001,6.043,0.361,9.062,0.817c8.984,1.358,16.159,5.743,21.994,12.545
	c0.83,0.969,1.631,1.961,2.461,2.929C701.021,548.09,701.215,548.112,702.125,548.498z M632.093,648.104c0-0.006,0-0.012,0-0.019
	c8.313,0,16.625-0.001,24.937,0.001c6.103,0.001,12.104-0.895,18.056-2.13c2.972-0.617,5.87-1.524,8.64-2.808
	c5.566-2.581,9.8-6.478,12.416-12.114c1.829-3.941,3.294-8.021,3.964-12.276c2.02-12.834,2.775-25.732,1.17-38.689
	c-1.26-10.174-6.099-18.019-15.039-23.227c-3.5-2.038-7.268-3.191-11.24-3.916c-6.159-1.124-12.377-1.547-18.604-1.672
	c-10.707-0.214-21.418-0.227-32.127-0.267c-7.034-0.026-14.068-0.028-21.1,0.102c-6.255,0.116-12.403,1.09-18.409,2.885
	c-5.965,1.783-10.47,5.292-13.249,10.96c-2.636,5.375-4.259,10.996-4.553,16.991c-0.203,4.149-0.459,8.297-0.671,12.446
	c-0.508,9.914-0.583,19.809,1.398,29.605c2.234,11.051,8.55,18.272,19.62,21.192c6.521,1.719,13.098,2.907,19.853,2.929
	C615.469,648.124,623.781,648.104,632.093,648.104z"/>
<path fill-rule="evenodd" clip-rule="evenodd" fill="#FAFAFA" d="M1050.43,606.94c-24.475,0-48.949-0.001-73.423,0
	c-1.279,0-2.561-0.027-3.838,0.024c-1.625,0.066-2.093,0.458-2.12,1.917c-0.104,5.615,0.073,11.254,1.747,16.632
	c3.711,11.935,12.019,18.915,24.157,21.379c5.025,1.021,10.136,1.288,15.271,1.277c19.355-0.04,38.711-0.008,58.067-0.022
	c5.438-0.004,10.88-0.009,16.252-1.062c0.94-0.185,1.882-0.363,2.826-0.521c8.078-1.356,13.091-6.216,15.708-13.782
	c0.678-1.961,1.223-3.969,1.86-5.945c0.631-1.958,0.796-2.166,2.601-2.178c6.238-0.04,12.477-0.038,18.715,0.006
	c1.9,0.013,2.222,0.375,2.203,2.295c-0.069,6.778-1.119,13.378-3.865,19.624c-2.606,5.929-6.761,10.367-12.651,13.215
	c-5.673,2.742-11.669,4.364-17.825,5.428c-7.733,1.336-15.534,2.04-23.389,2.04c-19.515,0.003-39.031,0.038-58.546-0.01
	c-10.593-0.025-21.05-1.277-31.342-3.842c-4.047-1.009-7.976-2.338-11.691-4.243c-5.985-3.069-10.708-7.44-14.044-13.348
	c-4.615-8.174-7.517-16.905-9.017-26.144c-2.115-13.029-2.317-26.089-0.933-39.207c1.147-10.873,4.818-20.817,10.672-29.988
	c3.458-5.417,8.315-9.22,14.101-11.907c5.722-2.659,11.854-3.792,18.007-4.804c8.854-1.456,17.776-2.113,26.75-2.106
	c14.717,0.012,29.433-0.016,44.15-0.009c11.903,0.006,23.538,1.852,35.058,4.799c17.533,4.485,27.324,16.235,31.601,33.205
	c0.894,3.548,1.418,7.229,1.7,10.881c0.603,7.812,1.204,15.631,1.114,23.478c-0.031,2.733-0.159,2.839-3.093,2.911
	c-1.119,0.028-2.239,0.008-3.359,0.008C1099.378,606.94,1074.904,606.94,1050.43,606.94z M1038.358,588.245
	c20.453,0,40.906,0,61.359-0.001c1.278,0,2.557-0.003,3.834-0.028c1.128-0.022,1.812-0.593,1.826-1.744
	c0.042-3.674,0.241-7.358,0.021-11.018c-0.363-6.051-2.968-10.984-7.888-14.695c-3.759-2.835-7.822-4.832-12.436-5.901
	c-10.325-2.393-20.834-3.225-31.36-3.682c-16.449-0.715-32.906-0.734-49.316,0.974c-5.083,0.529-10.2,0.989-15.051,2.705
	c-7.275,2.573-12.827,7.246-15.657,14.51c-2.1,5.391-2.743,11.145-2.64,16.943c0.025,1.45,0.489,1.848,2.113,1.913
	c1.276,0.051,2.556,0.023,3.834,0.023C997.452,588.245,1017.905,588.245,1038.358,588.245z"/>
<path fill-rule="evenodd" clip-rule="evenodd" fill="#FAFAFA" d="M835.115,647.983c1.77-1.4,2.395-3.098,3.271-4.591
	c20.88-35.57,41.718-71.166,62.604-106.732c3.549-6.045,1.82-4.928,8.898-5.006c5.597-0.062,11.195-0.007,16.793,0.037
	c1.289,0.01,1.755,0.761,1.193,1.838c-0.665,1.274-1.402,2.511-2.129,3.752c-24.657,42.067-49.315,84.134-73.976,126.198
	c-0.404,0.689-0.893,1.337-1.23,2.056c-0.625,1.332-1.627,1.808-3.072,1.781c-3.358-0.059-6.717-0.015-10.076-0.014
	c-4.158,0.001-8.317,0.029-12.476-0.007c-4.848-0.042-3.959,0.601-6.636-3.92c-4.155-7.016-8.292-14.041-12.436-21.063
	c-20.634-34.974-41.268-69.948-61.9-104.923c-0.73-1.239-1.473-2.473-2.154-3.739c-0.592-1.102-0.179-1.949,0.984-1.957
	c7.037-0.044,14.074-0.038,21.111-0.08c1.246-0.007,2.108,0.456,2.742,1.538c1.858,3.173,3.771,6.313,5.652,9.473
	c20.201,33.931,40.399,67.863,60.603,101.792C833.532,645.509,834.229,646.572,835.115,647.983z"/>
<path fill-rule="evenodd" clip-rule="evenodd" fill="#FFFFFF" d="M2122.078,177.658c-0.397,0.072-0.618-0.096-0.58-0.496
	c0.011-0.117,0.248-0.329,0.289-0.309c0.246,0.122,0.466,0.298,0.696,0.454C2122.347,177.42,2122.211,177.537,2122.078,177.658z"/>
<path fill-rule="evenodd" clip-rule="evenodd" fill="#FFFFFF" d="M1933.222,193.72c0.503,0.204,0.791,0.624,0.457,1.053
	c-0.368,0.475-0.781,0.013-1.142-0.213C1932.766,194.28,1932.994,194,1933.222,193.72z"/>
<path fill-rule="evenodd" clip-rule="evenodd" fill="#1C1C1C" d="M1879.923,588.317c-20.949,0-41.899-0.001-62.849,0.001
	c-4.329,0.001-4.389,0.384-4.222-4.538c0.114-3.373,0.572-6.691,1.266-9.976c2.029-9.613,8.058-15.716,17.087-19.026
	c4.688-1.719,9.65-2.155,14.576-2.667c16.741-1.739,33.524-1.785,50.312-0.994c10.537,0.497,21.045,1.359,31.366,3.782
	c4.615,1.083,8.624,3.223,12.338,6.105c4.281,3.322,6.681,7.673,7.41,12.965c0.593,4.3,0.129,8.622,0.047,12.934
	c-0.018,0.956-0.725,1.357-1.605,1.384c-1.278,0.039-2.558,0.03-3.837,0.03C1921.182,588.318,1900.552,588.318,1879.923,588.317z"/>
<path fill-rule="evenodd" clip-rule="evenodd" fill="#606060" d="M404,493.173c22.365,36.789,44.404,72.902,66.288,109.11
	c0.217,0.359,0.186,0.868,0.268,1.292c-1.281,0.744-2.573,0.439-3.805,0.44c-42.038,0.019-84.075,0.017-126.112,0.01
	c-1.115,0-2.237-0.015-3.342-0.144c-0.833-0.097-0.962-0.788-0.657-1.415c0.487-1.001,1.084-1.95,1.668-2.9
	c21.002-34.164,42.006-68.326,63.019-102.483C401.982,496.016,402.739,495.01,404,493.173z"/>
<path fill-rule="evenodd" clip-rule="evenodd" fill="#606060" d="M632.093,648.104c-8.313,0-16.625,0.02-24.937-0.006
	c-6.755-0.021-13.332-1.21-19.853-2.929c-11.07-2.92-17.386-10.142-19.62-21.192c-1.981-9.797-1.906-19.691-1.398-29.605
	c0.212-4.149,0.469-8.297,0.671-12.446c0.293-5.995,1.917-11.616,4.553-16.991c2.779-5.668,7.284-9.177,13.249-10.96
	c6.006-1.795,12.154-2.769,18.409-2.885c7.032-0.13,14.066-0.128,21.1-0.102c10.709,0.04,21.42,0.053,32.127,0.267
	c6.227,0.125,12.445,0.548,18.604,1.672c3.972,0.725,7.741,1.878,11.24,3.916c8.939,5.208,13.778,13.053,15.039,23.227
	c1.605,12.957,0.85,25.855-1.17,38.689c-0.67,4.255-2.135,8.335-3.964,12.276c-2.616,5.637-6.85,9.533-12.416,12.114
	c-2.77,1.283-5.668,2.19-8.64,2.808c-5.952,1.235-11.954,2.131-18.056,2.13c-8.313-0.002-16.625-0.001-24.937-0.001
	C632.093,648.093,632.093,648.099,632.093,648.104z"/>
<path fill-rule="evenodd" clip-rule="evenodd" fill="#606060" d="M1038.358,588.245c-20.453,0-40.906,0-61.359-0.001
	c-1.278,0-2.558,0.027-3.834-0.023c-1.625-0.065-2.088-0.463-2.113-1.913c-0.103-5.799,0.54-11.553,2.64-16.943
	c2.83-7.264,8.382-11.937,15.657-14.51c4.852-1.716,9.969-2.176,15.051-2.705c16.41-1.708,32.867-1.688,49.316-0.974
	c10.525,0.457,21.035,1.289,31.36,3.682c4.614,1.069,8.677,3.066,12.436,5.901c4.92,3.711,7.525,8.645,7.888,14.695
	c0.219,3.659,0.021,7.344-0.021,11.018c-0.014,1.151-0.697,1.722-1.826,1.744c-1.278,0.025-2.556,0.028-3.834,0.028
	C1079.264,588.245,1058.811,588.245,1038.358,588.245z"/>
</svg>
