<?xml version="1.0" encoding="utf-8"?>
<!-- Generator: Adobe Illustrator 16.0.0, SVG Export Plug-In . SVG Version: 6.00 Build 0)  -->
<!DOCTYPE svg PUBLIC "-//W3C//DTD SVG 1.1//EN" "http://www.w3.org/Graphics/SVG/1.1/DTD/svg11.dtd">
<svg version="1.1" id="Layer_1" xmlns="http://www.w3.org/2000/svg" xmlns:xlink="http://www.w3.org/1999/xlink" x="0px" y="0px"
	 width="5632.255px" height="1110.645px" viewBox="0 0 5632.255 1110.645" enable-background="new 0 0 5632.255 1110.645"
	 xml:space="preserve">
<path fill-rule="evenodd" clip-rule="evenodd" fill="#F6931E" d="M572.566,249.549c-5.203,20.9-15.544,40.152-19.264,61.566
	c-7.527,43.333,27.619,72.506,69.557,57.167c23.757-8.691,38.015-27.091,45.345-50.256c20.063-63.397,13.932-125.42-12.454-185.815
	c-6.463-14.794-13.971-29.134-20.992-43.685c0.886-0.847,1.768-1.695,2.649-2.542c25.451,34.295,46.193,71.498,62.271,110.798
	c15.882,38.827,10.331,78.926-0.413,118.385c-13.119,48.185-35.053,92.974-53.48,139.117
	c-18.536,46.414-35.054,93.238-31.127,144.542c1.976,25.812,5.781,51.215,14.507,75.688c5.281,14.812,12.259,28.67,23.878,39.681
	c21.046,19.94,48.287,19.955,69.196,0.07c27.677-26.321,32.205-56.563,14.89-93.571c10.913,5.09,18.828,13.841,25.554,23.769
	c19.905,29.397,28.279,62.997,26.94,97.362c-4.948,127.026-48.162,235.817-158.793,308.169
	c-56.647,37.048-120.013,56.668-188.053,59.347c-72.771,2.869-145.608,3.091-215.233-21.955
	c-118.282-42.553-194.17-124.759-222.23-247.981c-11.06-48.562-4.628-96.669,17.206-142.042
	c11.946-24.82,24.966-49.158,36.065-74.345c14.091-31.978,20.953-64.93,5.558-99.13c9.955,10.705,13.666,23.653,14.553,37.318
	c1.478,22.732,1.884,45.538,3.299,68.277c2.579,41.477,23.827,68.74,55.183,71.49c28.865,2.531,57.958-22.093,66.746-59.77
	c13.493-57.839,3.127-113.218-22.458-165.941c-13.591-28.002-29.869-54.731-42.914-82.965
	c-34.987-75.737-32.983-151.021,6.521-224.726c17.267-32.217,36.07-63.542,61.731-91.895c1.415,8.508-3.976,13.036-7.033,18.102
	c-34.855,57.74-53.341,120.157-53.938,187.678c-0.195,21.994,4.319,42.943,16.771,61.538c14.869,22.198,36.976,32.755,57.823,27.928
	c21.376-4.95,39.134-27.58,41.607-53.36c1.088-11.352,0.462-22.647-2.333-34.014c23.936,21.326,32.595,48.643,29.422,79.548
	c-2.074,20.211-6.539,40.205-10.503,60.18c-4.384,22.082-0.961,42.979,8.583,62.976c11.32,23.716,29.229,35.606,50.332,33.44
	c24.583-2.521,37.13-19.519,42.537-40.764c13.022-51.18,6.272-100.178-23.041-144.707c-24.504-37.223-41.175-76.785-44.708-121.725
	c-2.869-36.475,4.588-70.228,22.011-102.143C356.271,70.179,386.831,36.464,415.012,0c3.366,6.891-1.549,10.111-3.568,13.999
	c-50.959,98.04-57.985,195.912-2.273,295.225c33.625,59.938,59.265,122.956,63.227,193.089c2.243,39.733-5.34,77.417-17.951,114.647
	c-14.032,41.418-29.376,82.579-27.277,127.537c1.367,29.306,8.001,57.026,24.113,81.77c14.771,22.68,34.125,39.772,63.12,37.631
	c30.672-2.264,50.229-20.879,61.232-48.624c17.926-45.197,17.446-91.364,5.486-137.784c-10.046-38.988-26.277-75.794-40.593-113.281
	c-14.56-38.126-25.753-76.862-30.406-117.917c-8.556-75.474,12.405-140.906,59.969-198.883
	C570.917,248.119,571.744,248.832,572.566,249.549z"/>
<path fill-rule="evenodd" clip-rule="evenodd" fill="#F6931E" d="M1288.891,521.049c-21.589,0-43.183-0.137-64.769,0.049
	c-13.626,0.116-27.165-0.717-36.953,12.782c-4.563,6.293-13.51,8.435-21.266,3.702c-7.077-4.317-7.583-11.942-6.627-19.283
	c2.416-18.517,13.135-31.806,27.848-42.24c37.694-26.729,80.968-35.096,125.859-37.005c29.359-1.251,58.827-1.023,88.056,2.556
	c10.744,1.314,15.979-1.814,19.962-12.108c27.682-71.487,55.982-142.734,84.118-214.045c2.686-6.81,7.249-13.577-5.987-14.319
	c-103.549-5.808-206.307-22.714-310.299-22.303c-50.618,0.2-100.55,5.593-148.76,22.134c-19.958,6.848-38.974,15.669-55.28,29.359
	c-31.897,26.778-31.391,64.266,1.093,90.577c14.618,11.84,31.194,20.51,48.91,26.146c14.854,4.725,22.215,14.066,22.342,28.733
	c0.144,16.179,7.565,35.128-9.415,46.786c-17.293,11.869-35.722,5.551-53.139-2.145c-58.633-25.899-98.406-101.963-85.82-162.327
	c3.698-17.726,12.255-30.758,27.692-39.835c17.149-10.086,32.562-22.461,46.368-36.788c52.763-54.735,121.152-72.644,193.166-81.166
	c87.705-10.378,174.839-0.316,261.914,9.12c59.017,6.392,117.988,13.166,177.353,15.585c19.955,0.812,39.34-2.454,58.827-6.321
	c25.699-5.101,36.84,7.59,29.51,32.457c-1.016,3.449-2.496,6.778-3.301,10.269c-9.035,39.101-10.526,40.437-50.182,44.209
	c-2.387,0.229-4.915,1.164-7.133,0.671c-36.014-7.935-49.363,12.628-60.609,42.753c-23.031,61.685-49.24,122.2-74.771,182.929
	c-5.319,12.656-5.024,17.177,10.726,18.067c56.461,3.199,112.605,5.618,167.53-12.301c11.563-3.772,21.424,6.163,18.457,18.608
	c-4.173,17.494-10.708,34.306-20.806,49.447c-5.502,8.251-14.203,10.438-23.207,12.073c-54.668,9.915-109.937,9.039-165.052,7.643
	c-17.371-0.439-24.56,5.273-31.465,20.507c-40.725,89.835-96.307,168.524-177.725,226.477
	c-49.029,34.899-102.955,56.13-164.275,54.545c-2.995-0.077-6.029,0.102-8.986-0.285c-24.831-3.241-52.362-6.711-60.831-33.669
	c-8.677-27.629-2.426-56.911,17.582-79.031c22.996-25.425,51.662-44.55,81.404-61.692c10.459-6.029,20.408-7.115,28.979,3.186
	c8.529,10.248,14.094,20.718,5.077,34.01c-7.021,10.354-15.883,19.579-19.909,31.891c-5.418,16.565-4.799,32.533,7.699,45.337
	c11.439,11.718,25.745,7.165,38.869,2.563c22.071-7.745,39.522-22.515,55.192-39.249c53.033-56.64,85.426-125.307,113.741-196.326
	c3.885-9.745-0.886-11.591-8.951-11.584c-27.583,0.028-55.171,0.011-82.758,0.011
	C1288.891,521.819,1288.891,521.436,1288.891,521.049z"/>
<path fill-rule="evenodd" clip-rule="evenodd" fill="#F6931E" d="M2555.992,662.353c88.872-9.875,176.681-26.001,263.852-45.608
	c61.456-13.823,122.245-30.114,180.102-55.666c17.592-7.77,34.717-16.502,48.948-29.791c22.535-21.042,19.652-45.085-7.721-59.495
	c-27.809-14.643-58.602-17.434-89.152-18.281c-37.149-1.027-74.366,0.365-111.551,0.703c-25.196,0.229-50.327,0.066-75.393-3.586
	c-26.627-3.878-49.38-13.795-65.665-36.268c-12.277-16.941-29.644-22.753-50.133-23.154c-24.958-0.489-35.508-13.18-33.817-38.099
	c1.624-23.878,13.451-43.218,27.707-61.292c27.155-34.436,61.404-60.785,99.025-82.399
	c102.375-58.82,211.598-98.687,328.879-115.059c20.226-2.823,40.753-3.558,61.053-0.935c36.031,4.654,47.777,31.395,26.205,60.282
	c-17.908,23.98-40.166,44.455-56.552,69.806c-5.053,7.815-13.81,12.315-23.598,8.937c-9.928-3.428-12.22-12.087-12.382-21.772
	c-0.362-21.85-4.472-25.685-27.257-22.437c-89.849,12.814-177.7,34.137-263.552,63.531c-18.162,6.219-35.483,14.576-51.866,24.718
	c-9.749,6.033-18.9,12.856-26.132,21.808c-16.006,19.811-10.961,39.547,12.79,48.561c18.172,6.898,37.452,8.744,56.661,8.262
	c62.354-1.564,124.668-5.477,187.081-2.746c38.984,1.708,77.832,4.866,115.889,14.042c11.028,2.658,22.015,5.991,32.523,10.237
	c67.844,27.436,81.229,99.914,27.914,150.338c-10.072,9.531-21.688,16.963-33.55,24.072c-27.795,16.66-54.886,34.428-80.121,54.791
	c-30.228,24.388-63.798,42.645-100.448,54.963c-137.18,46.114-277.07,81.633-419.949,104.79
	c-20.507,3.322-41.709,5.685-62.733,2.985c-9.531-1.224-19.673-3.179-23.091-14.189c-3.291-10.593,4.816-16.815,11.257-22.641
	c8.416-7.611,17.764-14.234,26.982-20.904c16.038-11.604,32.576-22.397,38.9-43.076c1.638-5.361,6.201-10.463,10.656-14.225
	c26.139-22.085,53.395-42.676,83.827-58.637c8.174-4.289,17.23-8.255,24.518,0.66c7.636,9.345-1.272,16.031-6.521,21.418
	c-14.618,14.997-30.308,28.947-45.563,43.319c-1.258,1.118-2.542,2.338-0.383,3.635
	C2553.978,664.156,2555.184,662.922,2555.992,662.353z"/>
<path fill-rule="evenodd" clip-rule="evenodd" fill="#5F3814" d="M4921.977,582.959c-28.962,22.271-57.357,45.338-87.064,66.565
	c-24.002,17.146-33.828,14.878-53.604-7.319c-33.757-37.898-34.893-74.549,0.443-111.889
	c52.024-54.984,117.657-85.401,191.65-98.339c11.194-1.958,22.693-1.34,33.04,5.231c20.215,12.843,20.496,25.689,0.608,38.205
	c16.422,20.981,16.471,27.598,0.316,49.612c-11.686,15.926-24.086,31.388-34.809,47.939c-5.312,8.198-10.87,18.773-1.961,28.086
	c8.191,8.564,19.272,6.947,28.6,2.507c19.6-9.327,41.424-16.07,50.101-39.814c2.96-8.104,10.993-12.825,18.545-16.38
	c39.375-18.53,64.649-50.315,84.456-87.69c22.715-42.866,46.694-85.011,74.292-124.987c9.545-13.827,19.36-27.5,31.623-39.069
	c7.26-6.848,14.963-16.492,26.216-10.466c10.322,5.526,10.118,17.452,9.035,27.467c-3.483,32.256-16.063,61.306-34.621,87.603
	c-33.17,46.986-66.717,93.712-100.512,140.252c-6.497,8.951-11.423,15.564,0.513,24.521c5.776,4.339,10.026,12.333,12.214,19.509
	c4.907,16.104,11.974,19.543,25.393,8.093c5.861-4.999,12.896-8.743,19.727-12.452c26.525-14.411,45.963-33.36,61.495-61.197
	c30.48-54.633,78.739-87.891,143.842-90.457c15.589-0.615,31.532,0.696,40.032,17.385c8.185,16.07,1.856,30.396-6.549,43.83
	c-12.737,20.355-31.711,34.066-51.969,46.097c-21.712,12.896-44.877,22.7-68.558,31.296c-8.972,3.256-18.285,4.658-17.631,18.285
	c0.615,12.782,4.731,22.063,16.618,27.169c18.506,7.948,36.563,3.997,54.119-3.063c25.285-10.164,46.969-26.262,68.256-42.901
	c7.988-6.243,15.916-12.564,24.318-19.206c9.387,15.051,5.983,25.963-5.903,37.685c-27.468,27.091-56.095,52.351-90.861,69.75
	c-6.943,3.477-14.129,6.605-21.456,9.165c-58.518,20.45-96.447-2.535-105.588-63.84c-0.496-3.322-0.784-6.68-1.424-12.228
	c-20.219,16.238-38.447,31.679-59.814,42.482c-5.664,2.865-4.078,7.776-4.142,12.48c-0.991,72.896-51.708,142.731-120.874,166.585
	c-23.049,7.948-33.037,3.648-41.748-19.449c-11.328-30.044-11.581-60.563-1.874-91.152c7.812-24.624,18.682-47.975,30.61-70.784
	c3.938-7.53,4.634-13.004-2.514-18.457c-8.121-6.19-10.441,2.89-14.161,5.864c-24.827,19.867-49.704,39.604-78.489,53.603
	c-13.862,6.739-28.491,12.073-42.121,0.479c-13.219-11.243-12.347-26.736-8.314-41.636c3.737-13.82,9.162-27.183,13.845-40.75
	c1.8-2.13,4.992-4.975,3.026-7.14C4925.291,576.674,4923.91,581.35,4921.977,582.959z M4958.159,494.306
	c-39.161,11.338-77.186,25.471-112.247,46.61c-16.021,9.661-30.962,20.988-39.379,38.243c-5.217,10.698-11.028,23.948-0.928,33.489
	c9.422,8.898,20.081-0.51,29.419-5.101c5.319-2.616,10.279-6.139,14.997-9.777c39.72-30.635,76.005-65.007,110.145-101.693
	c0.865-0.703,1.733-1.41,2.602-2.113C4961.102,492.327,4959.597,492.847,4958.159,494.306z M5146.017,656.545
	c1.062-6.623-0.521-13.542-14.186-11.872c-7.485,0.914-15.423-1.087-23.042-2.426c-3.551-0.626-6.155-1.892-9.587,1.272
	c-23.417,21.614-32.832,83.096-17.648,111.52c4.205,7.875,6.862,5.652,11.704,1.712
	C5123.914,731.797,5142.574,700.398,5146.017,656.545z M5321.938,542.118c36.274-14.812,64.631-33.029,85.285-62.026
	c2.876-4.04,5.491-8.48,2.32-13.11c-3.775-5.509-8.666-1.775-12.811-0.109C5362.572,480.595,5339.471,505.408,5321.938,542.118z"/>
<path fill-rule="evenodd" clip-rule="evenodd" fill="#5F3814" d="M3581.557,455.124c21.835-41.146,39.709-80.451,64.205-116.061
	c10.217-14.85,20.834-29.458,36.25-39.456c8.863-5.745,18.679-9.59,28.428-2.429c9.214,6.771,10.793,16.65,8.561,27.45
	c-3.228,15.588-11.208,28.997-19.586,42.106c-29.011,45.404-58.458,90.538-87.395,135.991
	c-12.889,20.247-24.269,41.306-28.593,65.391c-1.931,10.755-2.208,21.396,0.517,32.091c2.848,11.176,9.868,15.128,20.145,10.529
	c33.781-15.117,60.476-40.651,89.684-62.444c3.322-2.479,3.751-8.631,5.941-12.86c32.551-62.859,81.088-102.966,154.276-106.945
	c15.146-0.823,31.151,0.875,39.674,15.82c9.218,16.154,1.898,31.588-6.704,45.612c-9.887,16.116-24.378,27.889-39.917,38.337
	c-25.034,16.837-52.446,28.902-80.771,38.732c-10.543,3.656-17.901,7.186-17.174,20.369c0.721,13.1,6.493,21.667,18.253,26.09
	c17.322,6.511,34.369,3.149,50.854-3.348c25.362-9.994,47.089-26.019,68.439-42.549c8.434-6.529,16.702-13.269,25.59-20.346
	c9.299,15.051,6.265,25.914-5.801,37.674c-23.267,22.68-46.94,44.673-75.065,61.141c-11.834,6.926-24.308,13.232-37.21,17.774
	c-60.524,21.319-100.385-4.845-105.838-68.797c-0.249-2.904-0.449-5.815-0.675-8.719c-1.874-1.635-3.751-3.267-5.625-4.897
	c-3.287,5.256-5.72,11.366-9.995,15.631c-24.223,24.188-49.296,47.496-80.834,62.11c-40.388,18.714-64.452,2.735-63.148-41.952
	c0.349-11.918,2.208-23.794,3.649-38.507c-17.479,15.659-33.078,29.915-49.001,43.802c-11.295,9.851-23.048,19.195-36.488,26.064
	c-19.459,9.949-30.505,7.2-42.803-11c-9.496-14.056-14.928-29.838-18.563-48.175c-8.94,8.817-17.11,16.896-25.302,24.954
	c-20.184,19.846-41.484,38.239-68.038,49.169c-38.134,15.697-65.654,2.479-78.019-37.022c-5.899-18.848-6.005-37.997-1.129-56.82
	c11.933-46.079,38.968-81.653,77.977-108.376c4.416-3.023,9.296-5.565,14.277-7.527c14.091-5.551,29.397-8.005,40.169,4.279
	c10.909,12.438,0.869,25.175-5.977,35.951c-17.233,27.133-40.479,48.934-65.787,68.319c-9.342,7.154-13.377,14.646-10.649,25.938
	c2.767,11.461,10.902,16.783,21.649,18.784c8.937,1.666,18.235,2.208,26.574-1.691c33.051-15.454,63.661-32.706,82.674-67.081
	c27.028-48.868,74.281-73.041,124.372-92.092c6.135-2.334,12.639-3.702,18.988-5.453
	C3553.688,435.981,3569.927,434.614,3581.557,455.124z M3559.162,493.961c-31.289,8.399-61.197,18.542-88.313,35.392
	c-20.159,12.529-31.93,30.332-33.515,54.316c-0.714,10.768,4.099,18.39,14.583,11.734
	C3494.077,568.641,3532.679,537.706,3559.162,493.961z M3753.928,542.045c37.044-15.107,65.721-33.747,86.294-63.503
	c2.212-3.196,5.108-7.045,1.712-11.401c-4.063-5.217-8.525-2.222-12.839-0.489C3794.982,480.377,3771.77,505.06,3753.928,542.045z"
	/>
<path fill-rule="evenodd" clip-rule="evenodd" fill="#F6931E" d="M4460.279,640.718c-80.106,0.299-151.467-22.479-208.132-81.426
	c-44.866-46.673-62.181-102.61-51.771-166.813c2.239-13.827,6.381-27.408,15.032-38.103c15.563-19.234,26.35-41.136,38.792-62.181
	c17.3-29.268,40.703-53.41,67.841-73.628c107.546-80.121,228.171-111.196,360.925-93.712c36.407,4.795,53.346,35.065,42.159,70.242
	c-5.921,18.622-20.584,25.421-41.763,17.786c-47.883-17.266-97.111-26.459-148.004-25.383
	c-62.785,1.325-122.814,13.078-174.99,50.906c-83.215,60.328-97.189,174.895-28.076,251.104
	c79.745,87.929,179.92,105.188,291.102,76.124c26.191-6.846,50.551-18.56,74.362-31.335c6.82-3.66,14.674-9.145,20.689-0.38
	c5.551,8.09-0.911,14.983-6.462,20.327c-6.438,6.194-13.535,11.869-20.971,16.837C4623.479,616.182,4542,640.641,4460.279,640.718z"
	/>
<path fill-rule="evenodd" clip-rule="evenodd" fill="#5F3814" d="M1968.704,452.259c24.212-3.41,46.744-6.49,69.244-9.787
	c14.737-2.159,26.831-0.457,33.88,15.542c7.183,16.298,8.371,31.387-4.208,45.07c-7.271,7.907-15.975,14.474-23.762,21.934
	c-15.191,14.558-29.763,29.644-37.209,49.981c-3.034,8.279-4.176,16.358,3.266,23.207c6.972,6.419,15.254,7.818,23.333,3.659
	c30.874-15.887,59.875-33.019,76.662-66.47c31.668-63.099,80.909-103.113,154.178-106.903c15.121-0.784,31.219,0.844,39.529,15.972
	c8.842,16.091,2.015,31.468-6.813,45.573c-10.726,17.135-26.227,29.433-42.919,40.289c-24.247,15.768-50.664,27.099-77.755,36.857
	c-9.193,3.315-17.747,5.249-17.216,18.538c0.517,12.969,5.182,22.025,16.889,26.993c15.775,6.7,31.549,4.634,47.264-0.876
	c31.732-11.119,57.438-31.826,83.464-52.052c5.136-3.99,10.157-8.128,15.687-12.565c9.373,15.181,6.029,26.065-5.808,37.762
	c-26.585,26.258-54.425,50.597-87.588,68.231c-6.325,3.364-12.98,6.194-19.677,8.754c-64.638,24.708-105.778-1.406-111.554-72.978
	c-12.73,11.437-24.282,22.109-36.155,32.407c-17.23,14.944-35.019,29.264-55.884,38.903c-32.157,14.851-61.183-3.297-62.856-38.995
	c-1.188-25.341,9.415-46.613,23.703-66.354c9.039-12.484,18.907-24.367,31.289-40.212c-22.584,5.045-40.939,9.204-59.326,13.226
	c-6.142,1.343-7.545,7.225-11.162,10.99c-29.918,31.148-50.762,70.309-86.052,96.778c-16.365,12.272-32.653,24.363-52.488,30.529
	c-31.479,9.78-53.975-0.468-66.934-30.769c-9.84-23.007-10.237-46.652-3.255-70.38c12.656-43.017,38.074-76.946,74.767-102.42
	c10.909-7.573,22.742-13.612,36.622-12.952c21.354,1.016,28.737,12.941,20.338,32.565c-5.249,12.27-13.342,22.704-21.973,32.681
	c-15.339,17.733-32.017,34.235-51.015,47.932c-9.222,6.648-11.96,14.249-9.96,24.563c2.074,10.702,9.278,16.523,19.273,19.017
	c11.369,2.83,22.672,1.824,33.549-2.511c25.629-10.213,45.995-27.123,61.629-49.676c6.448-9.302,22.303-17.167,2.56-30.554
	c-6.054-4.103-2.756-17.016,0.366-25.668c11.858-32.896,35.726-54.978,66.002-70.196
	C1965.877,420.231,1971.136,427.432,1968.704,452.259z M2167.54,538.775c33.001-12.031,61.281-29.929,81.64-58.518
	c2.735-3.842,5.977-8.223,2.686-13.043c-3.678-5.393-8.48-2.187-12.783-0.485C2204.788,480.278,2181.821,505.201,2167.54,538.775z"
	/>
<path fill-rule="evenodd" clip-rule="evenodd" fill="#5F3814" d="M3247.828,963.382c-13.158,32.601-24.693,61.183-38.158,94.553
	c-7.58-26.202-13.936-47.929-20.145-69.701c-4.268-14.952-8.444-29.936-12.417-44.968c-1.013-3.836-6.335-9.134,1.982-11.148
	c5.79-1.399,8.477,1.909,9.981,7.442c5.656,20.777,11.686,41.449,17.592,62.16c1.27,4.447,1.22,9.468,6.289,13.511
	c11.271-27.844,22.395-55.322,34.826-86.031c12.252,30.733,23.161,58.109,35.701,89.571c6.385-21.864,10.441-40.163,17.24-57.375
	c4.025-10.188-0.871-30.53,16.145-27.563c7.727,1.347-1.916,19.224-4.493,29.183c-7.872,30.449-17.048,60.561-26.916,94.992
	C3272.308,1024.943,3260.886,996.221,3247.828,963.382z"/>
<path fill-rule="evenodd" clip-rule="evenodd" fill="#211F20" d="M5580.383,257.462c8.873-24.754,17.106-47.032,24.771-69.504
	c2.503-7.344,6.244-10.357,14.256-9.809c10.336,0.707,6.712,8.254,7.095,13.25c1.969,25.671,3.491,51.377,5.08,77.077
	c0.271,4.398,2.932,10.188-4.645,11.19c-8.166,1.083-7.98-4.693-8.275-10.364c-1.164-22.395-2.538-44.778-6.191-67.739
	c-8.019,22.134-15.95,44.3-24.117,66.382c-1.75,4.725-1.884,11.602-9.337,11.289c-7.348-0.306-7.038-7.313-8.677-12.002
	c-7.231-20.689-14.073-41.512-24.381-62.195c-1.094,19.656-1.867,39.336-3.491,58.947c-0.464,5.6,3.368,15.623-6.943,15.303
	c-12.698-0.394-5.646-11.166-5.435-16.59c0.967-24.514,3.22-48.983,5.129-73.459c0.387-4.953-1.367-11.137,7.559-11.067
	c6.739,0.053,10.754,1.22,13.127,8.585C5563.339,209.808,5571.685,232.564,5580.383,257.462z"/>
<path fill-rule="evenodd" clip-rule="evenodd" fill="#5F3814" d="M4359.705,974.512c24.142-18.495,38.619-17.156,57.976,4.93
	c5.474-4.528,10.399-10.023,16.495-13.385c21.052-11.602,43.689,0.018,46.133,24.62c1.831,18.429,0.668,37.149,0.917,55.737
	c0.063,4.735-0.721,8.398-6.75,7.854c-6.409-0.58-5.146-5.445-5.21-9.373c-0.242-14.99-0.218-29.984-0.517-44.975
	c-0.257-12.801-2.669-24.339-18.549-26.044c-13.806-1.48-26.862,8.132-29.07,23.643c-1.931,13.566-0.879,27.53-1.896,41.267
	c-0.407,5.529,4.335,15.504-6.342,15.054c-10.336-0.437-5.186-10.27-5.537-15.842c-0.791-12.547-0.222-25.179-0.383-37.775
	c-0.158-12.846-2.627-24.353-18.324-26.3c-13.5-1.674-27.133,8.398-29.119,23.607c-1.854,14.188-0.837,28.729-1.635,43.087
	c-0.281,5.102,3.656,13.852-6.451,13.398c-9.665-0.433-5.643-8.993-5.745-14.08c-0.425-20.988-0.358-41.991-0.06-62.982
	c0.066-4.669-3.175-11.443,5.372-12.854C4359.561,962.692,4356.741,971.109,4359.705,974.512z"/>
<path fill-rule="evenodd" clip-rule="evenodd" fill="#5F3814" d="M5078.264,1043.095c0,13.247-0.166,24.603,0.077,35.944
	c0.102,4.795-0.454,8.335-6.374,8.229c-6.043-0.105-6.104-4.067-6.093-8.596c0.085-35.282,0.042-70.562,0.057-105.841
	c0.003-4.236-0.316-8.516,5.959-8.832c8.49-0.432,4.852,7.868,8.146,11.1c26.712-17.912,49.988-17.283,67.777,1.726
	c16.274,17.392,17.213,43.787,2.215,62.332C5133.227,1059.932,5109.542,1061.598,5078.264,1043.095z M5148.157,1008.501
	c-0.288-19.648-15.876-34.86-35.68-34.818c-20.239,0.046-36.123,16.706-35.321,37.048c0.776,19.592,16.91,34.625,36.565,34.073
	C5133.012,1044.262,5148.442,1027.999,5148.157,1008.501z"/>
<path fill-rule="evenodd" clip-rule="evenodd" fill="#5F3814" d="M3642.482,974.681c0-13.039-0.028-25.562,0.018-38.081
	c0.01-3.607-0.035-7.396,5.027-7.787c5.705-0.439,6.975,2.865,6.961,7.783c-0.085,36.465-0.166,72.929,0.018,109.389
	c0.038,7.411-7.408,11.44-8.905,7.327c-6.519-17.87-13.381-3.435-18.971-0.942c-20.369,9.099-44.185,3.217-57.597-15.11
	c-13.641-18.636-11.96-44.005,4.033-60.845c15.647-16.471,39.982-19.213,58.83-6.887
	C3634.688,971.355,3636.049,975.588,3642.482,974.681z M3643.171,1009.359c0.024-20.113-14.854-35.382-34.759-35.681
	c-20.193-0.302-37.149,16.46-36.604,36.193c0.523,19.017,17.35,35.202,36.306,34.925
	C3628.093,1044.505,3643.15,1029.285,3643.171,1009.359z"/>
<path fill-rule="evenodd" clip-rule="evenodd" fill="#5F3814" d="M5455.563,976.488c0-14.056,0.011-26.508-0.003-38.957
	c-0.008-4.32-0.162-8.726,6.021-8.719c6.132,0.007,6.016,4.289,6.012,8.666c-0.045,35.863-0.007,71.726-0.098,107.585
	c-0.011,3.273,1.36,7.576-3.52,8.813c-4.718,1.199-6.908-0.277-8.673-5.663c-3.347-10.23-7.383-0.644-10.171,1.005
	c-18.865,11.155-41.031,9.57-56.472-4.588c-15.992-14.663-20.373-38.576-10.519-57.417c10.153-19.417,31.531-28.765,53.026-24.043
	C5440.134,965.143,5446.254,971.928,5455.563,976.488z M5420.629,973.686c-19.681,0.123-35.642,15.838-35.75,35.191
	c-0.109,19.052,16.119,35.582,35.269,35.934c20.443,0.373,36.77-15.915,36.33-36.25
	C5456.049,988.835,5440.348,973.56,5420.629,973.686z"/>
<path fill-rule="evenodd" clip-rule="evenodd" fill="#5F3814" d="M4083.384,975.328c0-13.121,0.028-25.534-0.018-37.944
	c-0.015-4.497,0.334-8.708,6.331-8.582c5.945,0.123,6.072,4.328,6.064,8.813c-0.063,35.982-0.038,71.965-0.053,107.951
	c0,4.229,0.404,8.336-5.924,8.8c-8.824,0.65-4.113-8.483-8.304-10.983c-26.546,18.061-50.238,17.382-67.915-1.855
	c-15.465-16.83-16.748-43.348-2.96-61.193C4027.306,958.713,4050.667,956.836,4083.384,975.328z M4084.537,1008.448
	c-0.496-19.617-16.422-35.005-36.008-34.783c-20.446,0.229-36.484,17.016-35.458,37.114c0.984,19.325,17.669,34.671,36.98,34.007
	C4069.736,1044.111,4085.029,1027.999,4084.537,1008.448z"/>
<path fill-rule="evenodd" clip-rule="evenodd" fill="#5F3814" d="M1861.368,438.172c-18.067,0.12-29.676-16.45-24.669-35.209
	c5.369-20.099,30.519-39.188,51.321-38.668c10.631,0.267,18.51,4.725,20.848,15.951
	C1913.86,404.225,1886.111,438.007,1861.368,438.172z"/>
<path fill-rule="evenodd" clip-rule="evenodd" fill="#5F3814" d="M3356.63,438.189c-16.78,0.288-28.35-13.918-25.601-31.437
	c3.487-22.247,31.071-44.185,53.574-42.427c10.801,0.844,17.986,6.349,19.685,17.423
	C3407.93,405.48,3380.547,437.782,3356.63,438.189z"/>
<path fill-rule="evenodd" clip-rule="evenodd" fill="#5F3814" d="M3941.858,1010.396c-8.374,0-16.78-0.443-25.108,0.172
	c-4.799,0.352-11.641-3.399-14.041,3.206c-1.86,5.119,1.715,10.477,4.475,15.016c11.725,19.308,38.311,21.368,55.766,4.669
	c3.712-3.551,5.909-12.977,13.439-5.956c7.137,6.655-1.712,10.571-4.799,14.168c-13.412,15.624-38.896,19.597-57.604,9.833
	c-18.678-9.748-28.62-33.961-22.771-55.462c5.787-21.287,24.448-34.84,46.909-34.073c21.808,0.745,38.738,14.969,43.671,35.722
	c2.109,8.863,1.582,13.697-9.439,12.864C3962.242,1009.791,3952.029,1010.393,3941.858,1010.396z M3969.744,1000.232
	c-4.813-16.615-14.737-24.553-29.675-26.275c-13.647-1.575-24.722,3.357-32.179,15.208c-3.667,5.825-6.029,11.229,4.865,11.12
	C3931.186,1000.099,3949.617,1000.232,3969.744,1000.232z"/>
<path fill-rule="evenodd" clip-rule="evenodd" fill="#5F3814" d="M5315.769,1010.393c-8.993-0.004-18.042,0.646-26.969-0.141
	c-16.748-1.477-14.772,6.859-9.429,17.009c10.859,20.619,38.51,23.449,56.718,6.008c3.811-3.652,6.5-12.663,13.595-5.667
	c6.673,6.585-2.021,10.519-5.238,14.203c-13.588,15.55-38.999,19.393-57.772,9.527c-17.438-9.158-27.569-31.918-23.245-52.214
	c4.68-21.959,22.384-36.675,44.673-37.132c22.289-0.461,39.442,12.125,46.037,32.906c3.53,11.119,2.634,17.275-11.415,15.687
	C5333.846,1009.573,5324.762,1010.393,5315.769,1010.393z M5276.168,1000.232c20.32,0,38.637-0.235,56.943,0.099
	c9.323,0.169,10.248-3.094,5.758-10.351c-7.322-11.83-18.154-16.843-31.591-16.179
	C5291.979,974.558,5282.226,982.872,5276.168,1000.232z"/>
<path fill-rule="evenodd" clip-rule="evenodd" fill="#5F3814" d="M4750.252,1010.396c-8.392,0.007-16.791-0.215-25.172,0.095
	c-4.56,0.165-10.779-2.388-13.3,2.151c-3.132,5.646,0.598,11.566,3.779,16.66c11.925,19.104,38.278,20.746,55.856,3.502
	c3.924-3.846,6.859-12.14,13.7-4.883c5.453,5.783-1.916,9.572-4.819,13.032c-13.317,15.845-38.366,20.331-57.53,10.944
	c-17.729-8.684-28.444-31.135-24.609-51.547c4.131-21.973,21.72-37.42,43.675-38.365c22.328-0.964,39.737,11.092,46.888,31.696
	c3.962,11.423,3.836,18.545-11.517,16.886C4768.318,1009.605,4759.241,1010.393,4750.252,1010.396z M4711.18,1000.226
	c18.01,0,33.996,0,49.984,0c2.377,0,4.764-0.138,7.134,0.018c9.987,0.657,9.583-3.86,5.41-10.522
	c-7.368-11.764-18.313-16.643-31.731-15.904C4726.648,974.663,4717.093,983.146,4711.18,1000.226z"/>
<path fill-rule="evenodd" clip-rule="evenodd" fill="#5F3814" d="M4291.562,1057.48c-19.828-0.176-29.556-9.306-37.477-21.354
	c-2.313-3.522-2.7-6.089,1.494-8.754c3.632-2.307,5.713-2.243,9.126,0.819c20.236,18.134,29.82,20.109,39.649,8.923
	c9.914-11.278,5.471-23.453-14.597-39.97c-6.937-5.709-14.421-10.866-20.718-17.209c-14.063-14.168-13.784-32.744-0.021-44.244
	c13.844-11.566,37.301-7.812,47.861,7.369c2.338,3.357,4.103,5.979,0.102,8.958c-2.795,2.077-5.564,5.006-9.126,0.903
	c-1.955-2.254-3.99-4.539-6.367-6.304c-8.732-6.465-17.933-7.886-25.671,0.9c-7.513,8.532-3.878,17.146,3.259,23.769
	c7.879,7.31,16.826,13.458,25.147,20.31c8.466,6.965,15.676,15.075,18.176,26.068
	C4327.122,1038.451,4309.748,1057.902,4291.562,1057.48z"/>
<path fill-rule="evenodd" clip-rule="evenodd" fill="#5F3814" d="M4595.202,1008.92c0.257,26.106-19.965,46.976-46.136,47.611
	c-26.789,0.65-48.656-20.334-48.832-46.859c-0.168-25.773,20.504-47.074,46.294-47.707
	C4573.402,961.308,4594.938,982.085,4595.202,1008.92z M4513.119,1009.813c0.211,20.127,15.42,35.233,35.195,34.959
	c19.684-0.271,34.633-15.894,34.365-35.912c-0.264-19.673-16.08-35.444-35.321-35.216
	C4528.131,973.869,4512.916,989.945,4513.119,1009.813z"/>
<path fill-rule="evenodd" clip-rule="evenodd" fill="#5F3814" d="M3432.114,1009.595c-0.151,26.943-21.417,47.507-48.548,46.937
	c-25.924-0.545-46.529-21.709-46.301-47.549c0.229-25.889,21.052-46.747,46.931-47.011
	C3411.168,961.697,3432.266,982.661,3432.114,1009.595z M3350.141,1010.063c0.316,20.105,15.683,35.166,35.438,34.734
	c19.567-0.426,34.544-16.285,34.172-36.184c-0.366-19.557-16.383-35.258-35.631-34.928
	C3364.804,974.02,3349.827,990.055,3350.141,1010.063z"/>
<path fill-rule="evenodd" clip-rule="evenodd" fill="#5F3814" d="M3496.141,1056.524c-26.304,0.18-47.074-19.846-47.693-45.98
	c-0.633-26.796,20.282-48.417,46.997-48.579c27.232-0.162,47.669,20.45,47.45,47.865
	C3542.684,1036.342,3522.659,1056.342,3496.141,1056.524z M3530.906,1008.986c-0.2-19.441-16.221-35.406-35.42-35.297
	c-19.107,0.105-34.621,16.316-34.463,36.011c0.161,20.053,15.482,35.335,35.188,35.1
	C3515.74,1044.568,3531.11,1028.702,3530.906,1008.986z"/>
<path fill-rule="evenodd" clip-rule="evenodd" fill="#5F3814" d="M4628.284,996.326c21.083-7.822,29.085-34.344,58.359-31.806
	c-14.052,12.228-24.831,23.291-37.272,31.968c-12.52,8.729-9.861,13.961,0.404,22.001c13.1,10.259,24.992,22.061,40.451,35.93
	c-30.576,0.745-39.699-27.222-61.953-36.612c0,10.27-0.003,19.568,0.004,28.867c0,3.843-0.633,7.242-5.438,7.607
	c-5.418,0.415-7.383-2.408-7.376-7.53c0.046-36.513,0.035-73.026-0.031-109.54c-0.008-4.679,0.822-8.482,6.56-8.434
	c5.815,0.046,6.346,4.019,6.325,8.606C4628.238,956.818,4628.284,976.256,4628.284,996.326z"/>
<path fill-rule="evenodd" clip-rule="evenodd" fill="#5F3814" d="M4909.96,975.95c8.796-5.78,15.462-11.735,24.729-13.353
	c20.749-3.621,37.814,7.26,39.885,28.178c1.817,18.373,0.988,37.006,1.375,55.522c0.099,4.676-0.683,8.396-6.669,7.941
	c-6.469-0.488-5.179-5.375-5.214-9.302c-0.127-13.75,0.179-27.51-0.19-41.249c-0.555-20.714-7.555-29.612-22.876-29.957
	c-15.676-0.354-29.527,11.749-31.054,28.716c-1.174,13.057-0.369,26.286-0.844,39.424c-0.172,4.711,2.897,11.858-5.821,12.295
	c-8.901,0.442-6.616-6.697-6.655-11.566c-0.18-22.121-0.2-44.244,0.014-66.365c0.043-4.296-2.523-10.378,4.297-11.995
	C4909.475,962.218,4909.488,969.46,4909.96,975.95z"/>
<path fill-rule="evenodd" clip-rule="evenodd" fill="#5F3814" d="M3728.801,994.632c0.011-16.741,0.395-33.497-0.147-50.221
	c-0.281-8.68,1.217-13.317,11.493-12.639c13.096,0.861,26.297,0.063,39.448,0.292c4.254,0.074,10.48-2.274,10.814,5.403
	c0.39,9.067-6.754,6.293-11.521,6.563c-5.959,0.345-12.073,0.841-17.909-0.073c-16.798-2.63-20.956,4.472-20.485,20.577
	c0.394,13.43,2.784,19.831,17.49,17.824c8.22-1.122,16.717-0.222,25.088-0.219c3.705,0.004,7.157,0.148,7.432,5.284
	c0.32,5.998-3.301,6.719-7.959,6.68c-10.164-0.077-20.346,0.31-30.491-0.108c-8.525-0.352-11.531,3.013-11.145,11.549
	c0.594,13.127,0.13,26.3,0.172,39.455c0.018,5,0.165,9.854-7.161,9.239c-6.641-0.556-5.038-5.562-5.069-9.38
	C3728.713,1028.118,3728.791,1011.373,3728.801,994.632z"/>
<path fill-rule="evenodd" clip-rule="evenodd" fill="#5F3814" d="M5022.516,961.74c2.999,0.844,7.696,1.022,10.843,3.325
	c4.56,3.34,14.72,4.603,10.62,12.99c-4.524,9.257-9.587,0.215-14.221-1.916c-7.952-3.656-15.469-3.79-20.527,4.3
	c-5.365,8.582,1.459,13.324,7.242,17.462c6.297,4.507,13.426,7.844,19.769,12.294c9.341,6.557,12.649,15.993,9.615,26.835
	c-2.764,9.89-9.604,16.506-19.888,18.707c-11.307,2.422-21.291-0.633-30.014-8.139c-2.689-2.317-3.287-4.68-0.938-7.601
	c1.979-2.472,4.226-4.508,7.468-2.729c2.587,1.42,4.591,4.019,7.252,5.157c9.25,3.962,17.958,3.39,23.51-6.043
	c6.032-10.263-1.896-15.174-8.951-19.944c-6.908-4.672-14.639-8.371-20.781-13.865c-7.864-7.031-9.277-16.471-5.023-26.301
	C5002.793,966.324,5011.013,962.334,5022.516,961.74z"/>
<path fill-rule="evenodd" clip-rule="evenodd" fill="#211F20" d="M5476.949,234.582c0.004-5.977-0.569-12.02,0.112-17.919
	c2.071-17.93,0.773-32.326-23.66-27.042c-3.656,0.791-7.102-0.358-7.333-5.33c-0.232-4.918,2.604-5.91,6.704-5.903
	c20.323,0.035,40.644-0.035,60.968-0.007c3.533,0.007,7.414-0.197,7.664,4.975c0.299,6.092-3.808,6.455-8.297,6.37
	c-3.586-0.067-7.238,0.394-10.747-0.141c-10.811-1.645-12.786,3.618-12.513,13.229c0.626,22.099,0.296,44.227,0.12,66.34
	c-0.035,4.24,2.141,10.16-5.759,10.512c-8.813,0.39-7.214-5.857-7.242-11.015C5476.896,257.296,5476.945,245.938,5476.949,234.582z"
	/>
<path fill-rule="evenodd" clip-rule="evenodd" fill="#5F3814" d="M3838.299,1008.656c-0.024-11.939-0.046-23.879-0.011-35.814
	c0.015-4.222,2.063-11.397,5.534-8.297c11.084,9.911,18.517-1.627,27.552-2.348c4.395-0.352,10.765-1.452,11.573,4.672
	c0.464,3.516-3.063,7.475-8.378,7.352c-16.84-0.391-20.988,11.953-22.482,24.718c-1.585,13.563-0.527,27.422-1.332,41.108
	c-0.296,5.021,4.131,13.469-5.646,13.999c-10.118,0.552-6.401-8.075-6.638-13.166
	C3837.982,1030.157,3838.323,1019.399,3838.299,1008.656z"/>
<path fill-rule="evenodd" clip-rule="evenodd" fill="#5F3814" d="M4871.752,992.856c0,17.318-0.024,34.64,0.018,51.958
	c0.011,4.964,0.281,9.812-7.031,9.475c-6.493-0.299-5.548-4.919-5.551-8.951c-0.035-34.636-0.015-69.275-0.015-103.911
	c0.004-4.81-0.657-10.076,6.855-9.472c7.517,0.608,5.632,6.356,5.667,10.737C4871.836,959.412,4871.752,976.137,4871.752,992.856z"
	/>
<path fill-rule="evenodd" clip-rule="evenodd" fill="#5F3814" d="M5211.597,1009.046c0-11.932-0.376-23.882,0.109-35.792
	c0.45-10.92,3.14-12.396,11.313-4.511c4.25,4.099,4.992,1.719,7.79,0.028c4.001-2.419,8.128-4.992,12.558-6.248
	c4.497-1.269,10.983-1.726,12.133,3.812c1.016,4.9-3.248,7.713-9.253,7.815c-14.394,0.246-19.441,10.785-20.623,22.605
	c-1.596,15.971-1.339,32.122-1.979,48.195c-0.154,3.854,1.315,8.726-5.157,9.281c-7.601,0.65-6.88-4.609-6.884-9.391
	C5211.586,1032.91,5211.597,1020.979,5211.597,1009.046z"/>
<path fill-rule="evenodd" clip-rule="evenodd" fill="#5F3814" d="M5192.131,1008.174c0,12.491,0.035,24.982-0.021,37.47
	c-0.018,4.138,0.468,8.631-5.916,8.648c-6.125,0.018-6.185-4.061-6.181-8.409c0.014-24.388,0.003-48.772-0.007-73.16
	c-0.004-4.247-0.257-8.494,5.924-8.659c6.328-0.172,6.173,4.177,6.188,8.424C5192.159,984.381,5192.131,996.277,5192.131,1008.174z"
	/>
<path fill-rule="evenodd" clip-rule="evenodd" fill="#5F3814" d="M3807.277,1010.575c0-12.575-0.05-25.15,0.027-37.723
	c0.025-4.092-0.625-8.778,5.829-8.778c6.321,0,6.001,4.426,6.001,8.701c0.004,24.55-0.031,49.1,0.039,73.648
	c0.014,4.796-1.006,8.23-6.862,7.773c-5.14-0.4-4.996-4.138-5.014-7.692C3807.242,1034.527,3807.277,1022.553,3807.277,1010.575z"/>
<path fill-rule="evenodd" clip-rule="evenodd" fill="#5F3814" d="M4189.661,1040.972c-4.515,8.451-9.232,17.346-14.017,26.202
	c-1.414,2.608-3.727,2.492-6.072,1.512c-2.559-1.065-3.621-3.189-2.633-5.692c3.487-8.831,7.172-17.581,10.811-26.353
	c1.378-3.322,3.597-4.535,6.891-2.43C4187.007,1035.723,4190.393,1036.45,4189.661,1040.972z"/>
<path fill-rule="evenodd" clip-rule="evenodd" fill="#5F3814" d="M5196.156,936.413c-1.213,6.398-4.654,10.228-10.965,9.633
	c-5.26-0.495-8.892-4.054-8.691-9.513c0.236-6.346,4.359-9.542,10.652-9.243C5192.95,927.564,5195.038,931.752,5196.156,936.413z"/>
<path fill-rule="evenodd" clip-rule="evenodd" fill="#5F3814" d="M3813.046,946.208c-5.572-0.661-9.141-3.656-9.323-9.028
	c-0.211-6.289,3.509-9.98,9.851-9.822c5.341,0.133,9.032,3.23,9.183,8.771C3822.929,942.52,3819.016,945.613,3813.046,946.208z"/>
<path fill-rule="evenodd" clip-rule="evenodd" fill="#F6931E" d="M632.562,68.058c-2.563-1.526-4.447-3.277-2.176-6.438
	c1.485,1.396,2.969,2.788,4.455,4.184C634.044,66.518,633.285,67.267,632.562,68.058z"/>
<path fill-rule="evenodd" clip-rule="evenodd" fill="#F6931E" d="M570.089,231.847c1.312-1.561,2.623-3.122,3.936-4.679
	c2.199,2.848,0.974,4.964-1.459,6.82C571.744,233.271,570.917,232.557,570.089,231.847z"/>
<path fill-rule="evenodd" clip-rule="evenodd" fill="#F6931E" d="M634.84,65.804c0.854,1.54,1.71,3.08,2.566,4.62
	c-0.881,0.847-1.763,1.695-2.649,2.542c-0.735-1.635-1.464-3.273-2.194-4.908C633.285,67.267,634.044,66.518,634.84,65.804z"/>
<path fill-rule="evenodd" clip-rule="evenodd" fill="#FEFEFD" d="M2555.992,662.353c-0.809,0.569-2.015,1.804-2.359,1.6
	c-2.159-1.297-0.875-2.517,0.383-3.635C2554.677,660.981,2555.338,661.664,2555.992,662.353z"/>
<path fill-rule="evenodd" clip-rule="evenodd" fill="#FEFEFD" d="M4921.977,582.959c1.934-1.609,3.314-6.285,6.373-2.921
	c1.966,2.165-1.227,5.01-3.026,7.14C4924.209,585.771,4923.094,584.365,4921.977,582.959z"/>
<path fill-rule="evenodd" clip-rule="evenodd" fill="#FAF9F8" d="M4958.159,494.306c1.438-1.459,2.942-1.979,4.608-0.341
	c-0.868,0.703-1.736,1.41-2.602,2.113C4959.432,495.561,4958.764,494.967,4958.159,494.306z"/>
</svg>
