<?xml version="1.0" encoding="utf-8"?>
<!-- Generator: Adobe Illustrator 16.0.0, SVG Export Plug-In . SVG Version: 6.00 Build 0)  -->
<!DOCTYPE svg PUBLIC "-//W3C//DTD SVG 1.1//EN" "http://www.w3.org/Graphics/SVG/1.1/DTD/svg11.dtd">
<svg version="1.1" id="Layer_1" xmlns="http://www.w3.org/2000/svg" xmlns:xlink="http://www.w3.org/1999/xlink" x="0px" y="0px"
	 width="708.384px" height="144.651px" viewBox="0 0 708.384 144.651" enable-background="new 0 0 708.384 144.651"
	 xml:space="preserve">
<g>
	<path fill="#58595B" d="M272.093,125.119l10.169-26.497h3.786l10.826,26.497h-3.987l-3.079-8.024h-11.078l-2.927,8.024H272.093z
		 M279.739,114.243h8.984l-2.776-7.344c-0.841-2.221-1.464-4.046-1.867-5.477c-0.337,1.7-0.816,3.382-1.438,5.048L279.739,114.243z"
		/>
	<path fill="#58595B" d="M317.517,125.119l-10.271-26.497h3.811l6.889,19.255c0.555,1.548,1.018,2.994,1.388,4.34
		c0.404-1.446,0.875-2.894,1.413-4.34l7.167-19.255h3.583l-10.372,26.497H317.517z"/>
	<path fill="#58595B" d="M334.222,102.382v-3.76h3.255v3.76H334.222z M334.222,125.119V105.94h3.255v19.179H334.222z"/>
	<path fill="#58595B" d="M341.137,119.391l3.23-0.505c0.168,1.296,0.665,2.284,1.489,2.966c0.824,0.681,1.977,1.021,3.458,1.021
		c1.497,0,2.607-0.303,3.331-0.908s1.086-1.32,1.086-2.146c0-0.723-0.32-1.303-0.959-1.741c-0.438-0.285-1.549-0.647-3.332-1.085
		c-2.372-0.605-4.021-1.127-4.946-1.564s-1.624-1.047-2.094-1.829c-0.471-0.782-0.707-1.637-0.707-2.562
		c0-0.858,0.193-1.653,0.58-2.385c0.387-0.732,0.917-1.342,1.59-1.83c0.505-0.369,1.194-0.685,2.069-0.946
		c0.875-0.261,1.817-0.391,2.827-0.391c1.497,0,2.813,0.219,3.949,0.656s1.977,1.026,2.523,1.766
		c0.547,0.741,0.921,1.733,1.123,2.979l-3.18,0.429c-0.151-0.992-0.572-1.767-1.262-2.321c-0.69-0.556-1.666-0.833-2.927-0.833
		c-1.498,0-2.566,0.248-3.205,0.744c-0.64,0.496-0.959,1.072-0.959,1.729c0,0.438,0.135,0.825,0.404,1.161
		c0.269,0.337,0.682,0.622,1.237,0.858c0.336,0.117,1.295,0.396,2.876,0.832c2.305,0.605,3.912,1.106,4.82,1.502
		s1.623,0.968,2.145,1.716c0.521,0.749,0.782,1.678,0.782,2.788c0,1.077-0.319,2.095-0.959,3.054s-1.552,1.699-2.737,2.221
		c-1.187,0.521-2.537,0.782-4.051,0.782c-2.49,0-4.387-0.517-5.69-1.552C342.344,122.962,341.506,121.427,341.137,119.391z"/>
	<path fill="#58595B" d="M360.946,102.382v-3.76h3.255v3.76H360.946z M360.946,125.119V105.94h3.255v19.179H360.946z"/>
	<path fill="#58595B" d="M367.962,115.529c0-3.549,0.984-6.183,2.953-7.898c1.648-1.43,3.659-2.145,6.031-2.145
		c2.641,0,4.798,0.866,6.473,2.599c1.674,1.733,2.511,4.122,2.511,7.167c0,2.474-0.37,4.416-1.11,5.829
		c-0.74,1.414-1.817,2.512-3.23,3.294s-2.961,1.173-4.643,1.173c-2.676,0-4.842-0.861-6.498-2.586
		C368.791,121.237,367.962,118.76,367.962,115.529z M371.293,115.529c0,2.457,0.538,4.295,1.615,5.515
		c1.076,1.22,2.423,1.829,4.038,1.829c1.614,0,2.96-0.614,4.037-1.842c1.076-1.229,1.615-3.096,1.615-5.603
		c0-2.389-0.543-4.193-1.628-5.413s-2.427-1.829-4.024-1.829c-1.615,0-2.962,0.609-4.038,1.829
		C371.831,111.235,371.293,113.073,371.293,115.529z"/>
	<path fill="#58595B" d="M389.766,125.119V105.94h2.927v2.726c1.396-2.12,3.433-3.18,6.107-3.18c1.144,0,2.203,0.21,3.18,0.631
		c0.976,0.421,1.703,0.968,2.183,1.64c0.479,0.674,0.812,1.473,0.997,2.397c0.134,0.605,0.201,1.657,0.201,3.154v11.811h-3.255
		v-11.684c0-1.313-0.126-2.297-0.379-2.953c-0.252-0.656-0.702-1.182-1.35-1.577c-0.648-0.395-1.409-0.593-2.284-0.593
		c-1.38,0-2.57,0.441-3.57,1.325c-1.002,0.883-1.502,2.553-1.502,5.009v10.473H389.766z"/>
	<path fill="#58595B" d="M427.77,125.119v-23.368h-8.731v-3.129h20.995v3.129h-8.757v23.368H427.77z"/>
	<path fill="#58595B" d="M442.027,115.529c0-3.549,0.984-6.183,2.953-7.898c1.648-1.43,3.659-2.145,6.031-2.145
		c2.641,0,4.798,0.866,6.473,2.599c1.674,1.733,2.511,4.122,2.511,7.167c0,2.474-0.37,4.416-1.11,5.829
		c-0.74,1.414-1.817,2.512-3.23,3.294s-2.961,1.173-4.643,1.173c-2.676,0-4.842-0.861-6.498-2.586
		C442.856,121.237,442.027,118.76,442.027,115.529z M445.358,115.529c0,2.457,0.538,4.295,1.615,5.515
		c1.076,1.22,2.423,1.829,4.038,1.829c1.614,0,2.96-0.614,4.037-1.842c1.076-1.229,1.615-3.096,1.615-5.603
		c0-2.389-0.543-4.193-1.628-5.413s-2.427-1.829-4.024-1.829c-1.615,0-2.962,0.609-4.038,1.829
		C445.896,111.235,445.358,113.073,445.358,115.529z"/>
	<path fill="#58595B" d="M467.363,125.119l-5.88-19.179h3.356l3.054,11.078l1.161,4.113c0.033-0.202,0.361-1.522,0.983-3.962
		l3.054-11.229h3.331l2.877,11.129l0.959,3.659l1.11-3.71l3.28-11.078h3.18l-6.006,19.179h-3.381l-3.054-11.482l-0.732-3.28
		l-3.886,14.763H467.363z"/>
	<path fill="#58595B" d="M503.072,122.747c-1.212,1.026-2.372,1.75-3.482,2.17c-1.11,0.421-2.306,0.631-3.584,0.631
		c-2.103,0-3.722-0.513-4.857-1.539s-1.703-2.338-1.703-3.937c0-0.942,0.214-1.805,0.644-2.587c0.429-0.782,0.987-1.409,1.678-1.88
		c0.689-0.471,1.472-0.824,2.347-1.06c0.64-0.168,1.599-0.328,2.877-0.479c2.624-0.319,4.559-0.698,5.804-1.136
		c0.017-0.438,0.025-0.715,0.025-0.833c0-1.329-0.312-2.263-0.934-2.801c-0.824-0.74-2.053-1.11-3.685-1.11
		c-1.53,0-2.662,0.269-3.394,0.808c-0.732,0.538-1.274,1.488-1.628,2.852l-3.18-0.43c0.286-1.362,0.761-2.464,1.426-3.306
		c0.664-0.841,1.623-1.488,2.877-1.943c1.253-0.454,2.704-0.681,4.354-0.681c1.648,0,2.981,0.193,3.999,0.58
		c1.018,0.388,1.771,0.875,2.259,1.464s0.824,1.329,1.01,2.221c0.101,0.555,0.151,1.556,0.151,3.003v4.315
		c0,3.028,0.071,4.942,0.214,5.741c0.144,0.799,0.417,1.568,0.82,2.309h-3.381C503.392,124.446,503.173,123.655,503.072,122.747z
		 M502.794,115.479c-1.178,0.488-2.943,0.9-5.299,1.236c-1.347,0.202-2.297,0.421-2.852,0.656c-0.556,0.235-0.984,0.585-1.287,1.047
		c-0.303,0.463-0.454,0.98-0.454,1.552c0,0.858,0.332,1.577,0.997,2.158c0.664,0.58,1.627,0.87,2.889,0.87
		c1.245,0,2.355-0.272,3.331-0.819s1.691-1.291,2.146-2.233c0.354-0.74,0.529-1.825,0.529-3.256V115.479z"/>
	<path fill="#58595B" d="M511.097,125.119V105.94h2.927v2.902c0.758-1.363,1.451-2.263,2.082-2.7s1.325-0.656,2.082-0.656
		c1.094,0,2.204,0.353,3.331,1.06l-1.11,3.028c-0.791-0.471-1.59-0.707-2.397-0.707c-0.706,0-1.342,0.211-1.905,0.631
		c-0.563,0.421-0.963,1.019-1.198,1.792c-0.37,1.145-0.556,2.406-0.556,3.785v10.044H511.097z"/>
	<path fill="#58595B" d="M535.902,125.119v-2.423c-1.211,1.901-3.003,2.852-5.375,2.852c-1.531,0-2.936-0.421-4.214-1.262
		c-1.279-0.841-2.271-2.019-2.979-3.532c-0.706-1.515-1.06-3.247-1.06-5.199c0-1.918,0.319-3.659,0.959-5.224
		s1.598-2.763,2.877-3.596c1.278-0.833,2.708-1.249,4.29-1.249c1.144,0,2.17,0.244,3.078,0.731c0.909,0.488,1.641,1.127,2.196,1.918
		v-9.514h3.255v26.497H535.902z M525.632,115.555c0,2.457,0.518,4.29,1.552,5.502c1.035,1.211,2.259,1.816,3.672,1.816
		s2.616-0.58,3.608-1.741c0.993-1.161,1.489-2.936,1.489-5.324c0-2.625-0.505-4.551-1.515-5.779
		c-1.009-1.228-2.254-1.842-3.734-1.842c-1.447,0-2.654,0.589-3.621,1.767C526.115,111.131,525.632,112.998,525.632,115.555z"/>
	<path fill="#58595B" d="M542.742,119.391l3.229-0.505c0.168,1.296,0.665,2.284,1.489,2.966c0.824,0.681,1.977,1.021,3.457,1.021
		c1.497,0,2.607-0.303,3.331-0.908s1.086-1.32,1.086-2.146c0-0.723-0.32-1.303-0.959-1.741c-0.438-0.285-1.549-0.647-3.331-1.085
		c-2.373-0.605-4.021-1.127-4.946-1.564c-0.926-0.438-1.624-1.047-2.095-1.829c-0.472-0.782-0.707-1.637-0.707-2.562
		c0-0.858,0.193-1.653,0.581-2.385c0.387-0.732,0.916-1.342,1.59-1.83c0.504-0.369,1.194-0.685,2.069-0.946
		c0.874-0.261,1.816-0.391,2.826-0.391c1.497,0,2.813,0.219,3.949,0.656s1.977,1.026,2.523,1.766
		c0.547,0.741,0.921,1.733,1.123,2.979l-3.18,0.429c-0.151-0.992-0.572-1.767-1.262-2.321c-0.69-0.556-1.666-0.833-2.928-0.833
		c-1.497,0-2.565,0.248-3.204,0.744c-0.64,0.496-0.959,1.072-0.959,1.729c0,0.438,0.134,0.825,0.403,1.161
		c0.269,0.337,0.682,0.622,1.236,0.858c0.337,0.117,1.296,0.396,2.877,0.832c2.305,0.605,3.912,1.106,4.82,1.502
		s1.623,0.968,2.145,1.716c0.521,0.749,0.782,1.678,0.782,2.788c0,1.077-0.319,2.095-0.959,3.054s-1.552,1.699-2.737,2.221
		c-1.187,0.521-2.536,0.782-4.051,0.782c-2.49,0-4.387-0.517-5.69-1.552C543.949,122.962,543.112,121.427,542.742,119.391z"/>
	<path fill="#58595B" d="M571.51,119.391l3.229-0.505c0.168,1.296,0.665,2.284,1.489,2.966c0.824,0.681,1.977,1.021,3.457,1.021
		c1.497,0,2.607-0.303,3.331-0.908s1.086-1.32,1.086-2.146c0-0.723-0.32-1.303-0.959-1.741c-0.438-0.285-1.549-0.647-3.331-1.085
		c-2.373-0.605-4.021-1.127-4.946-1.564c-0.926-0.438-1.624-1.047-2.095-1.829c-0.472-0.782-0.707-1.637-0.707-2.562
		c0-0.858,0.193-1.653,0.581-2.385c0.387-0.732,0.916-1.342,1.59-1.83c0.504-0.369,1.194-0.685,2.069-0.946
		c0.874-0.261,1.816-0.391,2.826-0.391c1.497,0,2.813,0.219,3.949,0.656s1.977,1.026,2.523,1.766
		c0.547,0.741,0.921,1.733,1.123,2.979l-3.18,0.429c-0.151-0.992-0.572-1.767-1.262-2.321c-0.69-0.556-1.666-0.833-2.928-0.833
		c-1.497,0-2.565,0.248-3.204,0.744c-0.64,0.496-0.959,1.072-0.959,1.729c0,0.438,0.134,0.825,0.403,1.161
		c0.269,0.337,0.682,0.622,1.236,0.858c0.337,0.117,1.296,0.396,2.877,0.832c2.305,0.605,3.912,1.106,4.82,1.502
		s1.623,0.968,2.145,1.716c0.521,0.749,0.782,1.678,0.782,2.788c0,1.077-0.319,2.095-0.959,3.054s-1.552,1.699-2.737,2.221
		c-1.187,0.521-2.536,0.782-4.051,0.782c-2.49,0-4.387-0.517-5.69-1.552C572.717,122.962,571.88,121.427,571.51,119.391z"/>
	<path fill="#58595B" d="M603.887,125.119v-2.826c-1.497,2.17-3.524,3.255-6.081,3.255c-1.145,0-2.204-0.214-3.18-0.644
		c-0.977-0.429-1.704-0.972-2.183-1.627c-0.479-0.656-0.813-1.464-0.997-2.423c-0.135-0.64-0.202-1.648-0.202-3.028V105.94h3.256
		v10.624c0,1.699,0.066,2.843,0.201,3.432c0.202,0.858,0.631,1.531,1.287,2.02c0.656,0.487,1.472,0.731,2.448,0.731
		c0.976,0,1.893-0.248,2.75-0.744c0.858-0.496,1.464-1.178,1.817-2.044c0.354-0.867,0.53-2.116,0.53-3.748V105.94h3.255v19.179
		H603.887z"/>
	<path fill="#58595B" d="M624.429,118.078l3.205,0.43c-0.354,2.204-1.25,3.928-2.688,5.173c-1.438,1.245-3.209,1.867-5.312,1.867
		c-2.625,0-4.736-0.857-6.334-2.573c-1.599-1.717-2.397-4.173-2.397-7.369c0-2.069,0.345-3.882,1.034-5.438
		c0.69-1.556,1.737-2.726,3.143-3.508c1.404-0.782,2.931-1.173,4.58-1.173c2.086,0,3.789,0.529,5.11,1.59
		c1.32,1.06,2.165,2.558,2.536,4.491l-3.155,0.479c-0.303-1.278-0.837-2.245-1.602-2.901c-0.767-0.656-1.688-0.984-2.764-0.984
		c-1.649,0-2.982,0.589-4,1.767s-1.526,3.037-1.526,5.577c0,2.573,0.492,4.445,1.476,5.614c0.984,1.17,2.275,1.754,3.874,1.754
		c1.278,0,2.343-0.391,3.192-1.173C623.65,120.917,624.192,119.711,624.429,118.078z"/>
	<path fill="#58595B" d="M642.926,118.078l3.205,0.43c-0.354,2.204-1.25,3.928-2.688,5.173c-1.438,1.245-3.209,1.867-5.312,1.867
		c-2.625,0-4.736-0.857-6.334-2.573c-1.599-1.717-2.397-4.173-2.397-7.369c0-2.069,0.345-3.882,1.034-5.438
		c0.69-1.556,1.737-2.726,3.143-3.508c1.404-0.782,2.931-1.173,4.58-1.173c2.086,0,3.789,0.529,5.11,1.59
		c1.32,1.06,2.165,2.558,2.536,4.491l-3.155,0.479c-0.303-1.278-0.837-2.245-1.602-2.901c-0.767-0.656-1.688-0.984-2.764-0.984
		c-1.649,0-2.982,0.589-4,1.767s-1.526,3.037-1.526,5.577c0,2.573,0.492,4.445,1.476,5.614c0.984,1.17,2.275,1.754,3.874,1.754
		c1.278,0,2.343-0.391,3.192-1.173C642.147,120.917,642.689,119.711,642.926,118.078z"/>
	<path fill="#58595B" d="M662.029,118.937l3.356,0.429c-0.521,1.952-1.502,3.47-2.94,4.556c-1.438,1.085-3.268,1.627-5.488,1.627
		c-2.81,0-5.034-0.861-6.675-2.586s-2.461-4.151-2.461-7.281c0-3.229,0.829-5.736,2.486-7.52c1.656-1.783,3.814-2.675,6.473-2.675
		c2.557,0,4.651,0.875,6.283,2.624c1.632,1.75,2.448,4.206,2.448,7.369c0,0.201-0.009,0.496-0.025,0.883h-14.309
		c0.118,2.104,0.711,3.714,1.779,4.833s2.41,1.678,4.025,1.678c1.194,0,2.212-0.311,3.053-0.934
		C660.877,121.317,661.541,120.316,662.029,118.937z M651.354,113.688h10.726c-0.151-1.615-0.564-2.826-1.237-3.634
		c-1.043-1.262-2.389-1.893-4.037-1.893c-1.498,0-2.755,0.501-3.772,1.501C652.015,110.664,651.456,112.006,651.354,113.688z"/>
	<path fill="#58595B" d="M668.187,119.391l3.229-0.505c0.168,1.296,0.665,2.284,1.489,2.966c0.824,0.681,1.977,1.021,3.457,1.021
		c1.497,0,2.607-0.303,3.331-0.908s1.086-1.32,1.086-2.146c0-0.723-0.32-1.303-0.959-1.741c-0.438-0.285-1.549-0.647-3.331-1.085
		c-2.373-0.605-4.021-1.127-4.946-1.564c-0.926-0.438-1.624-1.047-2.095-1.829c-0.472-0.782-0.707-1.637-0.707-2.562
		c0-0.858,0.193-1.653,0.581-2.385c0.387-0.732,0.916-1.342,1.59-1.83c0.504-0.369,1.194-0.685,2.069-0.946
		c0.874-0.261,1.816-0.391,2.826-0.391c1.497,0,2.813,0.219,3.949,0.656s1.977,1.026,2.523,1.766
		c0.547,0.741,0.921,1.733,1.123,2.979l-3.18,0.429c-0.151-0.992-0.572-1.767-1.262-2.321c-0.69-0.556-1.666-0.833-2.928-0.833
		c-1.497,0-2.565,0.248-3.204,0.744c-0.64,0.496-0.959,1.072-0.959,1.729c0,0.438,0.134,0.825,0.403,1.161
		c0.269,0.337,0.682,0.622,1.236,0.858c0.337,0.117,1.296,0.396,2.877,0.832c2.305,0.605,3.912,1.106,4.82,1.502
		s1.623,0.968,2.145,1.716c0.521,0.749,0.782,1.678,0.782,2.788c0,1.077-0.319,2.095-0.959,3.054s-1.552,1.699-2.737,2.221
		c-1.187,0.521-2.536,0.782-4.051,0.782c-2.49,0-4.387-0.517-5.69-1.552C669.394,122.962,668.557,121.427,668.187,119.391z"/>
	<path fill="#58595B" d="M686.685,119.391l3.229-0.505c0.168,1.296,0.665,2.284,1.489,2.966c0.824,0.681,1.977,1.021,3.457,1.021
		c1.497,0,2.607-0.303,3.331-0.908s1.086-1.32,1.086-2.146c0-0.723-0.32-1.303-0.959-1.741c-0.438-0.285-1.549-0.647-3.331-1.085
		c-2.373-0.605-4.021-1.127-4.946-1.564c-0.926-0.438-1.624-1.047-2.095-1.829c-0.472-0.782-0.707-1.637-0.707-2.562
		c0-0.858,0.193-1.653,0.581-2.385c0.387-0.732,0.916-1.342,1.59-1.83c0.504-0.369,1.194-0.685,2.069-0.946
		c0.874-0.261,1.816-0.391,2.826-0.391c1.497,0,2.813,0.219,3.949,0.656s1.977,1.026,2.523,1.766
		c0.547,0.741,0.921,1.733,1.123,2.979l-3.18,0.429c-0.151-0.992-0.572-1.767-1.262-2.321c-0.69-0.556-1.666-0.833-2.928-0.833
		c-1.497,0-2.565,0.248-3.204,0.744c-0.64,0.496-0.959,1.072-0.959,1.729c0,0.438,0.134,0.825,0.403,1.161
		c0.269,0.337,0.682,0.622,1.236,0.858c0.337,0.117,1.296,0.396,2.877,0.832c2.305,0.605,3.912,1.106,4.82,1.502
		s1.623,0.968,2.145,1.716c0.521,0.749,0.782,1.678,0.782,2.788c0,1.077-0.319,2.095-0.959,3.054s-1.552,1.699-2.737,2.221
		c-1.187,0.521-2.536,0.782-4.051,0.782c-2.49,0-4.387-0.517-5.69-1.552C687.892,122.962,687.055,121.427,686.685,119.391z"/>
</g>
<g>
	<path fill="#58595B" d="M43.439,69.402c-1.188,2.714-2.8,5.09-4.836,7.126c-2.036,2.036-4.426,3.648-7.169,4.836
		c-2.744,1.188-5.671,1.782-8.781,1.782c-3.168,0-6.124-0.594-8.866-1.782c-2.744-1.188-5.133-2.8-7.169-4.836
		c-2.036-2.036-3.648-4.412-4.836-7.126c-1.188-2.715-1.782-5.627-1.782-8.739V42.167c0-3.11,0.594-6.037,1.782-8.781
		c1.188-2.743,2.8-5.133,4.836-7.169c2.037-2.037,4.425-3.648,7.169-4.836c2.743-1.188,5.698-1.782,8.866-1.782
		c4.128,0,7.988,1.16,11.581,3.479c3.591,2.32,6.49,5.43,8.696,9.333l-6.363,3.563c-1.471-2.715-3.451-4.892-5.939-6.533
		c-2.49-1.64-5.147-2.46-7.975-2.46c-2.093,0-4.06,0.396-5.896,1.188c-1.839,0.793-3.451,1.881-4.836,3.267
		c-1.387,1.387-2.475,2.999-3.266,4.836c-0.793,1.839-1.188,3.805-1.188,5.896v18.496c0,2.093,0.395,4.059,1.188,5.896
		c0.791,1.838,1.879,3.436,3.266,4.793c1.385,1.358,2.998,2.433,4.836,3.224c1.837,0.793,3.803,1.188,5.896,1.188
		c2.092,0,4.058-0.395,5.896-1.188c1.837-0.791,3.449-1.866,4.836-3.224c1.385-1.357,2.474-2.955,3.267-4.793
		c0.792-1.837,1.188-3.803,1.188-5.896v-0.849h-13.49v-7.381h20.872v8.23C45.221,63.774,44.626,66.687,43.439,69.402z"/>
	<path fill="#58595B" d="M52.432,20.193h7.212v51.075c0,1.302,0.607,2.405,1.824,3.309c1.215,0.905,2.672,1.357,4.369,1.357v7.212
		c-1.867,0-3.606-0.312-5.218-0.934s-3.026-1.47-4.242-2.545c-1.217-1.074-2.178-2.333-2.885-3.775
		c-0.708-1.442-1.061-2.983-1.061-4.625V20.193z"/>
</g>
<g>
	<path fill="#58595B" d="M89.762,38.943c3.055,0,5.924,0.581,8.612,1.739c2.686,1.16,5.033,2.73,7.042,4.709
		c2.007,1.98,3.591,4.327,4.751,7.042c1.159,2.715,1.739,5.6,1.739,8.654c0,3.055-0.581,5.926-1.739,8.612
		c-1.16,2.687-2.744,5.02-4.751,7c-2.009,1.98-4.356,3.55-7.042,4.709c-2.688,1.158-5.557,1.739-8.612,1.739
		c-3.054,0-5.911-0.581-8.569-1.739c-2.66-1.159-4.993-2.729-7-4.709c-2.009-1.979-3.593-4.313-4.751-7
		c-1.16-2.686-1.739-5.557-1.739-8.612c0-3.054,0.579-5.939,1.739-8.654c1.159-2.715,2.743-5.062,4.751-7.042
		c2.007-1.979,4.34-3.549,7-4.709C83.851,39.524,86.708,38.943,89.762,38.943z M89.762,46.24c-2.036,0-3.959,0.382-5.769,1.145
		c-1.811,0.764-3.394,1.824-4.751,3.182s-2.418,2.942-3.182,4.751c-0.764,1.811-1.146,3.733-1.146,5.769
		c0,2.037,0.382,3.96,1.146,5.77c0.764,1.811,1.824,3.38,3.182,4.709c1.357,1.329,2.94,2.39,4.751,3.182
		c1.81,0.793,3.733,1.188,5.769,1.188s3.958-0.395,5.77-1.188c1.81-0.792,3.394-1.853,4.751-3.182
		c1.357-1.329,2.418-2.898,3.182-4.709c0.764-1.81,1.146-3.733,1.146-5.77c0-2.036-0.382-3.958-1.146-5.769
		c-0.764-1.81-1.824-3.394-3.182-4.751s-2.941-2.418-4.751-3.182C93.721,46.622,91.798,46.24,89.762,46.24z"/>
	<path fill="#58595B" d="M141.686,39.028c3.054,0,5.939,0.581,8.654,1.739c2.715,1.16,5.076,2.729,7.084,4.709
		c2.007,1.98,3.591,4.327,4.751,7.042c1.159,2.715,1.739,5.6,1.739,8.654s-0.581,5.911-1.739,8.569
		c-1.16,2.659-2.744,4.992-4.751,6.999c-2.008,2.009-4.369,3.593-7.084,4.752c-2.715,1.158-5.6,1.739-8.654,1.739
		s-5.911-0.581-8.569-1.739c-2.659-1.159-4.992-2.743-7-4.752c-2.008-2.007-3.592-4.34-4.751-6.999
		c-1.16-2.658-1.739-5.515-1.739-8.569V20.278h7.211v24.52c1.979-1.752,4.242-3.152,6.788-4.2
		C136.171,39.552,138.856,39.028,141.686,39.028z M141.686,46.324c-2.036,0-3.96,0.382-5.77,1.146
		c-1.811,0.764-3.38,1.824-4.708,3.182c-1.33,1.357-2.39,2.942-3.182,4.751c-0.793,1.811-1.188,3.733-1.188,5.769
		s0.395,3.96,1.188,5.77c0.792,1.811,1.852,3.38,3.182,4.708c1.328,1.33,2.898,2.39,4.708,3.182c1.81,0.792,3.733,1.188,5.77,1.188
		c2.092,0,4.043-0.396,5.854-1.188c1.81-0.792,3.379-1.853,4.709-3.182c1.328-1.328,2.375-2.898,3.139-4.708
		c0.764-1.81,1.146-3.733,1.146-5.77s-0.382-3.958-1.146-5.769c-0.764-1.81-1.811-3.394-3.139-4.751
		c-1.33-1.357-2.899-2.418-4.709-3.182C145.729,46.706,143.777,46.324,141.686,46.324z"/>
</g>
<g>
	<path fill="#58595B" d="M192.083,38.858c3.054,0,5.939,0.581,8.654,1.739c2.715,1.16,5.076,2.744,7.084,4.751
		c2.007,2.008,3.591,4.356,4.751,7.042c1.159,2.687,1.739,5.557,1.739,8.612v21.21h-7.381v-4.751
		c-1.98,1.754-4.229,3.126-6.745,4.115c-2.518,0.988-5.218,1.484-8.103,1.484c-3.054,0-5.911-0.581-8.569-1.739
		c-2.66-1.159-4.993-2.729-7-4.709c-2.008-1.979-3.592-4.313-4.751-7c-1.16-2.686-1.739-5.557-1.739-8.611
		c0-3.055,0.579-5.925,1.739-8.612c1.159-2.686,2.743-5.034,4.751-7.042c2.007-2.007,4.34-3.591,7-4.751
		C186.172,39.439,189.029,38.858,192.083,38.858z M192.083,46.155c-2.036,0-3.959,0.382-5.769,1.146
		c-1.811,0.763-3.381,1.824-4.709,3.182c-1.33,1.357-2.39,2.941-3.182,4.751c-0.793,1.811-1.188,3.733-1.188,5.77
		c0,2.036,0.395,3.959,1.188,5.769c0.792,1.811,1.852,3.38,3.182,4.709c1.328,1.329,2.898,2.39,4.709,3.182
		c1.81,0.793,3.733,1.188,5.769,1.188c2.092,0,4.043-0.395,5.854-1.188c1.809-0.792,3.379-1.853,4.708-3.182
		c1.329-1.329,2.375-2.898,3.139-4.709c0.764-1.81,1.146-3.733,1.146-5.769c0-2.037-0.382-3.958-1.146-5.77
		c-0.764-1.81-1.811-3.394-3.139-4.751c-1.33-1.358-2.899-2.418-4.708-3.182C196.126,46.537,194.175,46.155,192.083,46.155z"/>
	<path fill="#58595B" d="M222.372,20.193h7.212v51.075c0,1.302,0.607,2.405,1.824,3.309c1.215,0.905,2.672,1.357,4.369,1.357v7.212
		c-1.867,0-3.606-0.312-5.218-0.934s-3.026-1.47-4.242-2.545c-1.217-1.074-2.178-2.333-2.885-3.775
		c-0.708-1.442-1.061-2.983-1.061-4.625V20.193z"/>
</g>
<g>
	<path fill="#ED1C24" d="M265.255,20.193h4.412v62.105h-4.412V20.193z"/>
	<path fill="#ED1C24" d="M299.87,38.858c3.055,0,5.924,0.581,8.612,1.739c2.686,1.16,5.033,2.744,7.042,4.751
		c2.007,2.008,3.591,4.37,4.751,7.084c1.159,2.715,1.739,5.6,1.739,8.654v21.211h-4.412V61.087c0-2.431-0.467-4.736-1.4-6.915
		c-0.934-2.177-2.193-4.058-3.776-5.642c-1.584-1.583-3.465-2.842-5.642-3.775c-2.178-0.933-4.484-1.4-6.915-1.4
		c-2.433,0-4.723,0.467-6.872,1.4c-2.15,0.933-4.03,2.192-5.642,3.775c-1.612,1.584-2.885,3.465-3.818,5.642
		c-0.934,2.178-1.4,4.483-1.4,6.915v21.211h-4.412V61.087c0-3.054,0.58-5.939,1.739-8.654c1.159-2.715,2.743-5.076,4.751-7.084
		c2.007-2.007,4.354-3.591,7.042-4.751C293.944,39.439,296.815,38.858,299.87,38.858z"/>
	<path fill="#ED1C24" d="M350.86,38.858c3.055,0,5.925,0.581,8.611,1.739c2.687,1.16,5.034,2.744,7.042,4.751
		c2.008,2.008,3.592,4.37,4.752,7.084c1.158,2.715,1.739,5.6,1.739,8.654v21.211h-4.412V61.087c0-2.431-0.467-4.736-1.4-6.915
		c-0.933-2.177-2.192-4.058-3.775-5.642c-1.584-1.583-3.465-2.842-5.642-3.775c-2.179-0.933-4.483-1.4-6.915-1.4
		c-2.433,0-4.723,0.467-6.872,1.4c-2.15,0.933-4.03,2.192-5.642,3.775c-1.612,1.584-2.885,3.465-3.818,5.642
		c-0.934,2.178-1.4,4.483-1.4,6.915v21.211h-4.412V61.087c0-3.054,0.58-5.939,1.739-8.654c1.159-2.715,2.743-5.076,4.751-7.084
		c2.007-2.007,4.354-3.591,7.042-4.751C344.935,39.439,347.806,38.858,350.86,38.858z"/>
	<path fill="#ED1C24" d="M401.852,38.858c3.054,0,5.924,0.581,8.611,1.739c2.686,1.16,5.033,2.744,7.042,4.751
		c2.007,2.008,3.591,4.37,4.751,7.084c1.158,2.715,1.739,5.6,1.739,8.654c0,3.055-0.581,5.926-1.739,8.612
		c-1.16,2.687-2.744,5.035-4.751,7.042c-2.009,2.009-4.356,3.593-7.042,4.752c-2.688,1.158-5.558,1.739-8.611,1.739
		c-3.055,0-5.926-0.581-8.612-1.739c-2.687-1.159-5.034-2.743-7.042-4.752c-2.008-2.007-3.592-4.354-4.751-7.042
		c-1.16-2.686-1.739-5.557-1.739-8.612c0-3.054,0.579-5.939,1.739-8.654c1.159-2.715,2.743-5.076,4.751-7.084
		c2.008-2.007,4.355-3.591,7.042-4.751C395.926,39.439,398.797,38.858,401.852,38.858z M401.852,43.355
		c-2.49,0-4.809,0.467-6.957,1.4c-2.15,0.933-4.018,2.192-5.601,3.775c-1.584,1.584-2.842,3.465-3.775,5.642
		c-0.933,2.178-1.399,4.483-1.399,6.915c0,2.433,0.467,4.724,1.399,6.873c0.934,2.15,2.191,4.03,3.775,5.642
		c1.583,1.612,3.45,2.885,5.601,3.817c2.148,0.934,4.467,1.4,6.957,1.4c2.431,0,4.722-0.467,6.872-1.4
		c2.148-0.933,4.03-2.205,5.642-3.817c1.612-1.612,2.885-3.492,3.818-5.642c0.934-2.149,1.399-4.44,1.399-6.873
		c0-2.431-0.466-4.736-1.399-6.915c-0.934-2.177-2.206-4.058-3.818-5.642c-1.611-1.583-3.493-2.842-5.642-3.775
		C406.573,43.822,404.282,43.355,401.852,43.355z"/>
	<path fill="#ED1C24" d="M471.847,39.876l-18.241,42.421h-4.752l-18.241-42.421h4.836l15.781,36.822l15.78-36.822H471.847z"/>
	<path fill="#ED1C24" d="M499.42,38.773c3.054,0,5.938,0.581,8.653,1.739c2.715,1.16,5.076,2.744,7.085,4.751
		c2.007,2.009,3.591,4.37,4.751,7.084c1.158,2.715,1.739,5.6,1.739,8.654v21.21h-4.497v-7.891c-1.98,2.715-4.511,4.865-7.593,6.448
		c-3.084,1.583-6.463,2.376-10.139,2.376c-3.055,0-5.926-0.581-8.612-1.739c-2.687-1.159-5.034-2.743-7.042-4.751
		s-3.592-4.355-4.751-7.042c-1.16-2.686-1.739-5.557-1.739-8.611c0-3.055,0.579-5.939,1.739-8.654
		c1.159-2.715,2.743-5.076,4.751-7.084c2.008-2.007,4.355-3.591,7.042-4.751C493.494,39.354,496.365,38.773,499.42,38.773z
		 M499.42,43.27c-2.433,0-4.724,0.467-6.873,1.4s-4.029,2.193-5.642,3.775c-1.612,1.584-2.885,3.465-3.818,5.642
		c-0.933,2.178-1.399,4.483-1.399,6.915c0,2.433,0.467,4.723,1.399,6.872c0.934,2.15,2.206,4.03,3.818,5.642
		c1.612,1.612,3.492,2.885,5.642,3.818c2.149,0.933,4.44,1.399,6.873,1.399c2.431,0,4.736-0.467,6.914-1.399
		c2.177-0.934,4.059-2.206,5.643-3.818c1.583-1.612,2.842-3.492,3.775-5.642c0.934-2.149,1.399-4.439,1.399-6.872
		c0-2.432-0.466-4.737-1.399-6.915c-0.934-2.177-2.192-4.058-3.775-5.642c-1.584-1.583-3.466-2.842-5.643-3.775
		C504.156,43.737,501.851,43.27,499.42,43.27z"/>
	<path fill="#ED1C24" d="M528.859,28.932h4.412v11.114h16.035v4.412h-16.035v27.404c0,1.811,0.649,3.366,1.951,4.666
		c1.301,1.302,2.885,1.951,4.751,1.951c1.81,0,3.365-0.649,4.667-1.951c1.3-1.3,1.951-2.855,1.951-4.666h4.412
		c0,1.527-0.284,2.97-0.849,4.327c-0.566,1.357-1.357,2.531-2.376,3.521c-1.018,0.99-2.192,1.782-3.521,2.376
		c-1.33,0.594-2.758,0.891-4.285,0.891s-2.969-0.297-4.327-0.891c-1.357-0.594-2.531-1.386-3.521-2.376
		c-0.99-0.989-1.781-2.163-2.376-3.521c-0.594-1.357-0.891-2.8-0.891-4.327V28.932z"/>
	<path fill="#ED1C24" d="M557.45,18.666h4.412v7.212h-4.412V18.666z M557.45,39.876h4.412v42.421h-4.412V39.876z"/>
	<path fill="#ED1C24" d="M592.235,38.858c3.054,0,5.924,0.581,8.611,1.739c2.686,1.16,5.033,2.744,7.042,4.751
		c2.007,2.008,3.591,4.37,4.751,7.084c1.159,2.715,1.739,5.6,1.739,8.654c0,3.055-0.58,5.926-1.739,8.612
		c-1.16,2.687-2.744,5.035-4.751,7.042c-2.009,2.009-4.356,3.593-7.042,4.752c-2.688,1.158-5.558,1.739-8.611,1.739
		c-3.055,0-5.926-0.581-8.612-1.739c-2.687-1.159-5.034-2.743-7.042-4.752c-2.008-2.007-3.592-4.354-4.751-7.042
		c-1.16-2.686-1.739-5.557-1.739-8.612c0-3.054,0.579-5.939,1.739-8.654c1.159-2.715,2.743-5.076,4.751-7.084
		c2.008-2.007,4.355-3.591,7.042-4.751C586.31,39.439,589.181,38.858,592.235,38.858z M592.235,43.355
		c-2.49,0-4.809,0.467-6.957,1.4c-2.15,0.933-4.018,2.192-5.601,3.775c-1.584,1.584-2.842,3.465-3.775,5.642
		c-0.933,2.178-1.399,4.483-1.399,6.915c0,2.433,0.467,4.724,1.399,6.873c0.934,2.15,2.191,4.03,3.775,5.642
		c1.583,1.612,3.45,2.885,5.601,3.817c2.148,0.934,4.467,1.4,6.957,1.4c2.431,0,4.722-0.467,6.872-1.4
		c2.148-0.933,4.03-2.205,5.642-3.817c1.612-1.612,2.885-3.492,3.818-5.642c0.934-2.149,1.399-4.44,1.399-6.873
		c0-2.431-0.466-4.736-1.399-6.915c-0.934-2.177-2.206-4.058-3.818-5.642c-1.611-1.583-3.493-2.842-5.642-3.775
		C596.957,43.822,594.666,43.355,592.235,43.355z"/>
	<path fill="#ED1C24" d="M643.226,38.858c3.054,0,5.924,0.581,8.611,1.739c2.686,1.16,5.033,2.744,7.042,4.751
		c2.007,2.008,3.591,4.37,4.751,7.084c1.159,2.715,1.739,5.6,1.739,8.654v21.211h-4.412V61.087c0-2.431-0.466-4.736-1.399-6.915
		c-0.934-2.177-2.192-4.058-3.775-5.642c-1.584-1.583-3.466-2.842-5.643-3.775c-2.178-0.933-4.483-1.4-6.914-1.4
		c-2.433,0-4.724,0.467-6.873,1.4s-4.029,2.192-5.642,3.775c-1.612,1.584-2.885,3.465-3.818,5.642
		c-0.933,2.178-1.399,4.483-1.399,6.915v21.211h-4.412V61.087c0-3.054,0.579-5.939,1.739-8.654c1.159-2.715,2.743-5.076,4.751-7.084
		c2.008-2.007,4.355-3.591,7.042-4.751C637.3,39.439,640.171,38.858,643.226,38.858z"/>
	<path fill="#ED1C24" d="M683.017,62.784c-1.472,0-2.872-0.268-4.2-0.806c-1.33-0.537-2.489-1.273-3.479-2.206
		c-0.99-0.933-1.781-2.036-2.376-3.309c-0.594-1.273-0.918-2.644-0.976-4.115c-0.112-0.792-0.112-1.64,0-2.545
		c0.058-1.47,0.382-2.842,0.976-4.115c0.595-1.272,1.386-2.375,2.376-3.309c0.989-0.934,2.148-1.668,3.479-2.206
		c1.328-0.537,2.729-0.806,4.2-0.806h15.95v4.412h-15.95c-1.754,0-3.267,0.594-4.539,1.782c-1.273,1.188-1.967,2.659-2.079,4.412
		c-0.114,0.736-0.114,1.472,0,2.206c0.112,1.754,0.806,3.224,2.079,4.412c1.272,1.188,2.785,1.782,4.539,1.782h6.278h0.084
		c1.471,0,2.87,0.269,4.2,0.806c1.328,0.538,2.488,1.287,3.479,2.248c0.989,0.962,1.782,2.079,2.376,3.352
		c0.594,1.272,0.918,2.645,0.976,4.115v2.291v0.084v0.17c0,1.527-0.297,2.942-0.891,4.242c-0.595,1.302-1.4,2.447-2.419,3.437
		c-1.018,0.99-2.192,1.769-3.521,2.333c-1.33,0.566-2.758,0.849-4.284,0.849H672.92v-4.412h16.375c1.64,0,3.082-0.522,4.326-1.569
		c1.244-1.046,2.008-2.389,2.291-4.03c0-0.17,0.014-0.353,0.043-0.551c0.027-0.197,0.042-0.382,0.042-0.551v-1.782
		c-0.057-1.81-0.735-3.365-2.036-4.667c-1.302-1.3-2.856-1.951-4.666-1.951H683.017z"/>
</g>
</svg>
