<?xml version="1.0" encoding="utf-8"?>
<!-- Generator: Adobe Illustrator 16.0.0, SVG Export Plug-In . SVG Version: 6.00 Build 0)  -->
<!DOCTYPE svg PUBLIC "-//W3C//DTD SVG 1.1//EN" "http://www.w3.org/Graphics/SVG/1.1/DTD/svg11.dtd">
<svg version="1.1" id="Layer_1" xmlns="http://www.w3.org/2000/svg" xmlns:xlink="http://www.w3.org/1999/xlink" x="0px" y="0px"
	 width="434.127px" height="63.625px" viewBox="0 0 434.127 63.625" enable-background="new 0 0 434.127 63.625"
	 xml:space="preserve">
<path fill="#4D4D4F" d="M328.85,16.359c4.022,0,8.072,0,12.331,0c0,1.736,0,3.362,0,5.327c5.529-9.328,17.256-8.45,20.329-0.052
	c0.8-0.355,0.971-1.215,1.453-1.818c2.561-3.205,5.837-4.967,9.972-4.771c5.543,0.262,9.228,3.939,9.947,9.822
	c0.165,1.345,0.211,2.711,0.214,4.068c0.018,10.073,0.01,20.146,0.01,30.219c0,0.479-0.017,0.959-0.01,1.438
	c0.011,0.719-0.373,0.966-1.046,0.964c-3.438-0.009-6.875-0.025-10.313,0.008c-1.216,0.013-1.178-0.759-1.177-1.596
	c0.008-4.157,0.004-8.314,0.003-12.472c-0.001-4.638,0.006-9.273-0.009-13.91c-0.003-0.957-0.006-1.927-0.146-2.871
	c-0.289-1.945-1.347-3.07-2.954-3.3c-1.9-0.272-3.541,0.53-4.417,2.181c-0.735,1.387-0.839,2.896-0.839,4.427
	c0.004,7.273-0.001,14.55-0.003,21.825c0,1.358-0.076,2.724,0.021,4.075c0.097,1.322-0.499,1.617-1.687,1.601
	c-3.115-0.044-6.235-0.032-9.353,0.044c-1.125,0.027-1.563-0.285-1.531-1.469c0.072-2.637,0.022-5.276,0.021-7.914
	c0-6.076-0.004-12.15,0.002-18.229c0.001-1.121-0.026-2.235-0.271-3.337c-0.441-1.993-1.398-3.008-3.048-3.211
	c-1.933-0.238-3.494,0.559-4.364,2.266c-0.748,1.466-0.853,3.054-0.851,4.667c0.008,7.675,0.02,15.35-0.017,23.023
	c-0.007,1.328,0.601,3.028-0.354,3.896c-0.925,0.844-2.598,0.253-3.939,0.279c-2.157,0.047-4.317,0.031-6.477,0.006
	c-1.67-0.02-1.705-0.043-1.709-1.729c-0.015-7.275-0.007-14.55-0.007-21.824c0-6.556-0.003-13.11,0.005-19.667
	C328.643,17.699,328.532,17.05,328.85,16.359z"/>
<path fill="#4D4D4F" d="M178.938,39.258c-1.301,1.929-2.591,3.834-3.873,5.744c-0.48,0.719-0.341,1.543-0.343,2.334
	c-0.008,4.238-0.033,8.479,0.016,12.717c0.014,1.08-0.187,1.572-1.429,1.546c-3.677-0.08-7.357-0.067-11.036-0.006
	c-1.172,0.019-1.509-0.394-1.49-1.527c0.058-3.598,0.021-7.196,0.021-10.797c0-14.716,0-29.432,0-44.148
	c0-0.479-0.008-0.959,0.001-1.439c0.035-1.788,0.037-1.812,1.873-1.822c3.439-0.019,6.878-0.017,10.317-0.001
	c1.683,0.008,1.714,0.031,1.718,1.685c0.014,5.999-0.006,11.997,0.019,17.995c0.003,0.841-0.243,1.733,0.325,2.629
	c0.86-0.302,1.073-1.127,1.444-1.765c3.622-6.215,7.256-12.423,10.798-18.683c0.747-1.321,1.508-1.968,3.146-1.913
	c4.234,0.143,8.477,0.048,12.716,0.048c0.624,0,1.246,0,1.954,0c-0.193,1.037-0.744,1.62-1.159,2.266
	c-4.411,6.857-8.784,13.74-13.291,20.534c-0.98,1.477-0.954,2.576-0.178,4.103c5.11,10.042,10.127,20.128,15.155,30.21
	c0.378,0.758,0.914,1.469,1.021,2.604c-1.718,0-3.377,0-5.037,0c-3.439,0-6.879-0.053-10.316,0.028
	c-1.225,0.029-1.839-0.41-2.337-1.503c-2.85-6.252-5.759-12.478-8.674-18.699C179.977,40.706,179.83,39.886,178.938,39.258z"/>
<path fill="#4D4D4F" d="M299.815,20.502c0.588,0.083,0.716-0.146,0.819-0.326c2.739-4.792,9.568-6.005,14.041-4.669
	c4.562,1.363,6.757,4.858,7.689,9.274c0.329,1.558,0.455,3.159,0.452,4.768c-0.018,9.917-0.008,19.831-0.008,29.747
	c0,0.399-0.015,0.801-0.005,1.199c0.018,0.674-0.262,1.053-0.974,1.053c-3.519-0.002-7.036-0.004-10.556,0.009
	c-0.707,0.003-1.011-0.32-0.997-1.009c0.012-0.56-0.004-1.119-0.004-1.68c-0.001-7.916-0.008-15.832,0.005-23.748
	c0.002-1.365-0.047-2.724-0.337-4.056c-0.383-1.756-1.287-3.138-3.145-3.552c-1.832-0.409-3.512-0.018-4.819,1.418
	c-1.528,1.68-2.128,3.729-2.144,5.951c-0.029,3.998-0.02,7.996-0.021,11.994c-0.002,4.318,0.014,8.638-0.008,12.955
	c-0.008,1.676-0.041,1.705-1.734,1.719c-3.039,0.023-6.077,0.021-9.115,0.002c-1.614-0.012-1.645-0.04-1.648-1.77
	c-0.015-5.597-0.006-11.193-0.006-16.792c0-13.114,0-26.228,0-39.342c0-0.479,0.04-0.964-0.008-1.438
	c-0.104-1.016,0.275-1.41,1.339-1.392c3.197,0.054,6.396,0.064,9.595-0.003c1.257-0.026,1.63,0.394,1.614,1.652
	c-0.066,5.196-0.028,10.395-0.027,15.592C299.815,18.896,299.815,19.732,299.815,20.502z"/>
<path fill="#4D4D4F" d="M230.371,56.924c-2.396,3.445-5.275,5.188-8.815,5.772c-2.699,0.445-5.405,0.466-8.088-0.196
	c-3.797-0.938-6.378-3.254-7.594-6.948c-1.304-3.962-1.416-8.011-0.292-12.042c1.313-4.709,4.582-7.404,9.232-8.396
	c3.04-0.646,6.146-0.987,9.224-1.463c0.867-0.134,1.745-0.219,2.604-0.394c2.807-0.57,3.749-1.818,3.611-4.707
	c-0.116-2.44-1.501-3.795-4.166-4.037c-1.036-0.094-2.083-0.113-3.104,0.119c-2.27,0.517-3.625,1.991-4.044,4.23
	c-0.195,1.049-0.546,1.479-1.681,1.449c-3.035-0.079-6.074-0.054-9.11-0.014c-1.091,0.015-1.421-0.42-1.213-1.447
	c0.189-0.938,0.265-1.901,0.469-2.836c1.424-6.494,4.625-9.544,11.283-10.682c4.367-0.747,8.751-0.77,13.11,0.058
	c6.089,1.155,9.029,4.201,10.104,10.261c0.281,1.585,0.369,3.17,0.369,4.77c0,7.672-0.001,15.344,0.003,23.017
	c0.002,1.913-0.135,3.854,1.32,5.437c0.239,0.261,0.247,0.744,0.334,1.133c0.321,1.434,0.292,1.519-1.14,1.584
	c-2.954,0.135-5.909,0.238-8.865,0.312c-1.894,0.046-2.396-0.313-2.945-2.069C230.75,59.099,230.656,58.319,230.371,56.924z
	 M230.27,40.11c-2.814,0.589-5.464,1.143-8.111,1.694c-0.156,0.032-0.32,0.036-0.474,0.08c-1.933,0.563-3.171,1.792-3.583,3.788
	c-0.454,2.197-0.397,4.308,1.252,6.057c0.313,0.332,0.784,0.551,1.223,0.725c3.78,1.504,8.235-0.748,9.313-4.692
	C230.579,45.241,230.172,42.69,230.27,40.11z"/>
<path fill="#4D4D4F" d="M252.946,47.228c1.681,0,3.364,0.083,5.036-0.026c1.226-0.082,1.626,0.424,1.902,1.538
	c0.943,3.794,3.482,5.255,7.136,4.234c1.835-0.513,2.63-1.511,2.74-3.44c0.115-2.031-0.451-3.06-2.306-3.705
	c-1.809-0.63-3.67-1.104-5.515-1.627c-2.382-0.678-4.727-1.462-7.074-2.25c-4.612-1.55-7.029-4.811-7.641-9.5
	c-0.31-2.382-0.288-4.774,0.233-7.155c0.968-4.421,3.522-7.497,7.768-9.009c5.677-2.022,11.498-2.176,17.176-0.222
	c5.511,1.896,8.878,5.815,9.44,11.813c0.146,1.55,0.09,1.633-1.494,1.647c-3.199,0.029-6.396-0.018-9.596,0.023
	c-1.004,0.013-1.479-0.163-1.745-1.337c-0.773-3.419-5.862-4.841-8.515-2.491c-1.338,1.185-1.369,3.191-0.015,4.425
	c1.327,1.208,2.989,1.831,4.642,2.435c2.033,0.746,4.188,1.016,6.286,1.502c1.398,0.323,2.801,0.664,4.161,1.114
	c3.987,1.316,6.411,4.05,7.229,8.187c0.549,2.777,0.586,5.572,0.063,8.343c-1,5.323-4.288,8.679-9.396,10.146
	c-5.649,1.623-11.392,1.635-17.05,0.043c-6.134-1.727-9.588-6.281-9.871-12.652c-0.089-2.006-0.089-2.014,1.842-2.032
	C249.908,47.215,251.427,47.228,252.946,47.228z"/>
<path fill="#4D4D4F" d="M420.573,23.008c0.805-1.251,1.534-2.558,2.424-3.744c2.46-3.281,5.689-4.804,9.832-4.062
	c0.631,0.113,1.301,0.15,1.299,1.066c-0.01,4.701-0.005,9.402-0.005,14.123c-1.104,0.176-1.935-0.168-2.776-0.311
	c-6.176-1.045-10.342,2.038-11.1,8.209c-0.273,2.235-0.16,4.476-0.17,6.711c-0.021,4.961,0.003,9.92-0.014,14.879
	c-0.006,1.649-0.038,1.674-1.734,1.685c-3.039,0.019-6.079,0.022-9.117-0.002c-1.643-0.015-1.677-0.045-1.68-1.763
	c-0.012-9.52-0.006-19.037-0.006-28.556c0-4.399-0.011-8.798,0.005-13.198c0.006-1.748,0.032-1.782,1.645-1.795
	c3.119-0.025,6.24,0.058,9.356-0.038c1.357-0.042,1.606,0.528,1.557,1.696c-0.072,1.667-0.02,3.34-0.02,5.011
	C420.238,22.95,420.406,22.979,420.573,23.008z"/>
<path fill="#EC3B3F" d="M26.281,30.578c-0.891,0.699-0.968,1.62-1.234,2.406c-2.162,6.354-4.282,12.724-6.449,19.076
	c-0.27,0.791-0.207,1.97-1.194,2.183c-1.067,0.23-2.241,0.182-3.334,0.019c-0.847-0.126-0.808-1.114-1.023-1.761
	c-2.185-6.516-4.333-13.043-6.498-19.563c-0.321-0.966-0.673-1.921-1.373-2.863C5.13,30.786,5.051,31.5,5.05,32.215
	c-0.01,6.717,0,13.435-0.013,20.151c-0.003,1.945-0.029,1.979-1.979,1.973c-3.558-0.012-3.024,0.349-3.035-3.072
	C0,42.549,0.015,33.833,0.014,25.116c0-0.56,0.021-1.12,0.003-1.679c-0.024-0.831,0.415-1.129,1.187-1.124
	c1.438,0.01,2.879-0.012,4.317,0.001c1.889,0.018,1.9,0.023,2.489,1.815c2.246,6.832,4.479,13.667,6.73,20.499
	c0.241,0.732,0.32,1.56,1.045,2.194c0.814-0.577,0.872-1.491,1.13-2.262c2.233-6.666,4.433-13.344,6.659-20.013
	c0.845-2.532,0.583-2.219,3.168-2.234c1.198-0.007,2.398,0.027,3.598-0.003c0.942-0.024,1.297,0.426,1.232,1.317
	c-0.021,0.318-0.001,0.64-0.001,0.959c0,9.196,0.004,18.393-0.003,27.588c-0.001,2.137-0.018,2.178-2.018,2.162
	c-3.423-0.026-2.885,0.451-2.902-2.908c-0.03-6.077-0.002-12.155-0.019-18.232C26.629,32.413,26.808,31.599,26.281,30.578z"/>
<path fill="#4D4D4F" d="M401.625,38.924c0,6.88,0.007,13.759-0.005,20.639c-0.003,1.96-0.024,1.979-1.942,1.99
	c-2.88,0.017-5.76,0.017-8.64-0.001c-1.888-0.011-1.909-0.03-1.91-2.013c-0.009-9.84-0.004-19.679-0.004-29.518
	c0-4-0.014-7.999,0.006-11.999c0.009-1.708,0.039-1.74,1.69-1.754c3.04-0.025,6.079-0.027,9.119,0
	c1.641,0.015,1.675,0.05,1.679,1.777C401.634,25.006,401.625,31.966,401.625,38.924z"/>
<path fill="#EB383D" d="M148.508,33.458c0.301-2.612,0.301-2.617,2.224-2.636c0.868-0.009,1.735-0.001,2.479-0.001
	c0.41,0.731,0.336,1.3,0.336,1.854c0.002,6.635,0.002,13.268-0.007,19.9c-0.002,1.36-0.115,2.707-0.479,4.033
	c-0.926,3.365-3.018,5.605-6.403,6.479c-3.164,0.816-6.347,0.725-9.43-0.416c-2.223-0.82-3.802-2.322-4.343-4.727
	c-0.185-0.818-0.073-1.432,1.001-1.382c0.797,0.036,1.599,0.022,2.397-0.002c0.771-0.022,1.246,0.136,1.644,0.983
	c1.16,2.479,3.497,2.512,5.771,2.34c2.166-0.161,3.761-1.24,4.486-3.389c0.54-1.596,0.592-3.214,0.336-5.258
	c-2.034,2.432-4.433,3.167-7.195,3.079c-3.407-0.108-6.093-1.526-7.658-4.519c-2.684-5.123-2.571-10.346,0.399-15.307
	c2.129-3.556,6.49-4.987,10.496-3.885C146.077,31.026,147.227,31.948,148.508,33.458z M137.048,42.586
	c0.026,0.922,0.031,2.268,0.476,3.58c0.89,2.619,2.497,3.98,4.968,4.119c2.306,0.129,4.417-1.223,5.366-3.629
	c1.154-2.922,1.167-5.921,0.09-8.867c-0.756-2.067-2.316-3.135-4.544-3.274c-2.261-0.144-4.062,0.543-5.237,2.575
	C137.256,38.665,137.046,40.386,137.048,42.586z"/>
<path fill="#EB383D" d="M46.33,54.879c-6.425-0.066-10.302-3.582-11.015-9.971c-0.277-2.49-0.235-4.96,0.545-7.359
	c1.275-3.918,3.947-6.303,8.012-7.068c1.664-0.313,3.355-0.325,5.017-0.049c4.079,0.679,6.804,3.027,8.111,6.941
	c1.065,3.192,1.111,6.455,0.243,9.696C55.847,52.275,52.081,54.938,46.33,54.879z M52.663,42.445
	c0.057-1.704-0.284-3.416-1.116-5.004c-1.054-2.011-2.748-3.129-5.015-3.123c-2.228,0.006-4.086,0.931-5.106,2.981
	c-1.794,3.602-1.771,7.318,0.144,10.813c2.151,3.928,7.557,3.827,9.827-0.05C52.393,46.36,52.708,44.482,52.663,42.445z"/>
<path fill="#EC3B3F" d="M80.686,33.577c2.302-2.88,5.085-3.515,8.162-3.222c3.491,0.332,5.673,2.425,6.215,5.903
	c0.099,0.63,0.16,1.271,0.162,1.906c0.014,4.791,0.021,9.582,0.003,14.373c-0.007,1.75-0.041,1.803-1.666,1.799
	c-3.853-0.01-3.225,0.379-3.259-3.078c-0.034-3.435-0.008-6.867-0.009-10.301c0-0.56,0.012-1.119-0.01-1.677
	c-0.105-2.7-0.909-4.044-2.708-4.552c-2.201-0.621-4.824,0.361-6.11,2.296c-0.782,1.177-1.004,2.489-0.998,3.878
	c0.017,3.913,0.018,7.825-0.004,11.738c-0.01,1.652-0.044,1.705-1.749,1.693c-3.728-0.023-3.089,0.445-3.11-2.933
	c-0.038-5.987-0.02-11.978-0.007-17.966c0.006-3.025-0.276-2.588,2.739-2.613C80.326,30.807,80.327,30.837,80.686,33.577z"/>
<path fill="#EC3B3F" d="M114.197,33.515c2.156-2.699,4.769-3.379,7.695-3.194c3.916,0.248,6.517,2.596,6.651,6.51
	c0.188,5.432,0.063,10.873,0.098,16.311c0.006,0.967-0.442,1.197-1.327,1.188c-4.386-0.045-3.505,0.32-3.557-3.298
	c-0.05-3.519-0.011-7.036-0.012-10.557c0-0.319,0.003-0.64-0.004-0.959c-0.063-3.165-1.1-4.64-3.442-4.902
	c-2.818-0.317-5.415,1.306-6.1,3.931c-0.239,0.912-0.262,1.898-0.27,2.854c-0.029,3.758-0.046,7.518,0.004,11.275
	c0.017,1.209-0.337,1.703-1.635,1.67c-3.917-0.104-3.297,0.337-3.316-3.326c-0.03-6.078-0.018-12.155-0.002-18.232
	c0.005-1.932,0.036-1.932,2.019-1.963c0.16-0.002,0.319,0,0.479,0C113.727,30.821,113.727,30.821,114.197,33.515z"/>
<path fill="#434142" d="M53.505,23.027c-0.484-0.17-0.621,0.035-0.771,0.206c-5.065,5.777-13.63,4.985-17.248-1.781
	c-2.778-5.197-2.73-10.665,0.015-15.868c2.796-5.3,9.984-7.14,15.207-4.158c2.279,1.302,3.642,3.309,4.319,5.796
	c0.126,0.464,0.543,1.208-0.293,1.396c-0.725,0.163-1.646,0.39-1.977-0.725c-0.114-0.382-0.199-0.774-0.341-1.146
	c-0.973-2.536-2.788-3.991-5.496-4.392c-5.012-0.743-8.883,1.607-10.316,6.433c-1.028,3.466-0.99,6.964,0.312,10.357
	c1.729,4.512,5.857,6.642,10.384,5.476c3.581-0.923,6.11-4.316,6.013-7.992c-0.021-0.808-0.294-1.15-1.122-1.136
	c-1.838,0.031-3.678,0.017-5.516-0.001c-0.68-0.007-1.5,0.221-1.52-0.956c-0.018-1.063,0.607-1.116,1.401-1.11
	c2.638,0.019,5.276,0.024,7.914-0.002c0.786-0.008,1.158,0.219,1.151,1.083c-0.031,3.598-0.01,7.195-0.017,10.793
	c-0.001,0.46,0.075,0.997-0.606,1.094c-0.775,0.11-0.918-0.39-1.019-0.998C53.844,24.561,53.65,23.735,53.505,23.027z"/>
<path fill="#EC3B3F" d="M66.184,34.47c1.068-1.296,1.849-2.3,2.941-2.957c0.341-0.205,0.672-0.447,1.04-0.585
	c1.26-0.474,2.88-1.25,3.771-0.171c0.843,1.021,0.324,2.758,0.195,4.173c-0.055,0.6-0.692,0.511-1.159,0.563
	c-4.993,0.555-6.993,2.756-7.032,7.786c-0.024,3.19-0.042,6.384,0.014,9.572c0.02,1.146-0.372,1.54-1.521,1.515
	c-4.201-0.094-3.402,0.399-3.433-3.404c-0.048-5.981-0.021-11.965-0.011-17.948c0.005-2.179,0.023-2.207,2.262-2.186
	c2.451,0.023,2.79-0.511,2.704,2.478C65.947,33.534,66.041,33.767,66.184,34.47z"/>
<path fill="#434142" d="M108.613,24.294c-0.924,0.796-1.807,1.721-3.046,2.145c-3.845,1.317-7.744-0.242-9.409-3.963
	c-1.541-3.441-1.564-7.014-0.095-10.47c2.014-4.731,7.381-6.081,11.565-3.038c0.356,0.26,0.619,0.813,1.186,0.521
	c0.521-0.268,0.396-0.819,0.4-1.271c0.02-2.076,0.012-4.152,0.013-6.228c0-0.648-0.063-1.287,0.91-1.331
	c1.007-0.046,1.182,0.461,1.18,1.32c-0.019,7.664-0.009,15.328-0.012,22.992c0,0.702,0.159,1.446-1,1.473
	c-1.115,0.025-1.08-0.646-1.101-1.388C109.198,24.827,109.176,24.575,108.613,24.294z M109.244,17.146
	c-0.043-1.527-0.245-3.022-0.887-4.421c-0.995-2.17-2.69-3.294-5.091-3.287c-2.31,0.006-3.97,1.102-4.907,3.182
	c-1.271,2.822-1.304,5.721-0.187,8.597c0.821,2.113,2.368,3.343,4.69,3.485c2.398,0.146,4.163-0.869,5.307-2.949
	C108.957,20.325,109.199,18.753,109.244,17.146z"/>
<path fill="#434142" d="M76.628,17.014c-0.06-1.62,0.213-3.178,0.865-4.667c1.466-3.347,4.421-5.191,7.987-4.98
	c3.561,0.21,6.15,2.18,7.265,5.623c0.966,2.988,0.917,5.991-0.252,8.915c-1.287,3.221-3.991,4.968-7.483,4.962
	c-3.5-0.006-6.167-1.762-7.512-4.941C76.832,20.354,76.569,18.712,76.628,17.014z M79.02,17.05
	c-0.067,1.521,0.166,3.075,0.885,4.544c1.054,2.154,2.816,3.216,5.159,3.225c2.268,0.008,4.007-1.071,4.986-3.106
	c1.423-2.958,1.461-6.006,0.06-8.989c-1.002-2.134-2.72-3.231-5.141-3.203c-2.41,0.028-4.061,1.177-5.129,3.268
	C79.171,14.098,78.97,15.504,79.02,17.05z"/>
<path fill="#434142" d="M74.882,16.97c-0.056,1.438-0.089,2.543-0.402,3.638c-1.178,4.125-4.145,6.402-8.229,6.255
	c-4.109-0.148-7.103-2.836-7.846-7.052c-0.308-1.744-0.345-3.483-0.036-5.239c0.765-4.36,4.015-7.224,8.237-7.212
	c4.256,0.012,7.429,2.849,8.114,7.303C74.853,15.528,74.846,16.413,74.882,16.97z M72.632,16.962
	c-0.132-1.252-0.19-2.69-0.834-4.014c-1.069-2.193-2.723-3.453-5.26-3.426c-2.514,0.026-4.275,1.204-5.228,3.465
	c-1.271,3.024-1.21,6.1,0.373,8.983c2.082,3.79,7.363,3.85,9.67,0.198C72.328,20.627,72.534,18.899,72.632,16.962z"/>
<path fill="#EB383D" d="M104.558,42.661c0,3.197,0.011,6.396-0.004,9.596c-0.009,2.017-0.026,2.051-1.905,2.05
	c-3.395-0.004-2.918,0.28-2.93-2.946c-0.021-6.158-0.014-12.316-0.002-18.475c0.004-2.022,0.026-2.057,1.908-2.054
	c3.367,0.004,2.905-0.298,2.928,2.953C104.574,36.741,104.558,39.702,104.558,42.661z"/>
</svg>
