<?xml version="1.0" encoding="utf-8"?>
<!-- Generator: Adobe Illustrator 16.0.0, SVG Export Plug-In . SVG Version: 6.00 Build 0)  -->
<!DOCTYPE svg PUBLIC "-//W3C//DTD SVG 1.1//EN" "http://www.w3.org/Graphics/SVG/1.1/DTD/svg11.dtd">
<svg version="1.1" id="Layer_1" xmlns="http://www.w3.org/2000/svg" xmlns:xlink="http://www.w3.org/1999/xlink" x="0px" y="0px"
	 width="271.37px" height="258.653px" viewBox="0 0 271.37 258.653" enable-background="new 0 0 271.37 258.653"
	 xml:space="preserve">
<path fill-rule="evenodd" clip-rule="evenodd" fill="#554D88" d="M10.165,104.104c0-1.2,0-2.048,0-2.895
	c-0.021-21.518-0.029-43.036-0.075-64.553c-0.009-4.238-0.23-8.476-0.224-12.714c0.003-2.632,0.155-5.27,0.756-7.86
	c0.744-3.202,2.702-5.171,5.865-5.979c2.259-0.577,4.568-0.808,6.885-0.877c2.797-0.084,5.599-0.071,8.398-0.075
	c45.994-0.066,91.99,0.201,137.984-0.171c18.638-0.151,37.274-0.334,55.911-0.113c9.034,0.107,18.076,0.11,27.098,0.786
	c4.66,0.349,7.284,2.508,8.447,7.056c0.178,0.696,0.373,1.401,0.425,2.112c0.141,1.913,0.362,3.838,0.277,5.746
	c-0.258,5.758-0.224,11.515-0.211,17.274c0.053,23.677,0.218,47.354-0.006,71.032c-0.009,0.96-0.101,1.925-0.029,2.878
	c0.185,2.454-0.263,4.271-2.877,5.526c-2.096,1.006-3.729,2.973-5.567,4.512c-2.758,2.309-3.074,2.375-5.871,0.072
	c-2.778-2.287-5.438-4.716-8.151-7.08c-1.568-1.365-3.169-2.694-4.706-4.094c-2.31-2.102-4.971-2.771-8.001-2.147
	c-0.624,0.128-1.263,0.194-1.898,0.261c-2.56,0.27-4.716-0.554-6.498-2.402c-1.167-1.208-2.33-2.422-3.536-3.59
	c-0.803-0.777-1.636-1.535-2.529-2.201c-1.599-1.19-1.758-1.167-3.354-0.025c-2.285,1.636-4.189,3.708-6.313,5.531
	c-0.971,0.833-1.945,1.663-2.958,2.442c-1.584,1.218-3.256,1.188-4.919,0.17c-0.954-0.584-1.859-1.247-2.791-1.868
	c-12.849-8.547-25.728-17.052-38.521-25.681c-2.108-1.422-4.055-1.574-6.307-0.752c-2.187,0.797-4.258,1.823-6.314,2.895
	c-2.763,1.44-5.497,2.943-8.38,4.14c-1.33,0.552-2.691,0.992-4.09,1.355c-2.767,0.719-5.188,0.258-7.365-1.659
	c-2.162-1.901-4.246-3.955-6.648-5.503c-6.749-4.353-12.572-9.855-18.842-14.799c-5.275-4.16-10.426-8.476-15.637-12.717
	c-0.495-0.403-1.006-0.793-1.54-1.141c-4.96-3.231-8.823-3.191-13.415,0.517c-2.912,2.351-6.03,4.505-8.398,7.483
	c-0.194,0.245-0.451,0.453-0.711,0.632c-6.621,4.551-12.322,10.158-18.11,15.672c-1.325,1.263-2.886,2.274-4.272,3.476
	C26.92,90.172,20.725,95.603,14.501,101C13.257,102.081,11.997,103.165,10.165,104.104z"/>
<path fill-rule="evenodd" clip-rule="evenodd" fill="#59518A" d="M135.842,0c41.516,0,83.032,0,124.549,0
	c4.34,0,9.665,3.966,10.814,8.127c0.206,0.749,0.114,1.587,0.114,2.384c0.006,16.639,0.004,33.277,0.004,49.916
	c0,52.315,0,104.631,0,156.946c0,0.56,0.011,1.12-0.001,1.68c-0.04,1.798-0.044,1.798-1.892,1.822
	c-2.325,0.03-2.333,0.03-2.389-2.366c-0.417-18.156-0.236-36.312-0.174-54.471c0.17-49.275,0.134-98.551,0.172-147.827
	c0.002-2.237,0.02-4.473-0.513-6.68c-0.574-2.381-1.939-3.984-4.287-4.724c-2.076-0.654-4.214-0.952-6.381-0.947
	c-7.918,0.019-15.837,0.068-23.756,0.118c-3.279,0.021-6.559,0.105-9.838,0.104c-60.075-0.009-120.15-0.02-180.225-0.048
	c-7.999-0.004-15.998-0.114-23.996-0.16c-2.485-0.014-4.963,0.179-7.38,0.758c-3.713,0.891-5.265,2.62-5.688,6.46
	c-0.219,1.981-0.227,3.993-0.224,5.991c0.051,28.157,0.144,56.315,0.18,84.472c0.046,35.757,0.128,71.513-0.145,107.269
	c-0.026,3.438-0.17,6.876-0.303,10.313c-0.067,1.743-0.112,1.741-1.738,1.756c-2.339,0.021-2.374,0.015-2.476-2.369
	c-0.082-1.917-0.108-3.838-0.119-5.757C-0.17,148.695,0.109,84.621,0.174,20.546c0.004-3.675-0.146-7.353,0.291-11.026
	c0.283-2.376,1.348-4.195,3.164-5.698C8.228,0.018,8.213,0,14.172,0C54.729,0,95.286,0,135.842,0z"/>
<path fill-rule="evenodd" clip-rule="evenodd" fill="#59518A" d="M205.464,190.401c0.028,1.809-1.187,2.671-2.574,3.381
	c-3.201,1.638-6.407,3.266-9.621,4.878c-5.856,2.938-11.67,5.962-17.698,8.548c-6.68,2.865-13.684,4.328-20.892,4.979
	c-14.512,1.309-29.048,1.741-43.612,1.305c-3.835-0.115-7.676-0.086-11.502,0.324c-0.388,0.041-0.795,0.029-1.178-0.039
	c-5.687-1.015-11.454-1.179-17.195-1.467c-13.455-0.676-26.674-2.912-39.83-5.643c-7.748-1.609-15.365-3.728-22.968-5.908
	c-1-0.287-2.05-0.501-2.759-1.335c-0.465-0.548-0.916-1.242-0.53-1.96c0.322-0.599,1.024-0.279,1.539-0.204
	c4.902,0.713,9.806,1.424,14.698,2.199c7.025,1.114,14.037,2.335,21.111,3.089c3.211,0.343,2.881,0.604,2.904-2.52
	c0.029-3.838,0.043-7.678,0.029-11.516c-0.006-1.675-0.045-1.673-1.738-1.75c-1.273-0.059-2.559,0.062-3.811-0.315
	c-1.869-0.563-2.479-1.485-2.283-3.354c0.074-0.724,0.389-1.117,1.042-1.43c1.747-0.837,3.542-1.443,5.485-1.605
	c23.345-1.954,46.681-4.036,70.094-5.043c1.596-0.069,3.201-0.085,4.795,0.007c1.641,0.096,1.965,0.489,1.896,2.096
	c-0.092,2.146-1.148,3.787-2.838,5.047c-1.168,0.872-2.477,1.457-3.887,1.812c-0.824,0.207-1.123,0.7-1.116,1.559
	c0.046,5.678,0.085,11.356,0.042,17.034c-0.01,1.318,0.584,1.629,1.718,1.671c3.685,0.136,7.358-0.081,11.021-0.396
	c8.207-0.706,16.36-1.854,24.479-3.226c8.509-1.437,17.014-2.935,25.343-5.224c4.311-1.186,8.536-2.677,12.813-3.986
	c1.448-0.443,2.931-0.79,4.413-1.109C203.693,190.12,204.569,189.902,205.464,190.401z M89.514,185.471
	c-8.794,0.192-17.568,0.955-26.373,0.843c-2.529-0.032-2.905,0.356-2.953,2.901c-0.064,3.358-0.104,6.718-0.124,10.077
	c-0.005,0.877,0.022,1.767,0.167,2.629c0.198,1.176,0.871,1.537,2.283,1.563c1.186,0.022,1.199-0.844,1.328-1.608
	c0.092-0.547,0.078-1.115,0.088-1.675c0.022-1.359,0.018-2.719,0.051-4.078c0.018-0.666,0.131-1.342,0.998-1.359
	c0.955-0.019,2.303-0.342,2.787,0.149c1.151,1.17,2.779,1.561,3.832,2.739c0.256,0.286,0.164,0.917,0.163,1.389
	c-0.005,1.279-0.013,2.561-0.085,3.838c-0.051,0.898,0.307,1.343,1.199,1.391c0.479,0.025,0.955,0.108,1.434,0.128
	c13.668,0.555,27.34,0.844,41.016,0.258c2.221-0.095,2.182-0.111,2.404-2.305c0.56-5.516,0.027-11.029,0.037-16.543
	c0.002-1.284-0.621-1.437-1.643-1.373c-2.235,0.14-4.472,0.257-6.709,0.34C102.782,185.018,96.148,185.241,89.514,185.471z"/>
<path fill-rule="evenodd" clip-rule="evenodd" fill="#59518A" d="M254.31,249.423c1.713-6.59,4.757-12.647,6.167-19.221
	c0.256-1.189,0.641-1.786,1.981-1.7c1.832,0.117,3.678,0.067,5.516,0.016c1.027-0.028,1.386,0.36,1.419,1.389
	c0.274,8.556,1.26,17.061,1.886,25.591c0.182,2.47,0.32,2.313-2.001,2.247c-1.401-0.04-3.166,0.649-4.108-0.382
	c-0.827-0.903-0.328-2.606-0.395-3.955c-0.262-5.351-0.469-10.703-0.72-16.055c-0.027-0.59,0.188-1.267-0.348-1.772
	c-0.666,0.113-0.641,0.671-0.74,1.066c-1.264,5.051-3.146,9.893-4.931,14.77c-0.631,1.723-1.155,3.486-1.659,5.252
	c-0.204,0.713-0.503,1.153-1.296,1.093c-0.08-0.007-0.16-0.003-0.24,0.002c-3.371,0.228-3.308,0.207-4.352-3.004
	c-1.259-3.874-2.64-7.707-3.967-11.559c-0.881-2.552-1.561-5.165-2.291-8.208c-0.701,1.098-0.58,1.938-0.62,2.715
	c-0.306,5.989-0.585,11.979-0.883,17.969c-0.103,2.067-0.115,2.066-2.149,2.088c-3.851,0.04-3.839,0.041-3.427-3.719
	c0.873-7.944,2.114-15.846,2.725-23.818c0.101-1.304,0.535-1.792,1.867-1.721c1.914,0.103,3.838,0.043,5.756,0.022
	c0.752-0.009,1.136,0.234,1.274,1.047C249.931,236.373,252.824,242.699,254.31,249.423z"/>
<path fill-rule="evenodd" clip-rule="evenodd" fill="#59518A" d="M144.572,242.722c0.036,4.793-1.497,8.965-5.109,12.202
	c-4.269,3.825-9.274,4.676-14.522,2.697c-5.131-1.934-8.015-5.953-8.684-11.4c-0.641-5.232,0.387-10.056,4.193-13.959
	c4.293-4.403,9.532-5.536,15.184-3.474c5.659,2.065,8.431,6.562,8.933,12.496C144.606,241.761,144.572,242.244,144.572,242.722z
	 M122.338,242.692c-0.094,3.492,0.687,6.584,3.307,8.972c3.029,2.76,7.291,2.54,10.034-0.491c3.602-3.978,3.671-11.699,0.13-15.724
	c-0.366-0.417-0.777-0.807-1.216-1.146c-3.012-2.324-6.899-1.999-9.491,0.793C123.092,237.26,122.34,239.888,122.338,242.692z"/>
<path fill-rule="evenodd" clip-rule="evenodd" fill="#59518A" d="M27.227,241.272c-0.891-0.94-1.656-1.645-2.298-2.446
	c-2.787-3.478-1.932-7.646,2.037-9.632c3.109-1.557,6.338-1.64,9.476-0.093c4.034,1.988,4.574,7.004,1.152,9.942
	c-0.589,0.506-1.388,0.763-1.94,1.64c1.701,1.328,3.363,2.663,4.878,4.162c0.742,0.734,1.125,0.258,1.311-0.485
	c0.192-0.773,0.403-1.563,0.427-2.351c0.029-0.993,0.35-1.462,1.408-1.415c1.344,0.061,2.693,0.015,4.191,0.015
	c-0.326,2.432-1.646,4.147-2.799,5.927c-1.01,1.56-1.052,1.537,0.143,2.936c1.51,1.769,2.832,3.671,3.994,5.681
	c0.428,0.74,1.043,1.442,0.85,2.425c-0.77,0.354-1.587,0.07-2.361,0.196c-2.644,0.429-4.617-0.212-5.486-3.054
	c-0.217-0.71-0.711-1.438-1.52-1.811c-0.928,0.381-1.369,1.296-2.059,1.938c-3.588,3.336-7.756,4.353-12.42,2.976
	c-3.788-1.118-5.788-4.436-5.237-8.336c0.438-3.109,1.953-5.536,4.631-7.211C26.073,241.982,26.545,241.693,27.227,241.272z
	 M26.597,248.763c0.028,3.218,1.878,5.314,4.813,5.448c2.984,0.137,5.1-1.557,6.938-3.67c0.375-0.432,0.227-0.903-0.142-1.286
	c-2.1-2.191-4.157-4.426-6.862-5.925c-0.734-0.406-1.31-0.35-1.98,0.098C27.368,244.758,26.729,246.739,26.597,248.763z
	 M31.914,231.789c-1.966-0.03-3.388,1.177-3.392,2.879c-0.004,1.645,2.504,4.347,3.955,4.261c1.25-0.073,2.678-2.126,2.66-3.824
	C35.116,233.057,33.913,231.819,31.914,231.789z"/>
<path fill-rule="evenodd" clip-rule="evenodd" fill="#59518A" d="M192.675,243.288c5.003,3.659,5.916,9.268,8.339,14.477
	c-2.135,0-3.808-0.044-5.477,0.017c-0.97,0.034-1.413-0.361-1.708-1.262c-0.745-2.275-1.591-4.515-2.538-6.721
	c-1.646-3.833-4.027-3.693-7.013-3.623c-0.957,0.023-0.899,0.715-0.895,1.355c0.021,2.719,0.061,5.437,0.081,8.155
	c0.015,2.054,0.007,2.054-2.103,2.079c-4.136,0.049-4.139,0.049-3.989-3.956c0.28-7.515,0.307-15.027-0.028-22.541
	c-0.024-0.56-0.032-1.119-0.054-1.679c-0.026-0.68,0.276-1.057,0.977-1.044c4.395,0.078,8.793-0.34,13.184,0.101
	c0.395,0.04,0.779,0.175,1.168,0.268c2.863,0.686,5.029,2.169,5.506,5.273c0.487,3.179-0.508,5.843-3.206,7.739
	C194.272,242.381,193.564,242.752,192.675,243.288z M183.295,237.247c0.021,0,0.041,0,0.062,0.001c0,1.193-0.001,2.386,0.001,3.579
	c0.002,0.584,0.052,1.14,0.836,1.162c1.913,0.054,3.832,0.121,5.634-0.686c1.937-0.867,2.949-2.765,2.642-4.87
	c-0.282-1.924-1.564-3.2-3.646-3.559c-0.623-0.107-1.269-0.135-1.902-0.124c-4.691,0.079-3.906-0.173-3.671,3.782
	C183.264,236.771,183.281,237.008,183.295,237.247z"/>
<path fill-rule="evenodd" clip-rule="evenodd" fill="#59518A" d="M77.04,229.132c-2.938,4.155-6.339,7.928-9.963,11.482
	c4.926,4.971,8.242,10.849,11.902,17.145c-2.598,0-4.641-0.021-6.684,0.011c-0.82,0.013-1.038-0.519-1.332-1.118
	c-1.586-3.236-3.484-6.291-5.581-9.217c-0.647-0.903-1.423-1.723-2.192-2.529c-0.381-0.4-0.883-0.751-1.497-0.514
	c-0.708,0.273-0.493,0.935-0.483,1.449c0.055,3.276,0.152,6.553,0.218,9.83c0.041,2.065,0.026,2.069-2.085,2.092
	c-0.96,0.01-1.924-0.054-2.877,0.015c-1.096,0.079-1.348-0.414-1.314-1.418c0.105-3.115,0.181-6.233,0.176-9.351
	c-0.009-5.596-0.082-11.191-0.133-16.787c-0.015-1.652-0.02-1.702,1.703-1.675c1.42,0.021,3.195-0.6,4.17,0.3
	c1.021,0.941,0.229,2.722,0.241,4.131c0.017,1.998-0.077,3.996-0.101,5.994c-0.004,0.372-0.062,0.822,0.467,0.969
	c0.356,0.1,0.628-0.073,0.853-0.296c0.509-0.505,1.026-1.009,1.481-1.562c2.137-2.595,4.146-5.29,5.834-8.194
	c0.614-1.056,1.284-1.452,2.463-1.38c1.486,0.09,2.98,0.021,4.472,0.021C76.864,228.732,76.952,228.932,77.04,229.132z"/>
<path fill-rule="evenodd" clip-rule="evenodd" fill="#59518A" d="M166.545,238.025c0-2.639,0-5.277,0-7.916
	c-0.001-1.528,0-1.595,1.586-1.558c1.406,0.033,3.18-0.634,4.121,0.35c0.849,0.888,0.177,2.6,0.183,3.945
	c0.017,3.838-0.024,7.677-0.064,11.516c-0.026,2.577-0.393,5.1-1.368,7.504c-1.515,3.734-4.294,5.858-8.269,6.441
	c-1.51,0.222-3.014,0.27-4.54,0.092c-5.642-0.658-8.678-3.419-9.675-8.973c-0.268-1.491-0.46-3.014-0.489-4.525
	c-0.096-4.877-0.11-9.756-0.131-14.634c-0.007-1.683,0.027-1.737,1.725-1.718c1.419,0.017,3.191-0.606,4.167,0.306
	c1.008,0.943,0.286,2.727,0.283,4.135c-0.012,4.476-0.354,8.951-0.001,13.429c0.088,1.121,0.238,2.225,0.571,3.3
	c0.887,2.862,2.901,4.274,5.945,4.174c2.95-0.098,4.795-1.538,5.52-4.401c0.354-1.395,0.586-2.816,0.578-4.269
	c-0.013-2.399-0.004-4.799-0.004-7.197C166.637,238.025,166.591,238.025,166.545,238.025z"/>
<path fill-rule="evenodd" clip-rule="evenodd" fill="#59518A" d="M231.526,233.684c-2.376-0.604-4.716-1.063-7.126-0.908
	c-0.798,0.052-1.591,0.076-2.361,0.343c-1.03,0.356-1.916,0.843-2.1,2.047c-0.19,1.245,0.341,2.185,1.325,2.88
	c1.116,0.789,2.387,1.288,3.639,1.812c1.918,0.803,3.828,1.611,5.513,2.863c2.576,1.916,3.754,4.472,3.588,7.677
	c-0.17,3.285-1.775,5.552-4.759,6.876c-2.01,0.893-4.159,1.123-6.313,1.262c-2.725,0.177-5.416-0.137-8.096-0.665
	c-1.046-0.207-1.33-0.695-1.104-1.655c0.184-0.776,0.357-1.557,0.494-2.342c0.166-0.955,0.502-1.395,1.605-1.002
	c1.429,0.51,2.95,0.69,4.468,0.814c1.767,0.144,3.523,0.02,5.249-0.318c1.119-0.218,2.164-0.715,2.47-1.984
	c0.311-1.289-0.143-2.373-1.099-3.233c-1.205-1.086-2.688-1.709-4.144-2.366c-1.819-0.821-3.671-1.578-5.28-2.797
	c-1.791-1.355-3.024-3.053-3.338-5.332c-0.581-4.233,1.287-7.349,5.368-8.741c3.902-1.33,7.885-0.935,11.859-0.35
	c0.784,0.116,1.14,0.542,0.967,1.32C232.079,231.111,232.089,232.406,231.526,233.684z"/>
<path fill-rule="evenodd" clip-rule="evenodd" fill="#59518A" d="M100.602,245.55c0-3.274,0.033-6.551-0.01-9.825
	c-0.035-2.779,0.236-2.684-2.836-2.565c-1.517,0.059-3.035,0.087-4.55,0.173c-0.901,0.051-1.382-0.248-1.271-1.216
	c0.018-0.158,0.01-0.319,0.02-0.479c0.235-3.847-0.084-3.07,3.124-3.094c5.991-0.045,11.983-0.021,17.974-0.009
	c2.035,0.004,2.073,0.027,1.98,1.92c-0.174,3.515,0.205,2.828-3.049,2.788c-1.197-0.015-2.395-0.113-3.592-0.124
	c-1.807-0.017-1.863,0.002-1.861,1.864c0.004,6.47,0.053,12.94,0.084,19.411c0.019,3.943,0.556,3.3-3.422,3.369
	c-0.4,0.007-0.805-0.041-1.197,0.008c-1.316,0.163-1.598-0.491-1.578-1.679c0.061-3.514,0.021-7.028,0.021-10.543
	C100.495,245.55,100.549,245.55,100.602,245.55z"/>
<path fill-rule="evenodd" clip-rule="evenodd" fill="#59518A" d="M0.759,253.237c1.56,0.253,2.951,0.529,4.385,0.362
	c2.153-0.251,3.493-1.355,4.163-3.4c0.559-1.706,0.604-3.46,0.589-5.213c-0.039-4.794-0.133-9.588-0.2-14.381
	c-0.028-2.049-0.021-2.052,2.089-2.071c0.879-0.009,1.76,0.041,2.636-0.011c1.087-0.063,1.338,0.456,1.316,1.45
	c-0.127,5.671-0.195,11.344-0.306,17.015c-0.032,1.604-0.347,3.169-0.801,4.71c-1.051,3.565-3.411,5.685-7.043,6.381
	c-1.9,0.364-3.817,0.257-5.733,0.122c-1.117-0.079-1.528-0.604-1.357-1.727C0.652,255.466,0.668,254.437,0.759,253.237z"/>
<path fill-rule="evenodd" clip-rule="evenodd" fill="#59518A" d="M203.486,243.249c0-4.394,0.04-8.787-0.027-13.18
	c-0.017-1.109,0.186-1.646,1.408-1.555c1.112,0.083,2.237-0.009,3.354,0.024c1.519,0.046,1.577,0.068,1.499,1.691
	c-0.411,8.626-0.337,17.251,0.013,25.877c0.064,1.586,0.005,1.603-1.55,1.65c-0.957,0.03-1.917,0.018-2.875,0.005
	c-1.869-0.026-1.84-0.032-1.832-1.813c0.019-4.234,0.006-8.468,0.006-12.701C203.483,243.249,203.485,243.249,203.486,243.249z"/>
</svg>
