<?xml version="1.0" encoding="utf-8"?>
<!-- Generator: Adobe Illustrator 16.0.0, SVG Export Plug-In . SVG Version: 6.00 Build 0)  -->
<!DOCTYPE svg PUBLIC "-//W3C//DTD SVG 1.1//EN" "http://www.w3.org/Graphics/SVG/1.1/DTD/svg11.dtd">
<svg version="1.1" id="Layer_1" xmlns="http://www.w3.org/2000/svg" xmlns:xlink="http://www.w3.org/1999/xlink" x="0px" y="0px"
	 width="248.414px" height="126.712px" viewBox="0 0 248.414 126.712" enable-background="new 0 0 248.414 126.712"
	 xml:space="preserve">
<rect x="0.619" fill-rule="evenodd" clip-rule="evenodd" fill="#006432" width="247.341" height="90.615"/>
<path fill-rule="evenodd" clip-rule="evenodd" fill="#FDFDFD" d="M60.37,35.234c1.4-0.05,4.347-1.964,5.113-2.566
	c0.691-0.542,1.373-1.071,1.971-1.774c0.517-0.608,0.94-1.449,1.528-2.043l-0.019,5.775c0.363-0.269,0.412-0.162,0.382-1.477
	c-0.011-0.495-0.013-0.982-0.013-1.477c0-1.039,0-2.079,0-3.118c-1.864,0.084-2.168,0.5-3.866,0.202
	c-0.054-0.01-0.126-0.023-0.188-0.039l0.529,0.985c0.042,0.039,0.171,0.162,0.215,0.207l0.371,0.413
	c-0.613,0.183-0.778,0.226-0.772,0.037l-0.182,0.979c-1.448,0.504-0.404-0.238-1.386,0.754l-1.671,0.801
	c-0.001-0.37-0.008-0.317-0.087,0.053c-0.142,0.66-0.357,0.421,0.065,0.896c-0.701,0.413-0.796,0.322-0.861,0.324l-0.651,0.184
	c-0.494,0.497-0.842,0.555-0.484,0.332C60.433,34.945,60.432,34.832,60.37,35.234 M180.574,22.15
	c2.141-0.157,0.283,0.434,2.116-0.421c0.262,0.592,0.173,0.49-0.054,1.184l0.576-0.27c0.033-0.007,0.118-0.001,0.139-0.002
	l0.113,0.003c-0.521,0.161-0.547,0.022-0.656,0.646c-0.06,0.338,0.048,0.396,0.191,0.805c1.12-0.862,0.517-1.595,3.828-3.518
	c2.658-1.544,4.719-1.653,5.439-2.277l-2.725-0.458c-0.551-0.116-0.357,0.165-0.584-0.255c-0.258-0.477-0.053,0.058-0.062-0.544
	c-0.005-0.387,0.033-0.339-0.027-0.445C185.91,17.403,181.532,20.185,180.574,22.15z M180.904,29.969
	c0.692,1.451,3.714,3.318,5.481,4.142c2.021,0.942,4.823,2.03,7.313,2.462c-0.166-0.6-0.534-0.852,0.084-1.15
	c-1.021-0.378-0.502,0.121-2.386-0.425c-0.425-0.123-1.293-0.204-1.363-1.188c-0.006-0.072-0.011-0.097-0.002-0.144
	c0.045-0.003,0.107,0.011,0.135,0.015l2.482,0.225c1.135,0.168,2.656,0.484,3.587,0.274c-0.841-0.483-8.261-1.02-12.067-5.08
	c-1.164-1.241-1.508-2.394-1.301-4.322c-0.192,0.185-0.357,0.07-0.396,1.146c-0.078,2.175,0.633,1.69-0.166,3.121
	c0.918,0.102,0.351,0.685-0.027,0.843c-0.848,0.356-0.142-0.657-0.745,0.143C181.331,29.929,181.792,29.809,180.904,29.969z
	 M60.37,35.234l-0.881-0.135c0.446-0.527-0.395-0.438,0.19-0.965c-0.568,0-1.363-0.072-1.889-0.011l-1.589,0.503
	c-0.395,0.048-0.008-0.194-0.289,0.494c0.519,0.364,0.09,0.24,1.061,0.165l-0.379,0.217c-0.56,0.318-0.485,0.116-0.469,0.541
	c0.021,0.565,0.063,0.243,0.077,0.227l-2.036,0.481c-0.018,0.008-0.062,0.035-0.081,0.042l-0.387,0.076
	c-1.096,0.161-0.436,0.166-0.519-0.018l-1.034-0.271c-0.19,0.543-0.408-0.036,0.045,0.376c0.424,0.387,0.271,0.044,0.343-0.032
	c-0.038,0.019-0.084,0.027-0.099,0.072c-0.07,0.22-0.816,0.249-1.062,0.259c-1.378,0.054-0.86,0.065-1.496,0.297
	c-0.444,0.162-1.121,0.31-1.608,0.288c-1.499-0.065-0.313-0.214-1.392-0.438c-1.088-0.227-1.493-0.105-2.283-0.141l-3.648-1.048
	c-0.383,0.391-0.224,0.69-2.531,0.558c-0.842-0.048-0.67-0.113-1.151-0.25c-0.481-0.138-0.882-0.09-1.531-0.09
	c0.211-0.686-0.027-1.211,0.961-1.285c1.042-0.078,1.328,0.612,3.66,0.257c0.025-0.004,0.772-0.135,1.143-0.144l0.938,0.07
	c0.043,0.008,0.097,0.024,0.139,0.032c0.04,0.008,0.094,0.025,0.133,0.032c0.036,0.006,0.091,0.022,0.126,0.026
	c0.643,0.084,0.914-0.299,2.94-0.299c0.212,0.405-0.156,0.288,0.311,0.274c0.57-0.017-0.071,0.107,0.463-0.275
	c-0.054-0.03-0.044-0.027-0.364-0.138l-0.271-0.089c-0.029-0.01-0.094-0.026-0.137-0.047c0.614-0.077,0.396-0.044,0.772-0.22
	c0.124,0.145-0.009,0.332,0.486,0.466c0.228,0.062,0.795,0.029,1.06,0.028c0-0.723-0.098-0.528,0.224-1.149l1.125-0.001l0.001-0.382
	c0.127,0.684,0.206,0.47,1.158,0.546c0.013-0.054,0.063-0.283,0.054-0.316c-0.007-0.028-0.016-0.103-0.026-0.132
	c-0.012-0.036-0.116-0.165-0.156-0.208l0.351,0.234c0.549,0.215,1.615,0.104,2.482,0.095l-0.04-0.352
	c0.005-0.027,0.018-0.096,0.04-0.141c1.898,0.227,0.095,0.89,1.544,0.493c0.467-0.102-0.079,0.036,0.452-0.42
	c0.708-0.609,0.493,0.208,0.515-0.729c0.446-0.03-0.072,0.162-0.528-0.767c-0.492-0.999-0.408-0.784-0.245-0.849
	c0.24,0.36-0.178,0.045,0.269,0.289c0.342,0.187-0.099-0.015,0.503,0.176l0.201-0.431c0.184-0.691-0.139-0.836-0.285-1.197
	l-0.254,0.162c-2.458,1.696-3.066,2.293-6.654,3.409c-8.222,2.555-20.055,1.797-26.554-2.318c-1.802-1.141-4.167-3.521-2.9-6.478
	c0.869-2.027,3.327-3.563,5.513-4.503c5.79-2.487,11.956-2.625,19.026-2.021c-0.016-0.053-0.1-0.276-0.106-0.318
	c-0.022-0.158-0.057-0.04-0.045-0.292c0.016-0.344,0.083-0.359,0.276-0.622c-1.419,0.091-1.495,0.227-1.812-0.131
	c-0.024-0.027-0.159-0.19-0.169-0.215l0.018-0.164c0.418-0.433,0.082-0.026,0.1-0.027l0.126,0.044
	c-2.241-0.341-1.355-0.048-1.93-0.655h3.469c-0.105,0.903,0.421,0.613-0.381,0.821c0.518-0.091,0.547-0.152,1.332-0.17
	c0.57-0.013,1.183,0.006,1.759,0.006l0.001-0.658c0.952-0.166,0.433,0.343,0.772-0.491l1.034,0.202
	c0.915,0.075,1.021-0.472,2.031-0.146c1.754,0.568,0.996,0.309,2.37,0.193c0.425-0.036,0.16,0.125,1.011-0.048
	c-0.206-0.121,0.029-0.033-0.44-0.201l-1.109-0.24c-7.917-1.288-16.669-1.102-24.215,1.058C22.1,17.764,12.277,22.46,16.316,29.463
	c4.506,7.814,22.048,9.913,32.946,8.621c1.935-0.229,8.867-1.476,10.731-2.533C60.373,35.336,60.227,35.439,60.37,35.234z
	 M81.887,32.262l0.578,0.887c0.322-0.378,0.138-0.081-0.18-0.042c-0.395,0.048-0.338,0.038-0.784,0.044
	c0.027,0.049,0.224,0.396,0.231,0.437l0.019,0.286c0,0.024-0.041,0.063-0.057,0.096l-1.042,0.964c1.63,0.131,5.277,1.566,11.6,2.064
	c10.26,0.807,26.615-1.479,30.697-9.164c1.869-3.516-0.3-6.821-2.514-8.575c-2.385-1.89-5.07-3.208-8.799-4.34
	c-8.956-2.719-15.775-2.076-24.523-1.278l-0.006,3.124c25.751-2.381,33.39,12.765,11.727,16.34
	C91.299,34.349,88.197,33.275,81.887,32.262z M188.87,16.599c0.061,0.105,0.022,0.058,0.027,0.445
	c0.009,0.602-0.196,0.067,0.062,0.544c0.227,0.42,0.033,0.139,0.584,0.255l2.725,0.458c1.259,0.016,2.538-0.45,3.89-0.639
	c1.347-0.189,2.696-0.314,4.099-0.369c19.099-0.744,28.738,10.435,12.615,15.575c-8.21,2.617-14.89,1.056-16.636,1.312
	c-0.931,0.21-2.452-0.105-3.587-0.274l-2.482-0.225c-0.027-0.003-0.09-0.018-0.135-0.015c-0.009,0.047-0.004,0.072,0.002,0.144
	c0.07,0.984,0.938,1.065,1.363,1.188c1.884,0.546,1.365,0.047,2.386,0.425c-0.618,0.298-0.25,0.55-0.084,1.15
	c2.53,0.942,9.527,1.443,12.746,1.415c4.615-0.041,8.861-0.544,12.947-1.552c6.089-1.501,16.276-6.039,13.278-12.939
	c-3.591-8.263-21.52-10.605-32.338-9.5C197.787,14.258,190.203,15.556,188.87,16.599z M136.538,32.968
	c-0.688,0.4-0.243-0.025-0.386,0.837c1.377-0.496,2.151-0.042,2.41,0.478l0.309,0.882c0.014,0.048,0.038,0.192,0.052,0.23
	c0.108,0.301-0.264,0.158,0.221,0.218c-0.069,0.033-0.149,0.033-0.195,0.116l-0.705,0.169c-0.206,0.005-0.232-0.19-0.231-0.221
	l0.011-0.168c0.006-0.016,0.031-0.062,0.041-0.077c0.013-0.021,0.402-0.311,0.404-0.312c-0.446-0.314-0.555-0.433-1.187-0.074
	c-0.521,0.296,0.02,0.157-0.938,0.238l-0.096,0.609c3.433,0.464,4.635,1.658,12.087,2.148c7.992,0.526,17.811-0.586,24.442-4.125
	c1.788-0.955,2.776-1.729,4.014-2.831c0.575-0.512,1.096-1.15,1.506-1.835c0.505-0.842,0.589-1.563,0.968-2.296
	c0.344,0.885,0.816,2.526,1.64,3.014c0.888-0.161,0.427-0.041,0.628,0.062c0.604-0.8-0.103,0.213,0.745-0.143
	c0.378-0.159,0.945-0.741,0.027-0.843c0.799-1.431,0.088-0.946,0.166-3.121c0.039-1.075,0.204-0.96,0.396-1.146L183,24.096
	c-0.144-0.41-0.251-0.467-0.191-0.805c0.109-0.625,0.136-0.485,0.656-0.646l-0.113-0.003c-0.021,0.001-0.105-0.005-0.139,0.002
	l-0.576,0.27c0.227-0.694,0.315-0.592,0.054-1.184c-1.833,0.854,0.024,0.264-2.116,0.421c-0.713,0.316-0.956,1.89-1.358,2.618
	c-0.773-1.021-0.474-3.076-5.426-6.05c-2.408-1.446-5.36-2.53-8.617-3.343c-5.834-1.455-16.45-2.167-22.514-0.659l-0.055,2.967
	c1.021,0.109,5.074-0.451,9.152-0.066c19.501,1.838,20.523,14.026,1.858,16.61c-2.896,0.401-5.956,0.491-8.978,0.255
	C141.286,34.22,139.437,33.607,136.538,32.968z M136.248,35.893l0.096-0.609c0.957-0.081,0.416,0.058,0.938-0.238
	c0.632-0.359,0.74-0.241,1.187,0.074c-0.002,0.001-0.392,0.292-0.404,0.312c-0.01,0.015-0.035,0.062-0.041,0.077l-0.011,0.168
	c-0.001,0.031,0.025,0.227,0.231,0.221l0.705-0.169c0.046-0.083,0.126-0.083,0.195-0.116c-0.484-0.06-0.112,0.083-0.221-0.218
	c-0.014-0.038-0.038-0.182-0.052-0.23l-0.309-0.882c-0.259-0.52-1.033-0.974-2.41-0.478c0.143-0.862-0.303-0.437,0.386-0.837
	c-0.561-1.007,0.363-17.741-0.168-18.893c-0.656-1.423-4.723-0.993-6.592-0.991c-6.397,0.003-4.916-0.427-5.164,8.574
	c-0.229,8.281,0.12,17.882-0.146,26.085c-0.068,2.091-0.058,4.286-0.062,6.427c-0.004,2.606,2.364,2.125,5.179,2.125
	c7.943,0,6.572,0.673,6.674-7.223C136.285,47.029,136.502,37.092,136.248,35.893z M53.766,15.458
	c-0.852,0.173-0.586,0.012-1.011,0.048c-1.374,0.115-0.615,0.375-2.37-0.193c-1.01-0.327-1.117,0.22-2.031,0.146l-1.034-0.202
	c-0.339,0.834,0.179,0.325-0.772,0.491l-0.001,0.658c-0.576,0-1.188-0.019-1.759-0.006c-0.785,0.018-0.814,0.079-1.332,0.17
	c0.802-0.208,0.276,0.082,0.381-0.821h-3.469c0.575,0.607-0.311,0.314,1.93,0.655l-0.126-0.044c-0.018,0.001,0.319-0.406-0.1,0.027
	l-0.018,0.164c0.01,0.025,0.145,0.188,0.169,0.215c0.317,0.358,0.393,0.223,1.812,0.131c-0.193,0.263-0.261,0.278-0.276,0.622
	c-0.012,0.251,0.023,0.133,0.045,0.292c0.006,0.042,0.09,0.266,0.106,0.318c1.166,0.382,3.915,0.757,5.618,1.323
	c12.08,4.016,6.287,10.117,6.205,10.426c0.146,0.36,0.468,0.506,0.285,1.197l-0.201,0.431c-0.602-0.19-0.162,0.011-0.503-0.176
	c-0.447-0.243-0.029,0.071-0.269-0.289c-0.163,0.065-0.247-0.15,0.245,0.849c0.457,0.929,0.974,0.737,0.528,0.767
	c-0.022,0.938,0.193,0.12-0.515,0.729c-0.531,0.456,0.016,0.319-0.452,0.42c-1.449,0.397,0.354-0.266-1.544-0.493
	c-0.022,0.044-0.034,0.113-0.04,0.141l0.04,0.352c-0.867,0.009-1.933,0.12-2.482-0.095l-0.351-0.234
	c0.04,0.042,0.144,0.171,0.156,0.208c0.01,0.029,0.019,0.104,0.026,0.132c0.009,0.034-0.041,0.263-0.054,0.316
	c-0.952-0.077-1.03,0.138-1.158-0.546l-0.001,0.382l-1.125,0.001c-0.322,0.622-0.224,0.426-0.224,1.149
	c-0.264,0.001-0.832,0.034-1.06-0.028c-0.495-0.134-0.362-0.321-0.486-0.466c-0.376,0.176-0.159,0.143-0.772,0.22
	c0.043,0.021,0.108,0.038,0.137,0.047l0.271,0.089c0.32,0.11,0.311,0.107,0.364,0.138c-0.534,0.382,0.107,0.258-0.463,0.275
	c-0.466,0.014-0.098,0.13-0.311-0.274c-2.026,0-2.298,0.383-2.94,0.299c-0.035-0.004-0.09-0.02-0.126-0.026
	c-0.039-0.007-0.093-0.024-0.133-0.032c-0.042-0.008-0.096-0.024-0.139-0.032l-0.938-0.07c-0.371,0.009-1.118,0.14-1.143,0.144
	c-2.332,0.354-2.618-0.335-3.66-0.257c-0.988,0.074-0.75,0.6-0.961,1.285c0.649,0,1.05-0.048,1.531,0.09
	c0.48,0.138,0.309,0.203,1.151,0.25c2.308,0.132,2.148-0.167,2.531-0.558l3.648,1.048c0.791,0.036,1.195-0.086,2.283,0.141
	c1.079,0.225-0.106,0.374,1.392,0.438c0.487,0.021,1.164-0.126,1.608-0.288c0.635-0.232,0.118-0.243,1.496-0.297
	c0.245-0.01,0.992-0.039,1.062-0.259c0.015-0.045,0.062-0.053,0.099-0.072c-0.072,0.076,0.081,0.418-0.343,0.032
	c-0.453-0.413-0.235,0.167-0.045-0.376l1.034,0.271c0.083,0.183-0.577,0.179,0.519,0.018l0.387-0.076
	c0.019-0.007,0.063-0.034,0.081-0.042l2.036-0.481c-0.014,0.016-0.056,0.338-0.077-0.227c-0.016-0.425-0.09-0.223,0.469-0.541
	l0.379-0.217c-0.971,0.075-0.542,0.2-1.061-0.165c0.281-0.688-0.106-0.446,0.289-0.494l1.589-0.503
	c0.526-0.061,1.321,0.011,1.889,0.011c-0.585,0.527,0.256,0.438-0.19,0.965l0.881,0.135c0.062-0.402,0.063-0.289-0.006-0.551
	c-0.358,0.223-0.01,0.165,0.484-0.332l0.651-0.184c0.064-0.002,0.16,0.088,0.861-0.324c-0.422-0.475-0.208-0.236-0.065-0.896
	c0.08-0.371,0.086-0.423,0.087-0.053l1.671-0.801c0.982-0.992-0.062-0.25,1.386-0.754l0.182-0.979
	c-0.006,0.188,0.159,0.146,0.772-0.037l-0.371-0.413c-0.044-0.045-0.173-0.168-0.215-0.207l-0.529-0.985
	c0.062,0.016,0.133,0.029,0.188,0.039c1.698,0.298,2.002-0.118,3.866-0.202c0,1.04,0,2.079,0,3.118c0,0.495,0.002,0.982,0.013,1.477
	c0.029,1.315-0.02,1.208-0.382,1.477c-0.251,4.037,0.01,8.53-0.062,12.641c-0.151,8.596-1.064,7.948,5.646,8.042
	c7.707,0.107,5.958,0.103,6.169-7.549c0.064-2.349,0.392-11.117-0.065-12.827l1.042-0.964c0.017-0.033,0.057-0.072,0.057-0.096
	l-0.019-0.286c-0.007-0.042-0.204-0.388-0.231-0.437c0.446-0.006,0.389,0.004,0.784-0.044c0.318-0.039,0.502-0.335,0.18,0.042
	l-0.578-0.887l-0.979-0.425c-0.205-1.056,0.017-13.387,0.015-15.595c-0.001-1.716,0.563-3.471-1.273-4.004
	c-0.903-0.262-4.787-0.177-6.067-0.178c-5.917-0.001-4.377,0.229-4.557,11.681l-0.251-0.213c-0.659-0.661-0.563-1.268-2.603-2.956
	C63.349,18.237,56.14,15.197,53.766,15.458z"/>
<text transform="matrix(1.1764 0 0 1 49.4185 78.1748)" fill="#FFFFFF" font-family="'Candara'" font-size="20.723">Camera Phone</text>
<text transform="matrix(1.1764 0 0 1 0 118.2246)" fill="#006432" font-family="'Candara'" font-size="29.918">CellAir Networks</text>
</svg>
