<?xml version="1.0" encoding="utf-8"?>
<!-- Generator: Adobe Illustrator 16.0.0, SVG Export Plug-In . SVG Version: 6.00 Build 0)  -->
<!DOCTYPE svg PUBLIC "-//W3C//DTD SVG 1.1//EN" "http://www.w3.org/Graphics/SVG/1.1/DTD/svg11.dtd">
<svg version="1.1" id="Layer_1" xmlns="http://www.w3.org/2000/svg" xmlns:xlink="http://www.w3.org/1999/xlink" x="0px" y="0px"
	 width="425.784px" height="219.235px" viewBox="0 0 425.784 219.235" enable-background="new 0 0 425.784 219.235"
	 xml:space="preserve">
<g>
	<path fill-rule="evenodd" clip-rule="evenodd" fill="#FFFFFF" d="M212.902,219.229c69.915,0,139.829,0.001,209.743-0.004
		c3.557-0.001,3.12,0.365,3.121-3.012c0.007-71.034,0.008-142.069-0.002-213.103c0-3.524,0.454-3.093-3.017-3.093
		C282.838,0.01,142.93,0.01,3.021,0.017c-3.451,0-2.997-0.429-2.997,3.11C0.016,74.082,0.016,145.036,0.025,215.99
		c0,3.623-0.519,3.232,3.133,3.233C73.073,219.23,142.988,219.229,212.902,219.229z"/>
	<path fill-rule="evenodd" clip-rule="evenodd" fill="#3F4196" d="M212.902,219.229c-69.914,0-139.829,0.002-209.743-0.005
		c-3.652-0.001-3.133,0.39-3.133-3.233C0.016,145.036,0.016,74.082,0.024,3.127c0-3.539-0.454-3.11,2.997-3.11
		c139.909-0.007,279.817-0.007,419.726,0c3.471,0,3.017-0.431,3.017,3.093c0.01,71.034,0.009,142.069,0.002,213.103
		c-0.001,3.377,0.436,3.011-3.121,3.012C352.731,219.229,282.817,219.229,212.902,219.229z M294.569,99.034
		c3.106,1.178,6.16,1.856,8.885-0.882c0.138-0.139,0.437-0.214,0.637-0.18c0.908,0.158,2.2,1.727,2.24,2.707
		c0.113,2.783,0.163,5.55-0.094,8.347c-0.37,4.016,1.135,7.868,1.459,11.839c0.039,0.474,0.15,0.931,0.709,1.134
		c2,0.73,3.691-0.422,3.671-2.537c-0.012-1.197-0.166-2.405-0.058-3.59c0.175-1.905,2.128-3.493,4.002-3.41
		c1.311,0.059,2.126,1.291,2.281,3.448c0.006,0.079,0.014,0.159,0.014,0.239c0.019,4.478,0.515,8.942,0.327,13.427
		c-0.047,1.113,0.05,2.237,0.144,3.351c0.175,2.082,3.073,4.35,4.995,3.826c1.113-0.304,1.534-1.021,1.688-2.054
		c0.143-0.96-0.254-1.507-1.166-1.782c-0.866-0.262-1.599-0.664-1.813-1.694c-0.485-2.347-1.063-4.662-0.665-7.105
		c0.641-3.925,0.067-7.836-0.567-11.684c-0.61-3.693-5.069-5.581-8.391-3.852c-0.512,0.267-0.902,0.989-1.696,0.561
		c-0.061-0.707-0.169-1.423-0.174-2.14c-0.013-1.919,0.024-3.839,0.032-5.758c0.005-1.119,0.011-2.239-0.021-3.357
		c-0.016-0.55-0.334-1.015-0.901-0.762c-1.305,0.582-2.717-0.001-4.013,0.48c-0.501,0.186-0.937,0.164-1.104-0.567
		c2.018-0.16,3.8-0.951,5.489-1.991c0.484-0.298,0.91-0.632,1.148-1.177c0.916-2.103,0.104-5.334-1.745-6.708
		c-0.927-0.688-1.788-1.313-1.438-2.717c0.206-0.827-0.612-1.054-1.172-1.254c-0.72-0.257-0.927,0.366-1.166,0.887
		c-0.801,1.742-0.77,1.909,0.807,3.473c1.779,1.766,1.58,2.461-0.815,3.233c-1.555,0.502-2.405-0.357-3.197-1.436
		c-0.316-0.43-0.481-1.073-1.252-0.767c-0.813,0.322-0.646,0.917-0.546,1.585c0.238,1.585-0.364,2.363-1.907,2.621
		c-1.526,0.255-2.7-0.274-3.37-2.033c-0.62-1.623-2.017-2.668-2.671-4.225c-0.288-0.684-0.892-0.559-1.437-0.326
		c-1.696,0.726-3.233,1.678-4.694,2.837c-2.385,1.892-3.062,5.694-1.621,8.262c0.852,1.517,1.834,2.922,3.23,4.086
		c1.565,1.305,3.235,2.622,3.929,4.713c0.177,0.535,0.6,0.966,1.095,1.241c1.791,0.991,2.23,2.849,2.882,4.538
		c0.31,0.802,0.09,1.575-0.349,2.461c-1.148,2.323-3.064,3.447-5.389,3.952c-2.446,0.531-5.256-0.76-5.26-3.846
		c-0.002-0.872,0.153-1.746,0.264-2.616c0.102-0.791,0.301-1.572,0.348-2.365c0.116-1.951-0.973-2.988-2.892-2.552
		c-6.764,1.538-13.183,3.802-18.067,9.098c-0.865,0.938-1.722,1.895-2.675,2.738c-1.028,0.909-1.484,0.761-1.931-0.557
		c-0.344-1.014-1.036-1.789-1.609-2.647c-2.482-3.718-4.969-7.435-6.574-11.647c-0.313-0.82-0.507-1.696-0.901-2.473
		c-0.63-1.24-1.713-1.391-2.656-0.4c-0.521,0.548-1.215,1.006-1.035,2.012c0.067,0.379-0.287,0.934-0.601,1.264
		c-2.034,2.147-3.566,4.732-5.807,6.693c-3.717,3.253-6.646,7.111-8.893,11.495c-0.658,1.285-1.205,2.615-1.182,4.106
		c0.022,1.52,0.181,1.606,1.586,1.2c1.103-0.318,2.279-0.402,2.699-1.78c0.141-0.46,0.631-0.714,1.102-0.859
		c2.19-0.676,4.412-1.04,7.289-0.771c-2.247,1.34-4.161,2.193-5.717,3.48c-1.974,1.633-4.109,2.64-6.58,3.187
		c-2.51,0.556-3.038,0.31-3.511-2.238c-0.087-0.468-0.14-0.957-0.109-1.43c0.355-5.5-0.34-11.027,0.431-16.518
		c0.177-1.264,0.22-2.547,0.396-3.811c0.505-3.611-0.332-7.171-0.371-10.762c-0.047-4.323,0.194-8.634,0.347-12.949
		c0.196-5.594,0.315-11.193,0.672-16.777c0.24-3.751,0.793-7.471-0.454-11.157c-0.196-0.578-0.098-1.272-0.062-1.909
		c0.095-1.676-0.104-3.33-0.288-4.989c-0.063-0.578-0.142-1.097-0.853-1.223c-0.653,0.535-0.935,1.295-1.143,2.056
		c-0.779,2.854-1.873,5.608-2.707,8.437c-0.921,3.127-2.071,6.192-2.392,9.503c-0.493,5.111-0.438,10.222-0.362,15.336
		c0.085,5.839,0.263,11.686-0.125,17.509c-0.329,4.942-0.828,9.867-0.779,14.83c0.036,3.679-0.252,7.339-0.741,10.995
		c-0.962,7.184,5.243,11.467,10.947,11.08c1.032-0.069,2.231-0.487,3.067-0.11c2.228,1.002,3.719-0.048,5.114-1.425
		c1.648-1.628,3.342-3.204,5.019-4.802c2.386-2.272,5.047-4.15,7.852-5.833c2.122-1.273,4.115-0.899,5.778,0.938
		c0.644,0.711,1.228,1.479,1.913,2.144c0.938,0.908,1.051,1.904,0.574,3.059c-0.642,1.55-1.306,3.062-2.406,4.382
		c-3.613,4.335-5.607,9.209-5.181,15.005c0.148,2.019,0.985,3.498,2.268,4.836c1.626,1.698,3.355,1.645,4.982-0.078
		c0.38-0.402,0.693-0.88,0.977-1.358c1.424-2.404,2.866-4.799,4.226-7.24c0.908-1.633,1.146-3.472,1.315-5.306
		c0.037-0.399-0.014-0.879-0.451-1.006c-0.401-0.115-0.747,0.193-1.027,0.495c-0.347,0.373-0.37,0.779-0.357,1.299
		c0.062,2.426-1.085,4.309-3.031,5.627c-1.22,0.826-2.624,1.962-4.151,0.831c-1.278-0.946-1.223-2.492-1.003-3.964
		c0.613-4.119,2.215-7.806,4.748-11.111c0.712-0.929,1.776-1.708,1.974-2.894c0.211-1.272,0.998-2.133,1.607-3.15
		c0.808-1.347,2.199-2.056,3.195-3.199c3.201-3.679,7.232-6.224,11.642-8.21c0.189-0.085,0.453-0.126,0.702,0.265
		c-0.126,3.874,2.163,6.601,5.313,8.956c-1.733,0.317-3.228,0.354-4.52,0.884c-2.056,0.84-3.978,2.009-5.956,3.037
		c-0.953,0.496-1.598,1.302-2.217,2.148c-0.396,0.542-0.408,1.09,0.06,1.506c0.832,0.738,1.658,1.737,2.645,1.975
		c0.901,0.217,1.368-1.146,2.053-1.781c0.936-0.869,1.768-1.851,2.713-2.708c1.32-1.198,2.845-2.173,4.599-2.47
		c8.122-1.374,15.775-0.769,21.984,5.679c0.381-0.255,0.803-0.483,1.158-0.79c0.413-0.357,0.521-0.801,0.055-1.221
		c-3.13-2.819-6.497-5.188-10.838-5.712c-0.515-0.062-1.285,0.322-1.457-0.396c-0.184-0.766,0.646-0.98,1.159-1.312
		c2.264-1.459,4.008-3.396,5.258-5.77c0.915-1.735,1.479-3.6,0.999-5.545c-0.902-3.668-2.208-7.124-5.348-9.597
		c-1.305-1.028-2.476-2.251-3.439-3.636C294.304,99.332,294.436,99.183,294.569,99.034z M1.506,109.455
		c0,35.197-0.001,70.395,0.002,105.592c0,2.647-0.325,2.605,2.59,2.595c0.08,0,0.16,0,0.24,0c53.436,0,106.872,0,160.308,0
		c0.56,0,1.12-0.016,1.68-0.008c0.804,0.012,1.158-0.384,1.123-1.176c-0.018-0.399,0.002-0.801,0.002-1.2
		c0-70.475,0-140.949,0.001-211.424c0-2.457,0.142-2.341-2.354-2.335c-0.16,0-0.32,0-0.48,0c-53.436,0-106.872-0.001-160.308,0.004
		c-3.151,0-2.799-0.322-2.8,2.84C1.504,39.38,1.506,74.417,1.506,109.455z M352.375,150.582c0,1.732-0.006,3.551,0.002,5.368
		c0.004,0.982,0.569,1.264,1.486,1.488c2.979,0.733,5.834,0.063,8.721-0.498c4.009-0.779,7.548-2.491,10.577-5.232
		c0.467-0.422,1.016-0.813,1.218-1.452c0.986-3.126,1.864-6.302,1.789-9.596c-0.147-6.47-0.452-12.937-0.701-19.403
		c-0.047-1.206,0.055-2.389,0.315-3.568c0.521-2.364,0.781-2.612,3.501-3.042c0.086,0.868,0.194,1.732,0.253,2.6
		c0.075,1.106,0.508,1.786,1.554,2.428c1.427,0.874,2.637,0.958,4.011,0.162c0.981-0.569,1.804-0.907,3.067-0.233
		c1.169,0.623,2.491-0.176,3.331-1.239c0.639-0.811,1.124-1.742,1.666-2.628c0.312-0.51,0.462-1.014-0.092-1.492
		c-0.475-0.41-0.971-0.496-1.549-0.259c-0.432,0.177-0.693,0.79-1.493,0.645c0.593-1.297,0.57-2.615,1.405-3.661
		c1.309,1.83,1.341,1.893,3.198,0.933c0.671-0.346,1.364-0.412,2.041-0.608c1.316-0.382,2.157,0.195,2.306,1.516
		c0.081,0.724,0.044,1.482-0.446,2.06c-1.47,1.729-1.505,3.979-2.243,5.973c-0.211,0.571-0.203,1.125,0.176,1.59
		c1.286,1.58,2.743,3.002,4.918,3.056c3.121,0.075,5.542-1.3,7.205-3.947c0.341-0.543,0.556-1.156,0.017-1.74
		c-1.023,0.014-1.861,0.47-2.633,1.052c-0.995,0.75-2.134,1.078-3.344,1.163c-1.108,0.077-2.352,0.294-3.069-0.817
		c-0.748-1.157-0.094-2.311,0.368-3.408c0.119-0.284,0.381-0.507,0.567-0.767c0.698-0.973,1.413-1.935,2.084-2.927
		c1.786-2.644,1.693-3.146-0.857-5.005c-0.129-0.094-0.254-0.195-0.386-0.285c-1.509-1.035-1.626-1.249-0.715-2.772
		c0.713-1.193,1.276-2.352,1.194-3.797c-0.102-1.771-0.71-2.404-2.496-2.442c-1.212-0.026-2.223,0.409-2.948,1.33
		c-1.507,1.913-2.829,3.922-2.006,6.555c0.226,0.724,0.089,1.208-0.632,1.552c-0.766,0.365-1.49,0.814-2.242,1.231
		c-0.542-0.871-0.125-1.672-0.223-2.435c-0.053-0.407-0.106-0.804-0.598-0.902c-0.428-0.086-0.763,0.057-1.02,0.431
		c-0.355,0.518-0.398,1.24-1.104,1.605c-0.229-0.133-0.541-0.245-0.762-0.453c-1.432-1.349-2.914-1.05-4.367-0.106
		c-0.594,0.385-1.216,0.86-1.573,1.447c-0.687,1.126-1.635,1.314-2.834,1.324c-2.709,0.021-5.425,0.071-8.054,0.895
		c-0.369,0.116-0.791,0.135-1.18,0.102c-2.595-0.22-5.188-0.009-7.781-0.018c-0.95-0.004-1.532,0.405-1.533,1.407
		c-0.002,0.97,0.625,1.618,1.642,1.555c1.352-0.084,2.697-0.282,4.042-0.457c2.084-0.27,2.57,0.035,2.833,2.137
		c0.178,1.423,0.224,2.87,0.228,4.307c0.019,7.197-0.613,14.362-1.097,21.536c-0.07,1.048-0.528,1.791-1.2,2.514
		C362.968,149.589,358.017,150.966,352.375,150.582z M220.149,92.576c-2.43,3.295-2.851,7.545-4.11,11.491
		c-0.463,1.449-0.966,2.873-1.646,4.231c-0.468,0.932-1.031,1.794-1.785,2.533c-1.65,1.617-3.314,3.219-5.184,4.588
		c-2.632,1.926-5.31,3.793-7.898,5.775c-5.126,3.927-10.082,8.075-15.497,11.624c-1.349,0.885-2.677,1.673-4.249,2.072
		c-1.112,0.283-2.077,0.904-2.58,1.978c-0.266,0.567-0.417,1.314,0.529,1.507c1.629,0.331,3.214,0.731,4.919,0.066
		c3.423-1.335,6.797-2.75,9.989-4.585c3.116-1.792,6.336-3.389,9.706-4.647c3.675-1.372,6.878-3.694,10.521-5.135
		c0.674-0.267,1.52-0.646,1.608-1.611c0.293-3.218,1.782-6.111,2.481-9.222c1.014-4.514,2.154-8.999,2.452-13.643
		c0.083-1.29,0.688-2.406,1.269-3.562C221.275,94.842,219.658,93.7,220.149,92.576z M349.807,111.529
		c-0.572-0.717-0.386-1.368-0.334-1.974c0.149-1.748,0.195-3.526,0.564-5.231c1.055-4.864-0.814-4.76-4.624-5.425
		c-1.48-0.258-1.694,0.04-1.587,1.499c0.529,7.182,0.376,14.344-0.521,21.493c-0.402,3.209-0.36,3.213,2.98,3.509
		c0.317,0.028,0.632,0.094,0.948,0.128c0.789,0.085,1.232-0.089,0.984-1.052c-0.97-3.763,0.863-6.618,3.135-9.285
		c0.764-0.896,1.876-0.71,2.887-0.516c0.894,0.171,0.879,0.96,1.043,1.674c0.488,2.124,0.503,4.259,0.246,6.396
		c-0.423,3.53-0.285,7.007,0.701,10.442c0.744,2.591,2.425,4.423,4.609,5.854c0.464,0.304,1.082,0.515,1.558,0.063
		c0.55-0.521,0.467-1.336,0.704-2.008c0.26-0.736-0.392-0.928-0.789-1.284c-1.558-1.397-2.519-3.063-2.403-5.244
		c0.033-0.63-0.13-1.268-0.162-1.904c-0.175-3.343-0.909-6.666-0.505-10.025c0.224-1.862-0.044-3.675-0.286-5.485
		c-0.334-2.489-2.638-3.88-5.07-3.313C352.419,110.186,351.154,111.025,349.807,111.529z M330.71,110.018
		c-0.04,1.537-0.021,2.734,0.559,3.833c0.803,1.523,2.486,2.354,4.032,1.758c3.577-1.378,4.536-3.891,3.978-7.469
		c-0.346-2.218-3.31-4.638-6.743-3.896c-1.277,0.276-2.065,1.169-2.985,1.902c-3.957,3.151-4.86,8.099-2.366,12.574
		c0.591,1.062,1.244,2.013,2.351,2.617c1.549,0.848,3.172,1.537,4.868,1.957c2.658,0.659,5.299-0.609,6.651-3.077
		c0.352-0.641,0.642-1.244,1.367-1.574c0.719-0.327,0.871-0.894,0.333-1.544c-0.5-0.604-1.085-0.715-1.617-0.098
		c-0.92,1.068-2.211,1.56-3.381,2.208c-2.804,1.555-5.682,1.1-7.364-1.04C328.853,116.212,328.868,112.501,330.71,110.018z
		 M304.547,76.188c0.083-0.011,0.326-0.021,0.556-0.079c0.769-0.194,3.852-3.803,3.977-4.615c0.075-0.492-0.193-0.719-0.589-0.892
		c-1.624-0.711-3.113-1.595-4.309-2.958c-0.682-0.776-1.397-0.568-1.975,0.25c-0.462,0.652-0.94,1.294-1.436,1.921
		c-1.04,1.315-1.237,1.353-2.348,0.183c-0.615-0.648-1.303-1.164-2.057-1.625c-0.609-0.372-1.108-0.192-1.451,0.323
		c-1.104,1.657-2.149,3.352-3.246,5.014c-0.619,0.939-0.218,1.729,0.401,2.373c1.893,1.97,5.771,1.451,7.256-0.922
		c0.806-1.285,1.018-1.38,2.14-0.395C302.336,75.528,303.18,76.198,304.547,76.188z M235.461,140.2
		c-1.51,1.351-2.896,2.553-4.235,3.803c-0.818,0.763-1.555,1.609-2.002,2.663c-1.096,2.577-0.486,4.151,2.09,6.141
		c1.259,0.972,2.842,1.034,4.351,1.104c1.152,0.054,1.408-1.159,2.063-1.802c0.626-0.614,1.197-1.286,1.781-1.942
		c1.136-1.276,1.799-2.823,2.38-4.393c0.272-0.735-0.007-1.357-0.936-1.058c-2.059,0.663-3.151-0.532-4.097-2.025
		C236.388,141.953,235.999,141.166,235.461,140.2z M310.344,132.888c0.203,2.059,0.178,2.084,1.21,3.078
		c4.379,4.219,9.662,6.284,15.696,6.527c0.893,0.036,1.787-0.078,2.545-0.537c0.988-0.6,2.091-0.916,3.17-1.003
		c2.689-0.216,4.879-1.78,7.372-2.506c1.739-0.507,2.902-1.922,4.202-3.087c0.334-0.3,0.738-0.764,0.336-1.22
		c-0.366-0.414-0.912-0.188-1.331,0.032c-1.407,0.745-2.78,1.556-4.195,2.286c-4.159,2.146-8.604,3.327-13.24,3.829
		c-0.628,0.068-1.29,0.106-1.904-0.013c-3.879-0.753-7.533-2.026-10.572-4.697C312.57,134.644,311.442,133.782,310.344,132.888z
		 M299.34,168.633c-0.021-0.238-0.011-0.382-0.036-0.389c-3.665-0.964-4.669-0.109-4.139,3.437c0.116,0.774,0.43,1.164,1.196,1.16
		c1.194-0.006,2.408-0.171,3.576-0.005c1.147,0.164,1.842-0.219,2.349-1.149c0.27-0.496,0.494-1.055,1.199-0.948
		c1.089,0.165,2.386-0.084,3.157,0.835c0.788,0.94,1.976,0.515,2.867,1.184c0.589,0.441,1.364-0.106,1.265-1.108
		c-0.056-0.555-0.091-1.112-0.129-1.669c-0.06-0.88,0.046-1.562,1.217-1.564c1.005-0.002,1.204,0.525,1.199,1.345
		c-0.003,0.398-0.016,0.812,0.081,1.19c0.127,0.502-0.142,1.293,0.535,1.43c0.639,0.129,1.25-0.176,1.308-1.03
		c0.05-0.741,0.504-0.92,1.167-0.726c1.445,0.423,1.184-1.062,1.626-1.627c0.49-0.626-0.359-1.079-0.943-1.312
		c-0.754-0.301-1.581-0.31-2.365-0.204c-1.831,0.243-3.665,0.099-5.496,0.165c-0.676,0.024-1.396-0.187-2.054,0.267
		c1.897,1.058,1.929,1.151,1.278,3.993c-0.976-0.893-1.95-1.687-2.812-2.589c-2.616-2.74-3.413-2.598-4.578,0.899
		c-0.527,1.582-1.255,2.068-2.877,1.9c-0.416-0.043-0.795-0.194-0.8-0.693c-0.005-0.384,0.289-0.513,0.626-0.567
		c0.62-0.103,1.338-0.019,1.819-0.888c-0.918,0-1.626,0.014-2.332-0.008c-0.254-0.007-0.405-0.188-0.446-0.453
		c-0.049-0.311,0.171-0.429,0.386-0.51C297.876,168.736,298.739,169.169,299.34,168.633z M332.777,163.696
		c-2.154-1.225-4.042-1.777-6.064-1.945c-3.516-0.293-6.449-1.603-8.229-4.864c-0.146-0.268-0.405-0.502-0.663-0.676
		c-0.854-0.574-1.497-0.24-1.566,0.812c-0.093,1.388,0.141,2.728,0.933,3.883c1.832,2.675,4.234,4.531,7.543,4.995
		C327.605,166.303,330.212,165.761,332.777,163.696z M305.703,59.704c-2.354-0.389-2.354-0.389-4.56-2.119
		c-0.974-0.764-2.193-0.825-2.438-0.008c-0.538,1.81-1.674,3.239-2.682,4.758c-0.599,0.901-0.484,1.515,0.514,2.132
		c1.853,1.144,4.568,0.937,6.243-0.832C303.854,62.501,304.982,61.354,305.703,59.704z M376.945,105.368
		c0.052-1.866-1.302-3.156-3.359-3.157c-2.911-0.002-4.328,2.269-4.484,4.561c-0.118,1.739,1.354,3.132,3.128,3.176
		C374.566,110.006,376.88,107.759,376.945,105.368z M297.522,138.614c2.842,0.063,4.792-1.014,6.654-2.301
		c0.68-0.471,0.517-1.115,0.171-1.7c-0.315-0.537-0.818-0.408-1.263-0.189c-0.572,0.281-1.142,0.579-1.673,0.931
		c-1.577,1.042-3.221,1.167-5.041,0.688c-1.508-0.397-2.842-0.958-3.995-2.039c-0.594-0.557-1.52-0.87-2.112-0.06
		c-0.473,0.648-0.061,1.381,0.512,1.911c0.293,0.271,0.601,0.528,0.92,0.766C293.565,138.014,295.745,138.444,297.522,138.614z
		 M278.367,138.667c1.756,0.042,3.302-0.284,4.823-0.77c1.797-0.573,3.088-1.896,4.502-3.034c0.323-0.26,0.451-0.677,0.29-1.079
		c-0.186-0.466-0.646-0.339-1.021-0.371c-0.869-0.075-1.551,0.362-2.131,0.904c-1.915,1.792-4.187,2.08-6.652,1.72
		c-0.941-0.138-1.896-0.194-2.846-0.267c-0.642-0.05-1.038,0.221-1.175,0.896c-0.13,0.64,0.051,0.986,0.652,1.313
		C275.99,138.621,277.25,138.603,278.367,138.667z M335.542,147.384c0.357,0.057,0.922,0.08,1.443,0.239
		c1.623,0.495,3.149,1.117,3.68,2.995c0.164,0.581,0.696,1.01,1.27,0.805c0.545-0.195,0.729-0.854,0.595-1.424
		c-0.124-0.53-0.322-1.09-0.643-1.521c-2.945-3.959-7.947-4.268-12.03-1.275c-0.242,0.178-0.398,0.491-0.553,0.765
		c-0.233,0.414-0.496,0.867-0.121,1.318c0.447,0.54,0.881,0.055,1.253-0.13C332.004,148.376,333.574,147.62,335.542,147.384z
		 M323.033,146.946c-0.049-0.148-0.103-0.38-0.199-0.592c-1.208-2.643-4.601-4.109-7.405-3.281
		c-1.844,0.545-3.202,1.693-4.331,3.177c-0.47,0.618-1.225,1.326-0.442,2.066c0.896,0.849,1.344-0.199,1.866-0.718
		c0.112-0.111,0.187-0.259,0.295-0.374c2.107-2.237,5.114-2.439,7.491-0.491c0.427,0.35,0.769,0.814,1.22,1.121
		C322.178,148.296,323.009,147.81,323.033,146.946z M292.998,164.089c-0.182-0.417-0.512-0.573-0.949-0.566
		c-3.189,0.048-6.378,0.089-9.567,0.147c-0.281,0.005-0.668-0.061-0.753,0.359c-0.09,0.448,0.138,0.868,0.522,0.951
		c0.611,0.133,1.261,0.1,1.895,0.112c1.759,0.035,1.762,0.029,1.938,1.863c0.167,1.745,0.324,3.49,0.494,5.235
		c0.058,0.592,0.226,1.156,0.966,1.103c0.685-0.051,0.583-0.675,0.585-1.102c0.01-1.674-0.059-3.347-0.059-5.021
		c0-2.292,0.016-2.282,2.227-2.32c0.714-0.012,1.429-0.066,2.139-0.141C292.77,164.676,293.014,164.479,292.998,164.089z
		 M281.056,154.431c1.188-0.082,1.149-0.121,2.082-1.012c2.715-2.594,5.768-3.809,9.519-2.33c0.595,0.234,1.269,0.709,2.017,0.32
		c-0.744-2.13-2.129-2.827-5.315-2.699C285.277,148.873,281.886,151.21,281.056,154.431z M323.615,168.055
		c-0.314-0.292-0.412-0.463-0.536-0.485c-0.709-0.122-1.422-0.22-2.136-0.305c-2.264-0.27-2.264-0.262-2.33,2.002
		c-0.014,0.475-0.011,0.963-0.124,1.417c-0.146,0.586-1.114-0.208-1.215,0.604c2.126,1.79,3.186,1.968,5.228,0.896
		c-0.352-0.61-1.567-0.14-1.536-1.173c0.027-0.91,1.336-0.291,1.528-0.99c-0.382-0.93-1.816-0.156-1.717-1.04
		c0.131-1.158,1.313-0.306,1.97-0.582C322.951,168.313,323.158,168.235,323.615,168.055z M293.993,167.949
		c-0.541-0.102-0.536,0.203-0.569,0.409c-0.087,0.533,0.023,1.138-0.811,1.207c-0.979,0.082-0.943-0.629-1.065-1.237
		c-0.031-0.156-0.044-0.316-0.066-0.475c-0.061-0.425-0.207-0.793-0.725-0.742c-0.46,0.046-0.691,0.392-0.738,0.805
		c-0.176,1.523-0.078,3.04,0.427,4.488c0.209,0.601,0.705,0.516,1.125,0.104c0.317-0.312,0.324-0.691,0.284-1.103
		c-0.059-0.595,0.268-0.856,0.837-0.903c0.548-0.045,0.914,0.108,1.035,0.704c0.105,0.519,0.063,1.174,0.95,1.224
		C294.954,170.814,294.323,169.376,293.993,167.949z"/>
	<path fill-rule="evenodd" clip-rule="evenodd" fill="#FEFEFE" d="M1.506,109.455c0-35.038-0.002-70.075,0.004-105.112
		c0-3.163-0.352-2.84,2.8-2.84c53.436-0.005,106.872-0.004,160.308-0.004c0.16,0,0.32,0,0.48,0c2.496-0.006,2.354-0.122,2.354,2.335
		c-0.001,70.475-0.001,140.95-0.001,211.424c0,0.399-0.02,0.801-0.002,1.2c0.035,0.792-0.319,1.188-1.123,1.176
		c-0.56-0.008-1.12,0.008-1.68,0.008c-53.436,0-106.872,0-160.308,0c-0.08,0-0.16,0-0.24,0c-2.916,0.011-2.59,0.053-2.59-2.595
		C1.505,179.85,1.506,144.652,1.506,109.455z M83.533,193.936c0.982,1.139,1.826,1.365,2.855,0.472
		c1.036-0.9,1.867-1.092,2.771,0.066c0.556,0.712,1.361,0.531,1.97,0.286c0.685-0.274,0.223-0.987,0.16-1.494
		c-0.198-1.586-0.472-3.162-0.673-4.747c-0.128-1.006-0.684-1.264-1.635-1.276c-0.956-0.013-1.401,0.45-1.864,1.188
		c-0.865,1.381-1.243,3.083-2.653,4.109c-0.132-0.188-0.253-0.349-0.229-0.627c0.342-3.855-1.768-5.612-5.521-4.631
		c-0.429,0.112-0.753,0.335-0.812,0.753c-0.316,2.238-1.175,4.396-1.184,6.796C79.165,194.983,81.426,195.102,83.533,193.936z
		 M38.383,95.134l-0.016-0.092l0.034,0.063c0.554,0.729,1.426,0.985,2.169,1.421c5.19,3.048,10.086,6.48,14.258,10.857
		c3.86,4.051,6.957,8.567,8.083,14.164c0.258,1.284,0.936,1.434,2.013,1.425c4.396-0.037,8.792-0.016,13.188-0.016
		c4.456,0,4.476-0.006,3.252-4.41c-2.253-8.111-7.491-13.772-14.715-17.764c-5.171-2.858-10.768-4.404-16.582-5.242
		C46.188,94.979,42.295,94.746,38.383,95.134z M87.351,96.076c0-3.628,0.013-7.05-0.009-10.471c-0.005-0.808,0.466-1.325,0.919-1.88
		c5.107-6.258,10.229-12.504,15.302-18.79c0.699-0.867,1.276-1.088,2.418-0.774c7.763,2.136,14.786-3.648,15.22-11.328
		c0.488-8.632-7.826-15.182-15.857-12.434c-7.567,2.59-10.59,11.872-6.125,18.809c1.087,1.688,1.097,1.696-0.125,3.196
		c-3.484,4.278-6.975,8.552-10.474,12.819c-0.279,0.341-0.472,0.836-1.029,0.811c-0.272-0.153-0.235-0.405-0.235-0.626
		c-0.006-11.038,0.016-22.076-0.041-33.113c-0.006-1.23,0.629-1.589,1.521-2.083c4.913-2.717,7.197-6.959,6.671-12.516
		c-0.45-4.752-2.976-8.274-7.398-10.119c-4.335-1.808-8.507-1.178-12.144,1.85c-6.697,5.577-5.724,16.331,1.928,20.504
		c1.551,0.846,1.9,1.754,1.893,3.33c-0.054,10.158-0.028,20.316-0.028,30.474c0,0.766,0,1.533,0,2.15
		c-0.554,0.276-0.682,0.007-0.814-0.154c-4.054-4.95-8.081-9.921-12.166-14.845c-0.69-0.832-0.684-1.472-0.14-2.338
		c0.684-1.089,1.032-2.333,1.298-3.59c1.715-8.104-5.153-15.838-13.142-14.763c-5.106,0.687-8.528,3.59-10.07,8.415
		c-1.563,4.889-0.534,9.403,3.226,12.99c3.712,3.542,8.125,4.278,12.861,2.303c1.123-0.468,1.678-0.309,2.393,0.575
		c5.179,6.405,10.402,12.775,15.602,19.164c0.395,0.486,0.926,0.92,0.927,1.629c0.005,3.554,0.002,7.108,0.002,10.646
		c-0.926,0.079-1.245-0.451-1.661-0.776c-4.816-3.764-10.066-6.785-15.659-9.233c-6.091-2.667-12.398-4.707-18.829-6.354
		c-1.533-0.393-2.135-1.007-2.325-2.685c-0.723-6.399-6.888-11.233-13.021-10.447c-5.808,0.744-10.104,5.169-10.829,11.153
		c-0.659,5.433,2.779,11.029,7.946,12.935c5.328,1.966,10.818,0.104,14.164-4.982c0.731-1.111,1.42-1.293,2.533-0.955
		c3.133,0.952,6.288,1.831,9.407,2.825c9.77,3.114,18.761,7.674,26.663,14.302c1.239,1.039,1.804,2.084,1.654,3.659
		c-0.105,1.11,0.01,2.239-0.028,3.357c-0.03,0.87,0.234,1.35,1.201,1.331c1.759-0.035,3.519-0.025,5.279-0.007
		c0.814,0.009,1.142-0.35,1.12-1.158c-0.033-1.199,0.083-2.408-0.027-3.597c-0.139-1.496,0.359-2.502,1.554-3.474
		c4.298-3.494,8.827-6.616,13.768-9.123c6.731-3.416,13.882-5.68,21.11-7.756c1.307-0.375,1.828,0.183,2.505,1.078
		c3.111,4.11,7.337,5.706,12.282,4.572c4.966-1.139,7.959-4.556,9.083-9.509c1.421-6.262-2.384-12.709-8.484-14.514
		c-6.049-1.79-12.483,1.585-14.628,7.693c-0.424,1.209-0.768,2.455-0.682,3.752c0.071,1.057-0.308,1.591-1.39,1.822
		c-1.402,0.3-2.762,0.794-4.142,1.2c-10.898,3.204-21.219,7.58-30.132,14.822C88.06,95.934,87.878,95.932,87.351,96.076z
		 M36.135,154.85c2.202,0.696,4.207,0.782,6.184,0.941c8.637,0.696,16.924-0.563,24.507-4.968
		c8.181-4.752,13.364-11.738,15.115-21.126c0.408-2.186,0.285-2.316-1.919-2.321c-4.957-0.012-9.915,0.032-14.871-0.029
		c-1.255-0.015-1.825,0.337-2.033,1.642c-0.851,5.339-3.633,9.652-7.362,13.434c-3.343,3.391-7.198,6.088-11.376,8.321
		C41.785,152.132,39.11,153.375,36.135,154.85z M130.689,154.801c-0.071-0.273-0.069-0.386-0.111-0.406
		c-0.639-0.313-1.279-0.627-1.928-0.919c-5.86-2.641-11.429-5.75-16.158-10.177c-4.234-3.963-7.481-8.531-8.447-14.41
		c-0.189-1.152-0.692-1.563-1.905-1.546c-5.037,0.07-10.075,0.021-15.113,0.034c-2.179,0.006-2.187,0.029-1.798,2.145
		c1.818,9.89,7.44,16.981,16.161,21.698c8.197,4.434,17.038,5.077,26.106,4.103C128.565,155.208,129.621,154.979,130.689,154.801z
		 M128.873,94.679c-4.777-0.114-9.231,0.141-13.641,0.93c-7.412,1.326-14.354,3.799-20.247,8.667
		c-5.383,4.447-8.726,10.104-9.864,17.021c-0.24,1.457-0.136,1.637,1.177,1.644c5.433,0.031,10.866-0.003,16.298,0.03
		c1.004,0.006,1.373-0.396,1.557-1.353c1.064-5.523,4.028-10.019,7.789-14.053c4.291-4.602,9.372-8.18,14.776-11.335
		C127.39,95.838,128.177,95.605,128.873,94.679z M56.175,180.449c1.691,0,3.12,0.005,4.548-0.001
		c2.199-0.01,2.206-0.012,2.643-2.077c1.157-5.469,2.313-10.938,3.45-16.41c0.141-0.679,0.579-1.346,0.095-2.268
		c-1.493,0-3.085,0.086-4.663-0.026c-1.295-0.092-1.922,0.42-2.095,1.644c-0.056,0.396-0.129,0.789-0.216,1.179
		c-1.042,4.694-1.134,4.737-5.946,4.299c-1.014-0.093-1.239-0.486-0.942-1.375c0.101-0.302,0.18-0.618,0.209-0.934
		c0.142-1.552,1.528-3.447,0.508-4.489c-0.947-0.969-3.054-0.16-4.637-0.313c-1.318-0.126-1.803,0.45-2.046,1.688
		c-0.924,4.699-1.984,9.372-2.903,14.072c-0.312,1.595-1.136,3.136-0.693,4.844c1.658,0.368,3.343,0.026,5.003,0.185
		c1.126,0.107,1.578-0.404,1.769-1.423c0.353-1.884,0.784-3.752,1.139-5.636c0.138-0.736,0.457-1.174,1.248-1.141
		c1.653,0.068,3.326-0.217,5.125,0.239C57.256,175.069,56.756,177.558,56.175,180.449z M67.277,180.449
		c4.516,0,8.824,0.022,13.132-0.013c1.425-0.012,3.153,0.569,4.198-0.289c1.041-0.854,0.762-2.668,1.106-4.05
		c0.05-0.202-0.032-0.438-0.066-0.79c-3.562-0.18-7.112,0.08-10.785-0.155c0.148-0.685,0.22-1.07,0.316-1.449
		c0.455-1.811,0.458-1.817,2.363-1.836c1.358-0.014,2.718-0.003,4.077-0.003c4.24,0,4.24,0,4.542-4.699c-3.097,0-6.188,0-9.28,0
		c0.121-2.52,0.121-2.528,2.197-2.551c1.359-0.016,2.719,0.024,4.077-0.011c1.352-0.036,3.011,0.533,3.976-0.251
		c1.067-0.866,0.743-2.682,1.086-4.068c0.029-0.119-0.116-0.28-0.255-0.587c-5.116,0-10.305,0.017-15.494-0.013
		c-1.097-0.007-1.26,0.643-1.438,1.5c-1.228,5.941-2.5,11.872-3.741,17.811C67.208,179.371,67.277,179.779,67.277,180.449z
		 M117.498,159.813c0-0.026,0-0.053,0-0.079c-1.518,0-3.039,0.068-4.55-0.021c-1.287-0.076-1.815,0.415-2.063,1.686
		c-0.915,4.695-1.975,9.362-2.914,14.053c-0.318,1.592-1.166,3.124-0.674,4.833c1.656,0.366,3.338,0.023,4.997,0.182
		c1.162,0.11,1.519-0.473,1.702-1.476c0.3-1.646,0.724-3.271,1.041-4.914c0.165-0.855,0.582-1.192,1.466-1.174
		c1.355,0.029,2.722,0.032,4.066-0.116c3.864-0.424,6.584-3.082,6.999-6.728c0.396-3.47-1.569-5.959-5.044-6.223
		C120.858,159.708,119.174,159.813,117.498,159.813z M95.691,174.941c1.1-5.245,2.122-10.12,3.16-15.068
		c-1.895-0.317-3.571-0.062-5.225-0.198c-1.23-0.103-1.673,0.454-1.893,1.569c-0.741,3.749-1.56,7.482-2.333,11.226
		c-0.529,2.561-1.031,5.126-1.549,7.706c0.909,0.407,1.714,0.263,2.494,0.267c3.189,0.017,6.38,0.042,9.569-0.008
		c1.501-0.024,3.374,0.641,4.41-0.304c1.097-1,0.805-2.981,1.179-4.521c0.033-0.135-0.067-0.301-0.16-0.668
		C102.325,174.941,99.246,174.941,95.691,174.941z M84.503,182.98c-13.273,0-26.547-0.001-39.82,0.002
		c-0.719,0-1.439,0.007-2.156,0.055c-0.355,0.024-0.567,0.298-0.557,0.647c0.011,0.354,0.246,0.583,0.604,0.604
		c0.558,0.034,1.118,0.044,1.676,0.044c26.627,0.002,53.254,0.007,79.881-0.021c0.785-0.001,2.22,0.457,2.234-0.562
		c0.021-1.467-1.503-0.727-2.282-0.729C110.89,182.965,97.696,182.98,84.503,182.98z M73.149,190.739
		c-0.482-1.086-0.861-1.868-1.181-2.675c-0.35-0.884-1.076-0.793-1.8-0.79c-0.702,0.004-0.939,0.401-1.064,1.031
		c-0.413,2.096-0.871,4.183-1.312,6.274c2.164,0.393,2.146,0.388,2.641-1.256c0.146-0.483-0.056-1.143,0.655-1.442
		c0.696,0.489,0.874,1.293,1.13,2c0.352,0.968,1.042,1.046,1.896,1.025c0.883-0.021,1.009-0.657,1.146-1.274
		c0.361-1.636,0.712-3.274,1.02-4.921c0.109-0.582,0.392-1.344-0.653-1.427c-0.752-0.061-1.464-0.038-1.625,0.949
		C73.876,189.019,73.799,189.823,73.149,190.739z M117.429,190.721c-0.95-1.009-1.087-1.993-1.528-2.822
		c-0.39-0.733-1.03-0.599-1.653-0.624c-0.704-0.029-0.961,0.371-1.091,0.991c-0.36,1.71-0.771,3.409-1.12,5.122
		c-0.114,0.561-0.522,1.338,0.522,1.478c0.808,0.108,1.604,0.138,1.756-1.027c0.095-0.731,0.361-1.439,0.623-2.434
		c0.835,0.991,1.055,1.932,1.443,2.773c0.396,0.86,1.134,0.707,1.838,0.712c0.751,0.006,0.873-0.543,0.996-1.102
		c0.373-1.709,0.761-3.413,1.117-5.125c0.105-0.508,0.389-1.194-0.436-1.332c-0.751-0.125-1.631-0.309-1.836,0.887
		C117.928,188.983,117.684,189.729,117.429,190.721z M62.915,194.974c2.223,0.014,3.251-0.705,3.846-2.822
		c0.345-1.229,0.586-2.487,0.838-3.74c0.092-0.457,0.182-1.039-0.518-1.089c-0.597-0.042-1.329-0.323-1.737,0.371
		c-0.236,0.401-0.318,0.9-0.432,1.364c-0.248,1.007-0.415,2.038-0.729,3.022c-0.176,0.555-0.678,0.93-1.32,0.775
		c-0.693-0.167-0.763-0.729-0.65-1.322c0.194-1.021,0.396-2.039,0.618-3.054s-0.279-1.232-1.172-1.223
		c-0.771,0.008-1.172,0.285-1.308,1.055c-0.166,0.943-0.441,1.866-0.608,2.809C59.294,193.649,60.383,194.957,62.915,194.974z
		 M107.923,187.193c-2.565,0.021-4.485,1.993-4.478,4.6c0.005,2.057,1.336,3.228,3.615,3.18c2.46-0.052,4.312-1.963,4.328-4.466
		C111.401,188.355,110.166,187.175,107.923,187.193z M54.022,194.972c2.596,0.049,4.55-1.86,4.566-4.463
		c0.014-2.07-1.13-3.247-3.221-3.314c-2.702-0.088-4.705,1.867-4.713,4.598C50.649,193.773,51.876,194.932,54.022,194.972z
		 M46.657,189.63c0.971-0.738,1.864-0.468,2.681-0.522c0.658-0.044,1.027-0.304,1.079-0.991c0.064-0.854-0.522-0.837-1.087-0.842
		c-1.035-0.01-2.074,0.055-3.104-0.021c-1.061-0.078-1.596,0.268-1.773,1.375c-0.264,1.646-0.684,3.266-1.028,4.899
		c-0.109,0.519-0.407,1.194,0.435,1.309c0.726,0.099,1.807,0.407,1.89-0.773c0.136-1.931,1.208-2.341,2.85-2.127
		c0.153,0.02,0.32-0.01,0.471-0.053c0.559-0.162,0.679-0.65,0.698-1.118c0.022-0.536-0.44-0.547-0.834-0.596
		C48.251,190.083,47.504,190.373,46.657,189.63z M99.35,188.174c0.043-0.494-0.061-0.868-0.58-0.873
		c-1.904-0.016-3.81-0.019-5.714-0.002c-0.746,0.006-0.849,0.573-0.904,1.155c-0.044,0.463,0.118,0.825,0.611,0.804
		c1.579-0.068,1.365,0.846,1.092,1.858c-0.206,0.765-0.357,1.545-0.51,2.322c-0.116,0.589-0.486,1.334,0.559,1.434
		c0.772,0.073,1.627,0.218,1.842-0.93c0.19-1.013,0.529-2.002,0.653-3.021c0.138-1.135,0.556-1.769,1.806-1.646
		C98.998,189.354,99.36,188.894,99.35,188.174z M99.005,194.834c1.094-0.071,2.284,0.623,2.604-0.692
		c0.534-2.194,1.183-4.396,1.302-6.686c-2.266-0.194-2.282-0.198-2.687,1.629C99.814,190.923,99.441,192.769,99.005,194.834z"/>
	<path fill-rule="evenodd" clip-rule="evenodd" fill="#FEFEFE" d="M294.171,99.481c0.964,1.384,2.135,2.608,3.439,3.636
		c3.14,2.474,4.445,5.929,5.348,9.597c0.479,1.945-0.084,3.81-0.999,5.545c-1.25,2.373-2.994,4.311-5.258,5.77
		c-0.514,0.331-1.343,0.546-1.159,1.312c0.172,0.718,0.942,0.334,1.457,0.396c4.341,0.523,7.708,2.893,10.838,5.712
		c0.466,0.42,0.358,0.863-0.055,1.221c-0.355,0.307-0.777,0.535-1.158,0.79c-6.209-6.447-13.862-7.053-21.984-5.679
		c-1.754,0.297-3.278,1.271-4.599,2.47c-0.945,0.857-1.777,1.839-2.713,2.708c-0.685,0.635-1.151,1.998-2.053,1.781
		c-0.986-0.237-1.813-1.236-2.645-1.975c-0.468-0.416-0.456-0.964-0.06-1.506c0.619-0.847,1.264-1.652,2.217-2.148
		c1.979-1.028,3.9-2.197,5.956-3.037c1.292-0.529,2.786-0.566,4.52-0.884c-3.149-2.355-5.438-5.082-5.313-8.956
		c-0.249-0.391-0.513-0.35-0.702-0.265c-4.409,1.986-8.44,4.531-11.642,8.21c-0.996,1.144-2.388,1.853-3.195,3.199
		c-0.609,1.018-1.396,1.878-1.607,3.15c-0.197,1.186-1.262,1.965-1.974,2.894c-2.533,3.306-4.135,6.992-4.748,11.111
		c-0.22,1.472-0.275,3.018,1.003,3.964c1.527,1.131,2.932-0.005,4.151-0.831c1.946-1.318,3.093-3.201,3.031-5.627
		c-0.013-0.52,0.011-0.926,0.357-1.299c0.28-0.302,0.626-0.61,1.027-0.495c0.438,0.127,0.488,0.606,0.451,1.006
		c-0.17,1.834-0.407,3.673-1.315,5.306c-1.359,2.441-2.802,4.836-4.226,7.24c-0.283,0.479-0.597,0.956-0.977,1.358
		c-1.627,1.723-3.356,1.776-4.982,0.078c-1.282-1.338-2.119-2.817-2.268-4.836c-0.427-5.796,1.567-10.67,5.181-15.005
		c1.101-1.32,1.765-2.832,2.406-4.382c0.477-1.154,0.363-2.15-0.574-3.059c-0.686-0.665-1.27-1.433-1.913-2.144
		c-1.663-1.838-3.656-2.212-5.778-0.938c-2.805,1.683-5.466,3.561-7.852,5.833c-1.677,1.598-3.37,3.174-5.019,4.802
		c-1.396,1.377-2.887,2.427-5.114,1.425c-0.836-0.377-2.035,0.041-3.067,0.11c-5.704,0.387-11.909-3.896-10.947-11.08
		c0.489-3.656,0.777-7.316,0.741-10.995c-0.049-4.963,0.45-9.888,0.779-14.83c0.388-5.824,0.21-11.67,0.125-17.509
		c-0.075-5.114-0.131-10.226,0.362-15.336c0.32-3.312,1.471-6.376,2.392-9.503c0.834-2.829,1.928-5.583,2.707-8.437
		c0.208-0.761,0.489-1.521,1.143-2.056c0.711,0.126,0.789,0.645,0.853,1.223c0.184,1.659,0.383,3.313,0.288,4.989
		c-0.036,0.636-0.135,1.331,0.062,1.909c1.247,3.687,0.694,7.406,0.454,11.157c-0.356,5.584-0.476,11.183-0.672,16.777
		c-0.152,4.315-0.394,8.626-0.347,12.949c0.039,3.591,0.876,7.15,0.371,10.762c-0.177,1.264-0.22,2.547-0.396,3.811
		c-0.771,5.49-0.075,11.018-0.431,16.518c-0.03,0.473,0.022,0.962,0.109,1.43c0.473,2.548,1.001,2.794,3.511,2.238
		c2.471-0.547,4.606-1.554,6.58-3.187c1.556-1.287,3.47-2.141,5.717-3.48c-2.877-0.27-5.099,0.095-7.289,0.771
		c-0.471,0.146-0.961,0.399-1.102,0.859c-0.42,1.378-1.597,1.462-2.699,1.78c-1.405,0.406-1.563,0.319-1.586-1.2
		c-0.023-1.491,0.523-2.821,1.182-4.106c2.246-4.384,5.176-8.242,8.893-11.495c2.24-1.961,3.772-4.546,5.807-6.693
		c0.313-0.331,0.668-0.885,0.601-1.264c-0.18-1.006,0.514-1.464,1.035-2.012c0.943-0.991,2.026-0.84,2.656,0.4
		c0.395,0.777,0.589,1.653,0.901,2.473c1.605,4.212,4.092,7.93,6.574,11.647c0.573,0.858,1.266,1.634,1.609,2.647
		c0.446,1.317,0.902,1.466,1.931,0.557c0.953-0.844,1.81-1.8,2.675-2.738c4.885-5.296,11.304-7.56,18.067-9.098
		c1.919-0.436,3.008,0.601,2.892,2.552c-0.047,0.793-0.246,1.574-0.348,2.365c-0.11,0.87-0.266,1.744-0.264,2.616
		c0.004,3.086,2.813,4.377,5.26,3.846c2.324-0.505,4.24-1.629,5.389-3.952c0.438-0.886,0.658-1.659,0.349-2.461
		c-0.651-1.688-1.091-3.546-2.882-4.538c-0.495-0.274-0.918-0.706-1.095-1.241c-0.693-2.091-2.363-3.408-3.929-4.713
		c-1.396-1.164-2.379-2.569-3.23-4.086c-1.44-2.567-0.764-6.37,1.621-8.262c1.461-1.159,2.998-2.111,4.694-2.837
		c0.545-0.233,1.148-0.358,1.437,0.326c0.654,1.556,2.051,2.602,2.671,4.225c0.67,1.759,1.844,2.288,3.37,2.033
		c1.543-0.258,2.146-1.036,1.907-2.621c-0.101-0.668-0.267-1.264,0.546-1.585c0.771-0.306,0.936,0.337,1.252,0.767
		c0.792,1.079,1.643,1.938,3.197,1.436c2.396-0.772,2.595-1.467,0.815-3.233c-1.576-1.564-1.607-1.731-0.807-3.473
		c0.239-0.521,0.446-1.144,1.166-0.887c0.56,0.2,1.378,0.428,1.172,1.254c-0.35,1.403,0.512,2.028,1.438,2.717
		c1.849,1.373,2.661,4.605,1.745,6.708c-0.238,0.545-0.664,0.879-1.148,1.177c-1.689,1.04-3.472,1.831-5.489,1.991
		c0.167,0.731,0.603,0.753,1.104,0.567c1.296-0.481,2.708,0.102,4.013-0.48c0.567-0.253,0.886,0.211,0.901,0.762
		c0.031,1.119,0.025,2.238,0.021,3.357c-0.008,1.919-0.045,3.839-0.032,5.758c0.005,0.716,0.113,1.433,0.174,2.14
		c0.794,0.429,1.185-0.294,1.696-0.561c3.321-1.729,7.78,0.158,8.391,3.852c0.635,3.848,1.208,7.759,0.567,11.684
		c-0.398,2.443,0.18,4.759,0.665,7.105c0.214,1.03,0.946,1.433,1.813,1.694c0.912,0.275,1.309,0.822,1.166,1.782
		c-0.154,1.033-0.575,1.75-1.688,2.054c-1.922,0.523-4.82-1.744-4.995-3.826c-0.094-1.113-0.19-2.237-0.144-3.351
		c0.188-4.484-0.309-8.949-0.327-13.427c0-0.08-0.008-0.16-0.014-0.239c-0.155-2.157-0.971-3.39-2.281-3.448
		c-1.874-0.083-3.827,1.505-4.002,3.41c-0.108,1.185,0.046,2.393,0.058,3.59c0.021,2.115-1.671,3.268-3.671,2.537
		c-0.559-0.203-0.67-0.66-0.709-1.134c-0.324-3.971-1.829-7.823-1.459-11.839c0.257-2.796,0.207-5.563,0.094-8.347
		c-0.04-0.979-1.332-2.549-2.24-2.707c-0.2-0.035-0.499,0.041-0.637,0.18c-2.725,2.738-5.778,2.06-8.885,0.883
		c-0.869-0.908-1.979-1.627-2.402-2.893c-0.3-0.898-0.536-1.817-0.787-2.731c-0.106-0.386-0.184-0.829-0.702-0.756
		c-0.434,0.061-0.655,0.42-0.68,0.849c-0.023,0.395-0.047,0.801,0.02,1.187C290.434,97.118,292.123,98.458,294.171,99.481z
		 M252.075,119.028c-0.014,0.008-0.028,0.017-0.042,0.024c-0.427-1.316-1.453-2.249-2.18-3.374
		c-0.783-1.213-1.945-1.507-2.939-0.575c-1.109,1.039-2.366,1.995-3.369,3.558c2.776-0.077,5.227,0.021,7.64,0.532
		C251.506,119.262,251.81,119.238,252.075,119.028z"/>
	<path fill-rule="evenodd" clip-rule="evenodd" fill="#FEFEFE" d="M352.375,150.582c5.643,0.384,10.594-0.993,14.537-5.234
		c0.672-0.723,1.13-1.466,1.2-2.514c0.483-7.174,1.115-14.339,1.097-21.536c-0.004-1.437-0.05-2.884-0.228-4.307
		c-0.263-2.102-0.749-2.406-2.833-2.137c-1.345,0.175-2.69,0.373-4.042,0.457c-1.017,0.063-1.644-0.585-1.642-1.555
		c0.001-1.002,0.583-1.411,1.533-1.407c2.594,0.009,5.187-0.202,7.781,0.018c0.389,0.033,0.811,0.015,1.18-0.102
		c2.629-0.823,5.345-0.874,8.054-0.895c1.199-0.01,2.147-0.198,2.834-1.324c0.357-0.587,0.979-1.062,1.573-1.447
		c1.453-0.944,2.936-1.243,4.367,0.106c0.221,0.208,0.532,0.32,0.762,0.453c0.706-0.365,0.749-1.088,1.104-1.605
		c0.257-0.374,0.592-0.517,1.02-0.431c0.491,0.098,0.545,0.495,0.598,0.902c0.098,0.763-0.319,1.564,0.223,2.435
		c0.752-0.417,1.477-0.866,2.242-1.231c0.721-0.344,0.857-0.829,0.632-1.552c-0.823-2.632,0.499-4.642,2.006-6.555
		c0.726-0.921,1.736-1.356,2.948-1.33c1.786,0.038,2.395,0.671,2.496,2.442c0.082,1.446-0.481,2.604-1.194,3.797
		c-0.911,1.523-0.794,1.737,0.715,2.772c0.132,0.09,0.257,0.191,0.386,0.285c2.551,1.86,2.644,2.362,0.857,5.005
		c-0.671,0.992-1.386,1.954-2.084,2.927c-0.187,0.26-0.448,0.482-0.567,0.767c-0.462,1.098-1.116,2.251-0.368,3.408
		c0.718,1.111,1.961,0.895,3.069,0.817c1.21-0.085,2.349-0.413,3.344-1.163c0.771-0.582,1.609-1.038,2.633-1.052
		c0.539,0.584,0.324,1.197-0.017,1.74c-1.663,2.647-4.084,4.022-7.205,3.947c-2.175-0.054-3.632-1.476-4.918-3.056
		c-0.379-0.465-0.387-1.019-0.176-1.59c0.738-1.993,0.773-4.243,2.243-5.973c0.49-0.577,0.527-1.336,0.446-2.06
		c-0.148-1.32-0.989-1.897-2.306-1.516c-0.677,0.196-1.37,0.263-2.041,0.608c-1.857,0.96-1.89,0.897-3.198-0.933
		c-0.835,1.046-0.813,2.364-1.405,3.661c0.8,0.146,1.062-0.468,1.493-0.645c0.578-0.237,1.074-0.151,1.549,0.259
		c0.554,0.479,0.403,0.982,0.092,1.492c-0.542,0.886-1.027,1.817-1.666,2.628c-0.84,1.063-2.162,1.862-3.331,1.239
		c-1.264-0.674-2.086-0.336-3.067,0.233c-1.374,0.796-2.584,0.712-4.011-0.162c-1.046-0.642-1.479-1.321-1.554-2.428
		c-0.059-0.867-0.167-1.731-0.253-2.6c-2.72,0.43-2.979,0.678-3.501,3.042c-0.261,1.18-0.362,2.362-0.315,3.568
		c0.249,6.467,0.554,12.934,0.701,19.403c0.075,3.294-0.803,6.47-1.789,9.596c-0.202,0.639-0.751,1.03-1.218,1.452
		c-3.029,2.741-6.568,4.453-10.577,5.232c-2.887,0.561-5.741,1.231-8.721,0.498c-0.917-0.225-1.482-0.506-1.486-1.488
		C352.369,154.133,352.375,152.314,352.375,150.582z M386.625,113.925c-0.203-0.643,0.051-1.497-0.639-1.946
		c-0.581-0.379-1.359-0.28-1.78,0.175c-1.04,1.122-1.809,2.42-1.594,4.07c0.128,0.975,0.736,1.127,1.545,0.919
		C385.412,116.819,386.606,115.26,386.625,113.925z"/>
	<path fill-rule="evenodd" clip-rule="evenodd" fill="#FEFEFE" d="M220.149,92.576c-0.491,1.124,1.126,2.266,0.524,3.461
		c-0.581,1.155-1.186,2.271-1.269,3.562c-0.298,4.644-1.438,9.129-2.452,13.643c-0.699,3.11-2.188,6.004-2.481,9.222
		c-0.089,0.966-0.935,1.345-1.608,1.611c-3.644,1.44-6.847,3.763-10.521,5.135c-3.37,1.259-6.589,2.855-9.706,4.647
		c-3.192,1.835-6.565,3.25-9.989,4.585c-1.705,0.665-3.291,0.265-4.919-0.066c-0.946-0.192-0.794-0.939-0.529-1.507
		c0.503-1.073,1.468-1.694,2.58-1.978c1.572-0.399,2.9-1.188,4.249-2.072c5.415-3.549,10.371-7.697,15.497-11.624
		c2.588-1.982,5.266-3.85,7.898-5.775c1.87-1.369,3.534-2.971,5.184-4.588c0.754-0.739,1.317-1.601,1.785-2.533
		c0.681-1.358,1.184-2.782,1.646-4.231C217.298,100.121,217.719,95.871,220.149,92.576z"/>
	<path fill-rule="evenodd" clip-rule="evenodd" fill="#FEFEFE" d="M349.807,111.529c1.347-0.504,2.612-1.344,4.079-1.687
		c2.433-0.568,4.736,0.823,5.07,3.313c0.242,1.811,0.51,3.623,0.286,5.485c-0.404,3.359,0.33,6.683,0.505,10.025
		c0.032,0.637,0.195,1.274,0.162,1.904c-0.115,2.182,0.846,3.847,2.403,5.244c0.397,0.356,1.049,0.548,0.789,1.284
		c-0.237,0.672-0.154,1.486-0.704,2.008c-0.476,0.451-1.094,0.24-1.558-0.063c-2.185-1.432-3.865-3.264-4.609-5.854
		c-0.986-3.436-1.124-6.912-0.701-10.442c0.257-2.138,0.242-4.272-0.246-6.396c-0.164-0.714-0.149-1.503-1.043-1.674
		c-1.011-0.194-2.123-0.381-2.887,0.516c-2.271,2.667-4.104,5.522-3.135,9.285c0.248,0.963-0.195,1.137-0.984,1.052
		c-0.316-0.034-0.631-0.1-0.948-0.128c-3.341-0.296-3.383-0.3-2.98-3.509c0.896-7.148,1.05-14.311,0.521-21.493
		c-0.107-1.459,0.106-1.757,1.587-1.499c3.81,0.665,5.679,0.561,4.624,5.425c-0.369,1.705-0.415,3.483-0.564,5.231
		C349.421,110.161,349.235,110.813,349.807,111.529z"/>
	<path fill-rule="evenodd" clip-rule="evenodd" fill="#FEFEFE" d="M330.71,110.018c-1.843,2.483-1.857,6.194-0.318,8.15
		c1.683,2.14,4.561,2.595,7.364,1.04c1.17-0.648,2.461-1.14,3.381-2.208c0.532-0.617,1.117-0.506,1.617,0.098
		c0.538,0.65,0.386,1.217-0.333,1.544c-0.726,0.33-1.016,0.934-1.367,1.574c-1.353,2.468-3.993,3.736-6.651,3.077
		c-1.696-0.42-3.319-1.109-4.868-1.957c-1.106-0.604-1.76-1.556-2.351-2.617c-2.494-4.476-1.591-9.423,2.366-12.574
		c0.92-0.732,1.708-1.625,2.985-1.902c3.434-0.742,6.397,1.679,6.743,3.896c0.559,3.579-0.4,6.091-3.978,7.469
		c-1.546,0.596-3.229-0.234-4.032-1.758C330.69,112.752,330.67,111.555,330.71,110.018z M335.062,108.211
		c-1.144-0.046-2.378,0.95-2.356,1.901c0.021,0.933,1.175,2.259,2.014,2.314c1.286,0.087,2.184-0.676,2.24-1.904
		C337.016,109.308,336.152,108.255,335.062,108.211z"/>
	<path fill-rule="evenodd" clip-rule="evenodd" fill="#FEFEFE" d="M304.547,76.188c-1.367,0.01-2.211-0.66-3.08-1.423
		c-1.122-0.985-1.334-0.89-2.14,0.395c-1.485,2.373-5.363,2.892-7.256,0.922c-0.619-0.645-1.021-1.434-0.401-2.373
		c1.097-1.662,2.143-3.357,3.246-5.014c0.343-0.515,0.842-0.695,1.451-0.323c0.754,0.46,1.441,0.976,2.057,1.625
		c1.11,1.17,1.308,1.133,2.348-0.183c0.495-0.627,0.974-1.269,1.436-1.921c0.577-0.818,1.293-1.026,1.975-0.25
		c1.195,1.363,2.685,2.247,4.309,2.958c0.396,0.173,0.664,0.4,0.589,0.892c-0.125,0.813-3.208,4.421-3.977,4.615
		C304.874,76.167,304.63,76.176,304.547,76.188z"/>
	<path fill-rule="evenodd" clip-rule="evenodd" fill="#FEFEFE" d="M235.461,140.2c0.537,0.966,0.927,1.753,1.395,2.49
		c0.945,1.493,2.038,2.688,4.097,2.025c0.929-0.3,1.208,0.322,0.936,1.058c-0.581,1.569-1.244,3.116-2.38,4.393
		c-0.584,0.656-1.155,1.328-1.781,1.942c-0.654,0.643-0.91,1.855-2.063,1.802c-1.509-0.069-3.092-0.132-4.351-1.104
		c-2.576-1.989-3.186-3.563-2.09-6.141c0.447-1.054,1.184-1.9,2.002-2.663C232.566,142.753,233.952,141.551,235.461,140.2z"/>
	<path fill-rule="evenodd" clip-rule="evenodd" fill="#FEFEFE" d="M310.344,132.888c1.098,0.895,2.226,1.756,3.288,2.69
		c3.039,2.671,6.693,3.944,10.572,4.697c0.614,0.119,1.276,0.081,1.904,0.013c4.636-0.502,9.081-1.684,13.24-3.829
		c1.415-0.73,2.788-1.541,4.195-2.286c0.419-0.221,0.965-0.446,1.331-0.032c0.402,0.456-0.002,0.92-0.336,1.22
		c-1.3,1.165-2.463,2.58-4.202,3.087c-2.493,0.726-4.683,2.29-7.372,2.506c-1.079,0.087-2.182,0.403-3.17,1.003
		c-0.758,0.459-1.652,0.573-2.545,0.537c-6.034-0.243-11.317-2.309-15.696-6.527C310.522,134.972,310.547,134.946,310.344,132.888z"
		/>
	<path fill-rule="evenodd" clip-rule="evenodd" fill="#FEFEFE" d="M299.34,168.633c-0.602,0.536-1.464,0.104-2.155,0.365
		c-0.215,0.081-0.435,0.199-0.386,0.51c0.041,0.266,0.192,0.446,0.446,0.453c0.706,0.021,1.414,0.008,2.332,0.008
		c-0.481,0.869-1.199,0.785-1.819,0.888c-0.337,0.055-0.631,0.184-0.626,0.567c0.005,0.499,0.384,0.65,0.8,0.693
		c1.622,0.168,2.35-0.318,2.877-1.9c1.165-3.497,1.962-3.64,4.578-0.899c0.861,0.902,1.836,1.696,2.812,2.589
		c0.65-2.842,0.619-2.936-1.278-3.993c0.657-0.453,1.378-0.242,2.054-0.267c1.831-0.066,3.665,0.078,5.496-0.165
		c0.784-0.105,1.611-0.097,2.365,0.204c0.584,0.232,1.434,0.686,0.943,1.312c-0.442,0.565-0.181,2.05-1.626,1.627
		c-0.663-0.194-1.117-0.016-1.167,0.726c-0.058,0.854-0.669,1.159-1.308,1.03c-0.677-0.137-0.408-0.928-0.535-1.43
		c-0.097-0.379-0.084-0.792-0.081-1.19c0.005-0.819-0.194-1.347-1.199-1.345c-1.171,0.003-1.276,0.685-1.217,1.564
		c0.038,0.557,0.073,1.114,0.129,1.669c0.1,1.002-0.676,1.55-1.265,1.108c-0.892-0.669-2.079-0.243-2.867-1.184
		c-0.771-0.919-2.068-0.67-3.157-0.835c-0.705-0.106-0.93,0.452-1.199,0.948c-0.507,0.931-1.201,1.313-2.349,1.149
		c-1.168-0.166-2.382-0.001-3.576,0.005c-0.767,0.004-1.08-0.386-1.196-1.16c-0.53-3.546,0.474-4.4,4.139-3.437
		C299.33,168.251,299.32,168.395,299.34,168.633z M316.147,169.409c0.109,0.002,0.468-0.256,0.535-0.634
		c0.046-0.258-0.281-0.523-0.619-0.604c-0.535-0.128-0.715,0.201-0.735,0.626C315.313,169.09,315.356,169.44,316.147,169.409z
		 M303.762,169.018c-0.207-0.025-0.335,0.12-0.376,0.364c-0.05,0.292,0.167,0.426,0.375,0.466c0.316,0.063,0.618-0.019,0.535-0.447
		C304.253,169.173,304.083,169.019,303.762,169.018z"/>
	<path fill-rule="evenodd" clip-rule="evenodd" fill="#FEFEFE" d="M332.777,163.696c-2.564,2.064-5.172,2.606-8.047,2.204
		c-3.309-0.464-5.711-2.32-7.543-4.995c-0.792-1.155-1.025-2.495-0.933-3.883c0.069-1.052,0.713-1.386,1.566-0.812
		c0.258,0.174,0.517,0.408,0.663,0.676c1.779,3.262,4.713,4.571,8.229,4.864C328.735,161.919,330.623,162.472,332.777,163.696z"/>
	<path fill-rule="evenodd" clip-rule="evenodd" fill="#FEFEFE" d="M305.703,59.704c-0.721,1.65-1.849,2.797-2.922,3.932
		c-1.675,1.769-4.391,1.975-6.243,0.832c-0.998-0.617-1.112-1.23-0.514-2.132c1.008-1.52,2.144-2.948,2.682-4.758
		c0.244-0.817,1.464-0.756,2.438,0.008C303.349,59.315,303.349,59.315,305.703,59.704z"/>
	<path fill-rule="evenodd" clip-rule="evenodd" fill="#FEFEFE" d="M376.945,105.368c-0.064,2.391-2.379,4.638-4.716,4.58
		c-1.773-0.044-3.246-1.437-3.128-3.176c0.156-2.292,1.573-4.563,4.484-4.561C375.643,102.212,376.997,103.502,376.945,105.368z"/>
	<path fill-rule="evenodd" clip-rule="evenodd" fill="#FEFEFE" d="M297.522,138.614c-1.777-0.17-3.957-0.601-5.827-1.993
		c-0.319-0.237-0.627-0.495-0.92-0.766c-0.572-0.53-0.984-1.263-0.512-1.911c0.593-0.811,1.519-0.497,2.112,0.06
		c1.153,1.081,2.487,1.642,3.995,2.039c1.82,0.479,3.464,0.354,5.041-0.688c0.531-0.352,1.101-0.649,1.673-0.931
		c0.444-0.219,0.947-0.348,1.263,0.189c0.346,0.585,0.509,1.229-0.171,1.7C302.314,137.601,300.364,138.678,297.522,138.614z"/>
	<path fill-rule="evenodd" clip-rule="evenodd" fill="#FEFEFE" d="M278.367,138.667c-1.116-0.064-2.377-0.046-3.558-0.688
		c-0.602-0.327-0.782-0.674-0.652-1.313c0.137-0.675,0.533-0.945,1.175-0.896c0.95,0.072,1.904,0.129,2.846,0.267
		c2.466,0.36,4.737,0.072,6.652-1.72c0.58-0.542,1.262-0.979,2.131-0.904c0.376,0.032,0.836-0.095,1.021,0.371
		c0.161,0.402,0.033,0.819-0.29,1.079c-1.414,1.138-2.705,2.461-4.502,3.034C281.668,138.383,280.123,138.709,278.367,138.667z"/>
	<path fill-rule="evenodd" clip-rule="evenodd" fill="#FEFEFE" d="M335.542,147.384c-1.969,0.236-3.538,0.992-5.106,1.772
		c-0.372,0.185-0.806,0.67-1.253,0.13c-0.375-0.451-0.112-0.904,0.121-1.318c0.154-0.273,0.311-0.587,0.553-0.765
		c4.083-2.992,9.085-2.684,12.03,1.275c0.32,0.431,0.519,0.99,0.643,1.521c0.135,0.57-0.05,1.229-0.595,1.424
		c-0.573,0.205-1.105-0.224-1.27-0.805c-0.53-1.878-2.057-2.5-3.68-2.995C336.464,147.464,335.9,147.44,335.542,147.384z"/>
	<path fill-rule="evenodd" clip-rule="evenodd" fill="#FEFEFE" d="M323.033,146.946c-0.023,0.863-0.854,1.35-1.506,0.908
		c-0.451-0.307-0.793-0.771-1.22-1.121c-2.377-1.948-5.384-1.746-7.491,0.491c-0.108,0.115-0.183,0.263-0.295,0.374
		c-0.522,0.519-0.97,1.566-1.866,0.718c-0.782-0.74-0.027-1.448,0.442-2.066c1.129-1.483,2.487-2.632,4.331-3.177
		c2.805-0.828,6.197,0.639,7.405,3.281C322.93,146.566,322.984,146.798,323.033,146.946z"/>
	<path fill-rule="evenodd" clip-rule="evenodd" fill="#FEFEFE" d="M292.998,164.087c0.017,0.392-0.228,0.589-0.563,0.624
		c-0.71,0.074-1.425,0.129-2.139,0.141c-2.211,0.038-2.227,0.028-2.227,2.32c0,1.674,0.068,3.347,0.059,5.021
		c-0.002,0.427,0.1,1.051-0.585,1.102c-0.74,0.054-0.908-0.511-0.966-1.103c-0.17-1.745-0.327-3.49-0.494-5.235
		c-0.177-1.834-0.18-1.828-1.938-1.863c-0.634-0.013-1.283,0.021-1.895-0.112c-0.385-0.083-0.612-0.503-0.522-0.951
		c0.085-0.42,0.472-0.354,0.753-0.359c3.189-0.059,6.378-0.1,9.567-0.147C292.486,163.516,292.816,163.672,292.998,164.087z"/>
	<path fill-rule="evenodd" clip-rule="evenodd" fill="#FEFEFE" d="M281.056,154.431c0.83-3.221,4.221-5.558,8.302-5.721
		c3.187-0.128,4.571,0.569,5.315,2.699c-0.748,0.389-1.422-0.086-2.017-0.32c-3.751-1.479-6.804-0.264-9.519,2.33
		C282.206,154.31,282.244,154.349,281.056,154.431z"/>
	<path fill-rule="evenodd" clip-rule="evenodd" fill="#FEFEFE" d="M323.615,168.055c-0.457,0.181-0.664,0.258-0.868,0.344
		c-0.656,0.276-1.839-0.576-1.97,0.582c-0.1,0.884,1.335,0.11,1.717,1.04c-0.192,0.699-1.501,0.08-1.528,0.99
		c-0.031,1.033,1.185,0.563,1.536,1.173c-2.042,1.071-3.102,0.894-5.228-0.896c0.101-0.812,1.069-0.018,1.215-0.604
		c0.113-0.454,0.11-0.942,0.124-1.417c0.066-2.264,0.066-2.271,2.33-2.002c0.714,0.085,1.427,0.183,2.136,0.305
		C323.203,167.592,323.3,167.763,323.615,168.055z"/>
	<path fill-rule="evenodd" clip-rule="evenodd" fill="#FEFEFE" d="M293.993,167.949c0.33,1.427,0.961,2.865,0.684,4.48
		c-0.887-0.05-0.845-0.705-0.95-1.224c-0.121-0.596-0.487-0.749-1.035-0.704c-0.569,0.047-0.896,0.309-0.837,0.903
		c0.04,0.411,0.033,0.791-0.284,1.103c-0.42,0.412-0.916,0.497-1.125-0.104c-0.505-1.448-0.603-2.965-0.427-4.488
		c0.047-0.413,0.278-0.759,0.738-0.805c0.518-0.051,0.664,0.317,0.725,0.742c0.022,0.158,0.035,0.318,0.066,0.475
		c0.122,0.608,0.087,1.319,1.065,1.237c0.834-0.069,0.724-0.674,0.811-1.207C293.457,168.152,293.452,167.848,293.993,167.949z"/>
	<path fill-rule="evenodd" clip-rule="evenodd" fill="#3F4196" d="M87.351,96.076c0.527-0.144,0.709-0.142,0.817-0.23
		c8.913-7.242,19.233-11.618,30.132-14.822c1.379-0.406,2.74-0.9,4.142-1.2c1.082-0.231,1.461-0.765,1.39-1.822
		c-0.086-1.297,0.257-2.543,0.682-3.752c2.145-6.107,8.579-9.482,14.628-7.693c6.101,1.805,9.905,8.252,8.484,14.514
		c-1.124,4.954-4.117,8.371-9.083,9.509c-4.945,1.134-9.171-0.461-12.282-4.572c-0.677-0.895-1.199-1.453-2.505-1.078
		c-7.228,2.076-14.379,4.34-21.11,7.756c-4.941,2.507-9.47,5.629-13.768,9.123c-1.195,0.971-1.693,1.978-1.554,3.474
		c0.111,1.189-0.006,2.398,0.027,3.597c0.021,0.808-0.306,1.167-1.12,1.158c-1.76-0.019-3.52-0.028-5.279,0.007
		c-0.967,0.019-1.231-0.461-1.201-1.331c0.039-1.118-0.077-2.247,0.028-3.357c0.149-1.575-0.416-2.621-1.654-3.659
		C70.222,95.07,61.231,90.51,51.461,87.396c-3.119-0.994-6.274-1.874-9.407-2.825c-1.113-0.338-1.802-0.156-2.533,0.955
		c-3.345,5.085-8.835,6.948-14.164,4.982c-5.167-1.906-8.605-7.502-7.946-12.935c0.725-5.984,5.021-10.409,10.829-11.153
		c6.134-0.786,12.298,4.048,13.021,10.447c0.19,1.678,0.792,2.292,2.325,2.685c6.431,1.647,12.738,3.686,18.829,6.354
		c5.592,2.448,10.843,5.47,15.659,9.233c0.417,0.325,0.735,0.854,1.661,0.776c0-3.539,0.003-7.092-0.002-10.646
		c-0.001-0.708-0.532-1.143-0.927-1.629c-5.2-6.388-10.423-12.758-15.602-19.164c-0.715-0.883-1.271-1.043-2.393-0.575
		c-4.735,1.975-9.149,1.238-12.861-2.303c-3.76-3.587-4.789-8.101-3.226-12.99c1.542-4.825,4.964-7.728,10.07-8.415
		c7.989-1.075,14.857,6.659,13.142,14.763c-0.266,1.258-0.614,2.501-1.298,3.59c-0.544,0.867-0.55,1.507,0.14,2.338
		c4.084,4.924,8.111,9.896,12.166,14.845c0.132,0.161,0.26,0.43,0.814,0.154c0-0.617,0-1.384,0-2.15
		c0-10.158-0.025-20.316,0.028-30.474c0.008-1.576-0.342-2.484-1.893-3.33c-7.652-4.174-8.625-14.928-1.928-20.504
		c3.636-3.028,7.809-3.658,12.144-1.85c4.422,1.845,6.948,5.367,7.398,10.119c0.526,5.557-1.758,9.799-6.671,12.516
		c-0.892,0.493-1.527,0.853-1.521,2.083c0.057,11.037,0.035,22.075,0.041,33.113c0,0.221-0.037,0.474,0.235,0.626
		c0.558,0.026,0.75-0.47,1.029-0.811c3.499-4.267,6.989-8.541,10.474-12.819c1.222-1.5,1.212-1.508,0.125-3.196
		c-4.465-6.937-1.443-16.219,6.125-18.809c8.032-2.749,16.345,3.802,15.857,12.434c-0.434,7.68-7.457,13.463-15.22,11.328
		c-1.142-0.314-1.719-0.092-2.418,0.774c-5.073,6.285-10.195,12.532-15.302,18.79c-0.453,0.556-0.925,1.073-0.919,1.88
		C87.364,89.026,87.351,92.447,87.351,96.076z"/>
	<path fill-rule="evenodd" clip-rule="evenodd" fill="#3F4196" d="M36.135,154.85c2.975-1.475,5.649-2.718,8.246-4.106
		c4.178-2.233,8.033-4.931,11.376-8.321c3.729-3.781,6.511-8.095,7.362-13.434c0.208-1.305,0.778-1.656,2.033-1.642
		c4.956,0.062,9.914,0.018,14.871,0.029c2.204,0.005,2.327,0.136,1.919,2.321c-1.751,9.388-6.934,16.374-15.115,21.126
		c-7.583,4.404-15.87,5.664-24.507,4.968C40.342,155.632,38.337,155.546,36.135,154.85z"/>
	<path fill-rule="evenodd" clip-rule="evenodd" fill="#3F4196" d="M130.689,154.801c-1.068,0.178-2.125,0.407-3.193,0.521
		c-9.068,0.975-17.909,0.331-26.106-4.103c-8.721-4.717-14.343-11.809-16.161-21.698c-0.389-2.115-0.381-2.139,1.798-2.145
		c5.038-0.014,10.076,0.036,15.113-0.034c1.213-0.017,1.716,0.394,1.905,1.546c0.966,5.879,4.213,10.447,8.447,14.41
		c4.729,4.427,10.298,7.536,16.158,10.177c0.649,0.292,1.289,0.605,1.928,0.919C130.621,154.415,130.618,154.527,130.689,154.801z"
		/>
	<path fill-rule="evenodd" clip-rule="evenodd" fill="#3F4196" d="M128.873,94.679c-0.696,0.926-1.482,1.159-2.153,1.551
		c-5.405,3.155-10.485,6.734-14.776,11.335c-3.761,4.035-6.725,8.53-7.789,14.053c-0.184,0.956-0.553,1.358-1.557,1.353
		c-5.433-0.033-10.866,0.001-16.298-0.03c-1.313-0.007-1.417-0.187-1.177-1.644c1.138-6.917,4.481-12.574,9.864-17.021
		c5.893-4.868,12.835-7.341,20.247-8.667C119.641,94.819,124.096,94.565,128.873,94.679z"/>
	<path fill-rule="evenodd" clip-rule="evenodd" fill="#3F4196" d="M38.382,95.136c3.913-0.39,7.806-0.156,11.686,0.404
		c5.813,0.838,11.41,2.384,16.582,5.242c7.224,3.992,12.462,9.653,14.715,17.764c1.224,4.404,1.204,4.41-3.252,4.41
		c-4.396,0-8.792-0.021-13.188,0.016c-1.077,0.009-1.754-0.141-2.013-1.425c-1.126-5.597-4.222-10.113-8.083-14.164
		c-4.172-4.377-9.068-7.81-14.258-10.857c-0.744-0.436-1.615-0.692-2.169-1.421L38.382,95.136z"/>
	<path fill-rule="evenodd" clip-rule="evenodd" fill="#3F4196" d="M56.175,180.449c0.581-2.892,1.081-5.38,1.596-7.943
		c-1.799-0.456-3.473-0.171-5.125-0.239c-0.791-0.033-1.109,0.404-1.248,1.141c-0.354,1.884-0.786,3.752-1.139,5.636
		c-0.191,1.019-0.642,1.53-1.769,1.423c-1.661-0.158-3.346,0.184-5.003-0.185c-0.443-1.708,0.381-3.249,0.693-4.844
		c0.918-4.7,1.979-9.373,2.903-14.072c0.243-1.237,0.728-1.813,2.046-1.688c1.583,0.152,3.69-0.656,4.637,0.313
		c1.02,1.042-0.366,2.938-0.508,4.489c-0.029,0.315-0.108,0.632-0.209,0.934c-0.297,0.889-0.072,1.282,0.942,1.375
		c4.812,0.438,4.905,0.396,5.946-4.299c0.086-0.39,0.16-0.783,0.216-1.179c0.173-1.224,0.8-1.735,2.095-1.644
		c1.578,0.112,3.17,0.026,4.663,0.026c0.483,0.922,0.046,1.589-0.095,2.268c-1.138,5.473-2.293,10.941-3.45,16.41
		c-0.437,2.065-0.444,2.067-2.643,2.077C59.295,180.454,57.866,180.449,56.175,180.449z"/>
	<path fill-rule="evenodd" clip-rule="evenodd" fill="#3F4196" d="M67.277,180.449c0-0.67-0.069-1.078,0.01-1.454
		c1.241-5.938,2.514-11.869,3.741-17.811c0.178-0.857,0.34-1.507,1.438-1.5c5.188,0.029,10.378,0.013,15.494,0.013
		c0.139,0.307,0.284,0.468,0.255,0.587c-0.343,1.387-0.019,3.202-1.086,4.068c-0.965,0.784-2.624,0.215-3.976,0.251
		c-1.358,0.035-2.718-0.005-4.077,0.011c-2.076,0.022-2.076,0.031-2.197,2.551c3.093,0,6.183,0,9.28,0
		c-0.302,4.699-0.302,4.699-4.542,4.699c-1.359,0-2.718-0.011-4.077,0.003c-1.905,0.019-1.908,0.025-2.363,1.836
		c-0.096,0.379-0.167,0.765-0.316,1.449c3.673,0.235,7.224-0.024,10.785,0.155c0.034,0.353,0.117,0.588,0.066,0.79
		c-0.345,1.382-0.066,3.196-1.106,4.05c-1.045,0.858-2.772,0.277-4.198,0.289C76.101,180.472,71.792,180.449,67.277,180.449z"/>
	<path fill-rule="evenodd" clip-rule="evenodd" fill="#3F4196" d="M117.498,159.813c1.676,0,3.36-0.104,5.027,0.022
		c3.475,0.264,5.439,2.753,5.044,6.223c-0.415,3.646-3.135,6.304-6.999,6.728c-1.344,0.148-2.711,0.146-4.066,0.116
		c-0.884-0.019-1.301,0.318-1.466,1.174c-0.317,1.644-0.741,3.268-1.041,4.914c-0.183,1.003-0.541,1.586-1.702,1.476
		c-1.659-0.158-3.341,0.185-4.997-0.182c-0.491-1.709,0.356-3.241,0.674-4.833c0.939-4.69,1.999-9.357,2.914-14.053
		c0.248-1.271,0.775-1.762,2.063-1.686c1.512,0.09,3.033,0.021,4.55,0.021C117.498,159.76,117.498,159.786,117.498,159.813z
		 M116.289,168.273c1.611,0.313,2.918,0.272,3.998-0.761c1.009-0.967,0.99-2.532,0.004-3.08c-1.5-0.833-3.144-0.115-3.547,1.567
		C116.579,166.687,116.464,167.386,116.289,168.273z"/>
	<path fill-rule="evenodd" clip-rule="evenodd" fill="#3F4196" d="M95.691,174.941c3.554,0,6.634,0,9.652,0
		c0.093,0.367,0.192,0.533,0.16,0.668c-0.374,1.54-0.083,3.521-1.179,4.521c-1.036,0.944-2.909,0.279-4.41,0.304
		c-3.189,0.05-6.38,0.024-9.569,0.008c-0.78-0.004-1.585,0.141-2.494-0.267c0.518-2.58,1.02-5.146,1.549-7.706
		c0.773-3.743,1.593-7.477,2.333-11.226c0.22-1.115,0.663-1.672,1.893-1.569c1.654,0.137,3.33-0.119,5.225,0.198
		C97.813,164.821,96.791,169.696,95.691,174.941z"/>
	<path fill-rule="evenodd" clip-rule="evenodd" fill="#3F4196" d="M84.503,182.98c13.193,0,26.387-0.016,39.581,0.041
		c0.779,0.003,2.302-0.737,2.282,0.729c-0.014,1.019-1.449,0.561-2.234,0.562c-26.627,0.027-53.254,0.022-79.881,0.021
		c-0.559,0-1.119-0.01-1.676-0.044c-0.357-0.021-0.593-0.25-0.604-0.604c-0.01-0.35,0.201-0.623,0.557-0.647
		c0.716-0.048,1.437-0.055,2.156-0.055C57.956,182.979,71.229,182.98,84.503,182.98z"/>
	<path fill-rule="evenodd" clip-rule="evenodd" fill="#3F4196" d="M73.149,190.739c0.65-0.916,0.727-1.721,0.854-2.505
		c0.161-0.987,0.872-1.01,1.625-0.949c1.044,0.083,0.762,0.845,0.653,1.427c-0.308,1.646-0.659,3.285-1.02,4.921
		c-0.137,0.617-0.263,1.253-1.146,1.274c-0.855,0.021-1.544-0.058-1.896-1.025c-0.257-0.707-0.435-1.511-1.13-2
		c-0.71,0.3-0.509,0.959-0.655,1.442c-0.495,1.644-0.477,1.648-2.641,1.256c0.441-2.092,0.898-4.179,1.312-6.274
		c0.125-0.63,0.362-1.027,1.064-1.031c0.724-0.003,1.45-0.094,1.8,0.79C72.288,188.871,72.667,189.653,73.149,190.739z"/>
	<path fill-rule="evenodd" clip-rule="evenodd" fill="#3F4196" d="M117.429,190.721c0.254-0.991,0.499-1.737,0.63-2.503
		c0.205-1.195,1.084-1.012,1.836-0.887c0.825,0.138,0.542,0.824,0.436,1.332c-0.355,1.712-0.744,3.416-1.117,5.125
		c-0.123,0.559-0.245,1.107-0.996,1.102c-0.704-0.005-1.441,0.148-1.838-0.712c-0.388-0.842-0.608-1.782-1.443-2.773
		c-0.262,0.994-0.528,1.702-0.623,2.434c-0.151,1.165-0.948,1.136-1.756,1.027c-1.044-0.14-0.636-0.917-0.522-1.478
		c0.348-1.713,0.76-3.412,1.12-5.122c0.13-0.62,0.387-1.021,1.091-0.991c0.623,0.025,1.263-0.109,1.653,0.624
		C116.342,188.728,116.479,189.712,117.429,190.721z"/>
	<path fill-rule="evenodd" clip-rule="evenodd" fill="#3F4196" d="M83.533,193.936c-2.106,1.166-4.368,1.048-6.813,0.896
		c0.009-2.4,0.868-4.558,1.184-6.796c0.059-0.418,0.383-0.641,0.812-0.753c3.753-0.981,5.863,0.775,5.521,4.631
		c-0.025,0.278,0.096,0.439,0.229,0.627l0.044-0.047c-0.723,0.059-0.9,0.391-0.506,1.01l0.032-0.044
		c-0.589-0.253-0.572,0.112-0.522,0.512L83.533,193.936z M79.649,191.687c-0.058,0.671-0.178,1.132,0.349,1.24
		c0.281,0.059,0.687,0.014,0.893-0.158c0.858-0.715,1.116-1.712,0.993-2.775c-0.058-0.497-0.456-0.813-1.016-0.82
		c-0.488-0.007-0.695,0.291-0.794,0.708C79.908,190.574,79.747,191.269,79.649,191.687z"/>
	<path fill-rule="evenodd" clip-rule="evenodd" fill="#3F4196" d="M62.915,194.974c-2.532-0.017-3.621-1.324-3.17-3.854
		c0.167-0.942,0.442-1.865,0.608-2.809c0.136-0.77,0.536-1.047,1.308-1.055c0.893-0.01,1.394,0.208,1.172,1.223
		s-0.424,2.033-0.618,3.054c-0.113,0.593-0.043,1.155,0.65,1.322c0.642,0.154,1.144-0.221,1.32-0.775
		c0.314-0.984,0.48-2.016,0.729-3.022c0.114-0.464,0.196-0.963,0.432-1.364c0.408-0.694,1.14-0.413,1.737-0.371
		c0.699,0.05,0.61,0.632,0.518,1.089c-0.252,1.253-0.493,2.512-0.838,3.74C66.166,194.269,65.137,194.987,62.915,194.974z"/>
	<path fill-rule="evenodd" clip-rule="evenodd" fill="#3F4196" d="M107.923,187.193c2.243-0.019,3.478,1.162,3.464,3.313
		c-0.016,2.503-1.867,4.414-4.328,4.466c-2.279,0.048-3.61-1.123-3.615-3.18C103.438,189.187,105.358,187.215,107.923,187.193z
		 M106.004,191.505c-0.021,0.627-0.047,1.376,0.93,1.517c0.943,0.136,1.84-0.891,1.979-2.249c0.078-0.768-0.053-1.455-0.969-1.614
		C106.979,188.989,106.131,189.993,106.004,191.505z"/>
	<path fill-rule="evenodd" clip-rule="evenodd" fill="#3F4196" d="M54.022,194.972c-2.146-0.04-3.373-1.198-3.368-3.18
		c0.008-2.73,2.011-4.686,4.713-4.598c2.091,0.067,3.235,1.244,3.221,3.314C58.572,193.111,56.618,195.021,54.022,194.972z
		 M53.197,191.744c-0.01,0.526,0.06,1.242,1.051,1.284c0.944,0.039,1.792-1.05,1.876-2.368c0.051-0.802-0.177-1.438-1.09-1.517
		C54.079,189.061,53.275,190.134,53.197,191.744z"/>
	<path fill-rule="evenodd" clip-rule="evenodd" fill="#3F4196" d="M84.465,192.54c1.41-1.026,1.788-2.729,2.653-4.109
		c0.463-0.738,0.908-1.201,1.864-1.188c0.951,0.013,1.507,0.271,1.635,1.276c0.202,1.585,0.475,3.161,0.673,4.747
		c0.063,0.507,0.525,1.22-0.16,1.494c-0.609,0.245-1.414,0.426-1.97-0.286c-0.904-1.158-1.736-0.967-2.771-0.066
		c-1.029,0.894-1.873,0.667-2.855-0.472l-0.02,0.035c0.613,0.277,0.506-0.181,0.522-0.512l-0.032,0.044
		c0.545-0.148,0.67-0.506,0.506-1.01L84.465,192.54z M88.63,190.366c-0.555,0.413-0.818,0.783-0.673,1.304
		c0.025,0.093,0.281,0.213,0.376,0.178C89.094,191.562,88.768,190.999,88.63,190.366z"/>
	<path fill-rule="evenodd" clip-rule="evenodd" fill="#3F4196" d="M46.657,189.63c0.847,0.743,1.594,0.453,2.276,0.539
		c0.395,0.049,0.856,0.06,0.834,0.596c-0.019,0.468-0.14,0.956-0.698,1.118c-0.15,0.043-0.318,0.072-0.471,0.053
		c-1.641-0.214-2.714,0.196-2.85,2.127c-0.083,1.181-1.165,0.872-1.89,0.773c-0.841-0.114-0.543-0.79-0.435-1.309
		c0.344-1.634,0.764-3.254,1.028-4.899c0.178-1.107,0.713-1.453,1.773-1.375c1.029,0.076,2.068,0.012,3.104,0.021
		c0.565,0.005,1.152-0.013,1.087,0.842c-0.052,0.688-0.421,0.947-1.079,0.991C48.521,189.162,47.628,188.892,46.657,189.63z"/>
	<path fill-rule="evenodd" clip-rule="evenodd" fill="#3F4196" d="M99.35,188.174c0.01,0.72-0.352,1.181-1.146,1.103
		c-1.25-0.123-1.668,0.511-1.806,1.646c-0.124,1.019-0.463,2.008-0.653,3.021c-0.215,1.147-1.07,1.003-1.842,0.93
		c-1.045-0.1-0.675-0.845-0.559-1.434c0.153-0.777,0.304-1.558,0.51-2.322c0.273-1.013,0.487-1.927-1.092-1.858
		c-0.493,0.021-0.655-0.341-0.611-0.804c0.056-0.582,0.158-1.149,0.904-1.155c1.905-0.017,3.81-0.014,5.714,0.002
		C99.29,187.306,99.393,187.68,99.35,188.174z"/>
	<path fill-rule="evenodd" clip-rule="evenodd" fill="#3F4196" d="M99.005,194.834c0.436-2.065,0.81-3.911,1.218-5.749
		c0.405-1.827,0.421-1.823,2.687-1.629c-0.119,2.289-0.768,4.491-1.302,6.686C101.289,195.457,100.099,194.763,99.005,194.834z"/>
	<polygon fill-rule="evenodd" clip-rule="evenodd" fill="#3F4196" points="38.4,95.104 38.367,95.042 38.382,95.135 	"/>
	<path fill-rule="evenodd" clip-rule="evenodd" fill="#3F4196" d="M252.079,119.026c-0.269,0.212-0.572,0.235-0.895,0.167
		c-2.413-0.511-4.863-0.609-7.64-0.532c1.003-1.563,2.26-2.519,3.369-3.558c0.994-0.932,2.156-0.638,2.939,0.575
		c0.727,1.125,1.753,2.058,2.18,3.374L252.079,119.026z"/>
	<path fill-rule="evenodd" clip-rule="evenodd" fill="#3F4196" d="M294.171,99.481c-2.049-1.022-3.737-2.363-4.154-4.791
		c-0.066-0.386-0.043-0.792-0.02-1.187c0.024-0.429,0.246-0.788,0.68-0.849c0.519-0.072,0.596,0.371,0.702,0.756
		c0.251,0.914,0.487,1.833,0.787,2.731c0.423,1.266,1.533,1.985,2.402,2.893C294.436,99.183,294.304,99.332,294.171,99.481z"/>
	<path fill-rule="evenodd" clip-rule="evenodd" fill="#3F4196" d="M252.033,119.053c0.014-0.008,0.028-0.017,0.044-0.025
		C252.079,119.026,252.033,119.053,252.033,119.053z"/>
	<path fill-rule="evenodd" clip-rule="evenodd" fill="#3F4196" d="M386.625,113.925c-0.02,1.335-1.214,2.895-2.468,3.218
		c-0.809,0.208-1.417,0.056-1.545-0.919c-0.215-1.65,0.554-2.948,1.594-4.07c0.421-0.455,1.199-0.554,1.78-0.175
		C386.676,112.428,386.422,113.282,386.625,113.925z"/>
	<path fill-rule="evenodd" clip-rule="evenodd" fill="#3F4196" d="M335.062,108.211c1.09,0.044,1.954,1.097,1.897,2.312
		c-0.057,1.229-0.954,1.991-2.24,1.904c-0.839-0.056-1.992-1.382-2.014-2.314C332.684,109.161,333.918,108.165,335.062,108.211z"/>
	<path fill-rule="evenodd" clip-rule="evenodd" fill="#3F4196" d="M316.147,169.409c-0.791,0.031-0.834-0.319-0.819-0.612
		c0.021-0.425,0.2-0.754,0.735-0.626c0.338,0.081,0.665,0.347,0.619,0.604C316.615,169.153,316.256,169.411,316.147,169.409z"/>
	<path fill-rule="evenodd" clip-rule="evenodd" fill="#3F4196" d="M303.762,169.018c0.321,0.001,0.491,0.155,0.534,0.383
		c0.083,0.429-0.219,0.51-0.535,0.447c-0.208-0.04-0.425-0.174-0.375-0.466C303.427,169.138,303.555,168.992,303.762,169.018z"/>
	<path fill-rule="evenodd" clip-rule="evenodd" fill="#FEFEFE" d="M116.289,168.273c0.176-0.888,0.29-1.587,0.455-2.273
		c0.403-1.683,2.046-2.4,3.547-1.567c0.986,0.548,1.005,2.113-0.004,3.08C119.207,168.546,117.899,168.586,116.289,168.273z"/>
	<path fill-rule="evenodd" clip-rule="evenodd" fill="#FEFEFE" d="M79.649,191.687c0.098-0.418,0.258-1.112,0.424-1.806
		c0.1-0.417,0.307-0.715,0.794-0.708c0.56,0.008,0.958,0.323,1.016,0.82c0.124,1.063-0.134,2.061-0.993,2.775
		c-0.206,0.172-0.612,0.217-0.893,0.158C79.472,192.818,79.591,192.357,79.649,191.687z"/>
	<path fill-rule="evenodd" clip-rule="evenodd" fill="#FEFEFE" d="M84.509,192.493c0.164,0.504,0.039,0.861-0.506,1.01
		C83.609,192.884,83.787,192.552,84.509,192.493z"/>
	<path fill-rule="evenodd" clip-rule="evenodd" fill="#FEFEFE" d="M84.035,193.459c-0.016,0.331,0.091,0.789-0.522,0.512
		C83.463,193.571,83.446,193.206,84.035,193.459z"/>
	<path fill-rule="evenodd" clip-rule="evenodd" fill="#FEFEFE" d="M106.004,191.505c0.126-1.512,0.975-2.516,1.939-2.347
		c0.916,0.159,1.047,0.847,0.969,1.614c-0.139,1.358-1.036,2.385-1.979,2.249C105.957,192.881,105.983,192.132,106.004,191.505z"/>
	<path fill-rule="evenodd" clip-rule="evenodd" fill="#FEFEFE" d="M53.197,191.744c0.078-1.61,0.882-2.684,1.837-2.601
		c0.914,0.078,1.141,0.715,1.09,1.517c-0.083,1.318-0.932,2.407-1.876,2.368C53.257,192.986,53.188,192.271,53.197,191.744z"/>
	<path fill-rule="evenodd" clip-rule="evenodd" fill="#FEFEFE" d="M88.63,190.366c0.137,0.633,0.463,1.195-0.297,1.481
		c-0.095,0.035-0.351-0.085-0.376-0.178C87.813,191.149,88.075,190.779,88.63,190.366z"/>
</g>
</svg>
