<?xml version="1.0" encoding="utf-8"?>
<!-- Generator: Adobe Illustrator 16.0.0, SVG Export Plug-In . SVG Version: 6.00 Build 0)  -->
<!DOCTYPE svg PUBLIC "-//W3C//DTD SVG 1.1//EN" "http://www.w3.org/Graphics/SVG/1.1/DTD/svg11.dtd">
<svg version="1.1" id="Layer_1" xmlns="http://www.w3.org/2000/svg" xmlns:xlink="http://www.w3.org/1999/xlink" x="0px" y="0px"
	 width="311.838px" height="85.365px" viewBox="0 0 311.838 85.365" enable-background="new 0 0 311.838 85.365"
	 xml:space="preserve">
<path fill-rule="evenodd" clip-rule="evenodd" fill="#282526" d="M302.783,22.192c0-5.714-0.006-11.415,0.002-17.115
	c0.003-2.177,0.776-3.939,2.923-4.77c1.825-0.706,3.429-0.142,4.813,1.148c1.108,1.031,1.249,2.397,1.247,3.795
	c-0.013,12.87,0.231,25.747-0.121,38.608c-0.357,13.063-11.307,23.39-24.398,23.654c-13.108,0.266-24.581-10.021-25.323-23.123
	c-0.447-7.918-3.099-14.188-10.945-17.071c-10.32-3.792-20.87,3.652-21.247,14.803c-0.403,11.922-7.013,21.018-17.671,24.222
	c-7.057,2.121-13.83,1.483-20.134-2.468c-2.294-1.438-3.396-1.576-3.26,1.733c0.194,4.74,0.095,9.496,0.029,14.243
	c-0.049,3.444-2.052,5.822-4.752,5.479c-3.183-0.403-4.243-2.636-4.24-5.626c0.014-12.492-0.122-24.984,0.016-37.474
	c0.109-9.998,4.824-17.561,13.641-22.026c9.099-4.609,18.071-3.656,26.481,2.302c1.602,1.134,1.908,2.093,0.705,3.607
	c-0.462,0.581-0.885,1.234-1.15,1.922c-1.264,3.281-2.638,3.79-5.706,1.351c-5.717-4.544-13.686-3.985-19.382,0.697
	c-5.386,4.428-7.209,12.685-4.221,19.115c2.979,6.41,10.337,10.368,16.9,9.09c7.746-1.51,13.28-7.302,13.563-14.802
	c0.199-5.251,1.185-10.157,4.083-14.566c6.067-9.228,17.079-13.53,27.385-10.763c10.843,2.912,18.121,12.161,18.794,23.883
	c0.488,8.516,4.734,14.048,12.2,15.897c7.205,1.784,14.574-1.588,17.958-8.219c3.352-6.569,1.791-14.756-3.71-19.459
	c-5.609-4.795-13.763-5.073-19.807-0.934c-1.066,0.73-2.105,3.977-4.229,0.814c-3.728-5.554-3.856-6.08-0.647-8.199
	c8.709-5.75,17.659-6.207,26.844-1.115C300.365,21.349,301.144,22.285,302.783,22.192z"/>
<path fill-rule="evenodd" clip-rule="evenodd" fill="#94D358" d="M99.245,32.756c0,10.601,0.004,21.201-0.005,31.802
	c-0.001,1.247,0.028,2.508-0.142,3.737c-0.17,1.229-0.976,2.083-2.27,2.076c-1.22-0.008-2.19-0.673-2.461-1.911
	c-0.21-0.961-0.215-1.979-0.216-2.972c-0.012-13.116-0.016-26.233,0.002-39.35c0.002-1.704-0.438-3.733,1.653-4.562
	c2.374-0.941,3.322,1.161,4.412,2.565c8.799,11.341,17.546,22.724,26.325,34.081c0.421,0.545,0.581,1.427,1.867,1.421
	c0.051-1.155,0.149-2.332,0.15-3.509c0.012-10.244,0.017-20.488-0.001-30.731c-0.003-2.017,0.246-4.103,2.744-4.011
	c2.326,0.085,2.314,2.224,2.314,4.011c0.001,13.615-0.01,27.232-0.01,40.848c0,1.671,0.008,3.441-1.955,4.007
	c-1.888,0.544-2.947-0.857-3.963-2.18c-8.447-10.984-16.902-21.962-25.365-32.934c-0.734-0.953-1.534-1.854-2.304-2.778
	C99.762,32.497,99.503,32.627,99.245,32.756z"/>
<path fill-rule="evenodd" clip-rule="evenodd" fill="#94D358" d="M143.4,44.447c7.555-7.456,14.483-14.296,21.417-21.13
	c0.879-0.867,1.649-2,3.046-1.97c0.905,0.021,1.624,0.568,2.063,1.417c0.813,1.567-0.126,2.656-1.085,3.635
	c-4.546,4.639-9.025,9.354-13.76,13.793c-2.184,2.048-2.315,3.482-0.462,5.86c4.831,6.201,9.386,12.615,14.038,18.954
	c1.144,1.559,2.39,3.299,0.167,4.813c-2.084,1.418-3.153-0.459-4.18-1.833c-4.71-6.295-9.473-12.554-14.021-18.965
	c-1.458-2.056-2.275-1.859-3.964-0.291c-2.247,2.086-3.557,4.215-3.294,7.452c0.292,3.598,0.067,7.239,0.027,10.86
	c-0.018,1.585-0.35,3.195-2.274,3.294c-2.063,0.104-2.783-1.386-2.785-3.22c-0.015-14.238-0.01-28.478-0.006-42.718
	c0-1.733,0.803-3.072,2.56-3.074c1.79-0.002,2.511,1.393,2.512,3.105C143.403,30.88,143.4,37.33,143.4,44.447z"/>
<path fill-rule="evenodd" clip-rule="evenodd" fill="#94D358" d="M75.379,46.032c0,6.745,0.003,13.489-0.001,20.234
	c-0.001,1.764,0.181,3.883-2.246,4.005c-2.816,0.142-2.516-2.21-2.534-4.044c-0.046-4.745-0.061-9.492-0.012-14.238
	c0.025-2.47-0.876-3.509-3.54-3.418c-5.614,0.191-11.245,0.206-16.857-0.001c-3.048-0.113-4.276,0.788-4.136,3.973
	c0.207,4.737,0.03,9.49,0.034,14.236c0.001,1.717-0.113,3.477-2.321,3.563c-2.179,0.086-2.635-1.648-2.639-3.354
	c-0.037-14.114-0.031-28.228-0.01-42.342c0.002-1.618,0.548-3.169,2.42-3.195c2.101-0.029,2.569,1.563,2.562,3.381
	c-0.018,5.121,0.089,10.244-0.039,15.362c-0.058,2.328,0.519,3.416,3.103,3.355c6.117-0.145,12.241-0.129,18.359-0.001
	c2.124,0.044,2.929-0.739,2.931-2.76c0.005-5.118,0.14-10.237,0.066-15.354c-0.027-1.9-0.03-3.855,2.235-4.006
	c2.696-0.18,2.619,2.081,2.621,3.997C75.381,32.292,75.378,39.162,75.379,46.032z"/>
<path fill-rule="evenodd" clip-rule="evenodd" fill="#94D358" d="M15.592,47.479c0-5.493,0.002-10.984-0.001-16.477
	c-0.002-4.756-0.005-4.756-4.939-4.76c-2.497-0.001-4.993-0.002-7.489-0.006c-1.647-0.003-3.108-0.426-3.161-2.372
	c-0.058-2.1,1.347-2.71,3.228-2.708c9.985,0.017,19.971,0.011,29.957,0.006c1.691,0,3.009,0.491,3.049,2.46
	c0.045,2.2-1.375,2.654-3.23,2.627c-2.87-0.042-5.756,0.172-8.608-0.059c-2.844-0.23-3.655,0.835-3.622,3.598
	c0.128,10.607,0.06,21.218,0.041,31.827c-0.003,1.744-0.153,3.487-0.195,5.232c-0.041,1.696-0.11,3.514-2.368,3.49
	c-2.372-0.025-2.628-1.94-2.642-3.764c-0.038-5.118-0.017-10.235-0.019-15.354C15.592,49.975,15.592,48.727,15.592,47.479z"/>
<path fill-rule="evenodd" clip-rule="evenodd" fill="#282526" d="M246.081,67.516c-5.42,0.084-10.275-1.599-14.803-4.525
	c-1.839-1.189-2.461-2.303-0.845-4.096c0.495-0.548,0.868-1.226,1.207-1.89c1.333-2.623,2.424-3.374,5.463-1.262
	c5.743,3.993,12.097,3.795,17.827-0.394c2.214-1.618,2.946-1.024,4.174,0.93c3.53,5.627,3.555,5.87-2.534,8.751
	C253.268,66.592,249.767,67.477,246.081,67.516z"/>
<path fill-rule="evenodd" clip-rule="evenodd" fill="#94D358" d="M82.56,45.379c0-6.614-0.004-13.228,0.003-19.842
	c0.001-1.872-0.267-4.163,2.461-4.134c2.444,0.026,2.298,2.135,2.298,3.917c-0.005,13.602-0.008,27.204,0.004,40.806
	c0.001,1.937,0.08,4.18-2.524,4.134c-2.769-0.05-2.215-2.513-2.226-4.291C82.535,59.106,82.56,52.243,82.56,45.379z"/>
</svg>
