<?xml version="1.0" encoding="utf-8"?>
<!-- Generator: Adobe Illustrator 16.0.0, SVG Export Plug-In . SVG Version: 6.00 Build 0)  -->
<!DOCTYPE svg PUBLIC "-//W3C//DTD SVG 1.1//EN" "http://www.w3.org/Graphics/SVG/1.1/DTD/svg11.dtd">
<svg version="1.1" id="Layer_1" xmlns="http://www.w3.org/2000/svg" xmlns:xlink="http://www.w3.org/1999/xlink" x="0px" y="0px"
	 width="410.553px" height="242.601px" viewBox="0 0 410.553 242.601" enable-background="new 0 0 410.553 242.601"
	 xml:space="preserve">
<path fill="#8B0E1A" d="M128.649,129.261c-4.829-8.388-13.827-13.601-23.464-13.596c-11.865,0-22.231,7.604-25.787,18.881
	c-0.324,0.828-0.618,1.641-0.89,2.491c-0.583,1.803-1.977,6.795-3.708,13.134c-1.918,6.895-3.56,12.83-4.461,15.667
	c-1.353,4.341-7.167,18.523-24.475,18.817l-0.153,0.006c-0.556,0.042-1.163,0.063-1.792,0.057
	c-2.522,0.007-6.355-0.272-10.288-1.599c-8.001-2.689-13.249-8.479-15.582-17.202l-0.037-0.127
	c-0.515-1.703-4.991-17.124-5.999-31.543c-0.341-3.329-0.079-6.444,0.624-7.398c0.409-0.566,1.379-0.677,2.128-0.687
	c0.62,0,1.321,0.078,2.14,0.246l0.214,0.042c4.399,0.98,16.055,3.229,29.463,3.229c8.31,0,15.965-0.849,22.781-2.526
	c1.72-0.436,6.171-1.757,10.229-4.708c5.93-4.305,8.642-10.115,8.106-17.272c-0.398-5.138-3.613-17.098-24.905-17.098H62.5
	c-0.577,0.006-1.782,0.031-3.418,0.027c-6.878,0.004-23.495-0.352-29.372-3.634c-1.421-0.796-1.705-1.105-2.13-1.578l-0.204-0.21
	c-0.908-0.975-1.27-2.328-1.238-3.161c0.095-1.919,0.991-3.12,3.051-4.132l0.13-0.031c2.68-1.112,3.173-1.3,20.842-5.144
	c5.789-1.253,12.055-3.402,14.777-9.784c2.841-6.721,0.754-14.146-5.584-19.872c-3.376-3.03-6.812-5.756-9.375-7.765
	c-1.4-1.127-2.37-1.898-3.036-2.479c-3.35-2.89-5.379-5.244-5.819-8.747c-0.703-5.468,3.224-9.982,5.348-12.425
	c0.299-0.353,0.566-0.661,0.817-0.964c0.819-0.934,2.329-2.675,1.788-5.919C48.789,0.472,47.756,0.042,46.953,0l-0.146,0.005
	c-1.332-0.01-2.135,1.039-2.313,1.998c-0.23,1.028-0.452,1.563-1.175,2.397l-0.099,0.114c-0.164,0.185-0.854,0.944-0.95,1.029
	c-5.999,6.075-8.442,11.676-7.928,18.141c0.604,7.582,5.951,11.707,9.155,14.192l0.818,0.641c4.934,3.533,8.01,6.742,8.326,7.052
	l0.089,0.1c2.238,2.145,5.742,6.244,4.226,9.552c-1.456,3.157-7.329,4.588-9.264,5.061c-6.339,1.521-7.923,1.865-12.51,2.784
	c-10.425,2.081-13.812,4.724-15.333,5.903c-3.979,3.093-5.809,7.771-5.18,13.186c0.881,7.374,6.098,10.975,9.123,12.48
	c1.935,1.017,4.084,1.813,6.812,2.537c2.333,0.614,4.876,1.105,7.786,1.51c2.448,0.33,5.033,0.593,7.922,0.786
	c2.276,0.142,4.657,0.23,7.268,0.299c1.168,0.021,2.338,0.011,3.508,0l1.83-0.01l1.688,0.01c1.945,0.027,3.775,0.032,6.051,0.305
	c1.226,0.151,2.328,0.378,3.339,0.693c1.61,0.519,2.904,1.237,3.869,2.16c0.683,0.646,1.176,1.342,1.433,2.06
	c0.152,0.363,0.251,0.798,0.283,1.118c0.697,6.5-6.469,8.807-8.787,9.379c-5.864,1.537-12.611,2.323-20.062,2.313
	c-13.91,0.01-25.88-2.727-27.206-3.047c-2.275-0.491-4.321-0.755-6.109-0.749c-4.772,0-7.268,1.819-8.929,3.408
	c-4.95,4.771-4.609,14.916-4.378,17.911c1.097,14.523,5.149,29.409,6.359,33.619l0.058,0.146
	c4.258,15.913,15.021,22.572,23.286,25.361c5.521,1.861,10.632,2.239,13.926,2.244c1.284,0.006,2.17-0.052,2.574-0.094
	c25.488-1.386,31.307-16.013,35.559-26.699c1.254-3.203,2.333-7.808,3.493-12.662c2.302-9.595,4.892-20.46,9.307-25.073
	c2.364-2.584,6.202-4.104,10.527-4.158l0.211-0.011c4.026-0.005,7.959,1.688,10.759,4.661c2.699,2.831,4.031,6.376,3.749,9.963
	c-1.206,15.766-15.195,23.693-15.772,24.009c-1.236,0.608-2.584,0.938-3.89,0.934c-2.742,0.004-5.038-1.332-6.554-3.833
	c-0.017-0.011-1.159-1.421-1.39-4.599c0.01-0.214,0.064-1.336-0.508-1.95c-0.587-0.645-1.462-0.593-2.726,0.561
	c-0.205,0.253-4.982,6.393,0.9,16.134c0.143,0.209,3.661,5.106,10.738,5.096c3.398,0,7.052-1.143,10.865-3.422
	c0.204-0.138,20.711-12.904,20.847-33.343C132.449,141.935,132.822,135.716,128.649,129.261"/>
<path fill="#8B0E1A" d="M253.067,153.257c-7.634,11.44-11.655,11.331-11.655,11.331c-3.052,0.104-0.556-5.668-0.556-5.668
	c4.472-7.953,4.688-11.007,4.688-11.007c0.87-3.051-4.908-4.576-4.908-4.576c-6.098-1.421-3.486-2.617-3.486-2.617
	c1.746-1.421,3.371-2.731,3.371-2.731c1.543-1.625,0.231-3.261,0.231-3.261c-5.679-5.883-14.833,6.654-14.833,6.654
	c-3.482,4.681-0.431,8.283-0.431,8.283c-6.864,14.052-17.874,14.604-17.874,14.604c-5.453,0.224-4.132-5.553-4.132-5.553
	c14.167-2.176,14.383-13.623,14.383-13.623c0.535-8.398-7.414-8.294-7.414-8.294c-14.619,0.99-17.753,20.507-17.753,20.507
	c-2.831,3.586-7.079,6.527-7.079,6.527c-3.602,2.07-2.296-2.062-2.296-2.062c0.105-0.99,3.916-11.121,3.916-11.121
	c4.683-12.096-2.286-11.665-2.286-11.665c-5.678-0.431-13.842,7.864-13.842,7.864c-0.441-3.718,2.616-8.944,2.616-8.944
	c1.195-1.856,4.793-8.83,4.793-8.83c6.092-12.757-2.402-13.087-2.402-13.087c-14.713-1.835-16.123,37.075-16.123,37.075
	c-4.688,7.287-11.116,10.46-11.116,10.46c-6.108,3.266-5.127-2.727-5.127-2.727c0.655-4.467,2.831-13.083,2.831-13.083
	c0.755-0.109,4.578,0.332,4.578,0.332c3.707,0.214,4.902-2.947,4.902-2.947c2.186-6.103-2.496-5.233-2.496-5.233
	c-0.446,0.006-4.918,0.535-4.918,0.535c0.22-0.649,3.591-7.933,3.591-7.933c4.478-9.914-3.597-9.605-3.597-9.605
	c-12.42,1.096-10.56,17.878-10.56,17.878c-7.949-0.354-7.057,3.865-7.057,3.865c0.251,2.297,4.671,2.46,4.671,2.46
	c-3.261,10.795-3.381,17.113-3.381,17.113c-0.116,10.455,9.044,10.025,9.044,10.025c8.075,0.22,15.374-8.621,15.374-8.621
	c0.749,4.792,4.125,6.545,4.125,6.545c4.368,2.715,7.31,0.21,7.31,0.21c0.109-5.333,1.52-18.315,1.52-18.315
	c1.206-1.521,3.927-2.711,3.927-2.711c4.143-1.21,2.176,2.931,2.176,2.931c-0.535,1.421-2.711,7.861-2.711,7.861
	c-3.707,13.405,4.684,12.311,4.684,12.311c6.752,0,15.355-9.266,15.355-9.266c1.427,9.045,10.467,8.594,10.467,8.594
	c17.219-1.625,26.258-21.796,26.258-21.796c0.539,0.099,1.526,0.765,1.526,0.765c1.965,1.19,0.766,3.157,0.766,3.157
	c-1.753,3.927-3.047,8.62-3.047,8.62c-2.286,11.105,6.653,9.915,6.653,9.915c11.771-1.536,20.254-16.686,20.254-16.686
	C257.744,153.688,253.067,153.257,253.067,153.257 M206.629,145.518c2.292-1.41,2.615,1.085,2.615,1.085
	c0.552,5.689-5.216,6.45-5.216,6.45C203.907,147.164,206.629,145.518,206.629,145.518z"/>
<path fill="#FCB440" d="M300.93,131.749c0,0,3.486-1.61,3.393-6.396c0,0,0.372-9.306-11.75-9.49c0,0-14.676-0.65-16.553,18.519
	c0,0-0.095,7.525,4.698,12.89c0,0,9.212,10.805,8.662,15.608c0,0-0.188,5.83-5.742,5.83c0,0-9.768,1.505-9.777-16.548
	c0,0-0.655-1.516-3.388-1.421c0,0-7.981,0.109-8.27,13.171c0,0-0.193,14.471,18.152,15.037c0,0,18.709,0.284,20.868-18.996
	c0,0,1.216-7.529-7.612-17.579c0,0-8.385-9.019-4.615-14.75C288.996,127.623,291.749,124.152,300.93,131.749"/>
<path fill="#FCB440" d="M340.976,114.637c-10.67,0.519-9.998,7.376-9.998,7.376c0.078,2.244,1.336,2.842,1.336,2.842
	c14.021,0.216,11.798,18.336,11.798,18.336c-2.601,20.644-7.834,20.191-7.834,20.191c-2.988,0.157-2.297-5.064-2.297-5.064
	c0.871-11.561,8.195-15.809,8.195-15.809c0.509-4.168-2.999-4.021-2.999-4.021c-11.765,0.979-15.571,17.974-15.571,17.974
	c-5.669,7.832-8.048,6.264-8.048,6.264c-2.082-1.054,3.563-12.896,3.563-12.896c4.038-9.171,0.388-10.586,0.388-10.586
	c-5.594-3.346-12.226,6.931-12.226,6.931c-3.802,5.217-0.965,9.846-0.965,9.846c-2.706,4.547-3.132,10.876-3.132,10.876
	c-0.533,7.24,5.518,6.921,5.518,6.921c6.412,0.54,14.833-8.71,14.833-8.71c1.483,9.313,9.4,8.501,9.4,8.501
	c21.46-2.533,22.65-38.098,22.65-38.098C356.694,113.883,340.976,114.637,340.976,114.637"/>
<path fill="#FCB440" d="M388.337,153.792c0,0-0.923-0.819-1.956-0.919c0,0-7.457,11.048-16.758,11.347c0,0-4.403,0.613-3.78-5.72
	c0,0,14.309-2.154,14.408-13.711c0,0-0.01-8.07-8.074-8.164c0,0-13.905-0.205-17.282,23.207c0,0-1.725,13.899,11.358,13.794
	c0,0,11.848,0.1,22.377-15.845C388.63,157.781,389.847,155.327,388.337,153.792 M369.009,145.313c2.853-1.635,2.764,2.35,2.764,2.35
	c-0.413,5.421-5.416,5.211-5.416,5.211C366.65,146.534,369.009,145.313,369.009,145.313z"/>
<path fill="#FCB440" d="M321.381,133.53c1.122-1.482,4.011-6.218,4.011-6.218c2.197-3.77,0.184-5.951,0.184-5.951
	c-2.543-3.497-5.344-3.414-5.344-3.414c-4.556-0.004-4.366,7.797-4.366,7.797C315.954,133.792,321.381,133.53,321.381,133.53"/>
<path fill="#808285" d="M124.34,82.281c-0.22,0.32-0.546,0.556-0.928,0.704c-0.273,0.147-0.593,0.209-0.956,0.214
	c-0.612,0-1.137-0.167-1.573-0.492c-0.45-0.032-0.975-0.052-1.589-0.052h-2.035c-0.718,0.011-1.483,0.015-2.286,0.025
	c-0.807,0.027-1.662,0.042-2.579,0.064h-0.299c0,0.193,0,0.388-0.022,0.57c-0.004,0.178-0.021,0.363-0.021,0.557
	c-0.015,0.628-0.052,1.358-0.079,2.145c-0.025,0.786-0.046,1.579-0.041,2.392v3.528c0,1.662,0.021,3.188,0.063,4.571
	c0.046,1.4,0.136,2.396,0.283,3.047c0.524,0.44,0.782,0.975,0.782,1.62v0.168c-0.089,0.602-0.326,1.053-0.703,1.342
	c-0.394,0.298-0.817,0.44-1.29,0.446c-0.131,0-0.272-0.033-0.419-0.096l0.052,0.058c-0.477-0.095-0.955-0.335-1.446-0.74
	c-0.479-0.409-0.782-1.043-0.888-1.94c-0.141-0.981-0.251-2.128-0.298-3.408c-0.048-1.3-0.084-2.701-0.084-4.19
	c0.005-1.274,0.015-2.558,0.048-3.848c0.021-1.284,0.046-2.542,0.078-3.754c0.033-0.418,0.053-0.838,0.063-1.236
	c0.021-0.399,0.015-0.792,0.021-1.18c-0.975,0.031-2.003,0.042-3.078,0.037l-3.161,0.01c-1.107-0.005-2.151-0.016-3.136-0.026
	c-0.979-0.006-1.792-0.037-2.427-0.073c-0.619,0.005-1.112-0.199-1.483-0.609c-0.377-0.413-0.556-0.859-0.556-1.325v-0.096
	c0.031-0.467,0.179-0.875,0.471-1.226c0.289-0.353,0.739-0.525,1.353-0.52l0.084-0.005c1.158,0.068,2.469,0.099,3.948,0.105
	c1.462,0.021,3.025,0.025,4.661,0.031l3.984-0.006c1.358,0,2.69-0.021,4.001-0.052c1.164,0,2.271,0,3.345-0.017
	c1.058-0.004,2.045-0.025,2.973-0.01H121c0.582-0.004,1.112,0.006,1.583,0.031c0.808,0.006,1.369,0.188,1.705,0.578
	c0.34,0.392,0.502,0.828,0.508,1.289l-0.006,0.341C124.728,81.611,124.57,81.956,124.34,82.281"/>
<path fill="#808285" d="M146.908,97.172c0.031,0.156,0.037,0.33,0.031,0.502c0.006,0.325-0.079,0.64-0.262,0.954
	c-0.178,0.311-0.46,0.556-0.855,0.751c-1.238,0.556-2.375,1.005-3.408,1.346c-1.022,0.347-2.118,0.531-3.277,0.563l-0.251,0.004
	c-1.064,0-2.035-0.166-2.952-0.508c-0.918-0.324-1.736-0.938-2.46-1.83c-0.493-0.628-0.875-1.305-1.126-2.024
	c-0.236-0.729-0.436-1.353-0.577-1.882c-0.064-0.026-0.084-0.11-0.084-0.241c-0.168-0.562-0.361-0.834-0.583-0.834
	c-0.11-0.005-0.272,0.046-0.471,0.142c-0.215,0.094-0.473,0.22-0.771,0.35c-0.398,0.227-0.855,0.542-1.4,0.965
	c-0.54,0.404-1.106,0.871-1.703,1.369c-0.593,0.504-1.18,1.018-1.751,1.568c-0.566,0.535-1.049,1.063-1.468,1.551
	c-0.583,0.687-1.28,1.033-2.086,1.039c-0.519,0-0.975-0.164-1.363-0.498c-0.388-0.342-0.609-0.84-0.672-1.543
	c-0.079-1.047-0.147-2.107-0.193-3.171c-0.033-1.064-0.043-2.091-0.048-3.051c0.004-3.141,0.23-6.014,0.718-8.594
	c0.488-2.595,1.379-4.75,2.685-6.502l-0.046,0.027c0.204-0.319,0.451-0.571,0.759-0.703c0.299-0.135,0.604-0.199,0.907-0.193
	c0.352-0.005,0.692,0.069,0.997,0.236c0.728,0.355,1.075,0.865,1.079,1.504c-0.004,0.44-0.167,0.839-0.492,1.201
	c-0.593,0.697-1.06,1.572-1.417,2.622c-0.372,1.054-0.635,2.181-0.828,3.408c-0.195,1.222-0.325,2.491-0.398,3.802
	c-0.068,1.31-0.1,2.569-0.095,3.753l-0.004,0.881c0,0.284,0.015,0.539,0.031,0.792c0.394-0.388,0.828-0.766,1.3-1.159
	c0.461-0.388,0.923-0.766,1.39-1.106c0.456-0.352,0.89-0.661,1.305-0.954c0.419-0.288,0.782-0.545,1.091-0.729
	c0.604-0.362,1.222-0.64,1.825-0.849c0.612-0.216,1.189-0.319,1.741-0.315c0.392,0,0.823,0.079,1.3,0.248
	c0.656,0.236,1.189,0.624,1.579,1.105c0.382,0.478,0.66,1.17,0.822,2.066c0.11,0.583,0.284,1.201,0.483,1.863
	c0.209,0.66,0.436,1.143,0.692,1.452c0.272,0.31,0.566,0.546,0.859,0.718c0.309,0.163,0.833,0.236,1.552,0.241
	c0.688-0.005,1.448-0.135,2.261-0.403c0.813-0.257,1.813-0.656,3.02-1.184c0.33-0.158,0.618-0.248,0.869-0.248
	c0.353,0,0.661,0.11,0.939,0.335c0.257,0.211,0.471,0.483,0.645,0.792l-0.006-0.042C146.824,96.857,146.876,97.009,146.908,97.172"
	/>
<path fill="#808285" d="M161.956,98.332c0,0.334-0.089,0.649-0.289,0.943c-0.193,0.314-0.502,0.54-0.958,0.687l0.042-0.011
	c-0.216,0.079-0.457,0.167-0.697,0.257c-0.253,0.083-0.531,0.183-0.834,0.324c-0.587,0.219-1.238,0.466-1.972,0.75
	c-0.745,0.278-1.515,0.54-2.328,0.77c-0.833,0.226-1.682,0.436-2.564,0.577c-0.886,0.153-1.771,0.226-2.663,0.232
	c-0.74,0.004-1.437-0.053-2.066-0.158c-1.253-0.174-2.261-0.645-3.005-1.416c-1.027-0.969-1.531-2.223-1.535-3.744
	c0-0.283,0.01-0.534,0.042-0.817c0.031-0.251,0.068-0.508,0.116-0.76c0.282-1.574,0.744-2.979,1.4-4.206
	c0.644-1.216,1.299-2.238,1.929-3.067c1.336-1.646,2.489-2.7,3.497-3.214l-0.042,0.006c0.392-0.232,0.849-0.404,1.363-0.542
	c0.54-0.141,1.075-0.213,1.625-0.213c0.771,0.01,1.448,0.188,2.003,0.544c0.608,0.352,1.027,0.85,1.259,1.468
	c0.241,0.594,0.351,1.259,0.351,1.952c0,0.745-0.068,1.405-0.241,1.992c-0.243,0.854-0.697,1.662-1.348,2.444
	c-0.649,0.786-1.415,1.489-2.292,2.114c-0.865,0.624-1.819,1.132-2.819,1.535c-1.018,0.404-1.987,0.662-2.943,0.755
	c0,0.425,0.126,0.771,0.383,1.033c0.257,0.257,0.587,0.415,1.002,0.478c0.403,0.105,0.886,0.168,1.411,0.163
	c1.273,0,2.611-0.226,4.016-0.666c1.39-0.452,2.659-0.872,3.802-1.291c0.382-0.147,0.755-0.278,1.09-0.425
	c0.363-0.13,0.661-0.236,0.943-0.329c0.089-0.021,0.174-0.038,0.253-0.059c0.083-0.015,0.183-0.01,0.336-0.01
	c0.351-0.01,0.666,0.095,0.933,0.299c0.246,0.216,0.472,0.462,0.639,0.771l0.005-0.037C161.91,97.687,161.956,97.969,161.956,98.332
	 M152.885,89.062c0-0.089,0.006-0.174-0.025-0.273c-0.032-0.104-0.064-0.172-0.084-0.23c-0.058-0.048-0.172-0.079-0.336-0.079
	c-0.135,0-0.288,0.037-0.45,0.105c-0.168,0.073-0.33,0.131-0.467,0.183h0.048c-0.31,0.172-0.687,0.488-1.128,0.97
	c-0.478,0.467-0.934,1.023-1.374,1.652c-0.44,0.634-0.803,1.315-1.075,2.045c0.529-0.179,1.038-0.377,1.558-0.635
	c0.508-0.247,0.985-0.529,1.436-0.844c0.44-0.331,0.823-0.671,1.143-1.044c0.305-0.376,0.535-0.765,0.645-1.142v0.035
	C152.86,89.47,152.892,89.228,152.885,89.062z"/>
<path fill="#808285" d="M213.167,227.94c0.021,0.137,0.043,0.299,0.037,0.504c0,0.622-0.179,1.168-0.57,1.645
	c-0.363,0.473-0.939,0.797-1.732,1.002c-2.385,0.587-4.634,1.006-6.758,1.295c-2.103,0.257-4.105,0.41-5.988,0.421
	c-2.438-0.006-4.54-0.185-6.343-0.546c-2.559-0.498-4.504-1.259-5.847-2.281c-1.347-1.013-2.348-2.297-2.973-3.822
	c-0.351-0.745-0.604-1.525-0.755-2.35c-0.157-0.817-0.24-1.672-0.24-2.532c0-1.526,0.193-3.083,0.587-4.702
	c0.382-1.605,0.917-3.184,1.573-4.746c0.865-2.045,2.024-4.09,3.476-6.119c1.448-2.039,3.058-3.963,4.824-5.793
	c1.757-1.825,3.602-3.477,5.537-4.966c1.95-1.483,3.806-2.711,5.557-3.648c0.745-0.42,1.468-0.646,2.177-0.65
	c0.634,0.005,1.133,0.209,1.521,0.582c0.561,0.556,0.845,1.247,0.845,2.06c0.005,0.786-0.247,1.554-0.724,2.292l0.058,0.005
	c-0.655,1.138-1.553,1.705-2.696,1.698c-0.193-0.004-0.324-0.011-0.408-0.041c-1.342,0.765-2.773,1.767-4.29,2.968
	c-1.542,1.19-3.004,2.526-4.41,4.021c-1.405,1.489-2.695,3.078-3.875,4.761c-1.168,1.688-2.049,3.377-2.657,5.055
	c-0.394,1.137-0.718,2.313-1.018,3.486c-0.299,1.201-0.444,2.376-0.444,3.513c0,1.054,0.152,1.935,0.414,2.628
	c0.362,0.79,0.901,1.463,1.657,2.034c0.734,0.577,1.835,0.959,3.282,1.147c0.829,0.157,1.667,0.273,2.539,0.351
	c0.854,0.079,1.761,0.116,2.69,0.127c1.535-0.005,3.245-0.137,5.117-0.388c1.888-0.252,4-0.697,6.344-1.321
	c0.116-0.042,0.263-0.073,0.415-0.095c0.157-0.021,0.351-0.032,0.587-0.032c1.221,0.011,2.003,0.645,2.359,1.941l0.046,0.058
	C213.121,227.656,213.142,227.804,213.167,227.94"/>
<path fill="#808285" d="M244.872,223.501c0,0.477-0.115,0.923-0.347,1.353c-0.23,0.425-0.57,0.775-1.006,1.063
	c-1.332,0.708-2.836,1.358-4.514,1.956c-1.688,0.608-3.273,0.996-4.709,1.153c-0.278,0.042-0.556,0.058-0.813,0.052h-0.718
	c-1.296,0-2.319-0.203-3.078-0.612c-0.771-0.404-1.458-1.06-2.098-1.972l0.011,0.068c-0.284-0.393-0.53-0.954-0.755-1.668
	c-0.242-0.733-0.373-1.39-0.378-1.981c-0.1,0-0.216,0.063-0.346,0.183c-0.504,0.316-1.139,0.792-1.898,1.438
	c-0.771,0.645-1.578,1.331-2.443,2.08c-0.552,0.441-1.049,0.871-1.558,1.27c-0.498,0.408-0.965,0.813-1.441,1.19
	c-1.683,1.231-3.251,1.836-4.698,1.846c-1.222-0.006-2.266-0.378-3.113-1.118c-1.102-0.947-1.647-2.385-1.653-4.293
	c0.074-1.768,0.53-3.43,1.364-4.997c0.57-1.18,1.295-2.307,2.133-3.414c0.845-1.089,1.736-2.133,2.68-3.093
	c0.928-0.948,1.884-1.819,2.842-2.611c0.96-0.78,1.846-1.441,2.67-1.991c0.938-0.594,2.055-1.222,3.355-1.909
	c1.295-0.688,2.668-1.033,4.115-1.039c0.786,0,1.572,0.152,2.38,0.437c0.799,0.314,1.626,0.786,2.443,1.447
	c0.384,0.309,0.666,0.644,0.83,1c0.146,0.353,0.224,0.692,0.235,0.997c-0.012,0.509-0.132,0.97-0.367,1.357
	c-0.273,0.432-0.624,0.775-1.091,1.028c-0.456,0.251-0.939,0.377-1.489,0.393c-0.576-0.011-1.143-0.184-1.65-0.54
	c-0.274-0.23-0.566-0.398-0.919-0.498c-0.319-0.099-0.67-0.146-1.023-0.146c-1.095-0.005-2.374,0.509-3.863,1.541
	c-0.708,0.467-1.488,1.039-2.307,1.753c-0.817,0.707-1.625,1.472-2.434,2.311c-0.801,0.845-1.545,1.73-2.233,2.648
	c-0.691,0.923-1.232,1.793-1.625,2.616c-0.1,0.199-0.194,0.456-0.257,0.771c-0.052,0.314-0.083,0.603-0.083,0.886
	c0,0.263,0.025,0.42,0.046,0.468c0.011,0.072,0.043,0.12,0.132,0.115c0.235-0.006,0.561-0.178,1.001-0.53l0.686-0.524
	c0.631-0.514,1.354-1.11,2.151-1.793c0.817-0.692,1.631-1.369,2.479-2.034c0.844-0.66,1.656-1.301,2.453-1.902
	c0.819-0.613,1.533-1.118,2.151-1.506v0.052c1.026-0.622,1.997-0.943,2.945-0.943c0.782-0.005,1.433,0.242,1.936,0.713
	c0.508,0.467,0.761,1.195,0.771,2.183l-0.007,0.879c0,0.546,0.007,1.033,0.068,1.458c0.032,0.44,0.106,0.792,0.227,1.054
	c0.193,0.557,0.425,0.93,0.703,1.123c0.282,0.194,0.628,0.299,1.064,0.299h0.224c0.478-0.079,1.028-0.199,1.652-0.362
	c0.623-0.141,1.264-0.336,1.909-0.562c0.645-0.203,1.279-0.439,1.882-0.67c0.613-0.23,1.121-0.467,1.557-0.708
	c0.461-0.226,0.896-0.346,1.291-0.336c0.744-0.006,1.39,0.299,1.945,0.928v0.059C244.679,222.42,244.878,222.949,244.872,223.501"/>
<path fill="#808285" d="M262.322,194.724c-0.513,0.384-1.038,0.572-1.589,0.566c-0.067-0.005-0.136,0.011-0.179,0.021
	c-0.024,0.022-0.094,0.033-0.172,0.033c-0.55-0.006-1.027-0.168-1.474-0.494c-0.425-0.336-0.692-0.834-0.823-1.504l0.063,0.063
	c-0.104-0.226-0.172-0.467-0.167-0.703c-0.011-0.151-0.025-0.299-0.063-0.419c-0.047-0.042-0.072-0.073-0.068-0.105l0.007,0.047
	c-0.199-0.58-0.515-0.886-0.939-0.891l-0.115,0.01c-0.545,0.043-1.2,0.284-1.94,0.74c-0.749,0.446-1.457,1.006-2.107,1.672
	c-0.446,0.431-0.886,1.002-1.363,1.674c-0.473,0.697-0.881,1.362-1.231,2.032c-0.667,1.365-1.218,2.864-1.642,4.464
	c-0.431,1.62-0.809,3.309-1.111,5.111c1.362-0.151,2.814-0.31,4.372-0.467c1.547-0.157,3.099-0.336,4.672-0.529
	c0.074,0,0.147-0.01,0.236-0.041c0.078-0.017,0.157-0.017,0.23-0.017c0.786,0.006,1.399,0.247,1.814,0.761
	c0.44,0.513,0.666,1.09,0.655,1.756c0.005,0.593-0.188,1.18-0.593,1.772c-0.382,0.592-0.996,0.938-1.819,1.059h0.068
	c-1.259,0.236-2.543,0.421-3.881,0.556c-1.336,0.137-2.621,0.295-3.879,0.446c-0.425,0.074-0.875,0.12-1.321,0.184
	c-0.452,0.026-0.881,0.069-1.27,0.11c-0.162,1.367-0.246,2.742-0.278,4.137c-0.052,1.39-0.062,2.753-0.067,4.079
	c-0.005,1.724,0.041,3.402,0.115,5.028c0.079,1.63,0.2,3.146,0.361,4.535c0.147,1.379,0.315,2.61,0.498,3.66
	c0.174,1.064,0.388,1.882,0.614,2.479c0.109,0.356,0.34,0.661,0.707,0.943c0.068,0.116,0.185,0.258,0.325,0.436
	c0.131,0.179,0.257,0.362,0.384,0.556c0.272,0.509,0.409,0.991,0.409,1.463c0,0.63-0.278,1.217-0.834,1.767
	c-0.662,0.594-1.307,0.893-1.936,0.888c-0.624,0-1.153-0.143-1.589-0.41c-0.66-0.393-1.205-0.88-1.635-1.446
	c-0.436-0.571-0.809-1.307-1.128-2.192c-0.31-1.101-0.576-2.344-0.813-3.713c-0.234-1.362-0.424-2.799-0.57-4.283
	c-0.131-1.493-0.23-3.02-0.288-4.592c-0.054-1.563-0.09-3.116-0.09-4.636c-0.006-1.489,0.016-2.921,0.063-4.295
	c0.031-1.368,0.127-2.652,0.23-3.868c-0.823,0.114-1.682,0.173-2.584,0.173h-0.116c-0.869,0-1.505-0.252-1.923-0.771
	c-0.409-0.498-0.598-1.1-0.598-1.751l-0.006-0.126c-0.005-0.587,0.198-1.158,0.613-1.703c0.415-0.546,1.044-0.882,1.913-0.997
	h-0.063c0.892-0.089,1.537-0.146,1.883-0.188c0.188,0,0.43-0.011,0.681-0.021c0.253-0.026,0.488-0.054,0.724-0.096
	c0.319-2.223,0.762-4.419,1.338-6.579c0.556-2.155,1.284-4.148,2.191-5.994c0.551-1.017,1.102-1.949,1.673-2.815
	c0.577-0.86,1.189-1.641,1.861-2.354c0.378-0.389,0.886-0.834,1.483-1.315c0.604-0.489,1.285-0.96,2.065-1.385
	c0.751-0.44,1.568-0.808,2.408-1.092c0.832-0.292,1.703-0.444,2.605-0.444c0.953,0,1.781,0.162,2.505,0.467
	c0.719,0.324,1.338,0.732,1.841,1.232c0.524,0.502,0.918,1.095,1.217,1.745c0.293,0.645,0.457,1.29,0.492,1.908v-0.063
	c0.048,0.199,0.068,0.388,0.063,0.572v0.487c0,0.513-0.021,0.865-0.063,1.054v0.068
	C263.193,193.833,262.826,194.352,262.322,194.724"/>
<path fill="#808285" d="M282.776,223.375c-0.005,0.552-0.137,1.044-0.413,1.489c-0.268,0.457-0.72,0.782-1.344,0.985l0.054,0.007
	c-0.305,0.1-0.646,0.226-0.998,0.34c-0.36,0.11-0.744,0.247-1.185,0.409c-0.813,0.356-1.74,0.724-2.773,1.118
	c-1.043,0.392-2.145,0.755-3.298,1.074c-1.148,0.347-2.364,0.635-3.623,0.864c-1.242,0.231-2.496,0.357-3.738,0.361
	c-1.074,0-2.05-0.083-2.957-0.245c-0.891-0.184-1.704-0.467-2.4-0.84c-0.714-0.377-1.317-0.817-1.826-1.336
	c-1.451-1.364-2.171-3.152-2.181-5.338c0.005-0.44,0.026-0.822,0.053-1.179c0.046-0.353,0.104-0.725,0.183-1.107
	c0.398-2.239,1.055-4.242,1.987-6.003c0.896-1.758,1.815-3.257,2.711-4.462c0.913-1.144,1.778-2.104,2.627-2.896
	c0.833-0.766,1.609-1.321,2.313-1.63h-0.059c0.562-0.325,1.201-0.577,1.952-0.808c0.724-0.21,1.499-0.305,2.285-0.31
	c1.096,0,2.035,0.257,2.811,0.76c0.87,0.504,1.474,1.207,1.799,2.088c0.334,0.876,0.513,1.813,0.508,2.795
	c0,1.085-0.141,2.049-0.373,2.873c-0.34,1.253-0.969,2.449-1.892,3.56c-0.923,1.111-2.008,2.113-3.226,3.005
	c-1.236,0.876-2.568,1.614-4.01,2.186c-1.421,0.599-2.806,0.972-4.138,1.128c0.006,0.592,0.179,1.075,0.524,1.463
	c0.357,0.393,0.828,0.629,1.415,0.702c0.301,0.089,0.646,0.132,0.997,0.147c0.357,0.031,0.677,0.037,1.007,0.031
	c1.794,0.006,3.687-0.314,5.673-0.949c1.96-0.613,3.754-1.227,5.37-1.809c0.561-0.199,1.068-0.397,1.552-0.624
	c0.498-0.22,0.923-0.363,1.315-0.436c0.126-0.041,0.242-0.073,0.362-0.094c0.114-0.01,0.277-0.022,0.471-0.022
	c0.515-0.004,0.95,0.137,1.312,0.425c0.383,0.31,0.692,0.677,0.917,1.097l0.012-0.053
	C282.703,222.453,282.782,222.867,282.776,223.375 M269.957,210.101c0.005-0.151-0.026-0.295-0.058-0.414
	c-0.027-0.121-0.068-0.221-0.11-0.289c-0.085-0.089-0.241-0.12-0.467-0.12c-0.199,0-0.425,0.037-0.651,0.115
	c-0.24,0.068-0.46,0.152-0.649,0.231h0.063c-0.471,0.314-0.995,0.796-1.577,1.414c-0.667,0.666-1.316,1.458-1.94,2.387
	c-0.629,0.917-1.137,1.865-1.531,2.895c0.74-0.227,1.469-0.529,2.203-0.871c0.714-0.351,1.4-0.771,2.024-1.247
	c0.629-0.473,1.174-0.965,1.614-1.5c0.445-0.521,0.755-1.049,0.912-1.605v0.064C269.905,210.677,269.972,210.331,269.957,210.101z
	 M278.477,193.72c0.047,0.227,0.068,0.404,0.063,0.572c0.005,0.776-0.356,1.367-1.054,1.752c-0.51,0.314-1.139,0.687-1.914,1.122
	c-0.76,0.435-1.552,0.858-2.386,1.283c-0.817,0.436-1.609,0.861-2.396,1.274c-0.786,0.42-1.475,0.755-2.062,1.018
	c-0.282,0.089-0.513,0.173-0.701,0.241c-0.199,0.078-0.378,0.109-0.525,0.105c-0.519,0.015-0.896-0.105-1.148-0.357
	c-0.268-0.257-0.478-0.565-0.67-0.912c-0.205-0.319-0.299-0.655-0.299-1.006c0-0.751,0.471-1.421,1.404-2.056
	c0.577-0.273,1.264-0.613,2.024-0.998c0.766-0.392,1.53-0.801,2.333-1.209c0.766-0.41,1.531-0.813,2.249-1.207
	c0.729-0.388,1.384-0.745,1.966-1.054c0.283-0.206,0.656-0.293,1.123-0.293c0.748,0,1.325,0.345,1.767,1.054v0.063
	C278.366,193.317,278.451,193.5,278.477,193.72z"/>
<path d="M399.825,137.137v-11.248h2.23l2.659,7.962c0.246,0.741,0.425,1.297,0.537,1.665c0.129-0.407,0.33-1.01,0.603-1.803
	l2.706-7.824h1.992v11.248h-1.429v-9.409l-3.283,9.409h-1.34l-3.247-9.583v9.583H399.825z M393.12,137.137v-9.927h-3.708v-1.321
	h8.907v1.321h-3.708v9.927H393.12z"/>
</svg>
